M48
; DRILL file {KiCad 8.0.7} date 2025-01-01T14:01:46-0700
; FORMAT={-:-/ absolute / inch / decimal}
; #@! TF.CreationDate,2025-01-01T14:01:46-07:00
; #@! TF.GenerationSoftware,Kicad,Pcbnew,8.0.7
; #@! TF.FileFunction,Plated,1,4,PTH
FMAT,2
INCH
; #@! TA.AperFunction,Plated,PTH,ViaDrill
T1C0.0118
; #@! TA.AperFunction,Plated,PTH,ComponentDrill
T2C0.0394
%
G90
G05
T1
X-3.2795Y-0.188
X-3.2539Y1.31
X-3.2382Y0.5581
X-3.2362Y-0.9537
X-3.2343Y2.0659
X-3.2106Y-1.6821
X-3.1614Y-0.2785
X-3.1535Y-1.7451
X-3.1516Y1.2372
X-3.1417Y0.4695
X-3.1358Y-1.0423
X-3.1339Y1.9813
X-2.9508Y1.7352
X-2.9449Y0.9911
X-2.9429Y0.2352
X-2.9331Y-2.003
X-2.9193Y-0.5089
X-2.9094Y-1.2569
X-2.7402Y1.9419
X-2.7402Y1.1978
X-2.7382Y0.4439
X-2.7382Y-0.3022
X-2.7382Y-1.0502
X-2.7382Y-1.797
X-2.6811Y1.8041
X-2.6811Y1.06
X-2.6791Y0.3061
X-2.6791Y-0.44
X-2.6791Y-1.188
X-2.6791Y-1.9348
X-2.6174Y1.8783
X-2.6174Y1.1342
X-2.6155Y0.3802
X-2.6155Y-0.3658
X-2.6155Y-1.1139
X-2.6155Y-1.8607
X-2.4646Y-2.0246
X-2.4626Y-2.1742
X-2.313Y1.6014
X-2.313Y0.8573
X-2.311Y0.1033
X-2.311Y-0.6427
X-2.311Y-1.3907
X-2.311Y-2.1376
X-2.2579Y1.5463
X-2.2579Y0.8022
X-2.2559Y0.0482
X-2.2559Y-0.6978
X-2.2559Y-1.4459
X-2.2559Y-2.1927
X-2.2441Y1.3809
X-2.2407Y0.6345
X-2.2388Y-0.1194
X-2.2388Y-0.8655
X-2.2388Y-1.6135
X-2.2283Y1.5778
X-2.2283Y0.8337
X-2.2264Y0.0797
X-2.2264Y-0.6663
X-2.2264Y-1.4144
X-2.1693Y1.8406
X-2.1693Y1.0965
X-2.1673Y0.3425
X-2.1673Y-0.4035
X-2.1673Y-1.1516
X-2.1673Y-1.8984
X-2.1516Y1.5423
X-2.1516Y0.7982
X-2.1496Y0.0443
X-2.1496Y-0.7018
X-2.1496Y-1.4498
X-2.1496Y-2.1967
X-2.0984Y2.0974
X-2.0984Y1.3533
X-2.0974Y1.814
X-2.0974Y1.0699
X-2.0965Y0.5994
X-2.0965Y-0.1467
X-2.0965Y-0.8947
X-2.0965Y-1.6415
X-2.0955Y0.3159
X-2.0955Y-0.4301
X-2.0955Y-1.1781
X-2.0955Y-1.925
X-2.061Y2.1388
X-2.0571Y-0.1014
X-2.0531Y1.3967
X-2.0512Y-0.8494
X-2.0492Y-1.5955
X-2.0474Y1.7864
X-2.0474Y1.0423
X-2.0455Y0.2884
X-2.0455Y-0.4577
X-2.0455Y-1.2057
X-2.0455Y-1.9526
X-2.0433Y0.6486
X-2.0394Y1.5443
X-2.0394Y0.8002
X-2.0374Y1.8711
X-2.0374Y1.127
X-2.0374Y0.0463
X-2.0374Y-0.6998
X-2.0374Y-1.4478
X-2.0374Y-2.1947
X-2.0354Y0.373
X-2.0354Y-0.373
X-2.0354Y-1.1211
X-2.0354Y-1.8679
X-2.002Y1.8967
X-2.002Y1.1526
X-2.0Y0.3986
X-2.0Y-0.3474
X-2.0Y-1.0955
X-2.0Y-1.8423
X-1.998Y1.5876
X-1.998Y0.8435
X-1.9961Y0.0896
X-1.9961Y-0.6565
X-1.9961Y-1.4045
X-1.9961Y-2.1514
X-1.9488Y1.5443
X-1.9488Y0.8002
X-1.9469Y0.0463
X-1.9469Y-0.6998
X-1.9469Y-1.4478
X-1.9469Y-2.1947
X-1.9154Y-1.0128
X-1.9134Y-0.2648
X-1.9114Y-1.7589
X-1.9109Y1.9912
X-1.9109Y1.2352
X-1.9089Y0.4932
X-1.8974Y1.7766
X-1.8974Y1.0325
X-1.8955Y0.2785
X-1.8955Y-0.4675
X-1.8955Y-1.2156
X-1.8955Y-1.9624
X-1.8484Y2.003
X-1.8484Y1.2589
X-1.8465Y0.5049
X-1.8465Y-0.2411
X-1.8465Y-0.9892
X-1.8465Y-1.736
X-1.8209Y1.5404
X-1.8209Y0.7963
X-1.8189Y1.6211
X-1.8189Y0.877
X-1.8189Y0.0423
X-1.8189Y-0.7037
X-1.8189Y-1.4518
X-1.8189Y-2.1986
X-1.8169Y0.123
X-1.8169Y-0.623
X-1.8169Y-1.3711
X-1.8169Y-2.1179
X-1.7795Y1.8179
X-1.7795Y1.0738
X-1.7776Y0.3199
X-1.7776Y-0.4262
X-1.7776Y-1.1742
X-1.7776Y-1.9211
X-1.7421Y1.7648
X-1.7421Y1.0207
X-1.7402Y0.2667
X-1.7402Y-0.4793
X-1.7402Y-1.2274
X-1.7402Y-1.9742
X-1.7264Y1.6033
X-1.7264Y0.8593
X-1.7244Y0.1053
X-1.7244Y-0.6407
X-1.7244Y-1.3888
X-1.7244Y-2.1356
X-1.6909Y-0.1427
X-1.6909Y-0.8907
X-1.6909Y-1.6376
X-1.6831Y1.3612
X-1.6831Y0.6112
X-1.6742Y1.5591
X-1.6722Y0.8169
X-1.6693Y-0.4616
X-1.6634Y0.2746
X-1.6634Y0.0699
X-1.6634Y-0.6762
X-1.6634Y-1.4242
X-1.6634Y-2.1711
X-1.6614Y-1.2313
X-1.6594Y1.7667
X-1.6555Y1.9616
X-1.6555Y1.2175
X-1.6555Y1.0167
X-1.6535Y0.4636
X-1.6535Y-0.2825
X-1.6535Y-1.0305
X-1.6535Y-1.7774
X-1.6535Y-1.9754
X-1.6339Y1.5974
X-1.6339Y0.8533
X-1.6319Y0.0994
X-1.6319Y-0.6467
X-1.6319Y-1.3947
X-1.6319Y-2.1415
X-1.5984Y1.7884
X-1.5984Y1.0561
X-1.5984Y0.2805
X-1.5984Y-0.4616
X-1.5965Y-1.9439
X-1.5945Y1.9537
X-1.5945Y1.2096
X-1.5945Y-1.2116
X-1.5925Y0.4557
X-1.5925Y-0.2904
X-1.5925Y-1.0384
X-1.5925Y-1.7852
X-1.5906Y1.4774
X-1.5886Y0.7313
X-1.5866Y-0.0226
X-1.5866Y-0.7687
X-1.5866Y-1.5167
X-1.5177Y1.9528
X-1.5177Y1.2087
X-1.5157Y0.4547
X-1.5157Y-0.2913
X-1.5157Y-1.0394
X-1.5157Y-1.7862
X-1.498Y2.1742
X-1.4744Y1.4459
X-1.4724Y0.6919
X-1.4724Y-0.0541
X-1.4724Y-0.8022
X-1.4724Y-1.549
X-1.3858Y1.7687
X-1.3858Y1.0246
X-1.3839Y0.2707
X-1.3839Y-0.4754
X-1.3839Y-1.2234
X-1.3839Y-1.9703
X-1.3307Y1.7392
X-1.3307Y0.9951
X-1.3287Y0.2411
X-1.3287Y-0.5049
X-1.3287Y-1.253
X-1.3287Y-1.9998
X-1.3031Y1.1467
X-1.3012Y0.3927
X-1.3012Y-0.3533
X-1.3012Y-1.1014
X-1.3012Y-1.8482
X-1.2205Y1.9537
X-1.1811Y0.9026
X-1.1791Y1.6407
X-1.1791Y0.1486
X-1.1791Y-0.5974
X-1.1791Y-1.3455
X-1.1791Y-2.0923
X-0.9075Y2.0049
X-0.9075Y1.2608
X-0.9055Y0.5069
X-0.9055Y-0.2392
X-0.9055Y-0.9872
X-0.9055Y-1.7341
X-0.7894Y1.6722
X-0.7598Y-1.0581
X-0.7126Y1.3317
X-0.7067Y-1.6407
X-0.6988Y-0.1427
X-0.6949Y0.6152
X-0.6339Y1.8632
X-0.624Y1.938
X-0.624Y1.7805
X-0.5571Y1.7844
X-0.5551Y1.94
X-0.5098Y0.9163
X-0.4902Y1.936
X-0.4902Y1.7825
X-0.4862Y1.8652
X-0.2992Y0.438
X-0.2894Y1.938
X-0.2854Y0.94
X-0.1004Y-1.127
X-0.1004Y-1.188
X-0.0984Y-1.2431
X-0.0354Y-1.127
X0.0276Y-1.0935
X0.0295Y-1.1447
X0.0965Y-1.0955
X0.0965Y-1.1427
X0.0965Y-1.1939
X0.1063Y0.8396
X0.1437Y-1.1959
X0.1457Y-1.0955
X0.1457Y-1.1407
X0.1791Y0.9301
X0.2461Y0.5856
X0.2657Y1.938
X0.2815Y0.438
X0.2835Y0.9419
X0.4862Y0.8396
X0.8071Y1.9656
X0.8091Y1.2171
X0.8091Y0.4691
X0.8091Y-0.2789
X0.8091Y-1.027
X0.811Y-1.775
X0.9724Y1.9262
X0.9744Y1.1778
X0.9744Y0.4297
X0.9744Y-0.3183
X0.9744Y-1.0663
X0.9764Y-1.8144
X1.0079Y1.7352
X1.0098Y0.9868
X1.0098Y0.2388
X1.0098Y-0.5093
X1.0098Y-1.2573
X1.0118Y-2.0053
X1.2185Y1.9419
X1.2205Y1.1935
X1.2205Y0.4455
X1.2205Y-0.3026
X1.2205Y-1.0506
X1.2224Y-1.7986
X1.2717Y-0.6156
X1.2776Y1.8041
X1.2795Y1.0557
X1.2795Y0.3077
X1.2795Y-0.4404
X1.2795Y-1.1884
X1.2808Y-1.3727
X1.2815Y-1.9364
X1.2818Y-2.1198
X1.2835Y1.6457
X1.2835Y0.1325
X1.2874Y0.8858
X1.3412Y1.8783
X1.3432Y1.1298
X1.3432Y0.3818
X1.3432Y-0.3662
X1.3432Y-1.1142
X1.3452Y-1.8623
X1.437Y0.8967
X1.437Y0.1486
X1.439Y1.6447
X1.439Y-0.5994
X1.439Y-2.0955
X1.4409Y-1.3474
X1.5148Y2.1732
X1.5167Y1.4248
X1.5167Y0.6768
X1.5167Y-0.0713
X1.5167Y-0.8193
X1.5187Y-1.5673
X1.6457Y1.6014
X1.6476Y0.853
X1.6476Y0.1049
X1.6476Y-0.6431
X1.6476Y-1.3911
X1.6496Y-2.1392
X1.6516Y2.1329
X1.7067Y1.5699
X1.7087Y0.8215
X1.7087Y0.0734
X1.7087Y-0.6746
X1.7087Y-1.4226
X1.7106Y-2.1707
X1.7894Y1.8406
X1.7913Y1.0921
X1.7913Y0.3441
X1.7913Y-0.4039
X1.7913Y-1.152
X1.7933Y-1.9
X1.8346Y1.5659
X1.8366Y0.8175
X1.8366Y0.0695
X1.8366Y-0.6785
X1.8366Y-1.4266
X1.8386Y-2.1746
X1.8602Y2.0974
X1.8612Y1.814
X1.8622Y1.349
X1.8622Y0.601
X1.8622Y-0.147
X1.8622Y-0.8951
X1.8632Y1.0656
X1.8632Y0.3175
X1.8632Y-0.4305
X1.8632Y-1.1785
X1.8642Y2.1329
X1.8642Y-1.6431
X1.8652Y-1.9266
X1.8661Y1.3844
X1.8661Y0.6364
X1.8661Y-0.1116
X1.8661Y-0.8596
X1.8681Y-1.6077
X1.9112Y1.7864
X1.9132Y1.038
X1.9132Y0.29
X1.9132Y-0.4581
X1.9132Y-1.2061
X1.9152Y-1.9541
X1.9213Y1.8711
X1.9213Y1.5679
X1.9232Y1.1226
X1.9232Y0.8195
X1.9232Y0.3746
X1.9232Y0.0715
X1.9232Y-0.3734
X1.9232Y-0.6766
X1.9232Y-1.1215
X1.9232Y-1.4246
X1.9252Y-1.8695
X1.9252Y-2.1726
X1.9567Y1.8967
X1.9587Y1.1482
X1.9587Y0.4002
X1.9587Y-0.3478
X1.9587Y-1.0959
X1.9606Y1.5876
X1.9606Y-1.8439
X1.9626Y0.8392
X1.9626Y0.0911
X1.9626Y-0.6569
X1.9626Y-1.4049
X1.9646Y-2.153
X2.0236Y1.564
X2.0256Y0.8156
X2.0256Y0.0675
X2.0256Y-0.6805
X2.0256Y-1.4285
X2.0276Y-2.1766
X2.0413Y-1.7589
X2.0478Y1.9912
X2.0498Y1.2428
X2.0498Y0.4947
X2.0498Y-0.2533
X2.0498Y-1.0013
X2.0612Y1.7766
X2.0632Y1.0281
X2.0632Y0.2801
X2.0632Y-0.4679
X2.0632Y-1.2159
X2.0652Y-1.964
X2.1005Y1.2428
X2.1024Y-1.0013
X2.1102Y2.003
X2.1122Y0.5065
X2.1122Y-0.2415
X2.1142Y-1.7376
X2.1398Y1.6211
X2.1398Y1.5689
X2.1417Y0.8726
X2.1417Y0.8205
X2.1417Y0.1246
X2.1417Y0.0724
X2.1417Y-0.6234
X2.1417Y-0.6756
X2.1417Y-1.3715
X2.1417Y-1.4236
X2.1437Y-2.1195
X2.1437Y-2.1717
X2.1791Y1.8179
X2.1811Y1.0695
X2.1811Y0.3215
X2.1811Y-0.4266
X2.1811Y-1.1746
X2.1831Y-1.9226
X2.2165Y1.7648
X2.2185Y1.0163
X2.2185Y0.2683
X2.2185Y-0.4797
X2.2185Y-1.2278
X2.2205Y-1.9758
X2.2224Y1.6211
X2.2244Y0.8726
X2.2244Y0.1246
X2.2244Y-0.6234
X2.2244Y-1.3715
X2.2264Y-2.1195
X2.2795Y-1.6313
X2.2927Y-0.9128
X2.2943Y1.5689
X2.2963Y0.8205
X2.2963Y0.0724
X2.2963Y-0.6756
X2.2963Y-1.4236
X2.2972Y1.7608
X2.2972Y0.5833
X2.2982Y-2.1717
X2.3012Y2.0817
X2.3012Y1.0167
X2.3012Y-1.2352
X2.3012Y-1.9892
X2.3031Y1.9616
X2.3031Y1.3333
X2.3031Y0.2707
X2.3031Y-0.1628
X2.3031Y-0.4833
X2.3051Y1.2132
X2.3051Y0.4652
X2.3051Y-0.2829
X2.3051Y-1.0309
X2.3071Y-1.7789
X2.3248Y1.5974
X2.3268Y0.849
X2.3268Y0.101
X2.3268Y-0.647
X2.3268Y-1.3951
X2.3287Y-2.1431
X2.3563Y-1.2077
X2.3583Y1.0443
X2.3583Y-0.4557
X2.3602Y-1.9616
X2.3622Y1.7943
X2.3622Y0.2844
X2.3642Y1.9537
X2.3661Y1.2053
X2.3661Y0.4573
X2.3661Y-0.2907
X2.3661Y-1.0388
X2.3681Y-1.7868
X2.4163Y1.5256
X2.4173Y0.7762
X2.4173Y0.0281
X2.4173Y-0.7199
X2.4173Y-1.4679
X2.4409Y1.9528
X2.4429Y1.2043
X2.4429Y0.4563
X2.4429Y-0.2917
X2.4429Y-1.0398
X2.4449Y-1.7878
X2.4606Y2.1742
X2.5039Y1.4219
X2.5039Y0.6738
X2.5039Y-0.0742
X2.5039Y-0.8222
X2.5059Y-1.5703
X2.5728Y1.7687
X2.5748Y1.0203
X2.5748Y0.2722
X2.5748Y-0.4758
X2.5748Y-1.2238
X2.5768Y-1.9719
X2.628Y1.7392
X2.6299Y0.9907
X2.6299Y0.2427
X2.6299Y-0.5053
X2.6299Y-1.2533
X2.6319Y-2.0014
X2.7382Y1.9537
X2.7402Y1.2053
X2.7402Y0.4573
X2.7402Y-0.2907
X2.7402Y-1.0388
X2.7421Y-1.7868
X2.7815Y0.8923
X2.7815Y0.1443
X2.7815Y-0.6037
X2.7815Y-1.3518
X2.7835Y-2.0998
X2.811Y1.6457
X3.0512Y2.0049
X3.0531Y1.2565
X3.0531Y0.5085
X3.0531Y-0.2396
X3.0531Y-0.9876
X3.0551Y-1.7356
X3.1516Y1.9793
X3.1811Y0.4715
X3.185Y1.2234
X3.1909Y-0.2628
X3.2008Y-1.0285
X3.2008Y-1.7608
T2
X-3.2504Y2.1976
X-3.2504Y1.5976
X-3.2504Y1.4387
X-3.2504Y0.8387
X-3.2504Y0.6797
X-3.2504Y0.0797
X-3.2504Y-0.0793
X-3.2504Y-0.6793
X-3.2504Y-0.8383
X-3.2504Y-1.4383
X-3.2504Y-1.5972
X-3.2504Y-2.1972
X-3.1504Y2.1976
X-3.1504Y1.5976
X-3.1504Y1.4387
X-3.1504Y0.8387
X-3.1504Y0.6797
X-3.1504Y0.0797
X-3.1504Y-0.0793
X-3.1504Y-0.6793
X-3.1504Y-0.8383
X-3.1504Y-1.4383
X-3.1504Y-1.5972
X-3.1504Y-2.1972
X-3.0504Y2.1976
X-3.0504Y1.5976
X-3.0504Y1.4387
X-3.0504Y0.8387
X-3.0504Y0.6797
X-3.0504Y0.0797
X-3.0504Y-0.0793
X-3.0504Y-0.6793
X-3.0504Y-0.8383
X-3.0504Y-1.4383
X-3.0504Y-1.5972
X-3.0504Y-2.1972
X-2.9504Y2.1976
X-2.9504Y1.5976
X-2.9504Y1.4387
X-2.9504Y0.8387
X-2.9504Y0.6797
X-2.9504Y0.0797
X-2.9504Y-0.0793
X-2.9504Y-0.6793
X-2.9504Y-0.8383
X-2.9504Y-1.4383
X-2.9504Y-1.5972
X-2.9504Y-2.1972
X-2.8504Y2.1976
X-2.8504Y1.5976
X-2.8504Y1.4387
X-2.8504Y0.8387
X-2.8504Y0.6797
X-2.8504Y0.0797
X-2.8504Y-0.0793
X-2.8504Y-0.6793
X-2.8504Y-0.8383
X-2.8504Y-1.4383
X-2.8504Y-1.5972
X-2.8504Y-2.1972
X-2.7504Y2.1976
X-2.7504Y1.5976
X-2.7504Y1.4387
X-2.7504Y0.8387
X-2.7504Y0.6797
X-2.7504Y0.0797
X-2.7504Y-0.0793
X-2.7504Y-0.6793
X-2.7504Y-0.8383
X-2.7504Y-1.4383
X-2.7504Y-1.5972
X-2.7504Y-2.1972
X-1.2501Y2.1976
X-1.2501Y1.5976
X-1.2501Y1.4387
X-1.2501Y0.8387
X-1.2501Y0.6797
X-1.2501Y0.0797
X-1.2501Y-0.0793
X-1.2501Y-0.6793
X-1.2501Y-0.8383
X-1.2501Y-1.4383
X-1.2501Y-1.5972
X-1.2501Y-2.1972
X-1.1501Y2.1976
X-1.1501Y1.5976
X-1.1501Y1.4387
X-1.1501Y0.8387
X-1.1501Y0.6797
X-1.1501Y0.0797
X-1.1501Y-0.0793
X-1.1501Y-0.6793
X-1.1501Y-0.8383
X-1.1501Y-1.4383
X-1.1501Y-1.5972
X-1.1501Y-2.1972
X-1.0501Y2.1976
X-1.0501Y1.5976
X-1.0501Y1.4387
X-1.0501Y0.8387
X-1.0501Y0.6797
X-1.0501Y0.0797
X-1.0501Y-0.0793
X-1.0501Y-0.6793
X-1.0501Y-0.8383
X-1.0501Y-1.4383
X-1.0501Y-1.5972
X-1.0501Y-2.1972
X-0.9501Y2.1976
X-0.9501Y1.5976
X-0.9501Y1.4387
X-0.9501Y0.8387
X-0.9501Y0.6797
X-0.9501Y0.0797
X-0.9501Y-0.0793
X-0.9501Y-0.6793
X-0.9501Y-0.8383
X-0.9501Y-1.4383
X-0.9501Y-1.5972
X-0.9501Y-2.1972
X-0.8501Y2.1976
X-0.8501Y1.5976
X-0.8501Y1.4387
X-0.8501Y0.8387
X-0.8501Y0.6797
X-0.8501Y0.0797
X-0.8501Y-0.0793
X-0.8501Y-0.6793
X-0.8501Y-0.8383
X-0.8501Y-1.4383
X-0.8501Y-1.5972
X-0.8501Y-2.1972
X-0.7501Y2.1976
X-0.7501Y1.5976
X-0.7501Y1.4387
X-0.7501Y0.8387
X-0.7501Y0.6797
X-0.7501Y0.0797
X-0.7501Y-0.0793
X-0.7501Y-0.6793
X-0.7501Y-0.8383
X-0.7501Y-1.4383
X-0.7501Y-1.5972
X-0.7501Y-2.1972
X-0.4075Y-0.0994
X-0.4075Y-0.1994
X-0.4075Y-0.2994
X-0.4075Y-0.3994
X-0.4075Y-0.4994
X-0.4075Y-0.5994
X0.3925Y-0.0994
X0.3925Y-0.1994
X0.3925Y-0.2994
X0.3925Y-0.3994
X0.3925Y-0.4994
X0.3925Y-0.5994
X0.7501Y2.1976
X0.7501Y1.5976
X0.7501Y1.4387
X0.7501Y0.8387
X0.7501Y0.6797
X0.7501Y0.0797
X0.7501Y-0.0793
X0.7501Y-0.6793
X0.7501Y-0.8383
X0.7501Y-1.4383
X0.7501Y-1.5972
X0.7501Y-2.1972
X0.8501Y2.1976
X0.8501Y1.5976
X0.8501Y1.4387
X0.8501Y0.8387
X0.8501Y0.6797
X0.8501Y0.0797
X0.8501Y-0.0793
X0.8501Y-0.6793
X0.8501Y-0.8383
X0.8501Y-1.4383
X0.8501Y-1.5972
X0.8501Y-2.1972
X0.9501Y2.1976
X0.9501Y1.5976
X0.9501Y1.4387
X0.9501Y0.8387
X0.9501Y0.6797
X0.9501Y0.0797
X0.9501Y-0.0793
X0.9501Y-0.6793
X0.9501Y-0.8383
X0.9501Y-1.4383
X0.9501Y-1.5972
X0.9501Y-2.1972
X1.0501Y2.1976
X1.0501Y1.5976
X1.0501Y1.4387
X1.0501Y0.8387
X1.0501Y0.6797
X1.0501Y0.0797
X1.0501Y-0.0793
X1.0501Y-0.6793
X1.0501Y-0.8383
X1.0501Y-1.4383
X1.0501Y-1.5972
X1.0501Y-2.1972
X1.1501Y2.1976
X1.1501Y1.5976
X1.1501Y1.4387
X1.1501Y0.8387
X1.1501Y0.6797
X1.1501Y0.0797
X1.1501Y-0.0793
X1.1501Y-0.6793
X1.1501Y-0.8383
X1.1501Y-1.4383
X1.1501Y-1.5972
X1.1501Y-2.1972
X1.2501Y2.1976
X1.2501Y1.5976
X1.2501Y1.4387
X1.2501Y0.8387
X1.2501Y0.6797
X1.2501Y0.0797
X1.2501Y-0.0793
X1.2501Y-0.6793
X1.2501Y-0.8383
X1.2501Y-1.4383
X1.2501Y-1.5972
X1.2501Y-2.1972
X2.7504Y2.1976
X2.7504Y1.5976
X2.7504Y1.4387
X2.7504Y0.8387
X2.7504Y0.6797
X2.7504Y0.0797
X2.7504Y-0.0793
X2.7504Y-0.6793
X2.7504Y-0.8383
X2.7504Y-1.4383
X2.7504Y-1.5972
X2.7504Y-2.1972
X2.8504Y2.1976
X2.8504Y1.5976
X2.8504Y1.4387
X2.8504Y0.8387
X2.8504Y0.6797
X2.8504Y0.0797
X2.8504Y-0.0793
X2.8504Y-0.6793
X2.8504Y-0.8383
X2.8504Y-1.4383
X2.8504Y-1.5972
X2.8504Y-2.1972
X2.9504Y2.1976
X2.9504Y1.5976
X2.9504Y1.4387
X2.9504Y0.8387
X2.9504Y0.6797
X2.9504Y0.0797
X2.9504Y-0.0793
X2.9504Y-0.6793
X2.9504Y-0.8383
X2.9504Y-1.4383
X2.9504Y-1.5972
X2.9504Y-2.1972
X3.0504Y2.1976
X3.0504Y1.5976
X3.0504Y1.4387
X3.0504Y0.8387
X3.0504Y0.6797
X3.0504Y0.0797
X3.0504Y-0.0793
X3.0504Y-0.6793
X3.0504Y-0.8383
X3.0504Y-1.4383
X3.0504Y-1.5972
X3.0504Y-2.1972
X3.1504Y2.1976
X3.1504Y1.5976
X3.1504Y1.4387
X3.1504Y0.8387
X3.1504Y0.6797
X3.1504Y0.0797
X3.1504Y-0.0793
X3.1504Y-0.6793
X3.1504Y-0.8383
X3.1504Y-1.4383
X3.1504Y-1.5972
X3.1504Y-2.1972
X3.2504Y2.1976
X3.2504Y1.5976
X3.2504Y1.4387
X3.2504Y0.8387
X3.2504Y0.6797
X3.2504Y0.0797
X3.2504Y-0.0793
X3.2504Y-0.6793
X3.2504Y-0.8383
X3.2504Y-1.4383
X3.2504Y-1.5972
X3.2504Y-2.1972
T2
G00X-0.1457Y-1.9003
M15
G01X-0.1457Y-1.8216
M16
G05
G00X0.0118Y-2.046
M15
G01X-0.0669Y-2.046
M16
G05
G00X0.0906Y-1.9003
M15
G01X0.0906Y-1.8216
M16
G05
M30
