%TF.GenerationSoftware,KiCad,Pcbnew,8.0.7*%
%TF.CreationDate,2025-01-01T14:01:46-07:00*%
%TF.ProjectId,newSSSPanel,6e657753-5353-4506-916e-656c2e6b6963,rev?*%
%TF.SameCoordinates,Original*%
%TF.FileFunction,Soldermask,Bot*%
%TF.FilePolarity,Negative*%
%FSLAX46Y46*%
G04 Gerber Fmt 4.6, Leading zero omitted, Abs format (unit mm)*
G04 Created by KiCad (PCBNEW 8.0.7) date 2025-01-01 14:01:46*
%MOMM*%
%LPD*%
G01*
G04 APERTURE LIST*
G04 Aperture macros list*
%AMRoundRect*
0 Rectangle with rounded corners*
0 $1 Rounding radius*
0 $2 $3 $4 $5 $6 $7 $8 $9 X,Y pos of 4 corners*
0 Add a 4 corners polygon primitive as box body*
4,1,4,$2,$3,$4,$5,$6,$7,$8,$9,$2,$3,0*
0 Add four circle primitives for the rounded corners*
1,1,$1+$1,$2,$3*
1,1,$1+$1,$4,$5*
1,1,$1+$1,$6,$7*
1,1,$1+$1,$8,$9*
0 Add four rect primitives between the rounded corners*
20,1,$1+$1,$2,$3,$4,$5,0*
20,1,$1+$1,$4,$5,$6,$7,0*
20,1,$1+$1,$6,$7,$8,$9,0*
20,1,$1+$1,$8,$9,$2,$3,0*%
G04 Aperture macros list end*
%ADD10C,0.010000*%
%ADD11R,1.500000X1.500000*%
%ADD12C,1.500000*%
%ADD13RoundRect,0.250000X0.475000X-0.337500X0.475000X0.337500X-0.475000X0.337500X-0.475000X-0.337500X0*%
%ADD14RoundRect,0.150000X-0.150000X0.875000X-0.150000X-0.875000X0.150000X-0.875000X0.150000X0.875000X0*%
%ADD15RoundRect,0.250000X0.850000X0.550000X-0.850000X0.550000X-0.850000X-0.550000X0.850000X-0.550000X0*%
%ADD16RoundRect,0.250000X0.450000X-0.350000X0.450000X0.350000X-0.450000X0.350000X-0.450000X-0.350000X0*%
%ADD17O,1.700000X1.700000*%
%ADD18R,1.700000X1.700000*%
%ADD19R,2.150000X2.250000*%
%ADD20RoundRect,0.875000X0.875000X0.875000X-0.875000X0.875000X-0.875000X-0.875000X0.875000X-0.875000X0*%
%ADD21RoundRect,0.750000X0.750000X1.000000X-0.750000X1.000000X-0.750000X-1.000000X0.750000X-1.000000X0*%
%ADD22R,3.500000X3.500000*%
%ADD23R,0.800000X0.900000*%
G04 APERTURE END LIST*
D10*
%TO.C,U37*%
X11140000Y10225000D02*
X8040000Y10225000D01*
X8024000Y10225000D01*
X8009000Y10227000D01*
X7993000Y10229000D01*
X7978000Y10232000D01*
X7962000Y10235000D01*
X7947000Y10240000D01*
X7932000Y10245000D01*
X7918000Y10251000D01*
X7904000Y10258000D01*
X7890000Y10265000D01*
X7877000Y10273000D01*
X7864000Y10282000D01*
X7851000Y10292000D01*
X7839000Y10302000D01*
X7828000Y10313000D01*
X7817000Y10324000D01*
X7807000Y10336000D01*
X7797000Y10349000D01*
X7788000Y10362000D01*
X7780000Y10375000D01*
X7773000Y10389000D01*
X7766000Y10403000D01*
X7760000Y10417000D01*
X7755000Y10432000D01*
X7750000Y10447000D01*
X7747000Y10463000D01*
X7744000Y10478000D01*
X7742000Y10494000D01*
X7740000Y10509000D01*
X7740000Y10525000D01*
X7740000Y11725000D01*
X7740000Y11741000D01*
X7742000Y11756000D01*
X7744000Y11772000D01*
X7747000Y11787000D01*
X7750000Y11803000D01*
X7755000Y11818000D01*
X7760000Y11833000D01*
X7766000Y11847000D01*
X7773000Y11861000D01*
X7780000Y11875000D01*
X7788000Y11888000D01*
X7797000Y11901000D01*
X7807000Y11914000D01*
X7817000Y11926000D01*
X7828000Y11937000D01*
X7839000Y11948000D01*
X7851000Y11958000D01*
X7864000Y11968000D01*
X7877000Y11977000D01*
X7890000Y11985000D01*
X7904000Y11992000D01*
X7918000Y11999000D01*
X7932000Y12005000D01*
X7947000Y12010000D01*
X7962000Y12015000D01*
X7978000Y12018000D01*
X7993000Y12021000D01*
X8009000Y12023000D01*
X8024000Y12025000D01*
X8040000Y12025000D01*
X11140000Y12025000D01*
X11140000Y10225000D01*
G36*
X11140000Y10225000D02*
G01*
X8040000Y10225000D01*
X8024000Y10225000D01*
X8009000Y10227000D01*
X7993000Y10229000D01*
X7978000Y10232000D01*
X7962000Y10235000D01*
X7947000Y10240000D01*
X7932000Y10245000D01*
X7918000Y10251000D01*
X7904000Y10258000D01*
X7890000Y10265000D01*
X7877000Y10273000D01*
X7864000Y10282000D01*
X7851000Y10292000D01*
X7839000Y10302000D01*
X7828000Y10313000D01*
X7817000Y10324000D01*
X7807000Y10336000D01*
X7797000Y10349000D01*
X7788000Y10362000D01*
X7780000Y10375000D01*
X7773000Y10389000D01*
X7766000Y10403000D01*
X7760000Y10417000D01*
X7755000Y10432000D01*
X7750000Y10447000D01*
X7747000Y10463000D01*
X7744000Y10478000D01*
X7742000Y10494000D01*
X7740000Y10509000D01*
X7740000Y10525000D01*
X7740000Y11725000D01*
X7740000Y11741000D01*
X7742000Y11756000D01*
X7744000Y11772000D01*
X7747000Y11787000D01*
X7750000Y11803000D01*
X7755000Y11818000D01*
X7760000Y11833000D01*
X7766000Y11847000D01*
X7773000Y11861000D01*
X7780000Y11875000D01*
X7788000Y11888000D01*
X7797000Y11901000D01*
X7807000Y11914000D01*
X7817000Y11926000D01*
X7828000Y11937000D01*
X7839000Y11948000D01*
X7851000Y11958000D01*
X7864000Y11968000D01*
X7877000Y11977000D01*
X7890000Y11985000D01*
X7904000Y11992000D01*
X7918000Y11999000D01*
X7932000Y12005000D01*
X7947000Y12010000D01*
X7962000Y12015000D01*
X7978000Y12018000D01*
X7993000Y12021000D01*
X8009000Y12023000D01*
X8024000Y12025000D01*
X8040000Y12025000D01*
X11140000Y12025000D01*
X11140000Y10225000D01*
G37*
X11140000Y22925000D02*
X8040000Y22925000D01*
X8024000Y22925000D01*
X8009000Y22927000D01*
X7993000Y22929000D01*
X7978000Y22932000D01*
X7962000Y22935000D01*
X7947000Y22940000D01*
X7932000Y22945000D01*
X7918000Y22951000D01*
X7904000Y22958000D01*
X7890000Y22965000D01*
X7877000Y22973000D01*
X7864000Y22982000D01*
X7851000Y22992000D01*
X7839000Y23002000D01*
X7828000Y23013000D01*
X7817000Y23024000D01*
X7807000Y23036000D01*
X7797000Y23049000D01*
X7788000Y23062000D01*
X7780000Y23075000D01*
X7773000Y23089000D01*
X7766000Y23103000D01*
X7760000Y23117000D01*
X7755000Y23132000D01*
X7750000Y23147000D01*
X7747000Y23163000D01*
X7744000Y23178000D01*
X7742000Y23194000D01*
X7740000Y23209000D01*
X7740000Y23225000D01*
X7740000Y24425000D01*
X7740000Y24441000D01*
X7742000Y24456000D01*
X7744000Y24472000D01*
X7747000Y24487000D01*
X7750000Y24503000D01*
X7755000Y24518000D01*
X7760000Y24533000D01*
X7766000Y24547000D01*
X7773000Y24561000D01*
X7780000Y24575000D01*
X7788000Y24588000D01*
X7797000Y24601000D01*
X7807000Y24614000D01*
X7817000Y24626000D01*
X7828000Y24637000D01*
X7839000Y24648000D01*
X7851000Y24658000D01*
X7864000Y24668000D01*
X7877000Y24677000D01*
X7890000Y24685000D01*
X7904000Y24692000D01*
X7918000Y24699000D01*
X7932000Y24705000D01*
X7947000Y24710000D01*
X7962000Y24715000D01*
X7978000Y24718000D01*
X7993000Y24721000D01*
X8009000Y24723000D01*
X8024000Y24725000D01*
X8040000Y24725000D01*
X11140000Y24725000D01*
X11140000Y22925000D01*
G36*
X11140000Y22925000D02*
G01*
X8040000Y22925000D01*
X8024000Y22925000D01*
X8009000Y22927000D01*
X7993000Y22929000D01*
X7978000Y22932000D01*
X7962000Y22935000D01*
X7947000Y22940000D01*
X7932000Y22945000D01*
X7918000Y22951000D01*
X7904000Y22958000D01*
X7890000Y22965000D01*
X7877000Y22973000D01*
X7864000Y22982000D01*
X7851000Y22992000D01*
X7839000Y23002000D01*
X7828000Y23013000D01*
X7817000Y23024000D01*
X7807000Y23036000D01*
X7797000Y23049000D01*
X7788000Y23062000D01*
X7780000Y23075000D01*
X7773000Y23089000D01*
X7766000Y23103000D01*
X7760000Y23117000D01*
X7755000Y23132000D01*
X7750000Y23147000D01*
X7747000Y23163000D01*
X7744000Y23178000D01*
X7742000Y23194000D01*
X7740000Y23209000D01*
X7740000Y23225000D01*
X7740000Y24425000D01*
X7740000Y24441000D01*
X7742000Y24456000D01*
X7744000Y24472000D01*
X7747000Y24487000D01*
X7750000Y24503000D01*
X7755000Y24518000D01*
X7760000Y24533000D01*
X7766000Y24547000D01*
X7773000Y24561000D01*
X7780000Y24575000D01*
X7788000Y24588000D01*
X7797000Y24601000D01*
X7807000Y24614000D01*
X7817000Y24626000D01*
X7828000Y24637000D01*
X7839000Y24648000D01*
X7851000Y24658000D01*
X7864000Y24668000D01*
X7877000Y24677000D01*
X7890000Y24685000D01*
X7904000Y24692000D01*
X7918000Y24699000D01*
X7932000Y24705000D01*
X7947000Y24710000D01*
X7962000Y24715000D01*
X7978000Y24718000D01*
X7993000Y24721000D01*
X8009000Y24723000D01*
X8024000Y24725000D01*
X8040000Y24725000D01*
X11140000Y24725000D01*
X11140000Y22925000D01*
G37*
X11140000Y35625000D02*
X8040000Y35625000D01*
X8024000Y35625000D01*
X8009000Y35627000D01*
X7993000Y35629000D01*
X7978000Y35632000D01*
X7962000Y35635000D01*
X7947000Y35640000D01*
X7932000Y35645000D01*
X7918000Y35651000D01*
X7904000Y35658000D01*
X7890000Y35665000D01*
X7877000Y35673000D01*
X7864000Y35682000D01*
X7851000Y35692000D01*
X7839000Y35702000D01*
X7828000Y35713000D01*
X7817000Y35724000D01*
X7807000Y35736000D01*
X7797000Y35749000D01*
X7788000Y35762000D01*
X7780000Y35775000D01*
X7773000Y35789000D01*
X7766000Y35803000D01*
X7760000Y35817000D01*
X7755000Y35832000D01*
X7750000Y35847000D01*
X7747000Y35863000D01*
X7744000Y35878000D01*
X7742000Y35894000D01*
X7740000Y35909000D01*
X7740000Y35925000D01*
X7740000Y37125000D01*
X7740000Y37141000D01*
X7742000Y37156000D01*
X7744000Y37172000D01*
X7747000Y37187000D01*
X7750000Y37203000D01*
X7755000Y37218000D01*
X7760000Y37233000D01*
X7766000Y37247000D01*
X7773000Y37261000D01*
X7780000Y37275000D01*
X7788000Y37288000D01*
X7797000Y37301000D01*
X7807000Y37314000D01*
X7817000Y37326000D01*
X7828000Y37337000D01*
X7839000Y37348000D01*
X7851000Y37358000D01*
X7864000Y37368000D01*
X7877000Y37377000D01*
X7890000Y37385000D01*
X7904000Y37392000D01*
X7918000Y37399000D01*
X7932000Y37405000D01*
X7947000Y37410000D01*
X7962000Y37415000D01*
X7978000Y37418000D01*
X7993000Y37421000D01*
X8009000Y37423000D01*
X8024000Y37425000D01*
X8040000Y37425000D01*
X11140000Y37425000D01*
X11140000Y35625000D01*
G36*
X11140000Y35625000D02*
G01*
X8040000Y35625000D01*
X8024000Y35625000D01*
X8009000Y35627000D01*
X7993000Y35629000D01*
X7978000Y35632000D01*
X7962000Y35635000D01*
X7947000Y35640000D01*
X7932000Y35645000D01*
X7918000Y35651000D01*
X7904000Y35658000D01*
X7890000Y35665000D01*
X7877000Y35673000D01*
X7864000Y35682000D01*
X7851000Y35692000D01*
X7839000Y35702000D01*
X7828000Y35713000D01*
X7817000Y35724000D01*
X7807000Y35736000D01*
X7797000Y35749000D01*
X7788000Y35762000D01*
X7780000Y35775000D01*
X7773000Y35789000D01*
X7766000Y35803000D01*
X7760000Y35817000D01*
X7755000Y35832000D01*
X7750000Y35847000D01*
X7747000Y35863000D01*
X7744000Y35878000D01*
X7742000Y35894000D01*
X7740000Y35909000D01*
X7740000Y35925000D01*
X7740000Y37125000D01*
X7740000Y37141000D01*
X7742000Y37156000D01*
X7744000Y37172000D01*
X7747000Y37187000D01*
X7750000Y37203000D01*
X7755000Y37218000D01*
X7760000Y37233000D01*
X7766000Y37247000D01*
X7773000Y37261000D01*
X7780000Y37275000D01*
X7788000Y37288000D01*
X7797000Y37301000D01*
X7807000Y37314000D01*
X7817000Y37326000D01*
X7828000Y37337000D01*
X7839000Y37348000D01*
X7851000Y37358000D01*
X7864000Y37368000D01*
X7877000Y37377000D01*
X7890000Y37385000D01*
X7904000Y37392000D01*
X7918000Y37399000D01*
X7932000Y37405000D01*
X7947000Y37410000D01*
X7962000Y37415000D01*
X7978000Y37418000D01*
X7993000Y37421000D01*
X8009000Y37423000D01*
X8024000Y37425000D01*
X8040000Y37425000D01*
X11140000Y37425000D01*
X11140000Y35625000D01*
G37*
X11140000Y48325000D02*
X8040000Y48325000D01*
X8024000Y48325000D01*
X8009000Y48327000D01*
X7993000Y48329000D01*
X7978000Y48332000D01*
X7962000Y48335000D01*
X7947000Y48340000D01*
X7932000Y48345000D01*
X7918000Y48351000D01*
X7904000Y48358000D01*
X7890000Y48365000D01*
X7877000Y48373000D01*
X7864000Y48382000D01*
X7851000Y48392000D01*
X7839000Y48402000D01*
X7828000Y48413000D01*
X7817000Y48424000D01*
X7807000Y48436000D01*
X7797000Y48449000D01*
X7788000Y48462000D01*
X7780000Y48475000D01*
X7773000Y48489000D01*
X7766000Y48503000D01*
X7760000Y48517000D01*
X7755000Y48532000D01*
X7750000Y48547000D01*
X7747000Y48563000D01*
X7744000Y48578000D01*
X7742000Y48594000D01*
X7740000Y48609000D01*
X7740000Y48625000D01*
X7740000Y49825000D01*
X7740000Y49841000D01*
X7742000Y49856000D01*
X7744000Y49872000D01*
X7747000Y49887000D01*
X7750000Y49903000D01*
X7755000Y49918000D01*
X7760000Y49933000D01*
X7766000Y49947000D01*
X7773000Y49961000D01*
X7780000Y49975000D01*
X7788000Y49988000D01*
X7797000Y50001000D01*
X7807000Y50014000D01*
X7817000Y50026000D01*
X7828000Y50037000D01*
X7839000Y50048000D01*
X7851000Y50058000D01*
X7864000Y50068000D01*
X7877000Y50077000D01*
X7890000Y50085000D01*
X7904000Y50092000D01*
X7918000Y50099000D01*
X7932000Y50105000D01*
X7947000Y50110000D01*
X7962000Y50115000D01*
X7978000Y50118000D01*
X7993000Y50121000D01*
X8009000Y50123000D01*
X8024000Y50125000D01*
X8040000Y50125000D01*
X11140000Y50125000D01*
X11140000Y48325000D01*
G36*
X11140000Y48325000D02*
G01*
X8040000Y48325000D01*
X8024000Y48325000D01*
X8009000Y48327000D01*
X7993000Y48329000D01*
X7978000Y48332000D01*
X7962000Y48335000D01*
X7947000Y48340000D01*
X7932000Y48345000D01*
X7918000Y48351000D01*
X7904000Y48358000D01*
X7890000Y48365000D01*
X7877000Y48373000D01*
X7864000Y48382000D01*
X7851000Y48392000D01*
X7839000Y48402000D01*
X7828000Y48413000D01*
X7817000Y48424000D01*
X7807000Y48436000D01*
X7797000Y48449000D01*
X7788000Y48462000D01*
X7780000Y48475000D01*
X7773000Y48489000D01*
X7766000Y48503000D01*
X7760000Y48517000D01*
X7755000Y48532000D01*
X7750000Y48547000D01*
X7747000Y48563000D01*
X7744000Y48578000D01*
X7742000Y48594000D01*
X7740000Y48609000D01*
X7740000Y48625000D01*
X7740000Y49825000D01*
X7740000Y49841000D01*
X7742000Y49856000D01*
X7744000Y49872000D01*
X7747000Y49887000D01*
X7750000Y49903000D01*
X7755000Y49918000D01*
X7760000Y49933000D01*
X7766000Y49947000D01*
X7773000Y49961000D01*
X7780000Y49975000D01*
X7788000Y49988000D01*
X7797000Y50001000D01*
X7807000Y50014000D01*
X7817000Y50026000D01*
X7828000Y50037000D01*
X7839000Y50048000D01*
X7851000Y50058000D01*
X7864000Y50068000D01*
X7877000Y50077000D01*
X7890000Y50085000D01*
X7904000Y50092000D01*
X7918000Y50099000D01*
X7932000Y50105000D01*
X7947000Y50110000D01*
X7962000Y50115000D01*
X7978000Y50118000D01*
X7993000Y50121000D01*
X8009000Y50123000D01*
X8024000Y50125000D01*
X8040000Y50125000D01*
X11140000Y50125000D01*
X11140000Y48325000D01*
G37*
X-8509000Y12023000D02*
X-8493000Y12021000D01*
X-8478000Y12018000D01*
X-8462000Y12015000D01*
X-8447000Y12010000D01*
X-8432000Y12005000D01*
X-8418000Y11999000D01*
X-8404000Y11992000D01*
X-8390000Y11985000D01*
X-8377000Y11977000D01*
X-8364000Y11968000D01*
X-8351000Y11958000D01*
X-8339000Y11948000D01*
X-8328000Y11937000D01*
X-8317000Y11926000D01*
X-8307000Y11914000D01*
X-8297000Y11901000D01*
X-8288000Y11888000D01*
X-8280000Y11875000D01*
X-8273000Y11861000D01*
X-8266000Y11847000D01*
X-8260000Y11833000D01*
X-8255000Y11818000D01*
X-8250000Y11803000D01*
X-8247000Y11787000D01*
X-8244000Y11772000D01*
X-8242000Y11756000D01*
X-8240000Y11741000D01*
X-8240000Y11725000D01*
X-8240000Y10525000D01*
X-8240000Y10509000D01*
X-8242000Y10494000D01*
X-8244000Y10478000D01*
X-8247000Y10463000D01*
X-8250000Y10447000D01*
X-8255000Y10432000D01*
X-8260000Y10417000D01*
X-8266000Y10403000D01*
X-8273000Y10389000D01*
X-8280000Y10375000D01*
X-8288000Y10362000D01*
X-8297000Y10349000D01*
X-8307000Y10336000D01*
X-8317000Y10324000D01*
X-8328000Y10313000D01*
X-8339000Y10302000D01*
X-8351000Y10292000D01*
X-8364000Y10282000D01*
X-8377000Y10273000D01*
X-8390000Y10265000D01*
X-8404000Y10258000D01*
X-8418000Y10251000D01*
X-8432000Y10245000D01*
X-8447000Y10240000D01*
X-8462000Y10235000D01*
X-8478000Y10232000D01*
X-8493000Y10229000D01*
X-8509000Y10227000D01*
X-8524000Y10225000D01*
X-8540000Y10225000D01*
X-11640000Y10225000D01*
X-11640000Y12025000D01*
X-8540000Y12025000D01*
X-8524000Y12025000D01*
X-8509000Y12023000D01*
G36*
X-8509000Y12023000D02*
G01*
X-8493000Y12021000D01*
X-8478000Y12018000D01*
X-8462000Y12015000D01*
X-8447000Y12010000D01*
X-8432000Y12005000D01*
X-8418000Y11999000D01*
X-8404000Y11992000D01*
X-8390000Y11985000D01*
X-8377000Y11977000D01*
X-8364000Y11968000D01*
X-8351000Y11958000D01*
X-8339000Y11948000D01*
X-8328000Y11937000D01*
X-8317000Y11926000D01*
X-8307000Y11914000D01*
X-8297000Y11901000D01*
X-8288000Y11888000D01*
X-8280000Y11875000D01*
X-8273000Y11861000D01*
X-8266000Y11847000D01*
X-8260000Y11833000D01*
X-8255000Y11818000D01*
X-8250000Y11803000D01*
X-8247000Y11787000D01*
X-8244000Y11772000D01*
X-8242000Y11756000D01*
X-8240000Y11741000D01*
X-8240000Y11725000D01*
X-8240000Y10525000D01*
X-8240000Y10509000D01*
X-8242000Y10494000D01*
X-8244000Y10478000D01*
X-8247000Y10463000D01*
X-8250000Y10447000D01*
X-8255000Y10432000D01*
X-8260000Y10417000D01*
X-8266000Y10403000D01*
X-8273000Y10389000D01*
X-8280000Y10375000D01*
X-8288000Y10362000D01*
X-8297000Y10349000D01*
X-8307000Y10336000D01*
X-8317000Y10324000D01*
X-8328000Y10313000D01*
X-8339000Y10302000D01*
X-8351000Y10292000D01*
X-8364000Y10282000D01*
X-8377000Y10273000D01*
X-8390000Y10265000D01*
X-8404000Y10258000D01*
X-8418000Y10251000D01*
X-8432000Y10245000D01*
X-8447000Y10240000D01*
X-8462000Y10235000D01*
X-8478000Y10232000D01*
X-8493000Y10229000D01*
X-8509000Y10227000D01*
X-8524000Y10225000D01*
X-8540000Y10225000D01*
X-11640000Y10225000D01*
X-11640000Y12025000D01*
X-8540000Y12025000D01*
X-8524000Y12025000D01*
X-8509000Y12023000D01*
G37*
X-8509000Y24723000D02*
X-8493000Y24721000D01*
X-8478000Y24718000D01*
X-8462000Y24715000D01*
X-8447000Y24710000D01*
X-8432000Y24705000D01*
X-8418000Y24699000D01*
X-8404000Y24692000D01*
X-8390000Y24685000D01*
X-8377000Y24677000D01*
X-8364000Y24668000D01*
X-8351000Y24658000D01*
X-8339000Y24648000D01*
X-8328000Y24637000D01*
X-8317000Y24626000D01*
X-8307000Y24614000D01*
X-8297000Y24601000D01*
X-8288000Y24588000D01*
X-8280000Y24575000D01*
X-8273000Y24561000D01*
X-8266000Y24547000D01*
X-8260000Y24533000D01*
X-8255000Y24518000D01*
X-8250000Y24503000D01*
X-8247000Y24487000D01*
X-8244000Y24472000D01*
X-8242000Y24456000D01*
X-8240000Y24441000D01*
X-8240000Y24425000D01*
X-8240000Y23225000D01*
X-8240000Y23209000D01*
X-8242000Y23194000D01*
X-8244000Y23178000D01*
X-8247000Y23163000D01*
X-8250000Y23147000D01*
X-8255000Y23132000D01*
X-8260000Y23117000D01*
X-8266000Y23103000D01*
X-8273000Y23089000D01*
X-8280000Y23075000D01*
X-8288000Y23062000D01*
X-8297000Y23049000D01*
X-8307000Y23036000D01*
X-8317000Y23024000D01*
X-8328000Y23013000D01*
X-8339000Y23002000D01*
X-8351000Y22992000D01*
X-8364000Y22982000D01*
X-8377000Y22973000D01*
X-8390000Y22965000D01*
X-8404000Y22958000D01*
X-8418000Y22951000D01*
X-8432000Y22945000D01*
X-8447000Y22940000D01*
X-8462000Y22935000D01*
X-8478000Y22932000D01*
X-8493000Y22929000D01*
X-8509000Y22927000D01*
X-8524000Y22925000D01*
X-8540000Y22925000D01*
X-11640000Y22925000D01*
X-11640000Y24725000D01*
X-8540000Y24725000D01*
X-8524000Y24725000D01*
X-8509000Y24723000D01*
G36*
X-8509000Y24723000D02*
G01*
X-8493000Y24721000D01*
X-8478000Y24718000D01*
X-8462000Y24715000D01*
X-8447000Y24710000D01*
X-8432000Y24705000D01*
X-8418000Y24699000D01*
X-8404000Y24692000D01*
X-8390000Y24685000D01*
X-8377000Y24677000D01*
X-8364000Y24668000D01*
X-8351000Y24658000D01*
X-8339000Y24648000D01*
X-8328000Y24637000D01*
X-8317000Y24626000D01*
X-8307000Y24614000D01*
X-8297000Y24601000D01*
X-8288000Y24588000D01*
X-8280000Y24575000D01*
X-8273000Y24561000D01*
X-8266000Y24547000D01*
X-8260000Y24533000D01*
X-8255000Y24518000D01*
X-8250000Y24503000D01*
X-8247000Y24487000D01*
X-8244000Y24472000D01*
X-8242000Y24456000D01*
X-8240000Y24441000D01*
X-8240000Y24425000D01*
X-8240000Y23225000D01*
X-8240000Y23209000D01*
X-8242000Y23194000D01*
X-8244000Y23178000D01*
X-8247000Y23163000D01*
X-8250000Y23147000D01*
X-8255000Y23132000D01*
X-8260000Y23117000D01*
X-8266000Y23103000D01*
X-8273000Y23089000D01*
X-8280000Y23075000D01*
X-8288000Y23062000D01*
X-8297000Y23049000D01*
X-8307000Y23036000D01*
X-8317000Y23024000D01*
X-8328000Y23013000D01*
X-8339000Y23002000D01*
X-8351000Y22992000D01*
X-8364000Y22982000D01*
X-8377000Y22973000D01*
X-8390000Y22965000D01*
X-8404000Y22958000D01*
X-8418000Y22951000D01*
X-8432000Y22945000D01*
X-8447000Y22940000D01*
X-8462000Y22935000D01*
X-8478000Y22932000D01*
X-8493000Y22929000D01*
X-8509000Y22927000D01*
X-8524000Y22925000D01*
X-8540000Y22925000D01*
X-11640000Y22925000D01*
X-11640000Y24725000D01*
X-8540000Y24725000D01*
X-8524000Y24725000D01*
X-8509000Y24723000D01*
G37*
X-8509000Y37423000D02*
X-8493000Y37421000D01*
X-8478000Y37418000D01*
X-8462000Y37415000D01*
X-8447000Y37410000D01*
X-8432000Y37405000D01*
X-8418000Y37399000D01*
X-8404000Y37392000D01*
X-8390000Y37385000D01*
X-8377000Y37377000D01*
X-8364000Y37368000D01*
X-8351000Y37358000D01*
X-8339000Y37348000D01*
X-8328000Y37337000D01*
X-8317000Y37326000D01*
X-8307000Y37314000D01*
X-8297000Y37301000D01*
X-8288000Y37288000D01*
X-8280000Y37275000D01*
X-8273000Y37261000D01*
X-8266000Y37247000D01*
X-8260000Y37233000D01*
X-8255000Y37218000D01*
X-8250000Y37203000D01*
X-8247000Y37187000D01*
X-8244000Y37172000D01*
X-8242000Y37156000D01*
X-8240000Y37141000D01*
X-8240000Y37125000D01*
X-8240000Y35925000D01*
X-8240000Y35909000D01*
X-8242000Y35894000D01*
X-8244000Y35878000D01*
X-8247000Y35863000D01*
X-8250000Y35847000D01*
X-8255000Y35832000D01*
X-8260000Y35817000D01*
X-8266000Y35803000D01*
X-8273000Y35789000D01*
X-8280000Y35775000D01*
X-8288000Y35762000D01*
X-8297000Y35749000D01*
X-8307000Y35736000D01*
X-8317000Y35724000D01*
X-8328000Y35713000D01*
X-8339000Y35702000D01*
X-8351000Y35692000D01*
X-8364000Y35682000D01*
X-8377000Y35673000D01*
X-8390000Y35665000D01*
X-8404000Y35658000D01*
X-8418000Y35651000D01*
X-8432000Y35645000D01*
X-8447000Y35640000D01*
X-8462000Y35635000D01*
X-8478000Y35632000D01*
X-8493000Y35629000D01*
X-8509000Y35627000D01*
X-8524000Y35625000D01*
X-8540000Y35625000D01*
X-11640000Y35625000D01*
X-11640000Y37425000D01*
X-8540000Y37425000D01*
X-8524000Y37425000D01*
X-8509000Y37423000D01*
G36*
X-8509000Y37423000D02*
G01*
X-8493000Y37421000D01*
X-8478000Y37418000D01*
X-8462000Y37415000D01*
X-8447000Y37410000D01*
X-8432000Y37405000D01*
X-8418000Y37399000D01*
X-8404000Y37392000D01*
X-8390000Y37385000D01*
X-8377000Y37377000D01*
X-8364000Y37368000D01*
X-8351000Y37358000D01*
X-8339000Y37348000D01*
X-8328000Y37337000D01*
X-8317000Y37326000D01*
X-8307000Y37314000D01*
X-8297000Y37301000D01*
X-8288000Y37288000D01*
X-8280000Y37275000D01*
X-8273000Y37261000D01*
X-8266000Y37247000D01*
X-8260000Y37233000D01*
X-8255000Y37218000D01*
X-8250000Y37203000D01*
X-8247000Y37187000D01*
X-8244000Y37172000D01*
X-8242000Y37156000D01*
X-8240000Y37141000D01*
X-8240000Y37125000D01*
X-8240000Y35925000D01*
X-8240000Y35909000D01*
X-8242000Y35894000D01*
X-8244000Y35878000D01*
X-8247000Y35863000D01*
X-8250000Y35847000D01*
X-8255000Y35832000D01*
X-8260000Y35817000D01*
X-8266000Y35803000D01*
X-8273000Y35789000D01*
X-8280000Y35775000D01*
X-8288000Y35762000D01*
X-8297000Y35749000D01*
X-8307000Y35736000D01*
X-8317000Y35724000D01*
X-8328000Y35713000D01*
X-8339000Y35702000D01*
X-8351000Y35692000D01*
X-8364000Y35682000D01*
X-8377000Y35673000D01*
X-8390000Y35665000D01*
X-8404000Y35658000D01*
X-8418000Y35651000D01*
X-8432000Y35645000D01*
X-8447000Y35640000D01*
X-8462000Y35635000D01*
X-8478000Y35632000D01*
X-8493000Y35629000D01*
X-8509000Y35627000D01*
X-8524000Y35625000D01*
X-8540000Y35625000D01*
X-11640000Y35625000D01*
X-11640000Y37425000D01*
X-8540000Y37425000D01*
X-8524000Y37425000D01*
X-8509000Y37423000D01*
G37*
X-8509000Y50123000D02*
X-8493000Y50121000D01*
X-8478000Y50118000D01*
X-8462000Y50115000D01*
X-8447000Y50110000D01*
X-8432000Y50105000D01*
X-8418000Y50099000D01*
X-8404000Y50092000D01*
X-8390000Y50085000D01*
X-8377000Y50077000D01*
X-8364000Y50068000D01*
X-8351000Y50058000D01*
X-8339000Y50048000D01*
X-8328000Y50037000D01*
X-8317000Y50026000D01*
X-8307000Y50014000D01*
X-8297000Y50001000D01*
X-8288000Y49988000D01*
X-8280000Y49975000D01*
X-8273000Y49961000D01*
X-8266000Y49947000D01*
X-8260000Y49933000D01*
X-8255000Y49918000D01*
X-8250000Y49903000D01*
X-8247000Y49887000D01*
X-8244000Y49872000D01*
X-8242000Y49856000D01*
X-8240000Y49841000D01*
X-8240000Y49825000D01*
X-8240000Y48625000D01*
X-8240000Y48609000D01*
X-8242000Y48594000D01*
X-8244000Y48578000D01*
X-8247000Y48563000D01*
X-8250000Y48547000D01*
X-8255000Y48532000D01*
X-8260000Y48517000D01*
X-8266000Y48503000D01*
X-8273000Y48489000D01*
X-8280000Y48475000D01*
X-8288000Y48462000D01*
X-8297000Y48449000D01*
X-8307000Y48436000D01*
X-8317000Y48424000D01*
X-8328000Y48413000D01*
X-8339000Y48402000D01*
X-8351000Y48392000D01*
X-8364000Y48382000D01*
X-8377000Y48373000D01*
X-8390000Y48365000D01*
X-8404000Y48358000D01*
X-8418000Y48351000D01*
X-8432000Y48345000D01*
X-8447000Y48340000D01*
X-8462000Y48335000D01*
X-8478000Y48332000D01*
X-8493000Y48329000D01*
X-8509000Y48327000D01*
X-8524000Y48325000D01*
X-8540000Y48325000D01*
X-11640000Y48325000D01*
X-11640000Y50125000D01*
X-8540000Y50125000D01*
X-8524000Y50125000D01*
X-8509000Y50123000D01*
G36*
X-8509000Y50123000D02*
G01*
X-8493000Y50121000D01*
X-8478000Y50118000D01*
X-8462000Y50115000D01*
X-8447000Y50110000D01*
X-8432000Y50105000D01*
X-8418000Y50099000D01*
X-8404000Y50092000D01*
X-8390000Y50085000D01*
X-8377000Y50077000D01*
X-8364000Y50068000D01*
X-8351000Y50058000D01*
X-8339000Y50048000D01*
X-8328000Y50037000D01*
X-8317000Y50026000D01*
X-8307000Y50014000D01*
X-8297000Y50001000D01*
X-8288000Y49988000D01*
X-8280000Y49975000D01*
X-8273000Y49961000D01*
X-8266000Y49947000D01*
X-8260000Y49933000D01*
X-8255000Y49918000D01*
X-8250000Y49903000D01*
X-8247000Y49887000D01*
X-8244000Y49872000D01*
X-8242000Y49856000D01*
X-8240000Y49841000D01*
X-8240000Y49825000D01*
X-8240000Y48625000D01*
X-8240000Y48609000D01*
X-8242000Y48594000D01*
X-8244000Y48578000D01*
X-8247000Y48563000D01*
X-8250000Y48547000D01*
X-8255000Y48532000D01*
X-8260000Y48517000D01*
X-8266000Y48503000D01*
X-8273000Y48489000D01*
X-8280000Y48475000D01*
X-8288000Y48462000D01*
X-8297000Y48449000D01*
X-8307000Y48436000D01*
X-8317000Y48424000D01*
X-8328000Y48413000D01*
X-8339000Y48402000D01*
X-8351000Y48392000D01*
X-8364000Y48382000D01*
X-8377000Y48373000D01*
X-8390000Y48365000D01*
X-8404000Y48358000D01*
X-8418000Y48351000D01*
X-8432000Y48345000D01*
X-8447000Y48340000D01*
X-8462000Y48335000D01*
X-8478000Y48332000D01*
X-8493000Y48329000D01*
X-8509000Y48327000D01*
X-8524000Y48325000D01*
X-8540000Y48325000D01*
X-11640000Y48325000D01*
X-11640000Y50125000D01*
X-8540000Y50125000D01*
X-8524000Y50125000D01*
X-8509000Y50123000D01*
G37*
X11140000Y5145000D02*
X8640000Y5145000D01*
X8593000Y5146000D01*
X8546000Y5150000D01*
X8499000Y5156000D01*
X8453000Y5165000D01*
X8407000Y5176000D01*
X8362000Y5189000D01*
X8317000Y5205000D01*
X8274000Y5223000D01*
X8231000Y5243000D01*
X8190000Y5266000D01*
X8150000Y5290000D01*
X8111000Y5317000D01*
X8074000Y5346000D01*
X8038000Y5376000D01*
X8004000Y5409000D01*
X7971000Y5443000D01*
X7941000Y5479000D01*
X7912000Y5516000D01*
X7885000Y5555000D01*
X7861000Y5595000D01*
X7838000Y5636000D01*
X7818000Y5679000D01*
X7800000Y5722000D01*
X7784000Y5767000D01*
X7771000Y5812000D01*
X7760000Y5858000D01*
X7751000Y5904000D01*
X7745000Y5951000D01*
X7741000Y5998000D01*
X7740000Y6045000D01*
X7741000Y6092000D01*
X7745000Y6139000D01*
X7751000Y6186000D01*
X7760000Y6232000D01*
X7771000Y6278000D01*
X7784000Y6323000D01*
X7800000Y6368000D01*
X7818000Y6411000D01*
X7838000Y6454000D01*
X7861000Y6495000D01*
X7885000Y6535000D01*
X7912000Y6574000D01*
X7941000Y6611000D01*
X7971000Y6647000D01*
X8004000Y6681000D01*
X8038000Y6714000D01*
X8074000Y6744000D01*
X8111000Y6773000D01*
X8150000Y6800000D01*
X8190000Y6824000D01*
X8231000Y6847000D01*
X8274000Y6867000D01*
X8317000Y6885000D01*
X8362000Y6901000D01*
X8407000Y6914000D01*
X8453000Y6925000D01*
X8499000Y6934000D01*
X8546000Y6940000D01*
X8593000Y6944000D01*
X8640000Y6945000D01*
X11140000Y6945000D01*
X11140000Y5145000D01*
G36*
X11140000Y5145000D02*
G01*
X8640000Y5145000D01*
X8593000Y5146000D01*
X8546000Y5150000D01*
X8499000Y5156000D01*
X8453000Y5165000D01*
X8407000Y5176000D01*
X8362000Y5189000D01*
X8317000Y5205000D01*
X8274000Y5223000D01*
X8231000Y5243000D01*
X8190000Y5266000D01*
X8150000Y5290000D01*
X8111000Y5317000D01*
X8074000Y5346000D01*
X8038000Y5376000D01*
X8004000Y5409000D01*
X7971000Y5443000D01*
X7941000Y5479000D01*
X7912000Y5516000D01*
X7885000Y5555000D01*
X7861000Y5595000D01*
X7838000Y5636000D01*
X7818000Y5679000D01*
X7800000Y5722000D01*
X7784000Y5767000D01*
X7771000Y5812000D01*
X7760000Y5858000D01*
X7751000Y5904000D01*
X7745000Y5951000D01*
X7741000Y5998000D01*
X7740000Y6045000D01*
X7741000Y6092000D01*
X7745000Y6139000D01*
X7751000Y6186000D01*
X7760000Y6232000D01*
X7771000Y6278000D01*
X7784000Y6323000D01*
X7800000Y6368000D01*
X7818000Y6411000D01*
X7838000Y6454000D01*
X7861000Y6495000D01*
X7885000Y6535000D01*
X7912000Y6574000D01*
X7941000Y6611000D01*
X7971000Y6647000D01*
X8004000Y6681000D01*
X8038000Y6714000D01*
X8074000Y6744000D01*
X8111000Y6773000D01*
X8150000Y6800000D01*
X8190000Y6824000D01*
X8231000Y6847000D01*
X8274000Y6867000D01*
X8317000Y6885000D01*
X8362000Y6901000D01*
X8407000Y6914000D01*
X8453000Y6925000D01*
X8499000Y6934000D01*
X8546000Y6940000D01*
X8593000Y6944000D01*
X8640000Y6945000D01*
X11140000Y6945000D01*
X11140000Y5145000D01*
G37*
X11140000Y7685000D02*
X8640000Y7685000D01*
X8593000Y7686000D01*
X8546000Y7690000D01*
X8499000Y7696000D01*
X8453000Y7705000D01*
X8407000Y7716000D01*
X8362000Y7729000D01*
X8317000Y7745000D01*
X8274000Y7763000D01*
X8231000Y7783000D01*
X8190000Y7806000D01*
X8150000Y7830000D01*
X8111000Y7857000D01*
X8074000Y7886000D01*
X8038000Y7916000D01*
X8004000Y7949000D01*
X7971000Y7983000D01*
X7941000Y8019000D01*
X7912000Y8056000D01*
X7885000Y8095000D01*
X7861000Y8135000D01*
X7838000Y8176000D01*
X7818000Y8219000D01*
X7800000Y8262000D01*
X7784000Y8307000D01*
X7771000Y8352000D01*
X7760000Y8398000D01*
X7751000Y8444000D01*
X7745000Y8491000D01*
X7741000Y8538000D01*
X7740000Y8585000D01*
X7741000Y8632000D01*
X7745000Y8679000D01*
X7751000Y8726000D01*
X7760000Y8772000D01*
X7771000Y8818000D01*
X7784000Y8863000D01*
X7800000Y8908000D01*
X7818000Y8951000D01*
X7838000Y8994000D01*
X7861000Y9035000D01*
X7885000Y9075000D01*
X7912000Y9114000D01*
X7941000Y9151000D01*
X7971000Y9187000D01*
X8004000Y9221000D01*
X8038000Y9254000D01*
X8074000Y9284000D01*
X8111000Y9313000D01*
X8150000Y9340000D01*
X8190000Y9364000D01*
X8231000Y9387000D01*
X8274000Y9407000D01*
X8317000Y9425000D01*
X8362000Y9441000D01*
X8407000Y9454000D01*
X8453000Y9465000D01*
X8499000Y9474000D01*
X8546000Y9480000D01*
X8593000Y9484000D01*
X8640000Y9485000D01*
X11140000Y9485000D01*
X11140000Y7685000D01*
G36*
X11140000Y7685000D02*
G01*
X8640000Y7685000D01*
X8593000Y7686000D01*
X8546000Y7690000D01*
X8499000Y7696000D01*
X8453000Y7705000D01*
X8407000Y7716000D01*
X8362000Y7729000D01*
X8317000Y7745000D01*
X8274000Y7763000D01*
X8231000Y7783000D01*
X8190000Y7806000D01*
X8150000Y7830000D01*
X8111000Y7857000D01*
X8074000Y7886000D01*
X8038000Y7916000D01*
X8004000Y7949000D01*
X7971000Y7983000D01*
X7941000Y8019000D01*
X7912000Y8056000D01*
X7885000Y8095000D01*
X7861000Y8135000D01*
X7838000Y8176000D01*
X7818000Y8219000D01*
X7800000Y8262000D01*
X7784000Y8307000D01*
X7771000Y8352000D01*
X7760000Y8398000D01*
X7751000Y8444000D01*
X7745000Y8491000D01*
X7741000Y8538000D01*
X7740000Y8585000D01*
X7741000Y8632000D01*
X7745000Y8679000D01*
X7751000Y8726000D01*
X7760000Y8772000D01*
X7771000Y8818000D01*
X7784000Y8863000D01*
X7800000Y8908000D01*
X7818000Y8951000D01*
X7838000Y8994000D01*
X7861000Y9035000D01*
X7885000Y9075000D01*
X7912000Y9114000D01*
X7941000Y9151000D01*
X7971000Y9187000D01*
X8004000Y9221000D01*
X8038000Y9254000D01*
X8074000Y9284000D01*
X8111000Y9313000D01*
X8150000Y9340000D01*
X8190000Y9364000D01*
X8231000Y9387000D01*
X8274000Y9407000D01*
X8317000Y9425000D01*
X8362000Y9441000D01*
X8407000Y9454000D01*
X8453000Y9465000D01*
X8499000Y9474000D01*
X8546000Y9480000D01*
X8593000Y9484000D01*
X8640000Y9485000D01*
X11140000Y9485000D01*
X11140000Y7685000D01*
G37*
X11140000Y12765000D02*
X8640000Y12765000D01*
X8593000Y12766000D01*
X8546000Y12770000D01*
X8499000Y12776000D01*
X8453000Y12785000D01*
X8407000Y12796000D01*
X8362000Y12809000D01*
X8317000Y12825000D01*
X8274000Y12843000D01*
X8231000Y12863000D01*
X8190000Y12886000D01*
X8150000Y12910000D01*
X8111000Y12937000D01*
X8074000Y12966000D01*
X8038000Y12996000D01*
X8004000Y13029000D01*
X7971000Y13063000D01*
X7941000Y13099000D01*
X7912000Y13136000D01*
X7885000Y13175000D01*
X7861000Y13215000D01*
X7838000Y13256000D01*
X7818000Y13299000D01*
X7800000Y13342000D01*
X7784000Y13387000D01*
X7771000Y13432000D01*
X7760000Y13478000D01*
X7751000Y13524000D01*
X7745000Y13571000D01*
X7741000Y13618000D01*
X7740000Y13665000D01*
X7741000Y13712000D01*
X7745000Y13759000D01*
X7751000Y13806000D01*
X7760000Y13852000D01*
X7771000Y13898000D01*
X7784000Y13943000D01*
X7800000Y13988000D01*
X7818000Y14031000D01*
X7838000Y14074000D01*
X7861000Y14115000D01*
X7885000Y14155000D01*
X7912000Y14194000D01*
X7941000Y14231000D01*
X7971000Y14267000D01*
X8004000Y14301000D01*
X8038000Y14334000D01*
X8074000Y14364000D01*
X8111000Y14393000D01*
X8150000Y14420000D01*
X8190000Y14444000D01*
X8231000Y14467000D01*
X8274000Y14487000D01*
X8317000Y14505000D01*
X8362000Y14521000D01*
X8407000Y14534000D01*
X8453000Y14545000D01*
X8499000Y14554000D01*
X8546000Y14560000D01*
X8593000Y14564000D01*
X8640000Y14565000D01*
X11140000Y14565000D01*
X11140000Y12765000D01*
G36*
X11140000Y12765000D02*
G01*
X8640000Y12765000D01*
X8593000Y12766000D01*
X8546000Y12770000D01*
X8499000Y12776000D01*
X8453000Y12785000D01*
X8407000Y12796000D01*
X8362000Y12809000D01*
X8317000Y12825000D01*
X8274000Y12843000D01*
X8231000Y12863000D01*
X8190000Y12886000D01*
X8150000Y12910000D01*
X8111000Y12937000D01*
X8074000Y12966000D01*
X8038000Y12996000D01*
X8004000Y13029000D01*
X7971000Y13063000D01*
X7941000Y13099000D01*
X7912000Y13136000D01*
X7885000Y13175000D01*
X7861000Y13215000D01*
X7838000Y13256000D01*
X7818000Y13299000D01*
X7800000Y13342000D01*
X7784000Y13387000D01*
X7771000Y13432000D01*
X7760000Y13478000D01*
X7751000Y13524000D01*
X7745000Y13571000D01*
X7741000Y13618000D01*
X7740000Y13665000D01*
X7741000Y13712000D01*
X7745000Y13759000D01*
X7751000Y13806000D01*
X7760000Y13852000D01*
X7771000Y13898000D01*
X7784000Y13943000D01*
X7800000Y13988000D01*
X7818000Y14031000D01*
X7838000Y14074000D01*
X7861000Y14115000D01*
X7885000Y14155000D01*
X7912000Y14194000D01*
X7941000Y14231000D01*
X7971000Y14267000D01*
X8004000Y14301000D01*
X8038000Y14334000D01*
X8074000Y14364000D01*
X8111000Y14393000D01*
X8150000Y14420000D01*
X8190000Y14444000D01*
X8231000Y14467000D01*
X8274000Y14487000D01*
X8317000Y14505000D01*
X8362000Y14521000D01*
X8407000Y14534000D01*
X8453000Y14545000D01*
X8499000Y14554000D01*
X8546000Y14560000D01*
X8593000Y14564000D01*
X8640000Y14565000D01*
X11140000Y14565000D01*
X11140000Y12765000D01*
G37*
X11140000Y15305000D02*
X8640000Y15305000D01*
X8593000Y15306000D01*
X8546000Y15310000D01*
X8499000Y15316000D01*
X8453000Y15325000D01*
X8407000Y15336000D01*
X8362000Y15349000D01*
X8317000Y15365000D01*
X8274000Y15383000D01*
X8231000Y15403000D01*
X8190000Y15426000D01*
X8150000Y15450000D01*
X8111000Y15477000D01*
X8074000Y15506000D01*
X8038000Y15536000D01*
X8004000Y15569000D01*
X7971000Y15603000D01*
X7941000Y15639000D01*
X7912000Y15676000D01*
X7885000Y15715000D01*
X7861000Y15755000D01*
X7838000Y15796000D01*
X7818000Y15839000D01*
X7800000Y15882000D01*
X7784000Y15927000D01*
X7771000Y15972000D01*
X7760000Y16018000D01*
X7751000Y16064000D01*
X7745000Y16111000D01*
X7741000Y16158000D01*
X7740000Y16205000D01*
X7741000Y16252000D01*
X7745000Y16299000D01*
X7751000Y16346000D01*
X7760000Y16392000D01*
X7771000Y16438000D01*
X7784000Y16483000D01*
X7800000Y16528000D01*
X7818000Y16571000D01*
X7838000Y16614000D01*
X7861000Y16655000D01*
X7885000Y16695000D01*
X7912000Y16734000D01*
X7941000Y16771000D01*
X7971000Y16807000D01*
X8004000Y16841000D01*
X8038000Y16874000D01*
X8074000Y16904000D01*
X8111000Y16933000D01*
X8150000Y16960000D01*
X8190000Y16984000D01*
X8231000Y17007000D01*
X8274000Y17027000D01*
X8317000Y17045000D01*
X8362000Y17061000D01*
X8407000Y17074000D01*
X8453000Y17085000D01*
X8499000Y17094000D01*
X8546000Y17100000D01*
X8593000Y17104000D01*
X8640000Y17105000D01*
X11140000Y17105000D01*
X11140000Y15305000D01*
G36*
X11140000Y15305000D02*
G01*
X8640000Y15305000D01*
X8593000Y15306000D01*
X8546000Y15310000D01*
X8499000Y15316000D01*
X8453000Y15325000D01*
X8407000Y15336000D01*
X8362000Y15349000D01*
X8317000Y15365000D01*
X8274000Y15383000D01*
X8231000Y15403000D01*
X8190000Y15426000D01*
X8150000Y15450000D01*
X8111000Y15477000D01*
X8074000Y15506000D01*
X8038000Y15536000D01*
X8004000Y15569000D01*
X7971000Y15603000D01*
X7941000Y15639000D01*
X7912000Y15676000D01*
X7885000Y15715000D01*
X7861000Y15755000D01*
X7838000Y15796000D01*
X7818000Y15839000D01*
X7800000Y15882000D01*
X7784000Y15927000D01*
X7771000Y15972000D01*
X7760000Y16018000D01*
X7751000Y16064000D01*
X7745000Y16111000D01*
X7741000Y16158000D01*
X7740000Y16205000D01*
X7741000Y16252000D01*
X7745000Y16299000D01*
X7751000Y16346000D01*
X7760000Y16392000D01*
X7771000Y16438000D01*
X7784000Y16483000D01*
X7800000Y16528000D01*
X7818000Y16571000D01*
X7838000Y16614000D01*
X7861000Y16655000D01*
X7885000Y16695000D01*
X7912000Y16734000D01*
X7941000Y16771000D01*
X7971000Y16807000D01*
X8004000Y16841000D01*
X8038000Y16874000D01*
X8074000Y16904000D01*
X8111000Y16933000D01*
X8150000Y16960000D01*
X8190000Y16984000D01*
X8231000Y17007000D01*
X8274000Y17027000D01*
X8317000Y17045000D01*
X8362000Y17061000D01*
X8407000Y17074000D01*
X8453000Y17085000D01*
X8499000Y17094000D01*
X8546000Y17100000D01*
X8593000Y17104000D01*
X8640000Y17105000D01*
X11140000Y17105000D01*
X11140000Y15305000D01*
G37*
X11140000Y17845000D02*
X8640000Y17845000D01*
X8593000Y17846000D01*
X8546000Y17850000D01*
X8499000Y17856000D01*
X8453000Y17865000D01*
X8407000Y17876000D01*
X8362000Y17889000D01*
X8317000Y17905000D01*
X8274000Y17923000D01*
X8231000Y17943000D01*
X8190000Y17966000D01*
X8150000Y17990000D01*
X8111000Y18017000D01*
X8074000Y18046000D01*
X8038000Y18076000D01*
X8004000Y18109000D01*
X7971000Y18143000D01*
X7941000Y18179000D01*
X7912000Y18216000D01*
X7885000Y18255000D01*
X7861000Y18295000D01*
X7838000Y18336000D01*
X7818000Y18379000D01*
X7800000Y18422000D01*
X7784000Y18467000D01*
X7771000Y18512000D01*
X7760000Y18558000D01*
X7751000Y18604000D01*
X7745000Y18651000D01*
X7741000Y18698000D01*
X7740000Y18745000D01*
X7741000Y18792000D01*
X7745000Y18839000D01*
X7751000Y18886000D01*
X7760000Y18932000D01*
X7771000Y18978000D01*
X7784000Y19023000D01*
X7800000Y19068000D01*
X7818000Y19111000D01*
X7838000Y19154000D01*
X7861000Y19195000D01*
X7885000Y19235000D01*
X7912000Y19274000D01*
X7941000Y19311000D01*
X7971000Y19347000D01*
X8004000Y19381000D01*
X8038000Y19414000D01*
X8074000Y19444000D01*
X8111000Y19473000D01*
X8150000Y19500000D01*
X8190000Y19524000D01*
X8231000Y19547000D01*
X8274000Y19567000D01*
X8317000Y19585000D01*
X8362000Y19601000D01*
X8407000Y19614000D01*
X8453000Y19625000D01*
X8499000Y19634000D01*
X8546000Y19640000D01*
X8593000Y19644000D01*
X8640000Y19645000D01*
X11140000Y19645000D01*
X11140000Y17845000D01*
G36*
X11140000Y17845000D02*
G01*
X8640000Y17845000D01*
X8593000Y17846000D01*
X8546000Y17850000D01*
X8499000Y17856000D01*
X8453000Y17865000D01*
X8407000Y17876000D01*
X8362000Y17889000D01*
X8317000Y17905000D01*
X8274000Y17923000D01*
X8231000Y17943000D01*
X8190000Y17966000D01*
X8150000Y17990000D01*
X8111000Y18017000D01*
X8074000Y18046000D01*
X8038000Y18076000D01*
X8004000Y18109000D01*
X7971000Y18143000D01*
X7941000Y18179000D01*
X7912000Y18216000D01*
X7885000Y18255000D01*
X7861000Y18295000D01*
X7838000Y18336000D01*
X7818000Y18379000D01*
X7800000Y18422000D01*
X7784000Y18467000D01*
X7771000Y18512000D01*
X7760000Y18558000D01*
X7751000Y18604000D01*
X7745000Y18651000D01*
X7741000Y18698000D01*
X7740000Y18745000D01*
X7741000Y18792000D01*
X7745000Y18839000D01*
X7751000Y18886000D01*
X7760000Y18932000D01*
X7771000Y18978000D01*
X7784000Y19023000D01*
X7800000Y19068000D01*
X7818000Y19111000D01*
X7838000Y19154000D01*
X7861000Y19195000D01*
X7885000Y19235000D01*
X7912000Y19274000D01*
X7941000Y19311000D01*
X7971000Y19347000D01*
X8004000Y19381000D01*
X8038000Y19414000D01*
X8074000Y19444000D01*
X8111000Y19473000D01*
X8150000Y19500000D01*
X8190000Y19524000D01*
X8231000Y19547000D01*
X8274000Y19567000D01*
X8317000Y19585000D01*
X8362000Y19601000D01*
X8407000Y19614000D01*
X8453000Y19625000D01*
X8499000Y19634000D01*
X8546000Y19640000D01*
X8593000Y19644000D01*
X8640000Y19645000D01*
X11140000Y19645000D01*
X11140000Y17845000D01*
G37*
X11140000Y20385000D02*
X8640000Y20385000D01*
X8593000Y20386000D01*
X8546000Y20390000D01*
X8499000Y20396000D01*
X8453000Y20405000D01*
X8407000Y20416000D01*
X8362000Y20429000D01*
X8317000Y20445000D01*
X8274000Y20463000D01*
X8231000Y20483000D01*
X8190000Y20506000D01*
X8150000Y20530000D01*
X8111000Y20557000D01*
X8074000Y20586000D01*
X8038000Y20616000D01*
X8004000Y20649000D01*
X7971000Y20683000D01*
X7941000Y20719000D01*
X7912000Y20756000D01*
X7885000Y20795000D01*
X7861000Y20835000D01*
X7838000Y20876000D01*
X7818000Y20919000D01*
X7800000Y20962000D01*
X7784000Y21007000D01*
X7771000Y21052000D01*
X7760000Y21098000D01*
X7751000Y21144000D01*
X7745000Y21191000D01*
X7741000Y21238000D01*
X7740000Y21285000D01*
X7741000Y21332000D01*
X7745000Y21379000D01*
X7751000Y21426000D01*
X7760000Y21472000D01*
X7771000Y21518000D01*
X7784000Y21563000D01*
X7800000Y21608000D01*
X7818000Y21651000D01*
X7838000Y21694000D01*
X7861000Y21735000D01*
X7885000Y21775000D01*
X7912000Y21814000D01*
X7941000Y21851000D01*
X7971000Y21887000D01*
X8004000Y21921000D01*
X8038000Y21954000D01*
X8074000Y21984000D01*
X8111000Y22013000D01*
X8150000Y22040000D01*
X8190000Y22064000D01*
X8231000Y22087000D01*
X8274000Y22107000D01*
X8317000Y22125000D01*
X8362000Y22141000D01*
X8407000Y22154000D01*
X8453000Y22165000D01*
X8499000Y22174000D01*
X8546000Y22180000D01*
X8593000Y22184000D01*
X8640000Y22185000D01*
X11140000Y22185000D01*
X11140000Y20385000D01*
G36*
X11140000Y20385000D02*
G01*
X8640000Y20385000D01*
X8593000Y20386000D01*
X8546000Y20390000D01*
X8499000Y20396000D01*
X8453000Y20405000D01*
X8407000Y20416000D01*
X8362000Y20429000D01*
X8317000Y20445000D01*
X8274000Y20463000D01*
X8231000Y20483000D01*
X8190000Y20506000D01*
X8150000Y20530000D01*
X8111000Y20557000D01*
X8074000Y20586000D01*
X8038000Y20616000D01*
X8004000Y20649000D01*
X7971000Y20683000D01*
X7941000Y20719000D01*
X7912000Y20756000D01*
X7885000Y20795000D01*
X7861000Y20835000D01*
X7838000Y20876000D01*
X7818000Y20919000D01*
X7800000Y20962000D01*
X7784000Y21007000D01*
X7771000Y21052000D01*
X7760000Y21098000D01*
X7751000Y21144000D01*
X7745000Y21191000D01*
X7741000Y21238000D01*
X7740000Y21285000D01*
X7741000Y21332000D01*
X7745000Y21379000D01*
X7751000Y21426000D01*
X7760000Y21472000D01*
X7771000Y21518000D01*
X7784000Y21563000D01*
X7800000Y21608000D01*
X7818000Y21651000D01*
X7838000Y21694000D01*
X7861000Y21735000D01*
X7885000Y21775000D01*
X7912000Y21814000D01*
X7941000Y21851000D01*
X7971000Y21887000D01*
X8004000Y21921000D01*
X8038000Y21954000D01*
X8074000Y21984000D01*
X8111000Y22013000D01*
X8150000Y22040000D01*
X8190000Y22064000D01*
X8231000Y22087000D01*
X8274000Y22107000D01*
X8317000Y22125000D01*
X8362000Y22141000D01*
X8407000Y22154000D01*
X8453000Y22165000D01*
X8499000Y22174000D01*
X8546000Y22180000D01*
X8593000Y22184000D01*
X8640000Y22185000D01*
X11140000Y22185000D01*
X11140000Y20385000D01*
G37*
X11140000Y25465000D02*
X8640000Y25465000D01*
X8593000Y25466000D01*
X8546000Y25470000D01*
X8499000Y25476000D01*
X8453000Y25485000D01*
X8407000Y25496000D01*
X8362000Y25509000D01*
X8317000Y25525000D01*
X8274000Y25543000D01*
X8231000Y25563000D01*
X8190000Y25586000D01*
X8150000Y25610000D01*
X8111000Y25637000D01*
X8074000Y25666000D01*
X8038000Y25696000D01*
X8004000Y25729000D01*
X7971000Y25763000D01*
X7941000Y25799000D01*
X7912000Y25836000D01*
X7885000Y25875000D01*
X7861000Y25915000D01*
X7838000Y25956000D01*
X7818000Y25999000D01*
X7800000Y26042000D01*
X7784000Y26087000D01*
X7771000Y26132000D01*
X7760000Y26178000D01*
X7751000Y26224000D01*
X7745000Y26271000D01*
X7741000Y26318000D01*
X7740000Y26365000D01*
X7741000Y26412000D01*
X7745000Y26459000D01*
X7751000Y26506000D01*
X7760000Y26552000D01*
X7771000Y26598000D01*
X7784000Y26643000D01*
X7800000Y26688000D01*
X7818000Y26731000D01*
X7838000Y26774000D01*
X7861000Y26815000D01*
X7885000Y26855000D01*
X7912000Y26894000D01*
X7941000Y26931000D01*
X7971000Y26967000D01*
X8004000Y27001000D01*
X8038000Y27034000D01*
X8074000Y27064000D01*
X8111000Y27093000D01*
X8150000Y27120000D01*
X8190000Y27144000D01*
X8231000Y27167000D01*
X8274000Y27187000D01*
X8317000Y27205000D01*
X8362000Y27221000D01*
X8407000Y27234000D01*
X8453000Y27245000D01*
X8499000Y27254000D01*
X8546000Y27260000D01*
X8593000Y27264000D01*
X8640000Y27265000D01*
X11140000Y27265000D01*
X11140000Y25465000D01*
G36*
X11140000Y25465000D02*
G01*
X8640000Y25465000D01*
X8593000Y25466000D01*
X8546000Y25470000D01*
X8499000Y25476000D01*
X8453000Y25485000D01*
X8407000Y25496000D01*
X8362000Y25509000D01*
X8317000Y25525000D01*
X8274000Y25543000D01*
X8231000Y25563000D01*
X8190000Y25586000D01*
X8150000Y25610000D01*
X8111000Y25637000D01*
X8074000Y25666000D01*
X8038000Y25696000D01*
X8004000Y25729000D01*
X7971000Y25763000D01*
X7941000Y25799000D01*
X7912000Y25836000D01*
X7885000Y25875000D01*
X7861000Y25915000D01*
X7838000Y25956000D01*
X7818000Y25999000D01*
X7800000Y26042000D01*
X7784000Y26087000D01*
X7771000Y26132000D01*
X7760000Y26178000D01*
X7751000Y26224000D01*
X7745000Y26271000D01*
X7741000Y26318000D01*
X7740000Y26365000D01*
X7741000Y26412000D01*
X7745000Y26459000D01*
X7751000Y26506000D01*
X7760000Y26552000D01*
X7771000Y26598000D01*
X7784000Y26643000D01*
X7800000Y26688000D01*
X7818000Y26731000D01*
X7838000Y26774000D01*
X7861000Y26815000D01*
X7885000Y26855000D01*
X7912000Y26894000D01*
X7941000Y26931000D01*
X7971000Y26967000D01*
X8004000Y27001000D01*
X8038000Y27034000D01*
X8074000Y27064000D01*
X8111000Y27093000D01*
X8150000Y27120000D01*
X8190000Y27144000D01*
X8231000Y27167000D01*
X8274000Y27187000D01*
X8317000Y27205000D01*
X8362000Y27221000D01*
X8407000Y27234000D01*
X8453000Y27245000D01*
X8499000Y27254000D01*
X8546000Y27260000D01*
X8593000Y27264000D01*
X8640000Y27265000D01*
X11140000Y27265000D01*
X11140000Y25465000D01*
G37*
X11140000Y28005000D02*
X8640000Y28005000D01*
X8593000Y28006000D01*
X8546000Y28010000D01*
X8499000Y28016000D01*
X8453000Y28025000D01*
X8407000Y28036000D01*
X8362000Y28049000D01*
X8317000Y28065000D01*
X8274000Y28083000D01*
X8231000Y28103000D01*
X8190000Y28126000D01*
X8150000Y28150000D01*
X8111000Y28177000D01*
X8074000Y28206000D01*
X8038000Y28236000D01*
X8004000Y28269000D01*
X7971000Y28303000D01*
X7941000Y28339000D01*
X7912000Y28376000D01*
X7885000Y28415000D01*
X7861000Y28455000D01*
X7838000Y28496000D01*
X7818000Y28539000D01*
X7800000Y28582000D01*
X7784000Y28627000D01*
X7771000Y28672000D01*
X7760000Y28718000D01*
X7751000Y28764000D01*
X7745000Y28811000D01*
X7741000Y28858000D01*
X7740000Y28905000D01*
X7741000Y28952000D01*
X7745000Y28999000D01*
X7751000Y29046000D01*
X7760000Y29092000D01*
X7771000Y29138000D01*
X7784000Y29183000D01*
X7800000Y29228000D01*
X7818000Y29271000D01*
X7838000Y29314000D01*
X7861000Y29355000D01*
X7885000Y29395000D01*
X7912000Y29434000D01*
X7941000Y29471000D01*
X7971000Y29507000D01*
X8004000Y29541000D01*
X8038000Y29574000D01*
X8074000Y29604000D01*
X8111000Y29633000D01*
X8150000Y29660000D01*
X8190000Y29684000D01*
X8231000Y29707000D01*
X8274000Y29727000D01*
X8317000Y29745000D01*
X8362000Y29761000D01*
X8407000Y29774000D01*
X8453000Y29785000D01*
X8499000Y29794000D01*
X8546000Y29800000D01*
X8593000Y29804000D01*
X8640000Y29805000D01*
X11140000Y29805000D01*
X11140000Y28005000D01*
G36*
X11140000Y28005000D02*
G01*
X8640000Y28005000D01*
X8593000Y28006000D01*
X8546000Y28010000D01*
X8499000Y28016000D01*
X8453000Y28025000D01*
X8407000Y28036000D01*
X8362000Y28049000D01*
X8317000Y28065000D01*
X8274000Y28083000D01*
X8231000Y28103000D01*
X8190000Y28126000D01*
X8150000Y28150000D01*
X8111000Y28177000D01*
X8074000Y28206000D01*
X8038000Y28236000D01*
X8004000Y28269000D01*
X7971000Y28303000D01*
X7941000Y28339000D01*
X7912000Y28376000D01*
X7885000Y28415000D01*
X7861000Y28455000D01*
X7838000Y28496000D01*
X7818000Y28539000D01*
X7800000Y28582000D01*
X7784000Y28627000D01*
X7771000Y28672000D01*
X7760000Y28718000D01*
X7751000Y28764000D01*
X7745000Y28811000D01*
X7741000Y28858000D01*
X7740000Y28905000D01*
X7741000Y28952000D01*
X7745000Y28999000D01*
X7751000Y29046000D01*
X7760000Y29092000D01*
X7771000Y29138000D01*
X7784000Y29183000D01*
X7800000Y29228000D01*
X7818000Y29271000D01*
X7838000Y29314000D01*
X7861000Y29355000D01*
X7885000Y29395000D01*
X7912000Y29434000D01*
X7941000Y29471000D01*
X7971000Y29507000D01*
X8004000Y29541000D01*
X8038000Y29574000D01*
X8074000Y29604000D01*
X8111000Y29633000D01*
X8150000Y29660000D01*
X8190000Y29684000D01*
X8231000Y29707000D01*
X8274000Y29727000D01*
X8317000Y29745000D01*
X8362000Y29761000D01*
X8407000Y29774000D01*
X8453000Y29785000D01*
X8499000Y29794000D01*
X8546000Y29800000D01*
X8593000Y29804000D01*
X8640000Y29805000D01*
X11140000Y29805000D01*
X11140000Y28005000D01*
G37*
X11140000Y30545000D02*
X8640000Y30545000D01*
X8593000Y30546000D01*
X8546000Y30550000D01*
X8499000Y30556000D01*
X8453000Y30565000D01*
X8407000Y30576000D01*
X8362000Y30589000D01*
X8317000Y30605000D01*
X8274000Y30623000D01*
X8231000Y30643000D01*
X8190000Y30666000D01*
X8150000Y30690000D01*
X8111000Y30717000D01*
X8074000Y30746000D01*
X8038000Y30776000D01*
X8004000Y30809000D01*
X7971000Y30843000D01*
X7941000Y30879000D01*
X7912000Y30916000D01*
X7885000Y30955000D01*
X7861000Y30995000D01*
X7838000Y31036000D01*
X7818000Y31079000D01*
X7800000Y31122000D01*
X7784000Y31167000D01*
X7771000Y31212000D01*
X7760000Y31258000D01*
X7751000Y31304000D01*
X7745000Y31351000D01*
X7741000Y31398000D01*
X7740000Y31445000D01*
X7741000Y31492000D01*
X7745000Y31539000D01*
X7751000Y31586000D01*
X7760000Y31632000D01*
X7771000Y31678000D01*
X7784000Y31723000D01*
X7800000Y31768000D01*
X7818000Y31811000D01*
X7838000Y31854000D01*
X7861000Y31895000D01*
X7885000Y31935000D01*
X7912000Y31974000D01*
X7941000Y32011000D01*
X7971000Y32047000D01*
X8004000Y32081000D01*
X8038000Y32114000D01*
X8074000Y32144000D01*
X8111000Y32173000D01*
X8150000Y32200000D01*
X8190000Y32224000D01*
X8231000Y32247000D01*
X8274000Y32267000D01*
X8317000Y32285000D01*
X8362000Y32301000D01*
X8407000Y32314000D01*
X8453000Y32325000D01*
X8499000Y32334000D01*
X8546000Y32340000D01*
X8593000Y32344000D01*
X8640000Y32345000D01*
X11140000Y32345000D01*
X11140000Y30545000D01*
G36*
X11140000Y30545000D02*
G01*
X8640000Y30545000D01*
X8593000Y30546000D01*
X8546000Y30550000D01*
X8499000Y30556000D01*
X8453000Y30565000D01*
X8407000Y30576000D01*
X8362000Y30589000D01*
X8317000Y30605000D01*
X8274000Y30623000D01*
X8231000Y30643000D01*
X8190000Y30666000D01*
X8150000Y30690000D01*
X8111000Y30717000D01*
X8074000Y30746000D01*
X8038000Y30776000D01*
X8004000Y30809000D01*
X7971000Y30843000D01*
X7941000Y30879000D01*
X7912000Y30916000D01*
X7885000Y30955000D01*
X7861000Y30995000D01*
X7838000Y31036000D01*
X7818000Y31079000D01*
X7800000Y31122000D01*
X7784000Y31167000D01*
X7771000Y31212000D01*
X7760000Y31258000D01*
X7751000Y31304000D01*
X7745000Y31351000D01*
X7741000Y31398000D01*
X7740000Y31445000D01*
X7741000Y31492000D01*
X7745000Y31539000D01*
X7751000Y31586000D01*
X7760000Y31632000D01*
X7771000Y31678000D01*
X7784000Y31723000D01*
X7800000Y31768000D01*
X7818000Y31811000D01*
X7838000Y31854000D01*
X7861000Y31895000D01*
X7885000Y31935000D01*
X7912000Y31974000D01*
X7941000Y32011000D01*
X7971000Y32047000D01*
X8004000Y32081000D01*
X8038000Y32114000D01*
X8074000Y32144000D01*
X8111000Y32173000D01*
X8150000Y32200000D01*
X8190000Y32224000D01*
X8231000Y32247000D01*
X8274000Y32267000D01*
X8317000Y32285000D01*
X8362000Y32301000D01*
X8407000Y32314000D01*
X8453000Y32325000D01*
X8499000Y32334000D01*
X8546000Y32340000D01*
X8593000Y32344000D01*
X8640000Y32345000D01*
X11140000Y32345000D01*
X11140000Y30545000D01*
G37*
X11140000Y33085000D02*
X8640000Y33085000D01*
X8593000Y33086000D01*
X8546000Y33090000D01*
X8499000Y33096000D01*
X8453000Y33105000D01*
X8407000Y33116000D01*
X8362000Y33129000D01*
X8317000Y33145000D01*
X8274000Y33163000D01*
X8231000Y33183000D01*
X8190000Y33206000D01*
X8150000Y33230000D01*
X8111000Y33257000D01*
X8074000Y33286000D01*
X8038000Y33316000D01*
X8004000Y33349000D01*
X7971000Y33383000D01*
X7941000Y33419000D01*
X7912000Y33456000D01*
X7885000Y33495000D01*
X7861000Y33535000D01*
X7838000Y33576000D01*
X7818000Y33619000D01*
X7800000Y33662000D01*
X7784000Y33707000D01*
X7771000Y33752000D01*
X7760000Y33798000D01*
X7751000Y33844000D01*
X7745000Y33891000D01*
X7741000Y33938000D01*
X7740000Y33985000D01*
X7741000Y34032000D01*
X7745000Y34079000D01*
X7751000Y34126000D01*
X7760000Y34172000D01*
X7771000Y34218000D01*
X7784000Y34263000D01*
X7800000Y34308000D01*
X7818000Y34351000D01*
X7838000Y34394000D01*
X7861000Y34435000D01*
X7885000Y34475000D01*
X7912000Y34514000D01*
X7941000Y34551000D01*
X7971000Y34587000D01*
X8004000Y34621000D01*
X8038000Y34654000D01*
X8074000Y34684000D01*
X8111000Y34713000D01*
X8150000Y34740000D01*
X8190000Y34764000D01*
X8231000Y34787000D01*
X8274000Y34807000D01*
X8317000Y34825000D01*
X8362000Y34841000D01*
X8407000Y34854000D01*
X8453000Y34865000D01*
X8499000Y34874000D01*
X8546000Y34880000D01*
X8593000Y34884000D01*
X8640000Y34885000D01*
X11140000Y34885000D01*
X11140000Y33085000D01*
G36*
X11140000Y33085000D02*
G01*
X8640000Y33085000D01*
X8593000Y33086000D01*
X8546000Y33090000D01*
X8499000Y33096000D01*
X8453000Y33105000D01*
X8407000Y33116000D01*
X8362000Y33129000D01*
X8317000Y33145000D01*
X8274000Y33163000D01*
X8231000Y33183000D01*
X8190000Y33206000D01*
X8150000Y33230000D01*
X8111000Y33257000D01*
X8074000Y33286000D01*
X8038000Y33316000D01*
X8004000Y33349000D01*
X7971000Y33383000D01*
X7941000Y33419000D01*
X7912000Y33456000D01*
X7885000Y33495000D01*
X7861000Y33535000D01*
X7838000Y33576000D01*
X7818000Y33619000D01*
X7800000Y33662000D01*
X7784000Y33707000D01*
X7771000Y33752000D01*
X7760000Y33798000D01*
X7751000Y33844000D01*
X7745000Y33891000D01*
X7741000Y33938000D01*
X7740000Y33985000D01*
X7741000Y34032000D01*
X7745000Y34079000D01*
X7751000Y34126000D01*
X7760000Y34172000D01*
X7771000Y34218000D01*
X7784000Y34263000D01*
X7800000Y34308000D01*
X7818000Y34351000D01*
X7838000Y34394000D01*
X7861000Y34435000D01*
X7885000Y34475000D01*
X7912000Y34514000D01*
X7941000Y34551000D01*
X7971000Y34587000D01*
X8004000Y34621000D01*
X8038000Y34654000D01*
X8074000Y34684000D01*
X8111000Y34713000D01*
X8150000Y34740000D01*
X8190000Y34764000D01*
X8231000Y34787000D01*
X8274000Y34807000D01*
X8317000Y34825000D01*
X8362000Y34841000D01*
X8407000Y34854000D01*
X8453000Y34865000D01*
X8499000Y34874000D01*
X8546000Y34880000D01*
X8593000Y34884000D01*
X8640000Y34885000D01*
X11140000Y34885000D01*
X11140000Y33085000D01*
G37*
X11140000Y38165000D02*
X8640000Y38165000D01*
X8593000Y38166000D01*
X8546000Y38170000D01*
X8499000Y38176000D01*
X8453000Y38185000D01*
X8407000Y38196000D01*
X8362000Y38209000D01*
X8317000Y38225000D01*
X8274000Y38243000D01*
X8231000Y38263000D01*
X8190000Y38286000D01*
X8150000Y38310000D01*
X8111000Y38337000D01*
X8074000Y38366000D01*
X8038000Y38396000D01*
X8004000Y38429000D01*
X7971000Y38463000D01*
X7941000Y38499000D01*
X7912000Y38536000D01*
X7885000Y38575000D01*
X7861000Y38615000D01*
X7838000Y38656000D01*
X7818000Y38699000D01*
X7800000Y38742000D01*
X7784000Y38787000D01*
X7771000Y38832000D01*
X7760000Y38878000D01*
X7751000Y38924000D01*
X7745000Y38971000D01*
X7741000Y39018000D01*
X7740000Y39065000D01*
X7741000Y39112000D01*
X7745000Y39159000D01*
X7751000Y39206000D01*
X7760000Y39252000D01*
X7771000Y39298000D01*
X7784000Y39343000D01*
X7800000Y39388000D01*
X7818000Y39431000D01*
X7838000Y39474000D01*
X7861000Y39515000D01*
X7885000Y39555000D01*
X7912000Y39594000D01*
X7941000Y39631000D01*
X7971000Y39667000D01*
X8004000Y39701000D01*
X8038000Y39734000D01*
X8074000Y39764000D01*
X8111000Y39793000D01*
X8150000Y39820000D01*
X8190000Y39844000D01*
X8231000Y39867000D01*
X8274000Y39887000D01*
X8317000Y39905000D01*
X8362000Y39921000D01*
X8407000Y39934000D01*
X8453000Y39945000D01*
X8499000Y39954000D01*
X8546000Y39960000D01*
X8593000Y39964000D01*
X8640000Y39965000D01*
X11140000Y39965000D01*
X11140000Y38165000D01*
G36*
X11140000Y38165000D02*
G01*
X8640000Y38165000D01*
X8593000Y38166000D01*
X8546000Y38170000D01*
X8499000Y38176000D01*
X8453000Y38185000D01*
X8407000Y38196000D01*
X8362000Y38209000D01*
X8317000Y38225000D01*
X8274000Y38243000D01*
X8231000Y38263000D01*
X8190000Y38286000D01*
X8150000Y38310000D01*
X8111000Y38337000D01*
X8074000Y38366000D01*
X8038000Y38396000D01*
X8004000Y38429000D01*
X7971000Y38463000D01*
X7941000Y38499000D01*
X7912000Y38536000D01*
X7885000Y38575000D01*
X7861000Y38615000D01*
X7838000Y38656000D01*
X7818000Y38699000D01*
X7800000Y38742000D01*
X7784000Y38787000D01*
X7771000Y38832000D01*
X7760000Y38878000D01*
X7751000Y38924000D01*
X7745000Y38971000D01*
X7741000Y39018000D01*
X7740000Y39065000D01*
X7741000Y39112000D01*
X7745000Y39159000D01*
X7751000Y39206000D01*
X7760000Y39252000D01*
X7771000Y39298000D01*
X7784000Y39343000D01*
X7800000Y39388000D01*
X7818000Y39431000D01*
X7838000Y39474000D01*
X7861000Y39515000D01*
X7885000Y39555000D01*
X7912000Y39594000D01*
X7941000Y39631000D01*
X7971000Y39667000D01*
X8004000Y39701000D01*
X8038000Y39734000D01*
X8074000Y39764000D01*
X8111000Y39793000D01*
X8150000Y39820000D01*
X8190000Y39844000D01*
X8231000Y39867000D01*
X8274000Y39887000D01*
X8317000Y39905000D01*
X8362000Y39921000D01*
X8407000Y39934000D01*
X8453000Y39945000D01*
X8499000Y39954000D01*
X8546000Y39960000D01*
X8593000Y39964000D01*
X8640000Y39965000D01*
X11140000Y39965000D01*
X11140000Y38165000D01*
G37*
X11140000Y40705000D02*
X8640000Y40705000D01*
X8593000Y40706000D01*
X8546000Y40710000D01*
X8499000Y40716000D01*
X8453000Y40725000D01*
X8407000Y40736000D01*
X8362000Y40749000D01*
X8317000Y40765000D01*
X8274000Y40783000D01*
X8231000Y40803000D01*
X8190000Y40826000D01*
X8150000Y40850000D01*
X8111000Y40877000D01*
X8074000Y40906000D01*
X8038000Y40936000D01*
X8004000Y40969000D01*
X7971000Y41003000D01*
X7941000Y41039000D01*
X7912000Y41076000D01*
X7885000Y41115000D01*
X7861000Y41155000D01*
X7838000Y41196000D01*
X7818000Y41239000D01*
X7800000Y41282000D01*
X7784000Y41327000D01*
X7771000Y41372000D01*
X7760000Y41418000D01*
X7751000Y41464000D01*
X7745000Y41511000D01*
X7741000Y41558000D01*
X7740000Y41605000D01*
X7741000Y41652000D01*
X7745000Y41699000D01*
X7751000Y41746000D01*
X7760000Y41792000D01*
X7771000Y41838000D01*
X7784000Y41883000D01*
X7800000Y41928000D01*
X7818000Y41971000D01*
X7838000Y42014000D01*
X7861000Y42055000D01*
X7885000Y42095000D01*
X7912000Y42134000D01*
X7941000Y42171000D01*
X7971000Y42207000D01*
X8004000Y42241000D01*
X8038000Y42274000D01*
X8074000Y42304000D01*
X8111000Y42333000D01*
X8150000Y42360000D01*
X8190000Y42384000D01*
X8231000Y42407000D01*
X8274000Y42427000D01*
X8317000Y42445000D01*
X8362000Y42461000D01*
X8407000Y42474000D01*
X8453000Y42485000D01*
X8499000Y42494000D01*
X8546000Y42500000D01*
X8593000Y42504000D01*
X8640000Y42505000D01*
X11140000Y42505000D01*
X11140000Y40705000D01*
G36*
X11140000Y40705000D02*
G01*
X8640000Y40705000D01*
X8593000Y40706000D01*
X8546000Y40710000D01*
X8499000Y40716000D01*
X8453000Y40725000D01*
X8407000Y40736000D01*
X8362000Y40749000D01*
X8317000Y40765000D01*
X8274000Y40783000D01*
X8231000Y40803000D01*
X8190000Y40826000D01*
X8150000Y40850000D01*
X8111000Y40877000D01*
X8074000Y40906000D01*
X8038000Y40936000D01*
X8004000Y40969000D01*
X7971000Y41003000D01*
X7941000Y41039000D01*
X7912000Y41076000D01*
X7885000Y41115000D01*
X7861000Y41155000D01*
X7838000Y41196000D01*
X7818000Y41239000D01*
X7800000Y41282000D01*
X7784000Y41327000D01*
X7771000Y41372000D01*
X7760000Y41418000D01*
X7751000Y41464000D01*
X7745000Y41511000D01*
X7741000Y41558000D01*
X7740000Y41605000D01*
X7741000Y41652000D01*
X7745000Y41699000D01*
X7751000Y41746000D01*
X7760000Y41792000D01*
X7771000Y41838000D01*
X7784000Y41883000D01*
X7800000Y41928000D01*
X7818000Y41971000D01*
X7838000Y42014000D01*
X7861000Y42055000D01*
X7885000Y42095000D01*
X7912000Y42134000D01*
X7941000Y42171000D01*
X7971000Y42207000D01*
X8004000Y42241000D01*
X8038000Y42274000D01*
X8074000Y42304000D01*
X8111000Y42333000D01*
X8150000Y42360000D01*
X8190000Y42384000D01*
X8231000Y42407000D01*
X8274000Y42427000D01*
X8317000Y42445000D01*
X8362000Y42461000D01*
X8407000Y42474000D01*
X8453000Y42485000D01*
X8499000Y42494000D01*
X8546000Y42500000D01*
X8593000Y42504000D01*
X8640000Y42505000D01*
X11140000Y42505000D01*
X11140000Y40705000D01*
G37*
X11140000Y43245000D02*
X8640000Y43245000D01*
X8593000Y43246000D01*
X8546000Y43250000D01*
X8499000Y43256000D01*
X8453000Y43265000D01*
X8407000Y43276000D01*
X8362000Y43289000D01*
X8317000Y43305000D01*
X8274000Y43323000D01*
X8231000Y43343000D01*
X8190000Y43366000D01*
X8150000Y43390000D01*
X8111000Y43417000D01*
X8074000Y43446000D01*
X8038000Y43476000D01*
X8004000Y43509000D01*
X7971000Y43543000D01*
X7941000Y43579000D01*
X7912000Y43616000D01*
X7885000Y43655000D01*
X7861000Y43695000D01*
X7838000Y43736000D01*
X7818000Y43779000D01*
X7800000Y43822000D01*
X7784000Y43867000D01*
X7771000Y43912000D01*
X7760000Y43958000D01*
X7751000Y44004000D01*
X7745000Y44051000D01*
X7741000Y44098000D01*
X7740000Y44145000D01*
X7741000Y44192000D01*
X7745000Y44239000D01*
X7751000Y44286000D01*
X7760000Y44332000D01*
X7771000Y44378000D01*
X7784000Y44423000D01*
X7800000Y44468000D01*
X7818000Y44511000D01*
X7838000Y44554000D01*
X7861000Y44595000D01*
X7885000Y44635000D01*
X7912000Y44674000D01*
X7941000Y44711000D01*
X7971000Y44747000D01*
X8004000Y44781000D01*
X8038000Y44814000D01*
X8074000Y44844000D01*
X8111000Y44873000D01*
X8150000Y44900000D01*
X8190000Y44924000D01*
X8231000Y44947000D01*
X8274000Y44967000D01*
X8317000Y44985000D01*
X8362000Y45001000D01*
X8407000Y45014000D01*
X8453000Y45025000D01*
X8499000Y45034000D01*
X8546000Y45040000D01*
X8593000Y45044000D01*
X8640000Y45045000D01*
X11140000Y45045000D01*
X11140000Y43245000D01*
G36*
X11140000Y43245000D02*
G01*
X8640000Y43245000D01*
X8593000Y43246000D01*
X8546000Y43250000D01*
X8499000Y43256000D01*
X8453000Y43265000D01*
X8407000Y43276000D01*
X8362000Y43289000D01*
X8317000Y43305000D01*
X8274000Y43323000D01*
X8231000Y43343000D01*
X8190000Y43366000D01*
X8150000Y43390000D01*
X8111000Y43417000D01*
X8074000Y43446000D01*
X8038000Y43476000D01*
X8004000Y43509000D01*
X7971000Y43543000D01*
X7941000Y43579000D01*
X7912000Y43616000D01*
X7885000Y43655000D01*
X7861000Y43695000D01*
X7838000Y43736000D01*
X7818000Y43779000D01*
X7800000Y43822000D01*
X7784000Y43867000D01*
X7771000Y43912000D01*
X7760000Y43958000D01*
X7751000Y44004000D01*
X7745000Y44051000D01*
X7741000Y44098000D01*
X7740000Y44145000D01*
X7741000Y44192000D01*
X7745000Y44239000D01*
X7751000Y44286000D01*
X7760000Y44332000D01*
X7771000Y44378000D01*
X7784000Y44423000D01*
X7800000Y44468000D01*
X7818000Y44511000D01*
X7838000Y44554000D01*
X7861000Y44595000D01*
X7885000Y44635000D01*
X7912000Y44674000D01*
X7941000Y44711000D01*
X7971000Y44747000D01*
X8004000Y44781000D01*
X8038000Y44814000D01*
X8074000Y44844000D01*
X8111000Y44873000D01*
X8150000Y44900000D01*
X8190000Y44924000D01*
X8231000Y44947000D01*
X8274000Y44967000D01*
X8317000Y44985000D01*
X8362000Y45001000D01*
X8407000Y45014000D01*
X8453000Y45025000D01*
X8499000Y45034000D01*
X8546000Y45040000D01*
X8593000Y45044000D01*
X8640000Y45045000D01*
X11140000Y45045000D01*
X11140000Y43245000D01*
G37*
X11140000Y45785000D02*
X8640000Y45785000D01*
X8593000Y45786000D01*
X8546000Y45790000D01*
X8499000Y45796000D01*
X8453000Y45805000D01*
X8407000Y45816000D01*
X8362000Y45829000D01*
X8317000Y45845000D01*
X8274000Y45863000D01*
X8231000Y45883000D01*
X8190000Y45906000D01*
X8150000Y45930000D01*
X8111000Y45957000D01*
X8074000Y45986000D01*
X8038000Y46016000D01*
X8004000Y46049000D01*
X7971000Y46083000D01*
X7941000Y46119000D01*
X7912000Y46156000D01*
X7885000Y46195000D01*
X7861000Y46235000D01*
X7838000Y46276000D01*
X7818000Y46319000D01*
X7800000Y46362000D01*
X7784000Y46407000D01*
X7771000Y46452000D01*
X7760000Y46498000D01*
X7751000Y46544000D01*
X7745000Y46591000D01*
X7741000Y46638000D01*
X7740000Y46685000D01*
X7741000Y46732000D01*
X7745000Y46779000D01*
X7751000Y46826000D01*
X7760000Y46872000D01*
X7771000Y46918000D01*
X7784000Y46963000D01*
X7800000Y47008000D01*
X7818000Y47051000D01*
X7838000Y47094000D01*
X7861000Y47135000D01*
X7885000Y47175000D01*
X7912000Y47214000D01*
X7941000Y47251000D01*
X7971000Y47287000D01*
X8004000Y47321000D01*
X8038000Y47354000D01*
X8074000Y47384000D01*
X8111000Y47413000D01*
X8150000Y47440000D01*
X8190000Y47464000D01*
X8231000Y47487000D01*
X8274000Y47507000D01*
X8317000Y47525000D01*
X8362000Y47541000D01*
X8407000Y47554000D01*
X8453000Y47565000D01*
X8499000Y47574000D01*
X8546000Y47580000D01*
X8593000Y47584000D01*
X8640000Y47585000D01*
X11140000Y47585000D01*
X11140000Y45785000D01*
G36*
X11140000Y45785000D02*
G01*
X8640000Y45785000D01*
X8593000Y45786000D01*
X8546000Y45790000D01*
X8499000Y45796000D01*
X8453000Y45805000D01*
X8407000Y45816000D01*
X8362000Y45829000D01*
X8317000Y45845000D01*
X8274000Y45863000D01*
X8231000Y45883000D01*
X8190000Y45906000D01*
X8150000Y45930000D01*
X8111000Y45957000D01*
X8074000Y45986000D01*
X8038000Y46016000D01*
X8004000Y46049000D01*
X7971000Y46083000D01*
X7941000Y46119000D01*
X7912000Y46156000D01*
X7885000Y46195000D01*
X7861000Y46235000D01*
X7838000Y46276000D01*
X7818000Y46319000D01*
X7800000Y46362000D01*
X7784000Y46407000D01*
X7771000Y46452000D01*
X7760000Y46498000D01*
X7751000Y46544000D01*
X7745000Y46591000D01*
X7741000Y46638000D01*
X7740000Y46685000D01*
X7741000Y46732000D01*
X7745000Y46779000D01*
X7751000Y46826000D01*
X7760000Y46872000D01*
X7771000Y46918000D01*
X7784000Y46963000D01*
X7800000Y47008000D01*
X7818000Y47051000D01*
X7838000Y47094000D01*
X7861000Y47135000D01*
X7885000Y47175000D01*
X7912000Y47214000D01*
X7941000Y47251000D01*
X7971000Y47287000D01*
X8004000Y47321000D01*
X8038000Y47354000D01*
X8074000Y47384000D01*
X8111000Y47413000D01*
X8150000Y47440000D01*
X8190000Y47464000D01*
X8231000Y47487000D01*
X8274000Y47507000D01*
X8317000Y47525000D01*
X8362000Y47541000D01*
X8407000Y47554000D01*
X8453000Y47565000D01*
X8499000Y47574000D01*
X8546000Y47580000D01*
X8593000Y47584000D01*
X8640000Y47585000D01*
X11140000Y47585000D01*
X11140000Y45785000D01*
G37*
X11140000Y50865000D02*
X8640000Y50865000D01*
X8593000Y50866000D01*
X8546000Y50870000D01*
X8499000Y50876000D01*
X8453000Y50885000D01*
X8407000Y50896000D01*
X8362000Y50909000D01*
X8317000Y50925000D01*
X8274000Y50943000D01*
X8231000Y50963000D01*
X8190000Y50986000D01*
X8150000Y51010000D01*
X8111000Y51037000D01*
X8074000Y51066000D01*
X8038000Y51096000D01*
X8004000Y51129000D01*
X7971000Y51163000D01*
X7941000Y51199000D01*
X7912000Y51236000D01*
X7885000Y51275000D01*
X7861000Y51315000D01*
X7838000Y51356000D01*
X7818000Y51399000D01*
X7800000Y51442000D01*
X7784000Y51487000D01*
X7771000Y51532000D01*
X7760000Y51578000D01*
X7751000Y51624000D01*
X7745000Y51671000D01*
X7741000Y51718000D01*
X7740000Y51765000D01*
X7741000Y51812000D01*
X7745000Y51859000D01*
X7751000Y51906000D01*
X7760000Y51952000D01*
X7771000Y51998000D01*
X7784000Y52043000D01*
X7800000Y52088000D01*
X7818000Y52131000D01*
X7838000Y52174000D01*
X7861000Y52215000D01*
X7885000Y52255000D01*
X7912000Y52294000D01*
X7941000Y52331000D01*
X7971000Y52367000D01*
X8004000Y52401000D01*
X8038000Y52434000D01*
X8074000Y52464000D01*
X8111000Y52493000D01*
X8150000Y52520000D01*
X8190000Y52544000D01*
X8231000Y52567000D01*
X8274000Y52587000D01*
X8317000Y52605000D01*
X8362000Y52621000D01*
X8407000Y52634000D01*
X8453000Y52645000D01*
X8499000Y52654000D01*
X8546000Y52660000D01*
X8593000Y52664000D01*
X8640000Y52665000D01*
X11140000Y52665000D01*
X11140000Y50865000D01*
G36*
X11140000Y50865000D02*
G01*
X8640000Y50865000D01*
X8593000Y50866000D01*
X8546000Y50870000D01*
X8499000Y50876000D01*
X8453000Y50885000D01*
X8407000Y50896000D01*
X8362000Y50909000D01*
X8317000Y50925000D01*
X8274000Y50943000D01*
X8231000Y50963000D01*
X8190000Y50986000D01*
X8150000Y51010000D01*
X8111000Y51037000D01*
X8074000Y51066000D01*
X8038000Y51096000D01*
X8004000Y51129000D01*
X7971000Y51163000D01*
X7941000Y51199000D01*
X7912000Y51236000D01*
X7885000Y51275000D01*
X7861000Y51315000D01*
X7838000Y51356000D01*
X7818000Y51399000D01*
X7800000Y51442000D01*
X7784000Y51487000D01*
X7771000Y51532000D01*
X7760000Y51578000D01*
X7751000Y51624000D01*
X7745000Y51671000D01*
X7741000Y51718000D01*
X7740000Y51765000D01*
X7741000Y51812000D01*
X7745000Y51859000D01*
X7751000Y51906000D01*
X7760000Y51952000D01*
X7771000Y51998000D01*
X7784000Y52043000D01*
X7800000Y52088000D01*
X7818000Y52131000D01*
X7838000Y52174000D01*
X7861000Y52215000D01*
X7885000Y52255000D01*
X7912000Y52294000D01*
X7941000Y52331000D01*
X7971000Y52367000D01*
X8004000Y52401000D01*
X8038000Y52434000D01*
X8074000Y52464000D01*
X8111000Y52493000D01*
X8150000Y52520000D01*
X8190000Y52544000D01*
X8231000Y52567000D01*
X8274000Y52587000D01*
X8317000Y52605000D01*
X8362000Y52621000D01*
X8407000Y52634000D01*
X8453000Y52645000D01*
X8499000Y52654000D01*
X8546000Y52660000D01*
X8593000Y52664000D01*
X8640000Y52665000D01*
X11140000Y52665000D01*
X11140000Y50865000D01*
G37*
X11140000Y53405000D02*
X8640000Y53405000D01*
X8593000Y53406000D01*
X8546000Y53410000D01*
X8499000Y53416000D01*
X8453000Y53425000D01*
X8407000Y53436000D01*
X8362000Y53449000D01*
X8317000Y53465000D01*
X8274000Y53483000D01*
X8231000Y53503000D01*
X8190000Y53526000D01*
X8150000Y53550000D01*
X8111000Y53577000D01*
X8074000Y53606000D01*
X8038000Y53636000D01*
X8004000Y53669000D01*
X7971000Y53703000D01*
X7941000Y53739000D01*
X7912000Y53776000D01*
X7885000Y53815000D01*
X7861000Y53855000D01*
X7838000Y53896000D01*
X7818000Y53939000D01*
X7800000Y53982000D01*
X7784000Y54027000D01*
X7771000Y54072000D01*
X7760000Y54118000D01*
X7751000Y54164000D01*
X7745000Y54211000D01*
X7741000Y54258000D01*
X7740000Y54305000D01*
X7741000Y54352000D01*
X7745000Y54399000D01*
X7751000Y54446000D01*
X7760000Y54492000D01*
X7771000Y54538000D01*
X7784000Y54583000D01*
X7800000Y54628000D01*
X7818000Y54671000D01*
X7838000Y54714000D01*
X7861000Y54755000D01*
X7885000Y54795000D01*
X7912000Y54834000D01*
X7941000Y54871000D01*
X7971000Y54907000D01*
X8004000Y54941000D01*
X8038000Y54974000D01*
X8074000Y55004000D01*
X8111000Y55033000D01*
X8150000Y55060000D01*
X8190000Y55084000D01*
X8231000Y55107000D01*
X8274000Y55127000D01*
X8317000Y55145000D01*
X8362000Y55161000D01*
X8407000Y55174000D01*
X8453000Y55185000D01*
X8499000Y55194000D01*
X8546000Y55200000D01*
X8593000Y55204000D01*
X8640000Y55205000D01*
X11140000Y55205000D01*
X11140000Y53405000D01*
G36*
X11140000Y53405000D02*
G01*
X8640000Y53405000D01*
X8593000Y53406000D01*
X8546000Y53410000D01*
X8499000Y53416000D01*
X8453000Y53425000D01*
X8407000Y53436000D01*
X8362000Y53449000D01*
X8317000Y53465000D01*
X8274000Y53483000D01*
X8231000Y53503000D01*
X8190000Y53526000D01*
X8150000Y53550000D01*
X8111000Y53577000D01*
X8074000Y53606000D01*
X8038000Y53636000D01*
X8004000Y53669000D01*
X7971000Y53703000D01*
X7941000Y53739000D01*
X7912000Y53776000D01*
X7885000Y53815000D01*
X7861000Y53855000D01*
X7838000Y53896000D01*
X7818000Y53939000D01*
X7800000Y53982000D01*
X7784000Y54027000D01*
X7771000Y54072000D01*
X7760000Y54118000D01*
X7751000Y54164000D01*
X7745000Y54211000D01*
X7741000Y54258000D01*
X7740000Y54305000D01*
X7741000Y54352000D01*
X7745000Y54399000D01*
X7751000Y54446000D01*
X7760000Y54492000D01*
X7771000Y54538000D01*
X7784000Y54583000D01*
X7800000Y54628000D01*
X7818000Y54671000D01*
X7838000Y54714000D01*
X7861000Y54755000D01*
X7885000Y54795000D01*
X7912000Y54834000D01*
X7941000Y54871000D01*
X7971000Y54907000D01*
X8004000Y54941000D01*
X8038000Y54974000D01*
X8074000Y55004000D01*
X8111000Y55033000D01*
X8150000Y55060000D01*
X8190000Y55084000D01*
X8231000Y55107000D01*
X8274000Y55127000D01*
X8317000Y55145000D01*
X8362000Y55161000D01*
X8407000Y55174000D01*
X8453000Y55185000D01*
X8499000Y55194000D01*
X8546000Y55200000D01*
X8593000Y55204000D01*
X8640000Y55205000D01*
X11140000Y55205000D01*
X11140000Y53405000D01*
G37*
X-9093000Y6944000D02*
X-9046000Y6940000D01*
X-8999000Y6934000D01*
X-8953000Y6925000D01*
X-8907000Y6914000D01*
X-8862000Y6901000D01*
X-8817000Y6885000D01*
X-8774000Y6867000D01*
X-8731000Y6847000D01*
X-8690000Y6824000D01*
X-8650000Y6800000D01*
X-8611000Y6773000D01*
X-8574000Y6744000D01*
X-8538000Y6714000D01*
X-8504000Y6681000D01*
X-8471000Y6647000D01*
X-8441000Y6611000D01*
X-8412000Y6574000D01*
X-8385000Y6535000D01*
X-8361000Y6495000D01*
X-8338000Y6454000D01*
X-8318000Y6411000D01*
X-8300000Y6368000D01*
X-8284000Y6323000D01*
X-8271000Y6278000D01*
X-8260000Y6232000D01*
X-8251000Y6186000D01*
X-8245000Y6139000D01*
X-8241000Y6092000D01*
X-8240000Y6045000D01*
X-8241000Y5998000D01*
X-8245000Y5951000D01*
X-8251000Y5904000D01*
X-8260000Y5858000D01*
X-8271000Y5812000D01*
X-8284000Y5767000D01*
X-8300000Y5722000D01*
X-8318000Y5679000D01*
X-8338000Y5636000D01*
X-8361000Y5595000D01*
X-8385000Y5555000D01*
X-8412000Y5516000D01*
X-8441000Y5479000D01*
X-8471000Y5443000D01*
X-8504000Y5409000D01*
X-8538000Y5376000D01*
X-8574000Y5346000D01*
X-8611000Y5317000D01*
X-8650000Y5290000D01*
X-8690000Y5266000D01*
X-8731000Y5243000D01*
X-8774000Y5223000D01*
X-8817000Y5205000D01*
X-8862000Y5189000D01*
X-8907000Y5176000D01*
X-8953000Y5165000D01*
X-8999000Y5156000D01*
X-9046000Y5150000D01*
X-9093000Y5146000D01*
X-9140000Y5145000D01*
X-11640000Y5145000D01*
X-11640000Y6945000D01*
X-9140000Y6945000D01*
X-9093000Y6944000D01*
G36*
X-9093000Y6944000D02*
G01*
X-9046000Y6940000D01*
X-8999000Y6934000D01*
X-8953000Y6925000D01*
X-8907000Y6914000D01*
X-8862000Y6901000D01*
X-8817000Y6885000D01*
X-8774000Y6867000D01*
X-8731000Y6847000D01*
X-8690000Y6824000D01*
X-8650000Y6800000D01*
X-8611000Y6773000D01*
X-8574000Y6744000D01*
X-8538000Y6714000D01*
X-8504000Y6681000D01*
X-8471000Y6647000D01*
X-8441000Y6611000D01*
X-8412000Y6574000D01*
X-8385000Y6535000D01*
X-8361000Y6495000D01*
X-8338000Y6454000D01*
X-8318000Y6411000D01*
X-8300000Y6368000D01*
X-8284000Y6323000D01*
X-8271000Y6278000D01*
X-8260000Y6232000D01*
X-8251000Y6186000D01*
X-8245000Y6139000D01*
X-8241000Y6092000D01*
X-8240000Y6045000D01*
X-8241000Y5998000D01*
X-8245000Y5951000D01*
X-8251000Y5904000D01*
X-8260000Y5858000D01*
X-8271000Y5812000D01*
X-8284000Y5767000D01*
X-8300000Y5722000D01*
X-8318000Y5679000D01*
X-8338000Y5636000D01*
X-8361000Y5595000D01*
X-8385000Y5555000D01*
X-8412000Y5516000D01*
X-8441000Y5479000D01*
X-8471000Y5443000D01*
X-8504000Y5409000D01*
X-8538000Y5376000D01*
X-8574000Y5346000D01*
X-8611000Y5317000D01*
X-8650000Y5290000D01*
X-8690000Y5266000D01*
X-8731000Y5243000D01*
X-8774000Y5223000D01*
X-8817000Y5205000D01*
X-8862000Y5189000D01*
X-8907000Y5176000D01*
X-8953000Y5165000D01*
X-8999000Y5156000D01*
X-9046000Y5150000D01*
X-9093000Y5146000D01*
X-9140000Y5145000D01*
X-11640000Y5145000D01*
X-11640000Y6945000D01*
X-9140000Y6945000D01*
X-9093000Y6944000D01*
G37*
X-9093000Y9484000D02*
X-9046000Y9480000D01*
X-8999000Y9474000D01*
X-8953000Y9465000D01*
X-8907000Y9454000D01*
X-8862000Y9441000D01*
X-8817000Y9425000D01*
X-8774000Y9407000D01*
X-8731000Y9387000D01*
X-8690000Y9364000D01*
X-8650000Y9340000D01*
X-8611000Y9313000D01*
X-8574000Y9284000D01*
X-8538000Y9254000D01*
X-8504000Y9221000D01*
X-8471000Y9187000D01*
X-8441000Y9151000D01*
X-8412000Y9114000D01*
X-8385000Y9075000D01*
X-8361000Y9035000D01*
X-8338000Y8994000D01*
X-8318000Y8951000D01*
X-8300000Y8908000D01*
X-8284000Y8863000D01*
X-8271000Y8818000D01*
X-8260000Y8772000D01*
X-8251000Y8726000D01*
X-8245000Y8679000D01*
X-8241000Y8632000D01*
X-8240000Y8585000D01*
X-8241000Y8538000D01*
X-8245000Y8491000D01*
X-8251000Y8444000D01*
X-8260000Y8398000D01*
X-8271000Y8352000D01*
X-8284000Y8307000D01*
X-8300000Y8262000D01*
X-8318000Y8219000D01*
X-8338000Y8176000D01*
X-8361000Y8135000D01*
X-8385000Y8095000D01*
X-8412000Y8056000D01*
X-8441000Y8019000D01*
X-8471000Y7983000D01*
X-8504000Y7949000D01*
X-8538000Y7916000D01*
X-8574000Y7886000D01*
X-8611000Y7857000D01*
X-8650000Y7830000D01*
X-8690000Y7806000D01*
X-8731000Y7783000D01*
X-8774000Y7763000D01*
X-8817000Y7745000D01*
X-8862000Y7729000D01*
X-8907000Y7716000D01*
X-8953000Y7705000D01*
X-8999000Y7696000D01*
X-9046000Y7690000D01*
X-9093000Y7686000D01*
X-9140000Y7685000D01*
X-11640000Y7685000D01*
X-11640000Y9485000D01*
X-9140000Y9485000D01*
X-9093000Y9484000D01*
G36*
X-9093000Y9484000D02*
G01*
X-9046000Y9480000D01*
X-8999000Y9474000D01*
X-8953000Y9465000D01*
X-8907000Y9454000D01*
X-8862000Y9441000D01*
X-8817000Y9425000D01*
X-8774000Y9407000D01*
X-8731000Y9387000D01*
X-8690000Y9364000D01*
X-8650000Y9340000D01*
X-8611000Y9313000D01*
X-8574000Y9284000D01*
X-8538000Y9254000D01*
X-8504000Y9221000D01*
X-8471000Y9187000D01*
X-8441000Y9151000D01*
X-8412000Y9114000D01*
X-8385000Y9075000D01*
X-8361000Y9035000D01*
X-8338000Y8994000D01*
X-8318000Y8951000D01*
X-8300000Y8908000D01*
X-8284000Y8863000D01*
X-8271000Y8818000D01*
X-8260000Y8772000D01*
X-8251000Y8726000D01*
X-8245000Y8679000D01*
X-8241000Y8632000D01*
X-8240000Y8585000D01*
X-8241000Y8538000D01*
X-8245000Y8491000D01*
X-8251000Y8444000D01*
X-8260000Y8398000D01*
X-8271000Y8352000D01*
X-8284000Y8307000D01*
X-8300000Y8262000D01*
X-8318000Y8219000D01*
X-8338000Y8176000D01*
X-8361000Y8135000D01*
X-8385000Y8095000D01*
X-8412000Y8056000D01*
X-8441000Y8019000D01*
X-8471000Y7983000D01*
X-8504000Y7949000D01*
X-8538000Y7916000D01*
X-8574000Y7886000D01*
X-8611000Y7857000D01*
X-8650000Y7830000D01*
X-8690000Y7806000D01*
X-8731000Y7783000D01*
X-8774000Y7763000D01*
X-8817000Y7745000D01*
X-8862000Y7729000D01*
X-8907000Y7716000D01*
X-8953000Y7705000D01*
X-8999000Y7696000D01*
X-9046000Y7690000D01*
X-9093000Y7686000D01*
X-9140000Y7685000D01*
X-11640000Y7685000D01*
X-11640000Y9485000D01*
X-9140000Y9485000D01*
X-9093000Y9484000D01*
G37*
X-9093000Y14564000D02*
X-9046000Y14560000D01*
X-8999000Y14554000D01*
X-8953000Y14545000D01*
X-8907000Y14534000D01*
X-8862000Y14521000D01*
X-8817000Y14505000D01*
X-8774000Y14487000D01*
X-8731000Y14467000D01*
X-8690000Y14444000D01*
X-8650000Y14420000D01*
X-8611000Y14393000D01*
X-8574000Y14364000D01*
X-8538000Y14334000D01*
X-8504000Y14301000D01*
X-8471000Y14267000D01*
X-8441000Y14231000D01*
X-8412000Y14194000D01*
X-8385000Y14155000D01*
X-8361000Y14115000D01*
X-8338000Y14074000D01*
X-8318000Y14031000D01*
X-8300000Y13988000D01*
X-8284000Y13943000D01*
X-8271000Y13898000D01*
X-8260000Y13852000D01*
X-8251000Y13806000D01*
X-8245000Y13759000D01*
X-8241000Y13712000D01*
X-8240000Y13665000D01*
X-8241000Y13618000D01*
X-8245000Y13571000D01*
X-8251000Y13524000D01*
X-8260000Y13478000D01*
X-8271000Y13432000D01*
X-8284000Y13387000D01*
X-8300000Y13342000D01*
X-8318000Y13299000D01*
X-8338000Y13256000D01*
X-8361000Y13215000D01*
X-8385000Y13175000D01*
X-8412000Y13136000D01*
X-8441000Y13099000D01*
X-8471000Y13063000D01*
X-8504000Y13029000D01*
X-8538000Y12996000D01*
X-8574000Y12966000D01*
X-8611000Y12937000D01*
X-8650000Y12910000D01*
X-8690000Y12886000D01*
X-8731000Y12863000D01*
X-8774000Y12843000D01*
X-8817000Y12825000D01*
X-8862000Y12809000D01*
X-8907000Y12796000D01*
X-8953000Y12785000D01*
X-8999000Y12776000D01*
X-9046000Y12770000D01*
X-9093000Y12766000D01*
X-9140000Y12765000D01*
X-11640000Y12765000D01*
X-11640000Y14565000D01*
X-9140000Y14565000D01*
X-9093000Y14564000D01*
G36*
X-9093000Y14564000D02*
G01*
X-9046000Y14560000D01*
X-8999000Y14554000D01*
X-8953000Y14545000D01*
X-8907000Y14534000D01*
X-8862000Y14521000D01*
X-8817000Y14505000D01*
X-8774000Y14487000D01*
X-8731000Y14467000D01*
X-8690000Y14444000D01*
X-8650000Y14420000D01*
X-8611000Y14393000D01*
X-8574000Y14364000D01*
X-8538000Y14334000D01*
X-8504000Y14301000D01*
X-8471000Y14267000D01*
X-8441000Y14231000D01*
X-8412000Y14194000D01*
X-8385000Y14155000D01*
X-8361000Y14115000D01*
X-8338000Y14074000D01*
X-8318000Y14031000D01*
X-8300000Y13988000D01*
X-8284000Y13943000D01*
X-8271000Y13898000D01*
X-8260000Y13852000D01*
X-8251000Y13806000D01*
X-8245000Y13759000D01*
X-8241000Y13712000D01*
X-8240000Y13665000D01*
X-8241000Y13618000D01*
X-8245000Y13571000D01*
X-8251000Y13524000D01*
X-8260000Y13478000D01*
X-8271000Y13432000D01*
X-8284000Y13387000D01*
X-8300000Y13342000D01*
X-8318000Y13299000D01*
X-8338000Y13256000D01*
X-8361000Y13215000D01*
X-8385000Y13175000D01*
X-8412000Y13136000D01*
X-8441000Y13099000D01*
X-8471000Y13063000D01*
X-8504000Y13029000D01*
X-8538000Y12996000D01*
X-8574000Y12966000D01*
X-8611000Y12937000D01*
X-8650000Y12910000D01*
X-8690000Y12886000D01*
X-8731000Y12863000D01*
X-8774000Y12843000D01*
X-8817000Y12825000D01*
X-8862000Y12809000D01*
X-8907000Y12796000D01*
X-8953000Y12785000D01*
X-8999000Y12776000D01*
X-9046000Y12770000D01*
X-9093000Y12766000D01*
X-9140000Y12765000D01*
X-11640000Y12765000D01*
X-11640000Y14565000D01*
X-9140000Y14565000D01*
X-9093000Y14564000D01*
G37*
X-9093000Y17104000D02*
X-9046000Y17100000D01*
X-8999000Y17094000D01*
X-8953000Y17085000D01*
X-8907000Y17074000D01*
X-8862000Y17061000D01*
X-8817000Y17045000D01*
X-8774000Y17027000D01*
X-8731000Y17007000D01*
X-8690000Y16984000D01*
X-8650000Y16960000D01*
X-8611000Y16933000D01*
X-8574000Y16904000D01*
X-8538000Y16874000D01*
X-8504000Y16841000D01*
X-8471000Y16807000D01*
X-8441000Y16771000D01*
X-8412000Y16734000D01*
X-8385000Y16695000D01*
X-8361000Y16655000D01*
X-8338000Y16614000D01*
X-8318000Y16571000D01*
X-8300000Y16528000D01*
X-8284000Y16483000D01*
X-8271000Y16438000D01*
X-8260000Y16392000D01*
X-8251000Y16346000D01*
X-8245000Y16299000D01*
X-8241000Y16252000D01*
X-8240000Y16205000D01*
X-8241000Y16158000D01*
X-8245000Y16111000D01*
X-8251000Y16064000D01*
X-8260000Y16018000D01*
X-8271000Y15972000D01*
X-8284000Y15927000D01*
X-8300000Y15882000D01*
X-8318000Y15839000D01*
X-8338000Y15796000D01*
X-8361000Y15755000D01*
X-8385000Y15715000D01*
X-8412000Y15676000D01*
X-8441000Y15639000D01*
X-8471000Y15603000D01*
X-8504000Y15569000D01*
X-8538000Y15536000D01*
X-8574000Y15506000D01*
X-8611000Y15477000D01*
X-8650000Y15450000D01*
X-8690000Y15426000D01*
X-8731000Y15403000D01*
X-8774000Y15383000D01*
X-8817000Y15365000D01*
X-8862000Y15349000D01*
X-8907000Y15336000D01*
X-8953000Y15325000D01*
X-8999000Y15316000D01*
X-9046000Y15310000D01*
X-9093000Y15306000D01*
X-9140000Y15305000D01*
X-11640000Y15305000D01*
X-11640000Y17105000D01*
X-9140000Y17105000D01*
X-9093000Y17104000D01*
G36*
X-9093000Y17104000D02*
G01*
X-9046000Y17100000D01*
X-8999000Y17094000D01*
X-8953000Y17085000D01*
X-8907000Y17074000D01*
X-8862000Y17061000D01*
X-8817000Y17045000D01*
X-8774000Y17027000D01*
X-8731000Y17007000D01*
X-8690000Y16984000D01*
X-8650000Y16960000D01*
X-8611000Y16933000D01*
X-8574000Y16904000D01*
X-8538000Y16874000D01*
X-8504000Y16841000D01*
X-8471000Y16807000D01*
X-8441000Y16771000D01*
X-8412000Y16734000D01*
X-8385000Y16695000D01*
X-8361000Y16655000D01*
X-8338000Y16614000D01*
X-8318000Y16571000D01*
X-8300000Y16528000D01*
X-8284000Y16483000D01*
X-8271000Y16438000D01*
X-8260000Y16392000D01*
X-8251000Y16346000D01*
X-8245000Y16299000D01*
X-8241000Y16252000D01*
X-8240000Y16205000D01*
X-8241000Y16158000D01*
X-8245000Y16111000D01*
X-8251000Y16064000D01*
X-8260000Y16018000D01*
X-8271000Y15972000D01*
X-8284000Y15927000D01*
X-8300000Y15882000D01*
X-8318000Y15839000D01*
X-8338000Y15796000D01*
X-8361000Y15755000D01*
X-8385000Y15715000D01*
X-8412000Y15676000D01*
X-8441000Y15639000D01*
X-8471000Y15603000D01*
X-8504000Y15569000D01*
X-8538000Y15536000D01*
X-8574000Y15506000D01*
X-8611000Y15477000D01*
X-8650000Y15450000D01*
X-8690000Y15426000D01*
X-8731000Y15403000D01*
X-8774000Y15383000D01*
X-8817000Y15365000D01*
X-8862000Y15349000D01*
X-8907000Y15336000D01*
X-8953000Y15325000D01*
X-8999000Y15316000D01*
X-9046000Y15310000D01*
X-9093000Y15306000D01*
X-9140000Y15305000D01*
X-11640000Y15305000D01*
X-11640000Y17105000D01*
X-9140000Y17105000D01*
X-9093000Y17104000D01*
G37*
X-9093000Y19644000D02*
X-9046000Y19640000D01*
X-8999000Y19634000D01*
X-8953000Y19625000D01*
X-8907000Y19614000D01*
X-8862000Y19601000D01*
X-8817000Y19585000D01*
X-8774000Y19567000D01*
X-8731000Y19547000D01*
X-8690000Y19524000D01*
X-8650000Y19500000D01*
X-8611000Y19473000D01*
X-8574000Y19444000D01*
X-8538000Y19414000D01*
X-8504000Y19381000D01*
X-8471000Y19347000D01*
X-8441000Y19311000D01*
X-8412000Y19274000D01*
X-8385000Y19235000D01*
X-8361000Y19195000D01*
X-8338000Y19154000D01*
X-8318000Y19111000D01*
X-8300000Y19068000D01*
X-8284000Y19023000D01*
X-8271000Y18978000D01*
X-8260000Y18932000D01*
X-8251000Y18886000D01*
X-8245000Y18839000D01*
X-8241000Y18792000D01*
X-8240000Y18745000D01*
X-8241000Y18698000D01*
X-8245000Y18651000D01*
X-8251000Y18604000D01*
X-8260000Y18558000D01*
X-8271000Y18512000D01*
X-8284000Y18467000D01*
X-8300000Y18422000D01*
X-8318000Y18379000D01*
X-8338000Y18336000D01*
X-8361000Y18295000D01*
X-8385000Y18255000D01*
X-8412000Y18216000D01*
X-8441000Y18179000D01*
X-8471000Y18143000D01*
X-8504000Y18109000D01*
X-8538000Y18076000D01*
X-8574000Y18046000D01*
X-8611000Y18017000D01*
X-8650000Y17990000D01*
X-8690000Y17966000D01*
X-8731000Y17943000D01*
X-8774000Y17923000D01*
X-8817000Y17905000D01*
X-8862000Y17889000D01*
X-8907000Y17876000D01*
X-8953000Y17865000D01*
X-8999000Y17856000D01*
X-9046000Y17850000D01*
X-9093000Y17846000D01*
X-9140000Y17845000D01*
X-11640000Y17845000D01*
X-11640000Y19645000D01*
X-9140000Y19645000D01*
X-9093000Y19644000D01*
G36*
X-9093000Y19644000D02*
G01*
X-9046000Y19640000D01*
X-8999000Y19634000D01*
X-8953000Y19625000D01*
X-8907000Y19614000D01*
X-8862000Y19601000D01*
X-8817000Y19585000D01*
X-8774000Y19567000D01*
X-8731000Y19547000D01*
X-8690000Y19524000D01*
X-8650000Y19500000D01*
X-8611000Y19473000D01*
X-8574000Y19444000D01*
X-8538000Y19414000D01*
X-8504000Y19381000D01*
X-8471000Y19347000D01*
X-8441000Y19311000D01*
X-8412000Y19274000D01*
X-8385000Y19235000D01*
X-8361000Y19195000D01*
X-8338000Y19154000D01*
X-8318000Y19111000D01*
X-8300000Y19068000D01*
X-8284000Y19023000D01*
X-8271000Y18978000D01*
X-8260000Y18932000D01*
X-8251000Y18886000D01*
X-8245000Y18839000D01*
X-8241000Y18792000D01*
X-8240000Y18745000D01*
X-8241000Y18698000D01*
X-8245000Y18651000D01*
X-8251000Y18604000D01*
X-8260000Y18558000D01*
X-8271000Y18512000D01*
X-8284000Y18467000D01*
X-8300000Y18422000D01*
X-8318000Y18379000D01*
X-8338000Y18336000D01*
X-8361000Y18295000D01*
X-8385000Y18255000D01*
X-8412000Y18216000D01*
X-8441000Y18179000D01*
X-8471000Y18143000D01*
X-8504000Y18109000D01*
X-8538000Y18076000D01*
X-8574000Y18046000D01*
X-8611000Y18017000D01*
X-8650000Y17990000D01*
X-8690000Y17966000D01*
X-8731000Y17943000D01*
X-8774000Y17923000D01*
X-8817000Y17905000D01*
X-8862000Y17889000D01*
X-8907000Y17876000D01*
X-8953000Y17865000D01*
X-8999000Y17856000D01*
X-9046000Y17850000D01*
X-9093000Y17846000D01*
X-9140000Y17845000D01*
X-11640000Y17845000D01*
X-11640000Y19645000D01*
X-9140000Y19645000D01*
X-9093000Y19644000D01*
G37*
X-9093000Y22184000D02*
X-9046000Y22180000D01*
X-8999000Y22174000D01*
X-8953000Y22165000D01*
X-8907000Y22154000D01*
X-8862000Y22141000D01*
X-8817000Y22125000D01*
X-8774000Y22107000D01*
X-8731000Y22087000D01*
X-8690000Y22064000D01*
X-8650000Y22040000D01*
X-8611000Y22013000D01*
X-8574000Y21984000D01*
X-8538000Y21954000D01*
X-8504000Y21921000D01*
X-8471000Y21887000D01*
X-8441000Y21851000D01*
X-8412000Y21814000D01*
X-8385000Y21775000D01*
X-8361000Y21735000D01*
X-8338000Y21694000D01*
X-8318000Y21651000D01*
X-8300000Y21608000D01*
X-8284000Y21563000D01*
X-8271000Y21518000D01*
X-8260000Y21472000D01*
X-8251000Y21426000D01*
X-8245000Y21379000D01*
X-8241000Y21332000D01*
X-8240000Y21285000D01*
X-8241000Y21238000D01*
X-8245000Y21191000D01*
X-8251000Y21144000D01*
X-8260000Y21098000D01*
X-8271000Y21052000D01*
X-8284000Y21007000D01*
X-8300000Y20962000D01*
X-8318000Y20919000D01*
X-8338000Y20876000D01*
X-8361000Y20835000D01*
X-8385000Y20795000D01*
X-8412000Y20756000D01*
X-8441000Y20719000D01*
X-8471000Y20683000D01*
X-8504000Y20649000D01*
X-8538000Y20616000D01*
X-8574000Y20586000D01*
X-8611000Y20557000D01*
X-8650000Y20530000D01*
X-8690000Y20506000D01*
X-8731000Y20483000D01*
X-8774000Y20463000D01*
X-8817000Y20445000D01*
X-8862000Y20429000D01*
X-8907000Y20416000D01*
X-8953000Y20405000D01*
X-8999000Y20396000D01*
X-9046000Y20390000D01*
X-9093000Y20386000D01*
X-9140000Y20385000D01*
X-11640000Y20385000D01*
X-11640000Y22185000D01*
X-9140000Y22185000D01*
X-9093000Y22184000D01*
G36*
X-9093000Y22184000D02*
G01*
X-9046000Y22180000D01*
X-8999000Y22174000D01*
X-8953000Y22165000D01*
X-8907000Y22154000D01*
X-8862000Y22141000D01*
X-8817000Y22125000D01*
X-8774000Y22107000D01*
X-8731000Y22087000D01*
X-8690000Y22064000D01*
X-8650000Y22040000D01*
X-8611000Y22013000D01*
X-8574000Y21984000D01*
X-8538000Y21954000D01*
X-8504000Y21921000D01*
X-8471000Y21887000D01*
X-8441000Y21851000D01*
X-8412000Y21814000D01*
X-8385000Y21775000D01*
X-8361000Y21735000D01*
X-8338000Y21694000D01*
X-8318000Y21651000D01*
X-8300000Y21608000D01*
X-8284000Y21563000D01*
X-8271000Y21518000D01*
X-8260000Y21472000D01*
X-8251000Y21426000D01*
X-8245000Y21379000D01*
X-8241000Y21332000D01*
X-8240000Y21285000D01*
X-8241000Y21238000D01*
X-8245000Y21191000D01*
X-8251000Y21144000D01*
X-8260000Y21098000D01*
X-8271000Y21052000D01*
X-8284000Y21007000D01*
X-8300000Y20962000D01*
X-8318000Y20919000D01*
X-8338000Y20876000D01*
X-8361000Y20835000D01*
X-8385000Y20795000D01*
X-8412000Y20756000D01*
X-8441000Y20719000D01*
X-8471000Y20683000D01*
X-8504000Y20649000D01*
X-8538000Y20616000D01*
X-8574000Y20586000D01*
X-8611000Y20557000D01*
X-8650000Y20530000D01*
X-8690000Y20506000D01*
X-8731000Y20483000D01*
X-8774000Y20463000D01*
X-8817000Y20445000D01*
X-8862000Y20429000D01*
X-8907000Y20416000D01*
X-8953000Y20405000D01*
X-8999000Y20396000D01*
X-9046000Y20390000D01*
X-9093000Y20386000D01*
X-9140000Y20385000D01*
X-11640000Y20385000D01*
X-11640000Y22185000D01*
X-9140000Y22185000D01*
X-9093000Y22184000D01*
G37*
X-9093000Y27264000D02*
X-9046000Y27260000D01*
X-8999000Y27254000D01*
X-8953000Y27245000D01*
X-8907000Y27234000D01*
X-8862000Y27221000D01*
X-8817000Y27205000D01*
X-8774000Y27187000D01*
X-8731000Y27167000D01*
X-8690000Y27144000D01*
X-8650000Y27120000D01*
X-8611000Y27093000D01*
X-8574000Y27064000D01*
X-8538000Y27034000D01*
X-8504000Y27001000D01*
X-8471000Y26967000D01*
X-8441000Y26931000D01*
X-8412000Y26894000D01*
X-8385000Y26855000D01*
X-8361000Y26815000D01*
X-8338000Y26774000D01*
X-8318000Y26731000D01*
X-8300000Y26688000D01*
X-8284000Y26643000D01*
X-8271000Y26598000D01*
X-8260000Y26552000D01*
X-8251000Y26506000D01*
X-8245000Y26459000D01*
X-8241000Y26412000D01*
X-8240000Y26365000D01*
X-8241000Y26318000D01*
X-8245000Y26271000D01*
X-8251000Y26224000D01*
X-8260000Y26178000D01*
X-8271000Y26132000D01*
X-8284000Y26087000D01*
X-8300000Y26042000D01*
X-8318000Y25999000D01*
X-8338000Y25956000D01*
X-8361000Y25915000D01*
X-8385000Y25875000D01*
X-8412000Y25836000D01*
X-8441000Y25799000D01*
X-8471000Y25763000D01*
X-8504000Y25729000D01*
X-8538000Y25696000D01*
X-8574000Y25666000D01*
X-8611000Y25637000D01*
X-8650000Y25610000D01*
X-8690000Y25586000D01*
X-8731000Y25563000D01*
X-8774000Y25543000D01*
X-8817000Y25525000D01*
X-8862000Y25509000D01*
X-8907000Y25496000D01*
X-8953000Y25485000D01*
X-8999000Y25476000D01*
X-9046000Y25470000D01*
X-9093000Y25466000D01*
X-9140000Y25465000D01*
X-11640000Y25465000D01*
X-11640000Y27265000D01*
X-9140000Y27265000D01*
X-9093000Y27264000D01*
G36*
X-9093000Y27264000D02*
G01*
X-9046000Y27260000D01*
X-8999000Y27254000D01*
X-8953000Y27245000D01*
X-8907000Y27234000D01*
X-8862000Y27221000D01*
X-8817000Y27205000D01*
X-8774000Y27187000D01*
X-8731000Y27167000D01*
X-8690000Y27144000D01*
X-8650000Y27120000D01*
X-8611000Y27093000D01*
X-8574000Y27064000D01*
X-8538000Y27034000D01*
X-8504000Y27001000D01*
X-8471000Y26967000D01*
X-8441000Y26931000D01*
X-8412000Y26894000D01*
X-8385000Y26855000D01*
X-8361000Y26815000D01*
X-8338000Y26774000D01*
X-8318000Y26731000D01*
X-8300000Y26688000D01*
X-8284000Y26643000D01*
X-8271000Y26598000D01*
X-8260000Y26552000D01*
X-8251000Y26506000D01*
X-8245000Y26459000D01*
X-8241000Y26412000D01*
X-8240000Y26365000D01*
X-8241000Y26318000D01*
X-8245000Y26271000D01*
X-8251000Y26224000D01*
X-8260000Y26178000D01*
X-8271000Y26132000D01*
X-8284000Y26087000D01*
X-8300000Y26042000D01*
X-8318000Y25999000D01*
X-8338000Y25956000D01*
X-8361000Y25915000D01*
X-8385000Y25875000D01*
X-8412000Y25836000D01*
X-8441000Y25799000D01*
X-8471000Y25763000D01*
X-8504000Y25729000D01*
X-8538000Y25696000D01*
X-8574000Y25666000D01*
X-8611000Y25637000D01*
X-8650000Y25610000D01*
X-8690000Y25586000D01*
X-8731000Y25563000D01*
X-8774000Y25543000D01*
X-8817000Y25525000D01*
X-8862000Y25509000D01*
X-8907000Y25496000D01*
X-8953000Y25485000D01*
X-8999000Y25476000D01*
X-9046000Y25470000D01*
X-9093000Y25466000D01*
X-9140000Y25465000D01*
X-11640000Y25465000D01*
X-11640000Y27265000D01*
X-9140000Y27265000D01*
X-9093000Y27264000D01*
G37*
X-9093000Y29804000D02*
X-9046000Y29800000D01*
X-8999000Y29794000D01*
X-8953000Y29785000D01*
X-8907000Y29774000D01*
X-8862000Y29761000D01*
X-8817000Y29745000D01*
X-8774000Y29727000D01*
X-8731000Y29707000D01*
X-8690000Y29684000D01*
X-8650000Y29660000D01*
X-8611000Y29633000D01*
X-8574000Y29604000D01*
X-8538000Y29574000D01*
X-8504000Y29541000D01*
X-8471000Y29507000D01*
X-8441000Y29471000D01*
X-8412000Y29434000D01*
X-8385000Y29395000D01*
X-8361000Y29355000D01*
X-8338000Y29314000D01*
X-8318000Y29271000D01*
X-8300000Y29228000D01*
X-8284000Y29183000D01*
X-8271000Y29138000D01*
X-8260000Y29092000D01*
X-8251000Y29046000D01*
X-8245000Y28999000D01*
X-8241000Y28952000D01*
X-8240000Y28905000D01*
X-8241000Y28858000D01*
X-8245000Y28811000D01*
X-8251000Y28764000D01*
X-8260000Y28718000D01*
X-8271000Y28672000D01*
X-8284000Y28627000D01*
X-8300000Y28582000D01*
X-8318000Y28539000D01*
X-8338000Y28496000D01*
X-8361000Y28455000D01*
X-8385000Y28415000D01*
X-8412000Y28376000D01*
X-8441000Y28339000D01*
X-8471000Y28303000D01*
X-8504000Y28269000D01*
X-8538000Y28236000D01*
X-8574000Y28206000D01*
X-8611000Y28177000D01*
X-8650000Y28150000D01*
X-8690000Y28126000D01*
X-8731000Y28103000D01*
X-8774000Y28083000D01*
X-8817000Y28065000D01*
X-8862000Y28049000D01*
X-8907000Y28036000D01*
X-8953000Y28025000D01*
X-8999000Y28016000D01*
X-9046000Y28010000D01*
X-9093000Y28006000D01*
X-9140000Y28005000D01*
X-11640000Y28005000D01*
X-11640000Y29805000D01*
X-9140000Y29805000D01*
X-9093000Y29804000D01*
G36*
X-9093000Y29804000D02*
G01*
X-9046000Y29800000D01*
X-8999000Y29794000D01*
X-8953000Y29785000D01*
X-8907000Y29774000D01*
X-8862000Y29761000D01*
X-8817000Y29745000D01*
X-8774000Y29727000D01*
X-8731000Y29707000D01*
X-8690000Y29684000D01*
X-8650000Y29660000D01*
X-8611000Y29633000D01*
X-8574000Y29604000D01*
X-8538000Y29574000D01*
X-8504000Y29541000D01*
X-8471000Y29507000D01*
X-8441000Y29471000D01*
X-8412000Y29434000D01*
X-8385000Y29395000D01*
X-8361000Y29355000D01*
X-8338000Y29314000D01*
X-8318000Y29271000D01*
X-8300000Y29228000D01*
X-8284000Y29183000D01*
X-8271000Y29138000D01*
X-8260000Y29092000D01*
X-8251000Y29046000D01*
X-8245000Y28999000D01*
X-8241000Y28952000D01*
X-8240000Y28905000D01*
X-8241000Y28858000D01*
X-8245000Y28811000D01*
X-8251000Y28764000D01*
X-8260000Y28718000D01*
X-8271000Y28672000D01*
X-8284000Y28627000D01*
X-8300000Y28582000D01*
X-8318000Y28539000D01*
X-8338000Y28496000D01*
X-8361000Y28455000D01*
X-8385000Y28415000D01*
X-8412000Y28376000D01*
X-8441000Y28339000D01*
X-8471000Y28303000D01*
X-8504000Y28269000D01*
X-8538000Y28236000D01*
X-8574000Y28206000D01*
X-8611000Y28177000D01*
X-8650000Y28150000D01*
X-8690000Y28126000D01*
X-8731000Y28103000D01*
X-8774000Y28083000D01*
X-8817000Y28065000D01*
X-8862000Y28049000D01*
X-8907000Y28036000D01*
X-8953000Y28025000D01*
X-8999000Y28016000D01*
X-9046000Y28010000D01*
X-9093000Y28006000D01*
X-9140000Y28005000D01*
X-11640000Y28005000D01*
X-11640000Y29805000D01*
X-9140000Y29805000D01*
X-9093000Y29804000D01*
G37*
X-9093000Y32344000D02*
X-9046000Y32340000D01*
X-8999000Y32334000D01*
X-8953000Y32325000D01*
X-8907000Y32314000D01*
X-8862000Y32301000D01*
X-8817000Y32285000D01*
X-8774000Y32267000D01*
X-8731000Y32247000D01*
X-8690000Y32224000D01*
X-8650000Y32200000D01*
X-8611000Y32173000D01*
X-8574000Y32144000D01*
X-8538000Y32114000D01*
X-8504000Y32081000D01*
X-8471000Y32047000D01*
X-8441000Y32011000D01*
X-8412000Y31974000D01*
X-8385000Y31935000D01*
X-8361000Y31895000D01*
X-8338000Y31854000D01*
X-8318000Y31811000D01*
X-8300000Y31768000D01*
X-8284000Y31723000D01*
X-8271000Y31678000D01*
X-8260000Y31632000D01*
X-8251000Y31586000D01*
X-8245000Y31539000D01*
X-8241000Y31492000D01*
X-8240000Y31445000D01*
X-8241000Y31398000D01*
X-8245000Y31351000D01*
X-8251000Y31304000D01*
X-8260000Y31258000D01*
X-8271000Y31212000D01*
X-8284000Y31167000D01*
X-8300000Y31122000D01*
X-8318000Y31079000D01*
X-8338000Y31036000D01*
X-8361000Y30995000D01*
X-8385000Y30955000D01*
X-8412000Y30916000D01*
X-8441000Y30879000D01*
X-8471000Y30843000D01*
X-8504000Y30809000D01*
X-8538000Y30776000D01*
X-8574000Y30746000D01*
X-8611000Y30717000D01*
X-8650000Y30690000D01*
X-8690000Y30666000D01*
X-8731000Y30643000D01*
X-8774000Y30623000D01*
X-8817000Y30605000D01*
X-8862000Y30589000D01*
X-8907000Y30576000D01*
X-8953000Y30565000D01*
X-8999000Y30556000D01*
X-9046000Y30550000D01*
X-9093000Y30546000D01*
X-9140000Y30545000D01*
X-11640000Y30545000D01*
X-11640000Y32345000D01*
X-9140000Y32345000D01*
X-9093000Y32344000D01*
G36*
X-9093000Y32344000D02*
G01*
X-9046000Y32340000D01*
X-8999000Y32334000D01*
X-8953000Y32325000D01*
X-8907000Y32314000D01*
X-8862000Y32301000D01*
X-8817000Y32285000D01*
X-8774000Y32267000D01*
X-8731000Y32247000D01*
X-8690000Y32224000D01*
X-8650000Y32200000D01*
X-8611000Y32173000D01*
X-8574000Y32144000D01*
X-8538000Y32114000D01*
X-8504000Y32081000D01*
X-8471000Y32047000D01*
X-8441000Y32011000D01*
X-8412000Y31974000D01*
X-8385000Y31935000D01*
X-8361000Y31895000D01*
X-8338000Y31854000D01*
X-8318000Y31811000D01*
X-8300000Y31768000D01*
X-8284000Y31723000D01*
X-8271000Y31678000D01*
X-8260000Y31632000D01*
X-8251000Y31586000D01*
X-8245000Y31539000D01*
X-8241000Y31492000D01*
X-8240000Y31445000D01*
X-8241000Y31398000D01*
X-8245000Y31351000D01*
X-8251000Y31304000D01*
X-8260000Y31258000D01*
X-8271000Y31212000D01*
X-8284000Y31167000D01*
X-8300000Y31122000D01*
X-8318000Y31079000D01*
X-8338000Y31036000D01*
X-8361000Y30995000D01*
X-8385000Y30955000D01*
X-8412000Y30916000D01*
X-8441000Y30879000D01*
X-8471000Y30843000D01*
X-8504000Y30809000D01*
X-8538000Y30776000D01*
X-8574000Y30746000D01*
X-8611000Y30717000D01*
X-8650000Y30690000D01*
X-8690000Y30666000D01*
X-8731000Y30643000D01*
X-8774000Y30623000D01*
X-8817000Y30605000D01*
X-8862000Y30589000D01*
X-8907000Y30576000D01*
X-8953000Y30565000D01*
X-8999000Y30556000D01*
X-9046000Y30550000D01*
X-9093000Y30546000D01*
X-9140000Y30545000D01*
X-11640000Y30545000D01*
X-11640000Y32345000D01*
X-9140000Y32345000D01*
X-9093000Y32344000D01*
G37*
X-9093000Y34884000D02*
X-9046000Y34880000D01*
X-8999000Y34874000D01*
X-8953000Y34865000D01*
X-8907000Y34854000D01*
X-8862000Y34841000D01*
X-8817000Y34825000D01*
X-8774000Y34807000D01*
X-8731000Y34787000D01*
X-8690000Y34764000D01*
X-8650000Y34740000D01*
X-8611000Y34713000D01*
X-8574000Y34684000D01*
X-8538000Y34654000D01*
X-8504000Y34621000D01*
X-8471000Y34587000D01*
X-8441000Y34551000D01*
X-8412000Y34514000D01*
X-8385000Y34475000D01*
X-8361000Y34435000D01*
X-8338000Y34394000D01*
X-8318000Y34351000D01*
X-8300000Y34308000D01*
X-8284000Y34263000D01*
X-8271000Y34218000D01*
X-8260000Y34172000D01*
X-8251000Y34126000D01*
X-8245000Y34079000D01*
X-8241000Y34032000D01*
X-8240000Y33985000D01*
X-8241000Y33938000D01*
X-8245000Y33891000D01*
X-8251000Y33844000D01*
X-8260000Y33798000D01*
X-8271000Y33752000D01*
X-8284000Y33707000D01*
X-8300000Y33662000D01*
X-8318000Y33619000D01*
X-8338000Y33576000D01*
X-8361000Y33535000D01*
X-8385000Y33495000D01*
X-8412000Y33456000D01*
X-8441000Y33419000D01*
X-8471000Y33383000D01*
X-8504000Y33349000D01*
X-8538000Y33316000D01*
X-8574000Y33286000D01*
X-8611000Y33257000D01*
X-8650000Y33230000D01*
X-8690000Y33206000D01*
X-8731000Y33183000D01*
X-8774000Y33163000D01*
X-8817000Y33145000D01*
X-8862000Y33129000D01*
X-8907000Y33116000D01*
X-8953000Y33105000D01*
X-8999000Y33096000D01*
X-9046000Y33090000D01*
X-9093000Y33086000D01*
X-9140000Y33085000D01*
X-11640000Y33085000D01*
X-11640000Y34885000D01*
X-9140000Y34885000D01*
X-9093000Y34884000D01*
G36*
X-9093000Y34884000D02*
G01*
X-9046000Y34880000D01*
X-8999000Y34874000D01*
X-8953000Y34865000D01*
X-8907000Y34854000D01*
X-8862000Y34841000D01*
X-8817000Y34825000D01*
X-8774000Y34807000D01*
X-8731000Y34787000D01*
X-8690000Y34764000D01*
X-8650000Y34740000D01*
X-8611000Y34713000D01*
X-8574000Y34684000D01*
X-8538000Y34654000D01*
X-8504000Y34621000D01*
X-8471000Y34587000D01*
X-8441000Y34551000D01*
X-8412000Y34514000D01*
X-8385000Y34475000D01*
X-8361000Y34435000D01*
X-8338000Y34394000D01*
X-8318000Y34351000D01*
X-8300000Y34308000D01*
X-8284000Y34263000D01*
X-8271000Y34218000D01*
X-8260000Y34172000D01*
X-8251000Y34126000D01*
X-8245000Y34079000D01*
X-8241000Y34032000D01*
X-8240000Y33985000D01*
X-8241000Y33938000D01*
X-8245000Y33891000D01*
X-8251000Y33844000D01*
X-8260000Y33798000D01*
X-8271000Y33752000D01*
X-8284000Y33707000D01*
X-8300000Y33662000D01*
X-8318000Y33619000D01*
X-8338000Y33576000D01*
X-8361000Y33535000D01*
X-8385000Y33495000D01*
X-8412000Y33456000D01*
X-8441000Y33419000D01*
X-8471000Y33383000D01*
X-8504000Y33349000D01*
X-8538000Y33316000D01*
X-8574000Y33286000D01*
X-8611000Y33257000D01*
X-8650000Y33230000D01*
X-8690000Y33206000D01*
X-8731000Y33183000D01*
X-8774000Y33163000D01*
X-8817000Y33145000D01*
X-8862000Y33129000D01*
X-8907000Y33116000D01*
X-8953000Y33105000D01*
X-8999000Y33096000D01*
X-9046000Y33090000D01*
X-9093000Y33086000D01*
X-9140000Y33085000D01*
X-11640000Y33085000D01*
X-11640000Y34885000D01*
X-9140000Y34885000D01*
X-9093000Y34884000D01*
G37*
X-9093000Y39964000D02*
X-9046000Y39960000D01*
X-8999000Y39954000D01*
X-8953000Y39945000D01*
X-8907000Y39934000D01*
X-8862000Y39921000D01*
X-8817000Y39905000D01*
X-8774000Y39887000D01*
X-8731000Y39867000D01*
X-8690000Y39844000D01*
X-8650000Y39820000D01*
X-8611000Y39793000D01*
X-8574000Y39764000D01*
X-8538000Y39734000D01*
X-8504000Y39701000D01*
X-8471000Y39667000D01*
X-8441000Y39631000D01*
X-8412000Y39594000D01*
X-8385000Y39555000D01*
X-8361000Y39515000D01*
X-8338000Y39474000D01*
X-8318000Y39431000D01*
X-8300000Y39388000D01*
X-8284000Y39343000D01*
X-8271000Y39298000D01*
X-8260000Y39252000D01*
X-8251000Y39206000D01*
X-8245000Y39159000D01*
X-8241000Y39112000D01*
X-8240000Y39065000D01*
X-8241000Y39018000D01*
X-8245000Y38971000D01*
X-8251000Y38924000D01*
X-8260000Y38878000D01*
X-8271000Y38832000D01*
X-8284000Y38787000D01*
X-8300000Y38742000D01*
X-8318000Y38699000D01*
X-8338000Y38656000D01*
X-8361000Y38615000D01*
X-8385000Y38575000D01*
X-8412000Y38536000D01*
X-8441000Y38499000D01*
X-8471000Y38463000D01*
X-8504000Y38429000D01*
X-8538000Y38396000D01*
X-8574000Y38366000D01*
X-8611000Y38337000D01*
X-8650000Y38310000D01*
X-8690000Y38286000D01*
X-8731000Y38263000D01*
X-8774000Y38243000D01*
X-8817000Y38225000D01*
X-8862000Y38209000D01*
X-8907000Y38196000D01*
X-8953000Y38185000D01*
X-8999000Y38176000D01*
X-9046000Y38170000D01*
X-9093000Y38166000D01*
X-9140000Y38165000D01*
X-11640000Y38165000D01*
X-11640000Y39965000D01*
X-9140000Y39965000D01*
X-9093000Y39964000D01*
G36*
X-9093000Y39964000D02*
G01*
X-9046000Y39960000D01*
X-8999000Y39954000D01*
X-8953000Y39945000D01*
X-8907000Y39934000D01*
X-8862000Y39921000D01*
X-8817000Y39905000D01*
X-8774000Y39887000D01*
X-8731000Y39867000D01*
X-8690000Y39844000D01*
X-8650000Y39820000D01*
X-8611000Y39793000D01*
X-8574000Y39764000D01*
X-8538000Y39734000D01*
X-8504000Y39701000D01*
X-8471000Y39667000D01*
X-8441000Y39631000D01*
X-8412000Y39594000D01*
X-8385000Y39555000D01*
X-8361000Y39515000D01*
X-8338000Y39474000D01*
X-8318000Y39431000D01*
X-8300000Y39388000D01*
X-8284000Y39343000D01*
X-8271000Y39298000D01*
X-8260000Y39252000D01*
X-8251000Y39206000D01*
X-8245000Y39159000D01*
X-8241000Y39112000D01*
X-8240000Y39065000D01*
X-8241000Y39018000D01*
X-8245000Y38971000D01*
X-8251000Y38924000D01*
X-8260000Y38878000D01*
X-8271000Y38832000D01*
X-8284000Y38787000D01*
X-8300000Y38742000D01*
X-8318000Y38699000D01*
X-8338000Y38656000D01*
X-8361000Y38615000D01*
X-8385000Y38575000D01*
X-8412000Y38536000D01*
X-8441000Y38499000D01*
X-8471000Y38463000D01*
X-8504000Y38429000D01*
X-8538000Y38396000D01*
X-8574000Y38366000D01*
X-8611000Y38337000D01*
X-8650000Y38310000D01*
X-8690000Y38286000D01*
X-8731000Y38263000D01*
X-8774000Y38243000D01*
X-8817000Y38225000D01*
X-8862000Y38209000D01*
X-8907000Y38196000D01*
X-8953000Y38185000D01*
X-8999000Y38176000D01*
X-9046000Y38170000D01*
X-9093000Y38166000D01*
X-9140000Y38165000D01*
X-11640000Y38165000D01*
X-11640000Y39965000D01*
X-9140000Y39965000D01*
X-9093000Y39964000D01*
G37*
X-9093000Y42504000D02*
X-9046000Y42500000D01*
X-8999000Y42494000D01*
X-8953000Y42485000D01*
X-8907000Y42474000D01*
X-8862000Y42461000D01*
X-8817000Y42445000D01*
X-8774000Y42427000D01*
X-8731000Y42407000D01*
X-8690000Y42384000D01*
X-8650000Y42360000D01*
X-8611000Y42333000D01*
X-8574000Y42304000D01*
X-8538000Y42274000D01*
X-8504000Y42241000D01*
X-8471000Y42207000D01*
X-8441000Y42171000D01*
X-8412000Y42134000D01*
X-8385000Y42095000D01*
X-8361000Y42055000D01*
X-8338000Y42014000D01*
X-8318000Y41971000D01*
X-8300000Y41928000D01*
X-8284000Y41883000D01*
X-8271000Y41838000D01*
X-8260000Y41792000D01*
X-8251000Y41746000D01*
X-8245000Y41699000D01*
X-8241000Y41652000D01*
X-8240000Y41605000D01*
X-8241000Y41558000D01*
X-8245000Y41511000D01*
X-8251000Y41464000D01*
X-8260000Y41418000D01*
X-8271000Y41372000D01*
X-8284000Y41327000D01*
X-8300000Y41282000D01*
X-8318000Y41239000D01*
X-8338000Y41196000D01*
X-8361000Y41155000D01*
X-8385000Y41115000D01*
X-8412000Y41076000D01*
X-8441000Y41039000D01*
X-8471000Y41003000D01*
X-8504000Y40969000D01*
X-8538000Y40936000D01*
X-8574000Y40906000D01*
X-8611000Y40877000D01*
X-8650000Y40850000D01*
X-8690000Y40826000D01*
X-8731000Y40803000D01*
X-8774000Y40783000D01*
X-8817000Y40765000D01*
X-8862000Y40749000D01*
X-8907000Y40736000D01*
X-8953000Y40725000D01*
X-8999000Y40716000D01*
X-9046000Y40710000D01*
X-9093000Y40706000D01*
X-9140000Y40705000D01*
X-11640000Y40705000D01*
X-11640000Y42505000D01*
X-9140000Y42505000D01*
X-9093000Y42504000D01*
G36*
X-9093000Y42504000D02*
G01*
X-9046000Y42500000D01*
X-8999000Y42494000D01*
X-8953000Y42485000D01*
X-8907000Y42474000D01*
X-8862000Y42461000D01*
X-8817000Y42445000D01*
X-8774000Y42427000D01*
X-8731000Y42407000D01*
X-8690000Y42384000D01*
X-8650000Y42360000D01*
X-8611000Y42333000D01*
X-8574000Y42304000D01*
X-8538000Y42274000D01*
X-8504000Y42241000D01*
X-8471000Y42207000D01*
X-8441000Y42171000D01*
X-8412000Y42134000D01*
X-8385000Y42095000D01*
X-8361000Y42055000D01*
X-8338000Y42014000D01*
X-8318000Y41971000D01*
X-8300000Y41928000D01*
X-8284000Y41883000D01*
X-8271000Y41838000D01*
X-8260000Y41792000D01*
X-8251000Y41746000D01*
X-8245000Y41699000D01*
X-8241000Y41652000D01*
X-8240000Y41605000D01*
X-8241000Y41558000D01*
X-8245000Y41511000D01*
X-8251000Y41464000D01*
X-8260000Y41418000D01*
X-8271000Y41372000D01*
X-8284000Y41327000D01*
X-8300000Y41282000D01*
X-8318000Y41239000D01*
X-8338000Y41196000D01*
X-8361000Y41155000D01*
X-8385000Y41115000D01*
X-8412000Y41076000D01*
X-8441000Y41039000D01*
X-8471000Y41003000D01*
X-8504000Y40969000D01*
X-8538000Y40936000D01*
X-8574000Y40906000D01*
X-8611000Y40877000D01*
X-8650000Y40850000D01*
X-8690000Y40826000D01*
X-8731000Y40803000D01*
X-8774000Y40783000D01*
X-8817000Y40765000D01*
X-8862000Y40749000D01*
X-8907000Y40736000D01*
X-8953000Y40725000D01*
X-8999000Y40716000D01*
X-9046000Y40710000D01*
X-9093000Y40706000D01*
X-9140000Y40705000D01*
X-11640000Y40705000D01*
X-11640000Y42505000D01*
X-9140000Y42505000D01*
X-9093000Y42504000D01*
G37*
X-9093000Y45044000D02*
X-9046000Y45040000D01*
X-8999000Y45034000D01*
X-8953000Y45025000D01*
X-8907000Y45014000D01*
X-8862000Y45001000D01*
X-8817000Y44985000D01*
X-8774000Y44967000D01*
X-8731000Y44947000D01*
X-8690000Y44924000D01*
X-8650000Y44900000D01*
X-8611000Y44873000D01*
X-8574000Y44844000D01*
X-8538000Y44814000D01*
X-8504000Y44781000D01*
X-8471000Y44747000D01*
X-8441000Y44711000D01*
X-8412000Y44674000D01*
X-8385000Y44635000D01*
X-8361000Y44595000D01*
X-8338000Y44554000D01*
X-8318000Y44511000D01*
X-8300000Y44468000D01*
X-8284000Y44423000D01*
X-8271000Y44378000D01*
X-8260000Y44332000D01*
X-8251000Y44286000D01*
X-8245000Y44239000D01*
X-8241000Y44192000D01*
X-8240000Y44145000D01*
X-8241000Y44098000D01*
X-8245000Y44051000D01*
X-8251000Y44004000D01*
X-8260000Y43958000D01*
X-8271000Y43912000D01*
X-8284000Y43867000D01*
X-8300000Y43822000D01*
X-8318000Y43779000D01*
X-8338000Y43736000D01*
X-8361000Y43695000D01*
X-8385000Y43655000D01*
X-8412000Y43616000D01*
X-8441000Y43579000D01*
X-8471000Y43543000D01*
X-8504000Y43509000D01*
X-8538000Y43476000D01*
X-8574000Y43446000D01*
X-8611000Y43417000D01*
X-8650000Y43390000D01*
X-8690000Y43366000D01*
X-8731000Y43343000D01*
X-8774000Y43323000D01*
X-8817000Y43305000D01*
X-8862000Y43289000D01*
X-8907000Y43276000D01*
X-8953000Y43265000D01*
X-8999000Y43256000D01*
X-9046000Y43250000D01*
X-9093000Y43246000D01*
X-9140000Y43245000D01*
X-11640000Y43245000D01*
X-11640000Y45045000D01*
X-9140000Y45045000D01*
X-9093000Y45044000D01*
G36*
X-9093000Y45044000D02*
G01*
X-9046000Y45040000D01*
X-8999000Y45034000D01*
X-8953000Y45025000D01*
X-8907000Y45014000D01*
X-8862000Y45001000D01*
X-8817000Y44985000D01*
X-8774000Y44967000D01*
X-8731000Y44947000D01*
X-8690000Y44924000D01*
X-8650000Y44900000D01*
X-8611000Y44873000D01*
X-8574000Y44844000D01*
X-8538000Y44814000D01*
X-8504000Y44781000D01*
X-8471000Y44747000D01*
X-8441000Y44711000D01*
X-8412000Y44674000D01*
X-8385000Y44635000D01*
X-8361000Y44595000D01*
X-8338000Y44554000D01*
X-8318000Y44511000D01*
X-8300000Y44468000D01*
X-8284000Y44423000D01*
X-8271000Y44378000D01*
X-8260000Y44332000D01*
X-8251000Y44286000D01*
X-8245000Y44239000D01*
X-8241000Y44192000D01*
X-8240000Y44145000D01*
X-8241000Y44098000D01*
X-8245000Y44051000D01*
X-8251000Y44004000D01*
X-8260000Y43958000D01*
X-8271000Y43912000D01*
X-8284000Y43867000D01*
X-8300000Y43822000D01*
X-8318000Y43779000D01*
X-8338000Y43736000D01*
X-8361000Y43695000D01*
X-8385000Y43655000D01*
X-8412000Y43616000D01*
X-8441000Y43579000D01*
X-8471000Y43543000D01*
X-8504000Y43509000D01*
X-8538000Y43476000D01*
X-8574000Y43446000D01*
X-8611000Y43417000D01*
X-8650000Y43390000D01*
X-8690000Y43366000D01*
X-8731000Y43343000D01*
X-8774000Y43323000D01*
X-8817000Y43305000D01*
X-8862000Y43289000D01*
X-8907000Y43276000D01*
X-8953000Y43265000D01*
X-8999000Y43256000D01*
X-9046000Y43250000D01*
X-9093000Y43246000D01*
X-9140000Y43245000D01*
X-11640000Y43245000D01*
X-11640000Y45045000D01*
X-9140000Y45045000D01*
X-9093000Y45044000D01*
G37*
X-9093000Y47584000D02*
X-9046000Y47580000D01*
X-8999000Y47574000D01*
X-8953000Y47565000D01*
X-8907000Y47554000D01*
X-8862000Y47541000D01*
X-8817000Y47525000D01*
X-8774000Y47507000D01*
X-8731000Y47487000D01*
X-8690000Y47464000D01*
X-8650000Y47440000D01*
X-8611000Y47413000D01*
X-8574000Y47384000D01*
X-8538000Y47354000D01*
X-8504000Y47321000D01*
X-8471000Y47287000D01*
X-8441000Y47251000D01*
X-8412000Y47214000D01*
X-8385000Y47175000D01*
X-8361000Y47135000D01*
X-8338000Y47094000D01*
X-8318000Y47051000D01*
X-8300000Y47008000D01*
X-8284000Y46963000D01*
X-8271000Y46918000D01*
X-8260000Y46872000D01*
X-8251000Y46826000D01*
X-8245000Y46779000D01*
X-8241000Y46732000D01*
X-8240000Y46685000D01*
X-8241000Y46638000D01*
X-8245000Y46591000D01*
X-8251000Y46544000D01*
X-8260000Y46498000D01*
X-8271000Y46452000D01*
X-8284000Y46407000D01*
X-8300000Y46362000D01*
X-8318000Y46319000D01*
X-8338000Y46276000D01*
X-8361000Y46235000D01*
X-8385000Y46195000D01*
X-8412000Y46156000D01*
X-8441000Y46119000D01*
X-8471000Y46083000D01*
X-8504000Y46049000D01*
X-8538000Y46016000D01*
X-8574000Y45986000D01*
X-8611000Y45957000D01*
X-8650000Y45930000D01*
X-8690000Y45906000D01*
X-8731000Y45883000D01*
X-8774000Y45863000D01*
X-8817000Y45845000D01*
X-8862000Y45829000D01*
X-8907000Y45816000D01*
X-8953000Y45805000D01*
X-8999000Y45796000D01*
X-9046000Y45790000D01*
X-9093000Y45786000D01*
X-9140000Y45785000D01*
X-11640000Y45785000D01*
X-11640000Y47585000D01*
X-9140000Y47585000D01*
X-9093000Y47584000D01*
G36*
X-9093000Y47584000D02*
G01*
X-9046000Y47580000D01*
X-8999000Y47574000D01*
X-8953000Y47565000D01*
X-8907000Y47554000D01*
X-8862000Y47541000D01*
X-8817000Y47525000D01*
X-8774000Y47507000D01*
X-8731000Y47487000D01*
X-8690000Y47464000D01*
X-8650000Y47440000D01*
X-8611000Y47413000D01*
X-8574000Y47384000D01*
X-8538000Y47354000D01*
X-8504000Y47321000D01*
X-8471000Y47287000D01*
X-8441000Y47251000D01*
X-8412000Y47214000D01*
X-8385000Y47175000D01*
X-8361000Y47135000D01*
X-8338000Y47094000D01*
X-8318000Y47051000D01*
X-8300000Y47008000D01*
X-8284000Y46963000D01*
X-8271000Y46918000D01*
X-8260000Y46872000D01*
X-8251000Y46826000D01*
X-8245000Y46779000D01*
X-8241000Y46732000D01*
X-8240000Y46685000D01*
X-8241000Y46638000D01*
X-8245000Y46591000D01*
X-8251000Y46544000D01*
X-8260000Y46498000D01*
X-8271000Y46452000D01*
X-8284000Y46407000D01*
X-8300000Y46362000D01*
X-8318000Y46319000D01*
X-8338000Y46276000D01*
X-8361000Y46235000D01*
X-8385000Y46195000D01*
X-8412000Y46156000D01*
X-8441000Y46119000D01*
X-8471000Y46083000D01*
X-8504000Y46049000D01*
X-8538000Y46016000D01*
X-8574000Y45986000D01*
X-8611000Y45957000D01*
X-8650000Y45930000D01*
X-8690000Y45906000D01*
X-8731000Y45883000D01*
X-8774000Y45863000D01*
X-8817000Y45845000D01*
X-8862000Y45829000D01*
X-8907000Y45816000D01*
X-8953000Y45805000D01*
X-8999000Y45796000D01*
X-9046000Y45790000D01*
X-9093000Y45786000D01*
X-9140000Y45785000D01*
X-11640000Y45785000D01*
X-11640000Y47585000D01*
X-9140000Y47585000D01*
X-9093000Y47584000D01*
G37*
X-9093000Y52664000D02*
X-9046000Y52660000D01*
X-8999000Y52654000D01*
X-8953000Y52645000D01*
X-8907000Y52634000D01*
X-8862000Y52621000D01*
X-8817000Y52605000D01*
X-8774000Y52587000D01*
X-8731000Y52567000D01*
X-8690000Y52544000D01*
X-8650000Y52520000D01*
X-8611000Y52493000D01*
X-8574000Y52464000D01*
X-8538000Y52434000D01*
X-8504000Y52401000D01*
X-8471000Y52367000D01*
X-8441000Y52331000D01*
X-8412000Y52294000D01*
X-8385000Y52255000D01*
X-8361000Y52215000D01*
X-8338000Y52174000D01*
X-8318000Y52131000D01*
X-8300000Y52088000D01*
X-8284000Y52043000D01*
X-8271000Y51998000D01*
X-8260000Y51952000D01*
X-8251000Y51906000D01*
X-8245000Y51859000D01*
X-8241000Y51812000D01*
X-8240000Y51765000D01*
X-8241000Y51718000D01*
X-8245000Y51671000D01*
X-8251000Y51624000D01*
X-8260000Y51578000D01*
X-8271000Y51532000D01*
X-8284000Y51487000D01*
X-8300000Y51442000D01*
X-8318000Y51399000D01*
X-8338000Y51356000D01*
X-8361000Y51315000D01*
X-8385000Y51275000D01*
X-8412000Y51236000D01*
X-8441000Y51199000D01*
X-8471000Y51163000D01*
X-8504000Y51129000D01*
X-8538000Y51096000D01*
X-8574000Y51066000D01*
X-8611000Y51037000D01*
X-8650000Y51010000D01*
X-8690000Y50986000D01*
X-8731000Y50963000D01*
X-8774000Y50943000D01*
X-8817000Y50925000D01*
X-8862000Y50909000D01*
X-8907000Y50896000D01*
X-8953000Y50885000D01*
X-8999000Y50876000D01*
X-9046000Y50870000D01*
X-9093000Y50866000D01*
X-9140000Y50865000D01*
X-11640000Y50865000D01*
X-11640000Y52665000D01*
X-9140000Y52665000D01*
X-9093000Y52664000D01*
G36*
X-9093000Y52664000D02*
G01*
X-9046000Y52660000D01*
X-8999000Y52654000D01*
X-8953000Y52645000D01*
X-8907000Y52634000D01*
X-8862000Y52621000D01*
X-8817000Y52605000D01*
X-8774000Y52587000D01*
X-8731000Y52567000D01*
X-8690000Y52544000D01*
X-8650000Y52520000D01*
X-8611000Y52493000D01*
X-8574000Y52464000D01*
X-8538000Y52434000D01*
X-8504000Y52401000D01*
X-8471000Y52367000D01*
X-8441000Y52331000D01*
X-8412000Y52294000D01*
X-8385000Y52255000D01*
X-8361000Y52215000D01*
X-8338000Y52174000D01*
X-8318000Y52131000D01*
X-8300000Y52088000D01*
X-8284000Y52043000D01*
X-8271000Y51998000D01*
X-8260000Y51952000D01*
X-8251000Y51906000D01*
X-8245000Y51859000D01*
X-8241000Y51812000D01*
X-8240000Y51765000D01*
X-8241000Y51718000D01*
X-8245000Y51671000D01*
X-8251000Y51624000D01*
X-8260000Y51578000D01*
X-8271000Y51532000D01*
X-8284000Y51487000D01*
X-8300000Y51442000D01*
X-8318000Y51399000D01*
X-8338000Y51356000D01*
X-8361000Y51315000D01*
X-8385000Y51275000D01*
X-8412000Y51236000D01*
X-8441000Y51199000D01*
X-8471000Y51163000D01*
X-8504000Y51129000D01*
X-8538000Y51096000D01*
X-8574000Y51066000D01*
X-8611000Y51037000D01*
X-8650000Y51010000D01*
X-8690000Y50986000D01*
X-8731000Y50963000D01*
X-8774000Y50943000D01*
X-8817000Y50925000D01*
X-8862000Y50909000D01*
X-8907000Y50896000D01*
X-8953000Y50885000D01*
X-8999000Y50876000D01*
X-9046000Y50870000D01*
X-9093000Y50866000D01*
X-9140000Y50865000D01*
X-11640000Y50865000D01*
X-11640000Y52665000D01*
X-9140000Y52665000D01*
X-9093000Y52664000D01*
G37*
X-9093000Y55204000D02*
X-9046000Y55200000D01*
X-8999000Y55194000D01*
X-8953000Y55185000D01*
X-8907000Y55174000D01*
X-8862000Y55161000D01*
X-8817000Y55145000D01*
X-8774000Y55127000D01*
X-8731000Y55107000D01*
X-8690000Y55084000D01*
X-8650000Y55060000D01*
X-8611000Y55033000D01*
X-8574000Y55004000D01*
X-8538000Y54974000D01*
X-8504000Y54941000D01*
X-8471000Y54907000D01*
X-8441000Y54871000D01*
X-8412000Y54834000D01*
X-8385000Y54795000D01*
X-8361000Y54755000D01*
X-8338000Y54714000D01*
X-8318000Y54671000D01*
X-8300000Y54628000D01*
X-8284000Y54583000D01*
X-8271000Y54538000D01*
X-8260000Y54492000D01*
X-8251000Y54446000D01*
X-8245000Y54399000D01*
X-8241000Y54352000D01*
X-8240000Y54305000D01*
X-8241000Y54258000D01*
X-8245000Y54211000D01*
X-8251000Y54164000D01*
X-8260000Y54118000D01*
X-8271000Y54072000D01*
X-8284000Y54027000D01*
X-8300000Y53982000D01*
X-8318000Y53939000D01*
X-8338000Y53896000D01*
X-8361000Y53855000D01*
X-8385000Y53815000D01*
X-8412000Y53776000D01*
X-8441000Y53739000D01*
X-8471000Y53703000D01*
X-8504000Y53669000D01*
X-8538000Y53636000D01*
X-8574000Y53606000D01*
X-8611000Y53577000D01*
X-8650000Y53550000D01*
X-8690000Y53526000D01*
X-8731000Y53503000D01*
X-8774000Y53483000D01*
X-8817000Y53465000D01*
X-8862000Y53449000D01*
X-8907000Y53436000D01*
X-8953000Y53425000D01*
X-8999000Y53416000D01*
X-9046000Y53410000D01*
X-9093000Y53406000D01*
X-9140000Y53405000D01*
X-11640000Y53405000D01*
X-11640000Y55205000D01*
X-9140000Y55205000D01*
X-9093000Y55204000D01*
G36*
X-9093000Y55204000D02*
G01*
X-9046000Y55200000D01*
X-8999000Y55194000D01*
X-8953000Y55185000D01*
X-8907000Y55174000D01*
X-8862000Y55161000D01*
X-8817000Y55145000D01*
X-8774000Y55127000D01*
X-8731000Y55107000D01*
X-8690000Y55084000D01*
X-8650000Y55060000D01*
X-8611000Y55033000D01*
X-8574000Y55004000D01*
X-8538000Y54974000D01*
X-8504000Y54941000D01*
X-8471000Y54907000D01*
X-8441000Y54871000D01*
X-8412000Y54834000D01*
X-8385000Y54795000D01*
X-8361000Y54755000D01*
X-8338000Y54714000D01*
X-8318000Y54671000D01*
X-8300000Y54628000D01*
X-8284000Y54583000D01*
X-8271000Y54538000D01*
X-8260000Y54492000D01*
X-8251000Y54446000D01*
X-8245000Y54399000D01*
X-8241000Y54352000D01*
X-8240000Y54305000D01*
X-8241000Y54258000D01*
X-8245000Y54211000D01*
X-8251000Y54164000D01*
X-8260000Y54118000D01*
X-8271000Y54072000D01*
X-8284000Y54027000D01*
X-8300000Y53982000D01*
X-8318000Y53939000D01*
X-8338000Y53896000D01*
X-8361000Y53855000D01*
X-8385000Y53815000D01*
X-8412000Y53776000D01*
X-8441000Y53739000D01*
X-8471000Y53703000D01*
X-8504000Y53669000D01*
X-8538000Y53636000D01*
X-8574000Y53606000D01*
X-8611000Y53577000D01*
X-8650000Y53550000D01*
X-8690000Y53526000D01*
X-8731000Y53503000D01*
X-8774000Y53483000D01*
X-8817000Y53465000D01*
X-8862000Y53449000D01*
X-8907000Y53436000D01*
X-8953000Y53425000D01*
X-8999000Y53416000D01*
X-9046000Y53410000D01*
X-9093000Y53406000D01*
X-9140000Y53405000D01*
X-11640000Y53405000D01*
X-11640000Y55205000D01*
X-9140000Y55205000D01*
X-9093000Y55204000D01*
G37*
%TD*%
D11*
%TO.C,U22*%
X19053000Y-17254000D03*
D12*
X21593000Y-17254000D03*
X24133000Y-17254000D03*
X26673000Y-17254000D03*
X29213000Y-17254000D03*
X31753000Y-17254000D03*
X31753000Y-2014000D03*
X29213000Y-2014000D03*
X26673000Y-2014000D03*
X24133000Y-2014000D03*
X21593000Y-2014000D03*
X19053000Y-2014000D03*
%TD*%
%TO.C,U21*%
X19053000Y17264000D03*
X21593000Y17264000D03*
X24133000Y17264000D03*
X26673000Y17264000D03*
X29213000Y17264000D03*
X31753000Y17264000D03*
X31753000Y2024000D03*
X29213000Y2024000D03*
X26673000Y2024000D03*
X24133000Y2024000D03*
X21593000Y2024000D03*
D11*
X19053000Y2024000D03*
%TD*%
D12*
%TO.C,U17*%
X-31753000Y-21292000D03*
X-29213000Y-21292000D03*
X-26673000Y-21292000D03*
X-24133000Y-21292000D03*
X-21593000Y-21292000D03*
X-19053000Y-21292000D03*
X-19053000Y-36532000D03*
X-21593000Y-36532000D03*
X-24133000Y-36532000D03*
X-26673000Y-36532000D03*
X-29213000Y-36532000D03*
D11*
X-31753000Y-36532000D03*
%TD*%
D12*
%TO.C,U2*%
X-82560000Y55820000D03*
X-80020000Y55820000D03*
X-77480000Y55820000D03*
X-74940000Y55820000D03*
X-72400000Y55820000D03*
X-69860000Y55820000D03*
X-69860000Y40580000D03*
X-72400000Y40580000D03*
X-74940000Y40580000D03*
X-77480000Y40580000D03*
X-80020000Y40580000D03*
D11*
X-82560000Y40580000D03*
%TD*%
D12*
%TO.C,U18*%
X-31753000Y-40570000D03*
X-29213000Y-40570000D03*
X-26673000Y-40570000D03*
X-24133000Y-40570000D03*
X-21593000Y-40570000D03*
X-19053000Y-40570000D03*
X-19053000Y-55810000D03*
X-21593000Y-55810000D03*
X-24133000Y-55810000D03*
X-26673000Y-55810000D03*
X-29213000Y-55810000D03*
D11*
X-31753000Y-55810000D03*
%TD*%
D12*
%TO.C,U19*%
X19053000Y55820000D03*
X21593000Y55820000D03*
X24133000Y55820000D03*
X26673000Y55820000D03*
X29213000Y55820000D03*
X31753000Y55820000D03*
X31753000Y40580000D03*
X29213000Y40580000D03*
X26673000Y40580000D03*
X24133000Y40580000D03*
X21593000Y40580000D03*
D11*
X19053000Y40580000D03*
%TD*%
%TO.C,U4*%
X-82560000Y21302000D03*
D12*
X-80020000Y21302000D03*
X-77480000Y21302000D03*
X-74940000Y21302000D03*
X-72400000Y21302000D03*
X-69860000Y21302000D03*
X-69860000Y36542000D03*
X-72400000Y36542000D03*
X-74940000Y36542000D03*
X-77480000Y36542000D03*
X-80020000Y36542000D03*
X-82560000Y36542000D03*
%TD*%
D11*
%TO.C,U11*%
X-82560000Y-36532000D03*
D12*
X-80020000Y-36532000D03*
X-77480000Y-36532000D03*
X-74940000Y-36532000D03*
X-72400000Y-36532000D03*
X-69860000Y-36532000D03*
X-69860000Y-21292000D03*
X-72400000Y-21292000D03*
X-74940000Y-21292000D03*
X-77480000Y-21292000D03*
X-80020000Y-21292000D03*
X-82560000Y-21292000D03*
%TD*%
%TO.C,U24*%
X19053000Y-40570000D03*
X21593000Y-40570000D03*
X24133000Y-40570000D03*
X26673000Y-40570000D03*
X29213000Y-40570000D03*
X31753000Y-40570000D03*
X31753000Y-55810000D03*
X29213000Y-55810000D03*
X26673000Y-55810000D03*
X24133000Y-55810000D03*
X21593000Y-55810000D03*
D11*
X19053000Y-55810000D03*
%TD*%
D12*
%TO.C,U36*%
X69860000Y-40570000D03*
X72400000Y-40570000D03*
X74940000Y-40570000D03*
X77480000Y-40570000D03*
X80020000Y-40570000D03*
X82560000Y-40570000D03*
X82560000Y-55810000D03*
X80020000Y-55810000D03*
X77480000Y-55810000D03*
X74940000Y-55810000D03*
X72400000Y-55810000D03*
D11*
X69860000Y-55810000D03*
%TD*%
D12*
%TO.C,U16*%
X-31753000Y-2014000D03*
X-29213000Y-2014000D03*
X-26673000Y-2014000D03*
X-24133000Y-2014000D03*
X-21593000Y-2014000D03*
X-19053000Y-2014000D03*
X-19053000Y-17254000D03*
X-21593000Y-17254000D03*
X-24133000Y-17254000D03*
X-26673000Y-17254000D03*
X-29213000Y-17254000D03*
D11*
X-31753000Y-17254000D03*
%TD*%
D12*
%TO.C,U10*%
X-82560000Y-2014000D03*
X-80020000Y-2014000D03*
X-77480000Y-2014000D03*
X-74940000Y-2014000D03*
X-72400000Y-2014000D03*
X-69860000Y-2014000D03*
X-69860000Y-17254000D03*
X-72400000Y-17254000D03*
X-74940000Y-17254000D03*
X-77480000Y-17254000D03*
X-80020000Y-17254000D03*
D11*
X-82560000Y-17254000D03*
%TD*%
D12*
%TO.C,U3*%
X-31753000Y55820000D03*
X-29213000Y55820000D03*
X-26673000Y55820000D03*
X-24133000Y55820000D03*
X-21593000Y55820000D03*
X-19053000Y55820000D03*
X-19053000Y40580000D03*
X-21593000Y40580000D03*
X-24133000Y40580000D03*
X-26673000Y40580000D03*
X-29213000Y40580000D03*
D11*
X-31753000Y40580000D03*
%TD*%
D12*
%TO.C,U23*%
X19053000Y-21292000D03*
X21593000Y-21292000D03*
X24133000Y-21292000D03*
X26673000Y-21292000D03*
X29213000Y-21292000D03*
X31753000Y-21292000D03*
X31753000Y-36532000D03*
X29213000Y-36532000D03*
X26673000Y-36532000D03*
X24133000Y-36532000D03*
X21593000Y-36532000D03*
D11*
X19053000Y-36532000D03*
%TD*%
D12*
%TO.C,U33*%
X69860000Y17264000D03*
X72400000Y17264000D03*
X74940000Y17264000D03*
X77480000Y17264000D03*
X80020000Y17264000D03*
X82560000Y17264000D03*
X82560000Y2024000D03*
X80020000Y2024000D03*
X77480000Y2024000D03*
X74940000Y2024000D03*
X72400000Y2024000D03*
D11*
X69860000Y2024000D03*
%TD*%
D12*
%TO.C,U32*%
X69860000Y36542000D03*
X72400000Y36542000D03*
X74940000Y36542000D03*
X77480000Y36542000D03*
X80020000Y36542000D03*
X82560000Y36542000D03*
X82560000Y21302000D03*
X80020000Y21302000D03*
X77480000Y21302000D03*
X74940000Y21302000D03*
X72400000Y21302000D03*
D11*
X69860000Y21302000D03*
%TD*%
D12*
%TO.C,U9*%
X-31753000Y17264000D03*
X-29213000Y17264000D03*
X-26673000Y17264000D03*
X-24133000Y17264000D03*
X-21593000Y17264000D03*
X-19053000Y17264000D03*
X-19053000Y2024000D03*
X-21593000Y2024000D03*
X-24133000Y2024000D03*
X-26673000Y2024000D03*
X-29213000Y2024000D03*
D11*
X-31753000Y2024000D03*
%TD*%
D12*
%TO.C,U34*%
X69860000Y-2014000D03*
X72400000Y-2014000D03*
X74940000Y-2014000D03*
X77480000Y-2014000D03*
X80020000Y-2014000D03*
X82560000Y-2014000D03*
X82560000Y-17254000D03*
X80020000Y-17254000D03*
X77480000Y-17254000D03*
X74940000Y-17254000D03*
X72400000Y-17254000D03*
D11*
X69860000Y-17254000D03*
%TD*%
D12*
%TO.C,U20*%
X19053000Y36542000D03*
X21593000Y36542000D03*
X24133000Y36542000D03*
X26673000Y36542000D03*
X29213000Y36542000D03*
X31753000Y36542000D03*
X31753000Y21302000D03*
X29213000Y21302000D03*
X26673000Y21302000D03*
X24133000Y21302000D03*
X21593000Y21302000D03*
D11*
X19053000Y21302000D03*
%TD*%
D12*
%TO.C,U6*%
X-31753000Y36542000D03*
X-29213000Y36542000D03*
X-26673000Y36542000D03*
X-24133000Y36542000D03*
X-21593000Y36542000D03*
X-19053000Y36542000D03*
X-19053000Y21302000D03*
X-21593000Y21302000D03*
X-24133000Y21302000D03*
X-26673000Y21302000D03*
X-29213000Y21302000D03*
D11*
X-31753000Y21302000D03*
%TD*%
%TO.C,U12*%
X-82560000Y-55810000D03*
D12*
X-80020000Y-55810000D03*
X-77480000Y-55810000D03*
X-74940000Y-55810000D03*
X-72400000Y-55810000D03*
X-69860000Y-55810000D03*
X-69860000Y-40570000D03*
X-72400000Y-40570000D03*
X-74940000Y-40570000D03*
X-77480000Y-40570000D03*
X-80020000Y-40570000D03*
X-82560000Y-40570000D03*
%TD*%
D11*
%TO.C,U31*%
X69860000Y40580000D03*
D12*
X72400000Y40580000D03*
X74940000Y40580000D03*
X77480000Y40580000D03*
X80020000Y40580000D03*
X82560000Y40580000D03*
X82560000Y55820000D03*
X80020000Y55820000D03*
X77480000Y55820000D03*
X74940000Y55820000D03*
X72400000Y55820000D03*
X69860000Y55820000D03*
%TD*%
%TO.C,U35*%
X69860000Y-21292000D03*
X72400000Y-21292000D03*
X74940000Y-21292000D03*
X77480000Y-21292000D03*
X80020000Y-21292000D03*
X82560000Y-21292000D03*
X82560000Y-36532000D03*
X80020000Y-36532000D03*
X77480000Y-36532000D03*
X74940000Y-36532000D03*
X72400000Y-36532000D03*
D11*
X69860000Y-36532000D03*
%TD*%
%TO.C,U7*%
X-82560000Y2024000D03*
D12*
X-80020000Y2024000D03*
X-77480000Y2024000D03*
X-74940000Y2024000D03*
X-72400000Y2024000D03*
X-69860000Y2024000D03*
X-69860000Y17264000D03*
X-72400000Y17264000D03*
X-74940000Y17264000D03*
X-77480000Y17264000D03*
X-80020000Y17264000D03*
X-82560000Y17264000D03*
%TD*%
D13*
%TO.C,C2*%
X-40600000Y43600000D03*
X-40600000Y41525000D03*
%TD*%
D14*
%TO.C,U29*%
X43515000Y-33225000D03*
X44785000Y-33225000D03*
X46055000Y-33225000D03*
X47325000Y-33225000D03*
X48595000Y-33225000D03*
X49865000Y-33225000D03*
X51135000Y-33225000D03*
X52405000Y-33225000D03*
X53675000Y-33225000D03*
X54945000Y-33225000D03*
X56215000Y-33225000D03*
X57485000Y-33225000D03*
X57485000Y-23925000D03*
X56215000Y-23925000D03*
X54945000Y-23925000D03*
X53675000Y-23925000D03*
X52405000Y-23925000D03*
X51135000Y-23925000D03*
X49865000Y-23925000D03*
X48595000Y-23925000D03*
X47325000Y-23925000D03*
X46055000Y-23925000D03*
X44785000Y-23925000D03*
X43515000Y-23925000D03*
%TD*%
%TO.C,U30*%
X43515000Y-52225000D03*
X44785000Y-52225000D03*
X46055000Y-52225000D03*
X47325000Y-52225000D03*
X48595000Y-52225000D03*
X49865000Y-52225000D03*
X51135000Y-52225000D03*
X52405000Y-52225000D03*
X53675000Y-52225000D03*
X54945000Y-52225000D03*
X56215000Y-52225000D03*
X57485000Y-52225000D03*
X57485000Y-42925000D03*
X56215000Y-42925000D03*
X54945000Y-42925000D03*
X53675000Y-42925000D03*
X52405000Y-42925000D03*
X51135000Y-42925000D03*
X49865000Y-42925000D03*
X48595000Y-42925000D03*
X47325000Y-42925000D03*
X46055000Y-42925000D03*
X44785000Y-42925000D03*
X43515000Y-42925000D03*
%TD*%
D15*
%TO.C,C16*%
X38000000Y-15225000D03*
X41000000Y-15225000D03*
%TD*%
D14*
%TO.C,U14*%
X-57060000Y-33225000D03*
X-55790000Y-33225000D03*
X-54520000Y-33225000D03*
X-53250000Y-33225000D03*
X-51980000Y-33225000D03*
X-50710000Y-33225000D03*
X-49440000Y-33225000D03*
X-48170000Y-33225000D03*
X-46900000Y-33225000D03*
X-45630000Y-33225000D03*
X-44360000Y-33225000D03*
X-43090000Y-33225000D03*
X-43090000Y-23925000D03*
X-44360000Y-23925000D03*
X-45630000Y-23925000D03*
X-46900000Y-23925000D03*
X-48170000Y-23925000D03*
X-49440000Y-23925000D03*
X-50710000Y-23925000D03*
X-51980000Y-23925000D03*
X-53250000Y-23925000D03*
X-54520000Y-23925000D03*
X-55790000Y-23925000D03*
X-57060000Y-23925000D03*
%TD*%
D16*
%TO.C,R4*%
X-38500000Y-13475000D03*
X-38500000Y-15475000D03*
%TD*%
D13*
%TO.C,C23*%
X60000000Y-32400000D03*
X60000000Y-34475000D03*
%TD*%
D14*
%TO.C,U5*%
X-57085000Y23775000D03*
X-55815000Y23775000D03*
X-54545000Y23775000D03*
X-53275000Y23775000D03*
X-52005000Y23775000D03*
X-50735000Y23775000D03*
X-49465000Y23775000D03*
X-48195000Y23775000D03*
X-46925000Y23775000D03*
X-45655000Y23775000D03*
X-44385000Y23775000D03*
X-43115000Y23775000D03*
X-43115000Y33075000D03*
X-44385000Y33075000D03*
X-45655000Y33075000D03*
X-46925000Y33075000D03*
X-48195000Y33075000D03*
X-49465000Y33075000D03*
X-50735000Y33075000D03*
X-52005000Y33075000D03*
X-53275000Y33075000D03*
X-54545000Y33075000D03*
X-55815000Y33075000D03*
X-57085000Y33075000D03*
%TD*%
D13*
%TO.C,C22*%
X60000000Y-13400000D03*
X60000000Y-15475000D03*
%TD*%
D16*
%TO.C,R3*%
X-38500000Y5525000D03*
X-38500000Y3525000D03*
%TD*%
D17*
%TO.C,J2*%
X9970000Y-15225000D03*
X9970000Y-12685000D03*
X9970000Y-10145000D03*
X9970000Y-7605000D03*
X9970000Y-5065000D03*
D18*
X9970000Y-2525000D03*
%TD*%
D15*
%TO.C,C9*%
X-62600000Y-53225000D03*
X-59600000Y-53225000D03*
%TD*%
%TO.C,C18*%
X38000000Y-34225000D03*
X41000000Y-34225000D03*
%TD*%
D16*
%TO.C,R1*%
X-38450000Y43525000D03*
X-38450000Y41525000D03*
%TD*%
D14*
%TO.C,U15*%
X-57060000Y-52225000D03*
X-55790000Y-52225000D03*
X-54520000Y-52225000D03*
X-53250000Y-52225000D03*
X-51980000Y-52225000D03*
X-50710000Y-52225000D03*
X-49440000Y-52225000D03*
X-48170000Y-52225000D03*
X-46900000Y-52225000D03*
X-45630000Y-52225000D03*
X-44360000Y-52225000D03*
X-43090000Y-52225000D03*
X-43090000Y-42925000D03*
X-44360000Y-42925000D03*
X-45630000Y-42925000D03*
X-46900000Y-42925000D03*
X-48170000Y-42925000D03*
X-49440000Y-42925000D03*
X-50710000Y-42925000D03*
X-51980000Y-42925000D03*
X-53250000Y-42925000D03*
X-54520000Y-42925000D03*
X-55790000Y-42925000D03*
X-57060000Y-42925000D03*
%TD*%
D15*
%TO.C,C20*%
X38000000Y-53225000D03*
X41000000Y-53225000D03*
%TD*%
D16*
%TO.C,R7*%
X62100000Y43525000D03*
X62100000Y41525000D03*
%TD*%
D15*
%TO.C,C1*%
X-62600000Y41775000D03*
X-59600000Y41775000D03*
%TD*%
D19*
%TO.C,D1*%
X-14150000Y47375000D03*
X-14150000Y51775000D03*
%TD*%
D14*
%TO.C,U27*%
X43515000Y4775000D03*
X44785000Y4775000D03*
X46055000Y4775000D03*
X47325000Y4775000D03*
X48595000Y4775000D03*
X49865000Y4775000D03*
X51135000Y4775000D03*
X52405000Y4775000D03*
X53675000Y4775000D03*
X54945000Y4775000D03*
X56215000Y4775000D03*
X57485000Y4775000D03*
X57485000Y14075000D03*
X56215000Y14075000D03*
X54945000Y14075000D03*
X53675000Y14075000D03*
X52405000Y14075000D03*
X51135000Y14075000D03*
X49865000Y14075000D03*
X48595000Y14075000D03*
X47325000Y14075000D03*
X46055000Y14075000D03*
X44785000Y14075000D03*
X43515000Y14075000D03*
%TD*%
%TO.C,U1*%
X-57085000Y42775000D03*
X-55815000Y42775000D03*
X-54545000Y42775000D03*
X-53275000Y42775000D03*
X-52005000Y42775000D03*
X-50735000Y42775000D03*
X-49465000Y42775000D03*
X-48195000Y42775000D03*
X-46925000Y42775000D03*
X-45655000Y42775000D03*
X-44385000Y42775000D03*
X-43115000Y42775000D03*
X-43115000Y52075000D03*
X-44385000Y52075000D03*
X-45655000Y52075000D03*
X-46925000Y52075000D03*
X-48195000Y52075000D03*
X-49465000Y52075000D03*
X-50735000Y52075000D03*
X-52005000Y52075000D03*
X-53275000Y52075000D03*
X-54545000Y52075000D03*
X-55815000Y52075000D03*
X-57085000Y52075000D03*
%TD*%
%TO.C,U28*%
X43515000Y-14225000D03*
X44785000Y-14225000D03*
X46055000Y-14225000D03*
X47325000Y-14225000D03*
X48595000Y-14225000D03*
X49865000Y-14225000D03*
X51135000Y-14225000D03*
X52405000Y-14225000D03*
X53675000Y-14225000D03*
X54945000Y-14225000D03*
X56215000Y-14225000D03*
X57485000Y-14225000D03*
X57485000Y-4925000D03*
X56215000Y-4925000D03*
X54945000Y-4925000D03*
X53675000Y-4925000D03*
X52405000Y-4925000D03*
X51135000Y-4925000D03*
X49865000Y-4925000D03*
X48595000Y-4925000D03*
X47325000Y-4925000D03*
X46055000Y-4925000D03*
X44785000Y-4925000D03*
X43515000Y-4925000D03*
%TD*%
D13*
%TO.C,C24*%
X60000000Y-51400000D03*
X60000000Y-53475000D03*
%TD*%
D14*
%TO.C,U13*%
X-57060000Y-14225000D03*
X-55790000Y-14225000D03*
X-54520000Y-14225000D03*
X-53250000Y-14225000D03*
X-51980000Y-14225000D03*
X-50710000Y-14225000D03*
X-49440000Y-14225000D03*
X-48170000Y-14225000D03*
X-46900000Y-14225000D03*
X-45630000Y-14225000D03*
X-44360000Y-14225000D03*
X-43090000Y-14225000D03*
X-43090000Y-4925000D03*
X-44360000Y-4925000D03*
X-45630000Y-4925000D03*
X-46900000Y-4925000D03*
X-48170000Y-4925000D03*
X-49440000Y-4925000D03*
X-50710000Y-4925000D03*
X-51980000Y-4925000D03*
X-53250000Y-4925000D03*
X-54520000Y-4925000D03*
X-55790000Y-4925000D03*
X-57060000Y-4925000D03*
%TD*%
D16*
%TO.C,R11*%
X62150000Y-32475000D03*
X62150000Y-34475000D03*
%TD*%
D13*
%TO.C,C10*%
X-40600000Y-13400000D03*
X-40600000Y-15475000D03*
%TD*%
D15*
%TO.C,C5*%
X-62600000Y3775000D03*
X-59600000Y3775000D03*
%TD*%
D14*
%TO.C,U8*%
X-57060000Y4775000D03*
X-55790000Y4775000D03*
X-54520000Y4775000D03*
X-53250000Y4775000D03*
X-51980000Y4775000D03*
X-50710000Y4775000D03*
X-49440000Y4775000D03*
X-48170000Y4775000D03*
X-46900000Y4775000D03*
X-45630000Y4775000D03*
X-44360000Y4775000D03*
X-43090000Y4775000D03*
X-43090000Y14075000D03*
X-44360000Y14075000D03*
X-45630000Y14075000D03*
X-46900000Y14075000D03*
X-48170000Y14075000D03*
X-49440000Y14075000D03*
X-50710000Y14075000D03*
X-51980000Y14075000D03*
X-53250000Y14075000D03*
X-54520000Y14075000D03*
X-55790000Y14075000D03*
X-57060000Y14075000D03*
%TD*%
D15*
%TO.C,C8*%
X-62600000Y-34225000D03*
X-59600000Y-34225000D03*
%TD*%
%TO.C,C14*%
X38000000Y22775000D03*
X41000000Y22775000D03*
%TD*%
D20*
%TO.C,J1*%
X-700000Y-51967500D03*
D21*
X2300000Y-47267500D03*
D22*
X-3700000Y-47267500D03*
%TD*%
D15*
%TO.C,C7*%
X-62600000Y-15225000D03*
X-59600000Y-15225000D03*
%TD*%
D23*
%TO.C,Q1*%
X50000Y-32525000D03*
X1000000Y-30425000D03*
X-900000Y-30425000D03*
%TD*%
D16*
%TO.C,R6*%
X-38500000Y-51475000D03*
X-38500000Y-53475000D03*
%TD*%
D15*
%TO.C,C13*%
X38000000Y41775000D03*
X41000000Y41775000D03*
%TD*%
D13*
%TO.C,C4*%
X-40600000Y24600000D03*
X-40600000Y22525000D03*
%TD*%
D16*
%TO.C,R12*%
X62150000Y-51475000D03*
X62150000Y-53475000D03*
%TD*%
%TO.C,R2*%
X-38500000Y24525000D03*
X-38500000Y22525000D03*
%TD*%
D15*
%TO.C,C15*%
X38000000Y3775000D03*
X41000000Y3775000D03*
%TD*%
D13*
%TO.C,C21*%
X60000000Y5600000D03*
X60000000Y3525000D03*
%TD*%
%TO.C,C19*%
X60000000Y24600000D03*
X60000000Y22525000D03*
%TD*%
%TO.C,C11*%
X-40600000Y-32400000D03*
X-40600000Y-34475000D03*
%TD*%
%TO.C,C17*%
X60000000Y43600000D03*
X60000000Y41525000D03*
%TD*%
D16*
%TO.C,R9*%
X62150000Y5525000D03*
X62150000Y3525000D03*
%TD*%
D13*
%TO.C,C6*%
X-40600000Y5600000D03*
X-40600000Y3525000D03*
%TD*%
D14*
%TO.C,U25*%
X43515000Y42775000D03*
X44785000Y42775000D03*
X46055000Y42775000D03*
X47325000Y42775000D03*
X48595000Y42775000D03*
X49865000Y42775000D03*
X51135000Y42775000D03*
X52405000Y42775000D03*
X53675000Y42775000D03*
X54945000Y42775000D03*
X56215000Y42775000D03*
X57485000Y42775000D03*
X57485000Y52075000D03*
X56215000Y52075000D03*
X54945000Y52075000D03*
X53675000Y52075000D03*
X52405000Y52075000D03*
X51135000Y52075000D03*
X49865000Y52075000D03*
X48595000Y52075000D03*
X47325000Y52075000D03*
X46055000Y52075000D03*
X44785000Y52075000D03*
X43515000Y52075000D03*
%TD*%
%TO.C,U26*%
X43515000Y23775000D03*
X44785000Y23775000D03*
X46055000Y23775000D03*
X47325000Y23775000D03*
X48595000Y23775000D03*
X49865000Y23775000D03*
X51135000Y23775000D03*
X52405000Y23775000D03*
X53675000Y23775000D03*
X54945000Y23775000D03*
X56215000Y23775000D03*
X57485000Y23775000D03*
X57485000Y33075000D03*
X56215000Y33075000D03*
X54945000Y33075000D03*
X53675000Y33075000D03*
X52405000Y33075000D03*
X51135000Y33075000D03*
X49865000Y33075000D03*
X48595000Y33075000D03*
X47325000Y33075000D03*
X46055000Y33075000D03*
X44785000Y33075000D03*
X43515000Y33075000D03*
%TD*%
D16*
%TO.C,R8*%
X62100000Y24525000D03*
X62100000Y22525000D03*
%TD*%
D15*
%TO.C,C3*%
X-62600000Y22775000D03*
X-59600000Y22775000D03*
%TD*%
D16*
%TO.C,R10*%
X62150000Y-13475000D03*
X62150000Y-15475000D03*
%TD*%
%TO.C,R5*%
X-38500000Y-32475000D03*
X-38500000Y-34475000D03*
%TD*%
D13*
%TO.C,C12*%
X-40600000Y-51400000D03*
X-40600000Y-53475000D03*
%TD*%
D17*
%TO.C,J3*%
X-10350000Y-2525000D03*
X-10350000Y-5065000D03*
X-10350000Y-7605000D03*
X-10350000Y-10145000D03*
X-10350000Y-12685000D03*
D18*
X-10350000Y-15225000D03*
%TD*%
M02*
