%TF.GenerationSoftware,KiCad,Pcbnew,8.0.7*%
%TF.CreationDate,2025-01-01T14:01:46-07:00*%
%TF.ProjectId,newSSSPanel,6e657753-5353-4506-916e-656c2e6b6963,rev?*%
%TF.SameCoordinates,Original*%
%TF.FileFunction,Soldermask,Top*%
%TF.FilePolarity,Negative*%
%FSLAX46Y46*%
G04 Gerber Fmt 4.6, Leading zero omitted, Abs format (unit mm)*
G04 Created by KiCad (PCBNEW 8.0.7) date 2025-01-01 14:01:46*
%MOMM*%
%LPD*%
G01*
G04 APERTURE LIST*
G04 Aperture macros list*
%AMRoundRect*
0 Rectangle with rounded corners*
0 $1 Rounding radius*
0 $2 $3 $4 $5 $6 $7 $8 $9 X,Y pos of 4 corners*
0 Add a 4 corners polygon primitive as box body*
4,1,4,$2,$3,$4,$5,$6,$7,$8,$9,$2,$3,0*
0 Add four circle primitives for the rounded corners*
1,1,$1+$1,$2,$3*
1,1,$1+$1,$4,$5*
1,1,$1+$1,$6,$7*
1,1,$1+$1,$8,$9*
0 Add four rect primitives between the rounded corners*
20,1,$1+$1,$2,$3,$4,$5,0*
20,1,$1+$1,$4,$5,$6,$7,0*
20,1,$1+$1,$6,$7,$8,$9,0*
20,1,$1+$1,$8,$9,$2,$3,0*%
G04 Aperture macros list end*
%ADD10R,1.500000X1.500000*%
%ADD11C,1.500000*%
%ADD12O,1.700000X1.700000*%
%ADD13R,1.700000X1.700000*%
%ADD14RoundRect,0.875000X0.875000X0.875000X-0.875000X0.875000X-0.875000X-0.875000X0.875000X-0.875000X0*%
%ADD15RoundRect,0.750000X0.750000X1.000000X-0.750000X1.000000X-0.750000X-1.000000X0.750000X-1.000000X0*%
%ADD16R,3.500000X3.500000*%
G04 APERTURE END LIST*
D10*
%TO.C,U22*%
X19053000Y-17254000D03*
D11*
X21593000Y-17254000D03*
X24133000Y-17254000D03*
X26673000Y-17254000D03*
X29213000Y-17254000D03*
X31753000Y-17254000D03*
X31753000Y-2014000D03*
X29213000Y-2014000D03*
X26673000Y-2014000D03*
X24133000Y-2014000D03*
X21593000Y-2014000D03*
X19053000Y-2014000D03*
%TD*%
%TO.C,U21*%
X19053000Y17264000D03*
X21593000Y17264000D03*
X24133000Y17264000D03*
X26673000Y17264000D03*
X29213000Y17264000D03*
X31753000Y17264000D03*
X31753000Y2024000D03*
X29213000Y2024000D03*
X26673000Y2024000D03*
X24133000Y2024000D03*
X21593000Y2024000D03*
D10*
X19053000Y2024000D03*
%TD*%
D11*
%TO.C,U17*%
X-31753000Y-21292000D03*
X-29213000Y-21292000D03*
X-26673000Y-21292000D03*
X-24133000Y-21292000D03*
X-21593000Y-21292000D03*
X-19053000Y-21292000D03*
X-19053000Y-36532000D03*
X-21593000Y-36532000D03*
X-24133000Y-36532000D03*
X-26673000Y-36532000D03*
X-29213000Y-36532000D03*
D10*
X-31753000Y-36532000D03*
%TD*%
D11*
%TO.C,U2*%
X-82560000Y55820000D03*
X-80020000Y55820000D03*
X-77480000Y55820000D03*
X-74940000Y55820000D03*
X-72400000Y55820000D03*
X-69860000Y55820000D03*
X-69860000Y40580000D03*
X-72400000Y40580000D03*
X-74940000Y40580000D03*
X-77480000Y40580000D03*
X-80020000Y40580000D03*
D10*
X-82560000Y40580000D03*
%TD*%
D11*
%TO.C,U18*%
X-31753000Y-40570000D03*
X-29213000Y-40570000D03*
X-26673000Y-40570000D03*
X-24133000Y-40570000D03*
X-21593000Y-40570000D03*
X-19053000Y-40570000D03*
X-19053000Y-55810000D03*
X-21593000Y-55810000D03*
X-24133000Y-55810000D03*
X-26673000Y-55810000D03*
X-29213000Y-55810000D03*
D10*
X-31753000Y-55810000D03*
%TD*%
D11*
%TO.C,U19*%
X19053000Y55820000D03*
X21593000Y55820000D03*
X24133000Y55820000D03*
X26673000Y55820000D03*
X29213000Y55820000D03*
X31753000Y55820000D03*
X31753000Y40580000D03*
X29213000Y40580000D03*
X26673000Y40580000D03*
X24133000Y40580000D03*
X21593000Y40580000D03*
D10*
X19053000Y40580000D03*
%TD*%
%TO.C,U4*%
X-82560000Y21302000D03*
D11*
X-80020000Y21302000D03*
X-77480000Y21302000D03*
X-74940000Y21302000D03*
X-72400000Y21302000D03*
X-69860000Y21302000D03*
X-69860000Y36542000D03*
X-72400000Y36542000D03*
X-74940000Y36542000D03*
X-77480000Y36542000D03*
X-80020000Y36542000D03*
X-82560000Y36542000D03*
%TD*%
D10*
%TO.C,U11*%
X-82560000Y-36532000D03*
D11*
X-80020000Y-36532000D03*
X-77480000Y-36532000D03*
X-74940000Y-36532000D03*
X-72400000Y-36532000D03*
X-69860000Y-36532000D03*
X-69860000Y-21292000D03*
X-72400000Y-21292000D03*
X-74940000Y-21292000D03*
X-77480000Y-21292000D03*
X-80020000Y-21292000D03*
X-82560000Y-21292000D03*
%TD*%
%TO.C,U24*%
X19053000Y-40570000D03*
X21593000Y-40570000D03*
X24133000Y-40570000D03*
X26673000Y-40570000D03*
X29213000Y-40570000D03*
X31753000Y-40570000D03*
X31753000Y-55810000D03*
X29213000Y-55810000D03*
X26673000Y-55810000D03*
X24133000Y-55810000D03*
X21593000Y-55810000D03*
D10*
X19053000Y-55810000D03*
%TD*%
D11*
%TO.C,U36*%
X69860000Y-40570000D03*
X72400000Y-40570000D03*
X74940000Y-40570000D03*
X77480000Y-40570000D03*
X80020000Y-40570000D03*
X82560000Y-40570000D03*
X82560000Y-55810000D03*
X80020000Y-55810000D03*
X77480000Y-55810000D03*
X74940000Y-55810000D03*
X72400000Y-55810000D03*
D10*
X69860000Y-55810000D03*
%TD*%
D11*
%TO.C,U16*%
X-31753000Y-2014000D03*
X-29213000Y-2014000D03*
X-26673000Y-2014000D03*
X-24133000Y-2014000D03*
X-21593000Y-2014000D03*
X-19053000Y-2014000D03*
X-19053000Y-17254000D03*
X-21593000Y-17254000D03*
X-24133000Y-17254000D03*
X-26673000Y-17254000D03*
X-29213000Y-17254000D03*
D10*
X-31753000Y-17254000D03*
%TD*%
D11*
%TO.C,U10*%
X-82560000Y-2014000D03*
X-80020000Y-2014000D03*
X-77480000Y-2014000D03*
X-74940000Y-2014000D03*
X-72400000Y-2014000D03*
X-69860000Y-2014000D03*
X-69860000Y-17254000D03*
X-72400000Y-17254000D03*
X-74940000Y-17254000D03*
X-77480000Y-17254000D03*
X-80020000Y-17254000D03*
D10*
X-82560000Y-17254000D03*
%TD*%
D11*
%TO.C,U3*%
X-31753000Y55820000D03*
X-29213000Y55820000D03*
X-26673000Y55820000D03*
X-24133000Y55820000D03*
X-21593000Y55820000D03*
X-19053000Y55820000D03*
X-19053000Y40580000D03*
X-21593000Y40580000D03*
X-24133000Y40580000D03*
X-26673000Y40580000D03*
X-29213000Y40580000D03*
D10*
X-31753000Y40580000D03*
%TD*%
D11*
%TO.C,U23*%
X19053000Y-21292000D03*
X21593000Y-21292000D03*
X24133000Y-21292000D03*
X26673000Y-21292000D03*
X29213000Y-21292000D03*
X31753000Y-21292000D03*
X31753000Y-36532000D03*
X29213000Y-36532000D03*
X26673000Y-36532000D03*
X24133000Y-36532000D03*
X21593000Y-36532000D03*
D10*
X19053000Y-36532000D03*
%TD*%
D11*
%TO.C,U33*%
X69860000Y17264000D03*
X72400000Y17264000D03*
X74940000Y17264000D03*
X77480000Y17264000D03*
X80020000Y17264000D03*
X82560000Y17264000D03*
X82560000Y2024000D03*
X80020000Y2024000D03*
X77480000Y2024000D03*
X74940000Y2024000D03*
X72400000Y2024000D03*
D10*
X69860000Y2024000D03*
%TD*%
D11*
%TO.C,U32*%
X69860000Y36542000D03*
X72400000Y36542000D03*
X74940000Y36542000D03*
X77480000Y36542000D03*
X80020000Y36542000D03*
X82560000Y36542000D03*
X82560000Y21302000D03*
X80020000Y21302000D03*
X77480000Y21302000D03*
X74940000Y21302000D03*
X72400000Y21302000D03*
D10*
X69860000Y21302000D03*
%TD*%
D11*
%TO.C,U9*%
X-31753000Y17264000D03*
X-29213000Y17264000D03*
X-26673000Y17264000D03*
X-24133000Y17264000D03*
X-21593000Y17264000D03*
X-19053000Y17264000D03*
X-19053000Y2024000D03*
X-21593000Y2024000D03*
X-24133000Y2024000D03*
X-26673000Y2024000D03*
X-29213000Y2024000D03*
D10*
X-31753000Y2024000D03*
%TD*%
D11*
%TO.C,U34*%
X69860000Y-2014000D03*
X72400000Y-2014000D03*
X74940000Y-2014000D03*
X77480000Y-2014000D03*
X80020000Y-2014000D03*
X82560000Y-2014000D03*
X82560000Y-17254000D03*
X80020000Y-17254000D03*
X77480000Y-17254000D03*
X74940000Y-17254000D03*
X72400000Y-17254000D03*
D10*
X69860000Y-17254000D03*
%TD*%
D11*
%TO.C,U20*%
X19053000Y36542000D03*
X21593000Y36542000D03*
X24133000Y36542000D03*
X26673000Y36542000D03*
X29213000Y36542000D03*
X31753000Y36542000D03*
X31753000Y21302000D03*
X29213000Y21302000D03*
X26673000Y21302000D03*
X24133000Y21302000D03*
X21593000Y21302000D03*
D10*
X19053000Y21302000D03*
%TD*%
D11*
%TO.C,U6*%
X-31753000Y36542000D03*
X-29213000Y36542000D03*
X-26673000Y36542000D03*
X-24133000Y36542000D03*
X-21593000Y36542000D03*
X-19053000Y36542000D03*
X-19053000Y21302000D03*
X-21593000Y21302000D03*
X-24133000Y21302000D03*
X-26673000Y21302000D03*
X-29213000Y21302000D03*
D10*
X-31753000Y21302000D03*
%TD*%
%TO.C,U12*%
X-82560000Y-55810000D03*
D11*
X-80020000Y-55810000D03*
X-77480000Y-55810000D03*
X-74940000Y-55810000D03*
X-72400000Y-55810000D03*
X-69860000Y-55810000D03*
X-69860000Y-40570000D03*
X-72400000Y-40570000D03*
X-74940000Y-40570000D03*
X-77480000Y-40570000D03*
X-80020000Y-40570000D03*
X-82560000Y-40570000D03*
%TD*%
D10*
%TO.C,U31*%
X69860000Y40580000D03*
D11*
X72400000Y40580000D03*
X74940000Y40580000D03*
X77480000Y40580000D03*
X80020000Y40580000D03*
X82560000Y40580000D03*
X82560000Y55820000D03*
X80020000Y55820000D03*
X77480000Y55820000D03*
X74940000Y55820000D03*
X72400000Y55820000D03*
X69860000Y55820000D03*
%TD*%
%TO.C,U35*%
X69860000Y-21292000D03*
X72400000Y-21292000D03*
X74940000Y-21292000D03*
X77480000Y-21292000D03*
X80020000Y-21292000D03*
X82560000Y-21292000D03*
X82560000Y-36532000D03*
X80020000Y-36532000D03*
X77480000Y-36532000D03*
X74940000Y-36532000D03*
X72400000Y-36532000D03*
D10*
X69860000Y-36532000D03*
%TD*%
%TO.C,U7*%
X-82560000Y2024000D03*
D11*
X-80020000Y2024000D03*
X-77480000Y2024000D03*
X-74940000Y2024000D03*
X-72400000Y2024000D03*
X-69860000Y2024000D03*
X-69860000Y17264000D03*
X-72400000Y17264000D03*
X-74940000Y17264000D03*
X-77480000Y17264000D03*
X-80020000Y17264000D03*
X-82560000Y17264000D03*
%TD*%
D12*
%TO.C,J2*%
X9970000Y-15225000D03*
X9970000Y-12685000D03*
X9970000Y-10145000D03*
X9970000Y-7605000D03*
X9970000Y-5065000D03*
D13*
X9970000Y-2525000D03*
%TD*%
D14*
%TO.C,J1*%
X-700000Y-51967500D03*
D15*
X2300000Y-47267500D03*
D16*
X-3700000Y-47267500D03*
%TD*%
D12*
%TO.C,J3*%
X-10350000Y-2525000D03*
X-10350000Y-5065000D03*
X-10350000Y-7605000D03*
X-10350000Y-10145000D03*
X-10350000Y-12685000D03*
D13*
X-10350000Y-15225000D03*
%TD*%
M02*
