%TF.GenerationSoftware,KiCad,Pcbnew,8.0.7*%
%TF.CreationDate,2025-01-01T14:01:46-07:00*%
%TF.ProjectId,newSSSPanel,6e657753-5353-4506-916e-656c2e6b6963,rev?*%
%TF.SameCoordinates,Original*%
%TF.FileFunction,Paste,Bot*%
%TF.FilePolarity,Positive*%
%FSLAX46Y46*%
G04 Gerber Fmt 4.6, Leading zero omitted, Abs format (unit mm)*
G04 Created by KiCad (PCBNEW 8.0.7) date 2025-01-01 14:01:46*
%MOMM*%
%LPD*%
G01*
G04 APERTURE LIST*
G04 Aperture macros list*
%AMRoundRect*
0 Rectangle with rounded corners*
0 $1 Rounding radius*
0 $2 $3 $4 $5 $6 $7 $8 $9 X,Y pos of 4 corners*
0 Add a 4 corners polygon primitive as box body*
4,1,4,$2,$3,$4,$5,$6,$7,$8,$9,$2,$3,0*
0 Add four circle primitives for the rounded corners*
1,1,$1+$1,$2,$3*
1,1,$1+$1,$4,$5*
1,1,$1+$1,$6,$7*
1,1,$1+$1,$8,$9*
0 Add four rect primitives between the rounded corners*
20,1,$1+$1,$2,$3,$4,$5,0*
20,1,$1+$1,$4,$5,$6,$7,0*
20,1,$1+$1,$6,$7,$8,$9,0*
20,1,$1+$1,$8,$9,$2,$3,0*%
G04 Aperture macros list end*
%ADD10C,0.010000*%
%ADD11RoundRect,0.250000X0.475000X-0.337500X0.475000X0.337500X-0.475000X0.337500X-0.475000X-0.337500X0*%
%ADD12RoundRect,0.150000X-0.150000X0.875000X-0.150000X-0.875000X0.150000X-0.875000X0.150000X0.875000X0*%
%ADD13RoundRect,0.250000X0.850000X0.550000X-0.850000X0.550000X-0.850000X-0.550000X0.850000X-0.550000X0*%
%ADD14RoundRect,0.250000X0.450000X-0.350000X0.450000X0.350000X-0.450000X0.350000X-0.450000X-0.350000X0*%
%ADD15R,2.150000X2.250000*%
%ADD16R,0.800000X0.900000*%
G04 APERTURE END LIST*
D10*
%TO.C,U37*%
X11040000Y10325000D02*
X8040000Y10325000D01*
X8030000Y10325000D01*
X8019000Y10326000D01*
X8009000Y10327000D01*
X7998000Y10329000D01*
X7988000Y10332000D01*
X7978000Y10335000D01*
X7968000Y10338000D01*
X7959000Y10342000D01*
X7949000Y10347000D01*
X7940000Y10352000D01*
X7931000Y10357000D01*
X7922000Y10363000D01*
X7914000Y10370000D01*
X7906000Y10376000D01*
X7899000Y10384000D01*
X7891000Y10391000D01*
X7885000Y10399000D01*
X7878000Y10407000D01*
X7872000Y10416000D01*
X7867000Y10425000D01*
X7862000Y10434000D01*
X7857000Y10444000D01*
X7853000Y10453000D01*
X7850000Y10463000D01*
X7847000Y10473000D01*
X7844000Y10483000D01*
X7842000Y10494000D01*
X7841000Y10504000D01*
X7840000Y10515000D01*
X7840000Y10525000D01*
X7840000Y11725000D01*
X7840000Y11735000D01*
X7841000Y11746000D01*
X7842000Y11756000D01*
X7844000Y11767000D01*
X7847000Y11777000D01*
X7850000Y11787000D01*
X7853000Y11797000D01*
X7857000Y11806000D01*
X7862000Y11816000D01*
X7867000Y11825000D01*
X7872000Y11834000D01*
X7878000Y11843000D01*
X7885000Y11851000D01*
X7891000Y11859000D01*
X7899000Y11866000D01*
X7906000Y11874000D01*
X7914000Y11880000D01*
X7922000Y11887000D01*
X7931000Y11893000D01*
X7940000Y11898000D01*
X7949000Y11903000D01*
X7959000Y11908000D01*
X7968000Y11912000D01*
X7978000Y11915000D01*
X7988000Y11918000D01*
X7998000Y11921000D01*
X8009000Y11923000D01*
X8019000Y11924000D01*
X8030000Y11925000D01*
X8040000Y11925000D01*
X11040000Y11925000D01*
X11040000Y10325000D01*
G36*
X11040000Y10325000D02*
G01*
X8040000Y10325000D01*
X8030000Y10325000D01*
X8019000Y10326000D01*
X8009000Y10327000D01*
X7998000Y10329000D01*
X7988000Y10332000D01*
X7978000Y10335000D01*
X7968000Y10338000D01*
X7959000Y10342000D01*
X7949000Y10347000D01*
X7940000Y10352000D01*
X7931000Y10357000D01*
X7922000Y10363000D01*
X7914000Y10370000D01*
X7906000Y10376000D01*
X7899000Y10384000D01*
X7891000Y10391000D01*
X7885000Y10399000D01*
X7878000Y10407000D01*
X7872000Y10416000D01*
X7867000Y10425000D01*
X7862000Y10434000D01*
X7857000Y10444000D01*
X7853000Y10453000D01*
X7850000Y10463000D01*
X7847000Y10473000D01*
X7844000Y10483000D01*
X7842000Y10494000D01*
X7841000Y10504000D01*
X7840000Y10515000D01*
X7840000Y10525000D01*
X7840000Y11725000D01*
X7840000Y11735000D01*
X7841000Y11746000D01*
X7842000Y11756000D01*
X7844000Y11767000D01*
X7847000Y11777000D01*
X7850000Y11787000D01*
X7853000Y11797000D01*
X7857000Y11806000D01*
X7862000Y11816000D01*
X7867000Y11825000D01*
X7872000Y11834000D01*
X7878000Y11843000D01*
X7885000Y11851000D01*
X7891000Y11859000D01*
X7899000Y11866000D01*
X7906000Y11874000D01*
X7914000Y11880000D01*
X7922000Y11887000D01*
X7931000Y11893000D01*
X7940000Y11898000D01*
X7949000Y11903000D01*
X7959000Y11908000D01*
X7968000Y11912000D01*
X7978000Y11915000D01*
X7988000Y11918000D01*
X7998000Y11921000D01*
X8009000Y11923000D01*
X8019000Y11924000D01*
X8030000Y11925000D01*
X8040000Y11925000D01*
X11040000Y11925000D01*
X11040000Y10325000D01*
G37*
X11040000Y23025000D02*
X8040000Y23025000D01*
X8030000Y23025000D01*
X8019000Y23026000D01*
X8009000Y23027000D01*
X7998000Y23029000D01*
X7988000Y23032000D01*
X7978000Y23035000D01*
X7968000Y23038000D01*
X7959000Y23042000D01*
X7949000Y23047000D01*
X7940000Y23052000D01*
X7931000Y23057000D01*
X7922000Y23063000D01*
X7914000Y23070000D01*
X7906000Y23076000D01*
X7899000Y23084000D01*
X7891000Y23091000D01*
X7885000Y23099000D01*
X7878000Y23107000D01*
X7872000Y23116000D01*
X7867000Y23125000D01*
X7862000Y23134000D01*
X7857000Y23144000D01*
X7853000Y23153000D01*
X7850000Y23163000D01*
X7847000Y23173000D01*
X7844000Y23183000D01*
X7842000Y23194000D01*
X7841000Y23204000D01*
X7840000Y23215000D01*
X7840000Y23225000D01*
X7840000Y24425000D01*
X7840000Y24435000D01*
X7841000Y24446000D01*
X7842000Y24456000D01*
X7844000Y24467000D01*
X7847000Y24477000D01*
X7850000Y24487000D01*
X7853000Y24497000D01*
X7857000Y24506000D01*
X7862000Y24516000D01*
X7867000Y24525000D01*
X7872000Y24534000D01*
X7878000Y24543000D01*
X7885000Y24551000D01*
X7891000Y24559000D01*
X7899000Y24566000D01*
X7906000Y24574000D01*
X7914000Y24580000D01*
X7922000Y24587000D01*
X7931000Y24593000D01*
X7940000Y24598000D01*
X7949000Y24603000D01*
X7959000Y24608000D01*
X7968000Y24612000D01*
X7978000Y24615000D01*
X7988000Y24618000D01*
X7998000Y24621000D01*
X8009000Y24623000D01*
X8019000Y24624000D01*
X8030000Y24625000D01*
X8040000Y24625000D01*
X11040000Y24625000D01*
X11040000Y23025000D01*
G36*
X11040000Y23025000D02*
G01*
X8040000Y23025000D01*
X8030000Y23025000D01*
X8019000Y23026000D01*
X8009000Y23027000D01*
X7998000Y23029000D01*
X7988000Y23032000D01*
X7978000Y23035000D01*
X7968000Y23038000D01*
X7959000Y23042000D01*
X7949000Y23047000D01*
X7940000Y23052000D01*
X7931000Y23057000D01*
X7922000Y23063000D01*
X7914000Y23070000D01*
X7906000Y23076000D01*
X7899000Y23084000D01*
X7891000Y23091000D01*
X7885000Y23099000D01*
X7878000Y23107000D01*
X7872000Y23116000D01*
X7867000Y23125000D01*
X7862000Y23134000D01*
X7857000Y23144000D01*
X7853000Y23153000D01*
X7850000Y23163000D01*
X7847000Y23173000D01*
X7844000Y23183000D01*
X7842000Y23194000D01*
X7841000Y23204000D01*
X7840000Y23215000D01*
X7840000Y23225000D01*
X7840000Y24425000D01*
X7840000Y24435000D01*
X7841000Y24446000D01*
X7842000Y24456000D01*
X7844000Y24467000D01*
X7847000Y24477000D01*
X7850000Y24487000D01*
X7853000Y24497000D01*
X7857000Y24506000D01*
X7862000Y24516000D01*
X7867000Y24525000D01*
X7872000Y24534000D01*
X7878000Y24543000D01*
X7885000Y24551000D01*
X7891000Y24559000D01*
X7899000Y24566000D01*
X7906000Y24574000D01*
X7914000Y24580000D01*
X7922000Y24587000D01*
X7931000Y24593000D01*
X7940000Y24598000D01*
X7949000Y24603000D01*
X7959000Y24608000D01*
X7968000Y24612000D01*
X7978000Y24615000D01*
X7988000Y24618000D01*
X7998000Y24621000D01*
X8009000Y24623000D01*
X8019000Y24624000D01*
X8030000Y24625000D01*
X8040000Y24625000D01*
X11040000Y24625000D01*
X11040000Y23025000D01*
G37*
X11040000Y35725000D02*
X8040000Y35725000D01*
X8030000Y35725000D01*
X8019000Y35726000D01*
X8009000Y35727000D01*
X7998000Y35729000D01*
X7988000Y35732000D01*
X7978000Y35735000D01*
X7968000Y35738000D01*
X7959000Y35742000D01*
X7949000Y35747000D01*
X7940000Y35752000D01*
X7931000Y35757000D01*
X7922000Y35763000D01*
X7914000Y35770000D01*
X7906000Y35776000D01*
X7899000Y35784000D01*
X7891000Y35791000D01*
X7885000Y35799000D01*
X7878000Y35807000D01*
X7872000Y35816000D01*
X7867000Y35825000D01*
X7862000Y35834000D01*
X7857000Y35844000D01*
X7853000Y35853000D01*
X7850000Y35863000D01*
X7847000Y35873000D01*
X7844000Y35883000D01*
X7842000Y35894000D01*
X7841000Y35904000D01*
X7840000Y35915000D01*
X7840000Y35925000D01*
X7840000Y37125000D01*
X7840000Y37135000D01*
X7841000Y37146000D01*
X7842000Y37156000D01*
X7844000Y37167000D01*
X7847000Y37177000D01*
X7850000Y37187000D01*
X7853000Y37197000D01*
X7857000Y37206000D01*
X7862000Y37216000D01*
X7867000Y37225000D01*
X7872000Y37234000D01*
X7878000Y37243000D01*
X7885000Y37251000D01*
X7891000Y37259000D01*
X7899000Y37266000D01*
X7906000Y37274000D01*
X7914000Y37280000D01*
X7922000Y37287000D01*
X7931000Y37293000D01*
X7940000Y37298000D01*
X7949000Y37303000D01*
X7959000Y37308000D01*
X7968000Y37312000D01*
X7978000Y37315000D01*
X7988000Y37318000D01*
X7998000Y37321000D01*
X8009000Y37323000D01*
X8019000Y37324000D01*
X8030000Y37325000D01*
X8040000Y37325000D01*
X11040000Y37325000D01*
X11040000Y35725000D01*
G36*
X11040000Y35725000D02*
G01*
X8040000Y35725000D01*
X8030000Y35725000D01*
X8019000Y35726000D01*
X8009000Y35727000D01*
X7998000Y35729000D01*
X7988000Y35732000D01*
X7978000Y35735000D01*
X7968000Y35738000D01*
X7959000Y35742000D01*
X7949000Y35747000D01*
X7940000Y35752000D01*
X7931000Y35757000D01*
X7922000Y35763000D01*
X7914000Y35770000D01*
X7906000Y35776000D01*
X7899000Y35784000D01*
X7891000Y35791000D01*
X7885000Y35799000D01*
X7878000Y35807000D01*
X7872000Y35816000D01*
X7867000Y35825000D01*
X7862000Y35834000D01*
X7857000Y35844000D01*
X7853000Y35853000D01*
X7850000Y35863000D01*
X7847000Y35873000D01*
X7844000Y35883000D01*
X7842000Y35894000D01*
X7841000Y35904000D01*
X7840000Y35915000D01*
X7840000Y35925000D01*
X7840000Y37125000D01*
X7840000Y37135000D01*
X7841000Y37146000D01*
X7842000Y37156000D01*
X7844000Y37167000D01*
X7847000Y37177000D01*
X7850000Y37187000D01*
X7853000Y37197000D01*
X7857000Y37206000D01*
X7862000Y37216000D01*
X7867000Y37225000D01*
X7872000Y37234000D01*
X7878000Y37243000D01*
X7885000Y37251000D01*
X7891000Y37259000D01*
X7899000Y37266000D01*
X7906000Y37274000D01*
X7914000Y37280000D01*
X7922000Y37287000D01*
X7931000Y37293000D01*
X7940000Y37298000D01*
X7949000Y37303000D01*
X7959000Y37308000D01*
X7968000Y37312000D01*
X7978000Y37315000D01*
X7988000Y37318000D01*
X7998000Y37321000D01*
X8009000Y37323000D01*
X8019000Y37324000D01*
X8030000Y37325000D01*
X8040000Y37325000D01*
X11040000Y37325000D01*
X11040000Y35725000D01*
G37*
X11040000Y48425000D02*
X8040000Y48425000D01*
X8030000Y48425000D01*
X8019000Y48426000D01*
X8009000Y48427000D01*
X7998000Y48429000D01*
X7988000Y48432000D01*
X7978000Y48435000D01*
X7968000Y48438000D01*
X7959000Y48442000D01*
X7949000Y48447000D01*
X7940000Y48452000D01*
X7931000Y48457000D01*
X7922000Y48463000D01*
X7914000Y48470000D01*
X7906000Y48476000D01*
X7899000Y48484000D01*
X7891000Y48491000D01*
X7885000Y48499000D01*
X7878000Y48507000D01*
X7872000Y48516000D01*
X7867000Y48525000D01*
X7862000Y48534000D01*
X7857000Y48544000D01*
X7853000Y48553000D01*
X7850000Y48563000D01*
X7847000Y48573000D01*
X7844000Y48583000D01*
X7842000Y48594000D01*
X7841000Y48604000D01*
X7840000Y48615000D01*
X7840000Y48625000D01*
X7840000Y49825000D01*
X7840000Y49835000D01*
X7841000Y49846000D01*
X7842000Y49856000D01*
X7844000Y49867000D01*
X7847000Y49877000D01*
X7850000Y49887000D01*
X7853000Y49897000D01*
X7857000Y49906000D01*
X7862000Y49916000D01*
X7867000Y49925000D01*
X7872000Y49934000D01*
X7878000Y49943000D01*
X7885000Y49951000D01*
X7891000Y49959000D01*
X7899000Y49966000D01*
X7906000Y49974000D01*
X7914000Y49980000D01*
X7922000Y49987000D01*
X7931000Y49993000D01*
X7940000Y49998000D01*
X7949000Y50003000D01*
X7959000Y50008000D01*
X7968000Y50012000D01*
X7978000Y50015000D01*
X7988000Y50018000D01*
X7998000Y50021000D01*
X8009000Y50023000D01*
X8019000Y50024000D01*
X8030000Y50025000D01*
X8040000Y50025000D01*
X11040000Y50025000D01*
X11040000Y48425000D01*
G36*
X11040000Y48425000D02*
G01*
X8040000Y48425000D01*
X8030000Y48425000D01*
X8019000Y48426000D01*
X8009000Y48427000D01*
X7998000Y48429000D01*
X7988000Y48432000D01*
X7978000Y48435000D01*
X7968000Y48438000D01*
X7959000Y48442000D01*
X7949000Y48447000D01*
X7940000Y48452000D01*
X7931000Y48457000D01*
X7922000Y48463000D01*
X7914000Y48470000D01*
X7906000Y48476000D01*
X7899000Y48484000D01*
X7891000Y48491000D01*
X7885000Y48499000D01*
X7878000Y48507000D01*
X7872000Y48516000D01*
X7867000Y48525000D01*
X7862000Y48534000D01*
X7857000Y48544000D01*
X7853000Y48553000D01*
X7850000Y48563000D01*
X7847000Y48573000D01*
X7844000Y48583000D01*
X7842000Y48594000D01*
X7841000Y48604000D01*
X7840000Y48615000D01*
X7840000Y48625000D01*
X7840000Y49825000D01*
X7840000Y49835000D01*
X7841000Y49846000D01*
X7842000Y49856000D01*
X7844000Y49867000D01*
X7847000Y49877000D01*
X7850000Y49887000D01*
X7853000Y49897000D01*
X7857000Y49906000D01*
X7862000Y49916000D01*
X7867000Y49925000D01*
X7872000Y49934000D01*
X7878000Y49943000D01*
X7885000Y49951000D01*
X7891000Y49959000D01*
X7899000Y49966000D01*
X7906000Y49974000D01*
X7914000Y49980000D01*
X7922000Y49987000D01*
X7931000Y49993000D01*
X7940000Y49998000D01*
X7949000Y50003000D01*
X7959000Y50008000D01*
X7968000Y50012000D01*
X7978000Y50015000D01*
X7988000Y50018000D01*
X7998000Y50021000D01*
X8009000Y50023000D01*
X8019000Y50024000D01*
X8030000Y50025000D01*
X8040000Y50025000D01*
X11040000Y50025000D01*
X11040000Y48425000D01*
G37*
X-8519000Y11924000D02*
X-8509000Y11923000D01*
X-8498000Y11921000D01*
X-8488000Y11918000D01*
X-8478000Y11915000D01*
X-8468000Y11912000D01*
X-8459000Y11908000D01*
X-8449000Y11903000D01*
X-8440000Y11898000D01*
X-8431000Y11893000D01*
X-8422000Y11887000D01*
X-8414000Y11880000D01*
X-8406000Y11874000D01*
X-8399000Y11866000D01*
X-8391000Y11859000D01*
X-8385000Y11851000D01*
X-8378000Y11843000D01*
X-8372000Y11834000D01*
X-8367000Y11825000D01*
X-8362000Y11816000D01*
X-8357000Y11806000D01*
X-8353000Y11797000D01*
X-8350000Y11787000D01*
X-8347000Y11777000D01*
X-8344000Y11767000D01*
X-8342000Y11756000D01*
X-8341000Y11746000D01*
X-8340000Y11735000D01*
X-8340000Y11725000D01*
X-8340000Y10525000D01*
X-8340000Y10515000D01*
X-8341000Y10504000D01*
X-8342000Y10494000D01*
X-8344000Y10483000D01*
X-8347000Y10473000D01*
X-8350000Y10463000D01*
X-8353000Y10453000D01*
X-8357000Y10444000D01*
X-8362000Y10434000D01*
X-8367000Y10425000D01*
X-8372000Y10416000D01*
X-8378000Y10407000D01*
X-8385000Y10399000D01*
X-8391000Y10391000D01*
X-8399000Y10384000D01*
X-8406000Y10376000D01*
X-8414000Y10370000D01*
X-8422000Y10363000D01*
X-8431000Y10357000D01*
X-8440000Y10352000D01*
X-8449000Y10347000D01*
X-8459000Y10342000D01*
X-8468000Y10338000D01*
X-8478000Y10335000D01*
X-8488000Y10332000D01*
X-8498000Y10329000D01*
X-8509000Y10327000D01*
X-8519000Y10326000D01*
X-8530000Y10325000D01*
X-8540000Y10325000D01*
X-11540000Y10325000D01*
X-11540000Y11925000D01*
X-8540000Y11925000D01*
X-8530000Y11925000D01*
X-8519000Y11924000D01*
G36*
X-8519000Y11924000D02*
G01*
X-8509000Y11923000D01*
X-8498000Y11921000D01*
X-8488000Y11918000D01*
X-8478000Y11915000D01*
X-8468000Y11912000D01*
X-8459000Y11908000D01*
X-8449000Y11903000D01*
X-8440000Y11898000D01*
X-8431000Y11893000D01*
X-8422000Y11887000D01*
X-8414000Y11880000D01*
X-8406000Y11874000D01*
X-8399000Y11866000D01*
X-8391000Y11859000D01*
X-8385000Y11851000D01*
X-8378000Y11843000D01*
X-8372000Y11834000D01*
X-8367000Y11825000D01*
X-8362000Y11816000D01*
X-8357000Y11806000D01*
X-8353000Y11797000D01*
X-8350000Y11787000D01*
X-8347000Y11777000D01*
X-8344000Y11767000D01*
X-8342000Y11756000D01*
X-8341000Y11746000D01*
X-8340000Y11735000D01*
X-8340000Y11725000D01*
X-8340000Y10525000D01*
X-8340000Y10515000D01*
X-8341000Y10504000D01*
X-8342000Y10494000D01*
X-8344000Y10483000D01*
X-8347000Y10473000D01*
X-8350000Y10463000D01*
X-8353000Y10453000D01*
X-8357000Y10444000D01*
X-8362000Y10434000D01*
X-8367000Y10425000D01*
X-8372000Y10416000D01*
X-8378000Y10407000D01*
X-8385000Y10399000D01*
X-8391000Y10391000D01*
X-8399000Y10384000D01*
X-8406000Y10376000D01*
X-8414000Y10370000D01*
X-8422000Y10363000D01*
X-8431000Y10357000D01*
X-8440000Y10352000D01*
X-8449000Y10347000D01*
X-8459000Y10342000D01*
X-8468000Y10338000D01*
X-8478000Y10335000D01*
X-8488000Y10332000D01*
X-8498000Y10329000D01*
X-8509000Y10327000D01*
X-8519000Y10326000D01*
X-8530000Y10325000D01*
X-8540000Y10325000D01*
X-11540000Y10325000D01*
X-11540000Y11925000D01*
X-8540000Y11925000D01*
X-8530000Y11925000D01*
X-8519000Y11924000D01*
G37*
X-8519000Y24624000D02*
X-8509000Y24623000D01*
X-8498000Y24621000D01*
X-8488000Y24618000D01*
X-8478000Y24615000D01*
X-8468000Y24612000D01*
X-8459000Y24608000D01*
X-8449000Y24603000D01*
X-8440000Y24598000D01*
X-8431000Y24593000D01*
X-8422000Y24587000D01*
X-8414000Y24580000D01*
X-8406000Y24574000D01*
X-8399000Y24566000D01*
X-8391000Y24559000D01*
X-8385000Y24551000D01*
X-8378000Y24543000D01*
X-8372000Y24534000D01*
X-8367000Y24525000D01*
X-8362000Y24516000D01*
X-8357000Y24506000D01*
X-8353000Y24497000D01*
X-8350000Y24487000D01*
X-8347000Y24477000D01*
X-8344000Y24467000D01*
X-8342000Y24456000D01*
X-8341000Y24446000D01*
X-8340000Y24435000D01*
X-8340000Y24425000D01*
X-8340000Y23225000D01*
X-8340000Y23215000D01*
X-8341000Y23204000D01*
X-8342000Y23194000D01*
X-8344000Y23183000D01*
X-8347000Y23173000D01*
X-8350000Y23163000D01*
X-8353000Y23153000D01*
X-8357000Y23144000D01*
X-8362000Y23134000D01*
X-8367000Y23125000D01*
X-8372000Y23116000D01*
X-8378000Y23107000D01*
X-8385000Y23099000D01*
X-8391000Y23091000D01*
X-8399000Y23084000D01*
X-8406000Y23076000D01*
X-8414000Y23070000D01*
X-8422000Y23063000D01*
X-8431000Y23057000D01*
X-8440000Y23052000D01*
X-8449000Y23047000D01*
X-8459000Y23042000D01*
X-8468000Y23038000D01*
X-8478000Y23035000D01*
X-8488000Y23032000D01*
X-8498000Y23029000D01*
X-8509000Y23027000D01*
X-8519000Y23026000D01*
X-8530000Y23025000D01*
X-8540000Y23025000D01*
X-11540000Y23025000D01*
X-11540000Y24625000D01*
X-8540000Y24625000D01*
X-8530000Y24625000D01*
X-8519000Y24624000D01*
G36*
X-8519000Y24624000D02*
G01*
X-8509000Y24623000D01*
X-8498000Y24621000D01*
X-8488000Y24618000D01*
X-8478000Y24615000D01*
X-8468000Y24612000D01*
X-8459000Y24608000D01*
X-8449000Y24603000D01*
X-8440000Y24598000D01*
X-8431000Y24593000D01*
X-8422000Y24587000D01*
X-8414000Y24580000D01*
X-8406000Y24574000D01*
X-8399000Y24566000D01*
X-8391000Y24559000D01*
X-8385000Y24551000D01*
X-8378000Y24543000D01*
X-8372000Y24534000D01*
X-8367000Y24525000D01*
X-8362000Y24516000D01*
X-8357000Y24506000D01*
X-8353000Y24497000D01*
X-8350000Y24487000D01*
X-8347000Y24477000D01*
X-8344000Y24467000D01*
X-8342000Y24456000D01*
X-8341000Y24446000D01*
X-8340000Y24435000D01*
X-8340000Y24425000D01*
X-8340000Y23225000D01*
X-8340000Y23215000D01*
X-8341000Y23204000D01*
X-8342000Y23194000D01*
X-8344000Y23183000D01*
X-8347000Y23173000D01*
X-8350000Y23163000D01*
X-8353000Y23153000D01*
X-8357000Y23144000D01*
X-8362000Y23134000D01*
X-8367000Y23125000D01*
X-8372000Y23116000D01*
X-8378000Y23107000D01*
X-8385000Y23099000D01*
X-8391000Y23091000D01*
X-8399000Y23084000D01*
X-8406000Y23076000D01*
X-8414000Y23070000D01*
X-8422000Y23063000D01*
X-8431000Y23057000D01*
X-8440000Y23052000D01*
X-8449000Y23047000D01*
X-8459000Y23042000D01*
X-8468000Y23038000D01*
X-8478000Y23035000D01*
X-8488000Y23032000D01*
X-8498000Y23029000D01*
X-8509000Y23027000D01*
X-8519000Y23026000D01*
X-8530000Y23025000D01*
X-8540000Y23025000D01*
X-11540000Y23025000D01*
X-11540000Y24625000D01*
X-8540000Y24625000D01*
X-8530000Y24625000D01*
X-8519000Y24624000D01*
G37*
X-8519000Y37324000D02*
X-8509000Y37323000D01*
X-8498000Y37321000D01*
X-8488000Y37318000D01*
X-8478000Y37315000D01*
X-8468000Y37312000D01*
X-8459000Y37308000D01*
X-8449000Y37303000D01*
X-8440000Y37298000D01*
X-8431000Y37293000D01*
X-8422000Y37287000D01*
X-8414000Y37280000D01*
X-8406000Y37274000D01*
X-8399000Y37266000D01*
X-8391000Y37259000D01*
X-8385000Y37251000D01*
X-8378000Y37243000D01*
X-8372000Y37234000D01*
X-8367000Y37225000D01*
X-8362000Y37216000D01*
X-8357000Y37206000D01*
X-8353000Y37197000D01*
X-8350000Y37187000D01*
X-8347000Y37177000D01*
X-8344000Y37167000D01*
X-8342000Y37156000D01*
X-8341000Y37146000D01*
X-8340000Y37135000D01*
X-8340000Y37125000D01*
X-8340000Y35925000D01*
X-8340000Y35915000D01*
X-8341000Y35904000D01*
X-8342000Y35894000D01*
X-8344000Y35883000D01*
X-8347000Y35873000D01*
X-8350000Y35863000D01*
X-8353000Y35853000D01*
X-8357000Y35844000D01*
X-8362000Y35834000D01*
X-8367000Y35825000D01*
X-8372000Y35816000D01*
X-8378000Y35807000D01*
X-8385000Y35799000D01*
X-8391000Y35791000D01*
X-8399000Y35784000D01*
X-8406000Y35776000D01*
X-8414000Y35770000D01*
X-8422000Y35763000D01*
X-8431000Y35757000D01*
X-8440000Y35752000D01*
X-8449000Y35747000D01*
X-8459000Y35742000D01*
X-8468000Y35738000D01*
X-8478000Y35735000D01*
X-8488000Y35732000D01*
X-8498000Y35729000D01*
X-8509000Y35727000D01*
X-8519000Y35726000D01*
X-8530000Y35725000D01*
X-8540000Y35725000D01*
X-11540000Y35725000D01*
X-11540000Y37325000D01*
X-8540000Y37325000D01*
X-8530000Y37325000D01*
X-8519000Y37324000D01*
G36*
X-8519000Y37324000D02*
G01*
X-8509000Y37323000D01*
X-8498000Y37321000D01*
X-8488000Y37318000D01*
X-8478000Y37315000D01*
X-8468000Y37312000D01*
X-8459000Y37308000D01*
X-8449000Y37303000D01*
X-8440000Y37298000D01*
X-8431000Y37293000D01*
X-8422000Y37287000D01*
X-8414000Y37280000D01*
X-8406000Y37274000D01*
X-8399000Y37266000D01*
X-8391000Y37259000D01*
X-8385000Y37251000D01*
X-8378000Y37243000D01*
X-8372000Y37234000D01*
X-8367000Y37225000D01*
X-8362000Y37216000D01*
X-8357000Y37206000D01*
X-8353000Y37197000D01*
X-8350000Y37187000D01*
X-8347000Y37177000D01*
X-8344000Y37167000D01*
X-8342000Y37156000D01*
X-8341000Y37146000D01*
X-8340000Y37135000D01*
X-8340000Y37125000D01*
X-8340000Y35925000D01*
X-8340000Y35915000D01*
X-8341000Y35904000D01*
X-8342000Y35894000D01*
X-8344000Y35883000D01*
X-8347000Y35873000D01*
X-8350000Y35863000D01*
X-8353000Y35853000D01*
X-8357000Y35844000D01*
X-8362000Y35834000D01*
X-8367000Y35825000D01*
X-8372000Y35816000D01*
X-8378000Y35807000D01*
X-8385000Y35799000D01*
X-8391000Y35791000D01*
X-8399000Y35784000D01*
X-8406000Y35776000D01*
X-8414000Y35770000D01*
X-8422000Y35763000D01*
X-8431000Y35757000D01*
X-8440000Y35752000D01*
X-8449000Y35747000D01*
X-8459000Y35742000D01*
X-8468000Y35738000D01*
X-8478000Y35735000D01*
X-8488000Y35732000D01*
X-8498000Y35729000D01*
X-8509000Y35727000D01*
X-8519000Y35726000D01*
X-8530000Y35725000D01*
X-8540000Y35725000D01*
X-11540000Y35725000D01*
X-11540000Y37325000D01*
X-8540000Y37325000D01*
X-8530000Y37325000D01*
X-8519000Y37324000D01*
G37*
X-8519000Y50024000D02*
X-8509000Y50023000D01*
X-8498000Y50021000D01*
X-8488000Y50018000D01*
X-8478000Y50015000D01*
X-8468000Y50012000D01*
X-8459000Y50008000D01*
X-8449000Y50003000D01*
X-8440000Y49998000D01*
X-8431000Y49993000D01*
X-8422000Y49987000D01*
X-8414000Y49980000D01*
X-8406000Y49974000D01*
X-8399000Y49966000D01*
X-8391000Y49959000D01*
X-8385000Y49951000D01*
X-8378000Y49943000D01*
X-8372000Y49934000D01*
X-8367000Y49925000D01*
X-8362000Y49916000D01*
X-8357000Y49906000D01*
X-8353000Y49897000D01*
X-8350000Y49887000D01*
X-8347000Y49877000D01*
X-8344000Y49867000D01*
X-8342000Y49856000D01*
X-8341000Y49846000D01*
X-8340000Y49835000D01*
X-8340000Y49825000D01*
X-8340000Y48625000D01*
X-8340000Y48615000D01*
X-8341000Y48604000D01*
X-8342000Y48594000D01*
X-8344000Y48583000D01*
X-8347000Y48573000D01*
X-8350000Y48563000D01*
X-8353000Y48553000D01*
X-8357000Y48544000D01*
X-8362000Y48534000D01*
X-8367000Y48525000D01*
X-8372000Y48516000D01*
X-8378000Y48507000D01*
X-8385000Y48499000D01*
X-8391000Y48491000D01*
X-8399000Y48484000D01*
X-8406000Y48476000D01*
X-8414000Y48470000D01*
X-8422000Y48463000D01*
X-8431000Y48457000D01*
X-8440000Y48452000D01*
X-8449000Y48447000D01*
X-8459000Y48442000D01*
X-8468000Y48438000D01*
X-8478000Y48435000D01*
X-8488000Y48432000D01*
X-8498000Y48429000D01*
X-8509000Y48427000D01*
X-8519000Y48426000D01*
X-8530000Y48425000D01*
X-8540000Y48425000D01*
X-11540000Y48425000D01*
X-11540000Y50025000D01*
X-8540000Y50025000D01*
X-8530000Y50025000D01*
X-8519000Y50024000D01*
G36*
X-8519000Y50024000D02*
G01*
X-8509000Y50023000D01*
X-8498000Y50021000D01*
X-8488000Y50018000D01*
X-8478000Y50015000D01*
X-8468000Y50012000D01*
X-8459000Y50008000D01*
X-8449000Y50003000D01*
X-8440000Y49998000D01*
X-8431000Y49993000D01*
X-8422000Y49987000D01*
X-8414000Y49980000D01*
X-8406000Y49974000D01*
X-8399000Y49966000D01*
X-8391000Y49959000D01*
X-8385000Y49951000D01*
X-8378000Y49943000D01*
X-8372000Y49934000D01*
X-8367000Y49925000D01*
X-8362000Y49916000D01*
X-8357000Y49906000D01*
X-8353000Y49897000D01*
X-8350000Y49887000D01*
X-8347000Y49877000D01*
X-8344000Y49867000D01*
X-8342000Y49856000D01*
X-8341000Y49846000D01*
X-8340000Y49835000D01*
X-8340000Y49825000D01*
X-8340000Y48625000D01*
X-8340000Y48615000D01*
X-8341000Y48604000D01*
X-8342000Y48594000D01*
X-8344000Y48583000D01*
X-8347000Y48573000D01*
X-8350000Y48563000D01*
X-8353000Y48553000D01*
X-8357000Y48544000D01*
X-8362000Y48534000D01*
X-8367000Y48525000D01*
X-8372000Y48516000D01*
X-8378000Y48507000D01*
X-8385000Y48499000D01*
X-8391000Y48491000D01*
X-8399000Y48484000D01*
X-8406000Y48476000D01*
X-8414000Y48470000D01*
X-8422000Y48463000D01*
X-8431000Y48457000D01*
X-8440000Y48452000D01*
X-8449000Y48447000D01*
X-8459000Y48442000D01*
X-8468000Y48438000D01*
X-8478000Y48435000D01*
X-8488000Y48432000D01*
X-8498000Y48429000D01*
X-8509000Y48427000D01*
X-8519000Y48426000D01*
X-8530000Y48425000D01*
X-8540000Y48425000D01*
X-11540000Y48425000D01*
X-11540000Y50025000D01*
X-8540000Y50025000D01*
X-8530000Y50025000D01*
X-8519000Y50024000D01*
G37*
X11040000Y5245000D02*
X8640000Y5245000D01*
X8598000Y5246000D01*
X8556000Y5249000D01*
X8515000Y5255000D01*
X8474000Y5262000D01*
X8433000Y5272000D01*
X8393000Y5284000D01*
X8353000Y5298000D01*
X8315000Y5314000D01*
X8277000Y5332000D01*
X8240000Y5352000D01*
X8204000Y5374000D01*
X8170000Y5398000D01*
X8137000Y5423000D01*
X8105000Y5450000D01*
X8074000Y5479000D01*
X8045000Y5510000D01*
X8018000Y5542000D01*
X7993000Y5575000D01*
X7969000Y5609000D01*
X7947000Y5645000D01*
X7927000Y5682000D01*
X7909000Y5720000D01*
X7893000Y5758000D01*
X7879000Y5798000D01*
X7867000Y5838000D01*
X7857000Y5879000D01*
X7850000Y5920000D01*
X7844000Y5961000D01*
X7841000Y6003000D01*
X7840000Y6045000D01*
X7841000Y6087000D01*
X7844000Y6129000D01*
X7850000Y6170000D01*
X7857000Y6211000D01*
X7867000Y6252000D01*
X7879000Y6292000D01*
X7893000Y6332000D01*
X7909000Y6370000D01*
X7927000Y6408000D01*
X7947000Y6445000D01*
X7969000Y6481000D01*
X7993000Y6515000D01*
X8018000Y6548000D01*
X8045000Y6580000D01*
X8074000Y6611000D01*
X8105000Y6640000D01*
X8137000Y6667000D01*
X8170000Y6692000D01*
X8204000Y6716000D01*
X8240000Y6738000D01*
X8277000Y6758000D01*
X8315000Y6776000D01*
X8353000Y6792000D01*
X8393000Y6806000D01*
X8433000Y6818000D01*
X8474000Y6828000D01*
X8515000Y6835000D01*
X8556000Y6841000D01*
X8598000Y6844000D01*
X8640000Y6845000D01*
X11040000Y6845000D01*
X11040000Y5245000D01*
G36*
X11040000Y5245000D02*
G01*
X8640000Y5245000D01*
X8598000Y5246000D01*
X8556000Y5249000D01*
X8515000Y5255000D01*
X8474000Y5262000D01*
X8433000Y5272000D01*
X8393000Y5284000D01*
X8353000Y5298000D01*
X8315000Y5314000D01*
X8277000Y5332000D01*
X8240000Y5352000D01*
X8204000Y5374000D01*
X8170000Y5398000D01*
X8137000Y5423000D01*
X8105000Y5450000D01*
X8074000Y5479000D01*
X8045000Y5510000D01*
X8018000Y5542000D01*
X7993000Y5575000D01*
X7969000Y5609000D01*
X7947000Y5645000D01*
X7927000Y5682000D01*
X7909000Y5720000D01*
X7893000Y5758000D01*
X7879000Y5798000D01*
X7867000Y5838000D01*
X7857000Y5879000D01*
X7850000Y5920000D01*
X7844000Y5961000D01*
X7841000Y6003000D01*
X7840000Y6045000D01*
X7841000Y6087000D01*
X7844000Y6129000D01*
X7850000Y6170000D01*
X7857000Y6211000D01*
X7867000Y6252000D01*
X7879000Y6292000D01*
X7893000Y6332000D01*
X7909000Y6370000D01*
X7927000Y6408000D01*
X7947000Y6445000D01*
X7969000Y6481000D01*
X7993000Y6515000D01*
X8018000Y6548000D01*
X8045000Y6580000D01*
X8074000Y6611000D01*
X8105000Y6640000D01*
X8137000Y6667000D01*
X8170000Y6692000D01*
X8204000Y6716000D01*
X8240000Y6738000D01*
X8277000Y6758000D01*
X8315000Y6776000D01*
X8353000Y6792000D01*
X8393000Y6806000D01*
X8433000Y6818000D01*
X8474000Y6828000D01*
X8515000Y6835000D01*
X8556000Y6841000D01*
X8598000Y6844000D01*
X8640000Y6845000D01*
X11040000Y6845000D01*
X11040000Y5245000D01*
G37*
X11040000Y7785000D02*
X8640000Y7785000D01*
X8598000Y7786000D01*
X8556000Y7789000D01*
X8515000Y7795000D01*
X8474000Y7802000D01*
X8433000Y7812000D01*
X8393000Y7824000D01*
X8353000Y7838000D01*
X8315000Y7854000D01*
X8277000Y7872000D01*
X8240000Y7892000D01*
X8204000Y7914000D01*
X8170000Y7938000D01*
X8137000Y7963000D01*
X8105000Y7990000D01*
X8074000Y8019000D01*
X8045000Y8050000D01*
X8018000Y8082000D01*
X7993000Y8115000D01*
X7969000Y8149000D01*
X7947000Y8185000D01*
X7927000Y8222000D01*
X7909000Y8260000D01*
X7893000Y8298000D01*
X7879000Y8338000D01*
X7867000Y8378000D01*
X7857000Y8419000D01*
X7850000Y8460000D01*
X7844000Y8501000D01*
X7841000Y8543000D01*
X7840000Y8585000D01*
X7841000Y8627000D01*
X7844000Y8669000D01*
X7850000Y8710000D01*
X7857000Y8751000D01*
X7867000Y8792000D01*
X7879000Y8832000D01*
X7893000Y8872000D01*
X7909000Y8910000D01*
X7927000Y8948000D01*
X7947000Y8985000D01*
X7969000Y9021000D01*
X7993000Y9055000D01*
X8018000Y9088000D01*
X8045000Y9120000D01*
X8074000Y9151000D01*
X8105000Y9180000D01*
X8137000Y9207000D01*
X8170000Y9232000D01*
X8204000Y9256000D01*
X8240000Y9278000D01*
X8277000Y9298000D01*
X8315000Y9316000D01*
X8353000Y9332000D01*
X8393000Y9346000D01*
X8433000Y9358000D01*
X8474000Y9368000D01*
X8515000Y9375000D01*
X8556000Y9381000D01*
X8598000Y9384000D01*
X8640000Y9385000D01*
X11040000Y9385000D01*
X11040000Y7785000D01*
G36*
X11040000Y7785000D02*
G01*
X8640000Y7785000D01*
X8598000Y7786000D01*
X8556000Y7789000D01*
X8515000Y7795000D01*
X8474000Y7802000D01*
X8433000Y7812000D01*
X8393000Y7824000D01*
X8353000Y7838000D01*
X8315000Y7854000D01*
X8277000Y7872000D01*
X8240000Y7892000D01*
X8204000Y7914000D01*
X8170000Y7938000D01*
X8137000Y7963000D01*
X8105000Y7990000D01*
X8074000Y8019000D01*
X8045000Y8050000D01*
X8018000Y8082000D01*
X7993000Y8115000D01*
X7969000Y8149000D01*
X7947000Y8185000D01*
X7927000Y8222000D01*
X7909000Y8260000D01*
X7893000Y8298000D01*
X7879000Y8338000D01*
X7867000Y8378000D01*
X7857000Y8419000D01*
X7850000Y8460000D01*
X7844000Y8501000D01*
X7841000Y8543000D01*
X7840000Y8585000D01*
X7841000Y8627000D01*
X7844000Y8669000D01*
X7850000Y8710000D01*
X7857000Y8751000D01*
X7867000Y8792000D01*
X7879000Y8832000D01*
X7893000Y8872000D01*
X7909000Y8910000D01*
X7927000Y8948000D01*
X7947000Y8985000D01*
X7969000Y9021000D01*
X7993000Y9055000D01*
X8018000Y9088000D01*
X8045000Y9120000D01*
X8074000Y9151000D01*
X8105000Y9180000D01*
X8137000Y9207000D01*
X8170000Y9232000D01*
X8204000Y9256000D01*
X8240000Y9278000D01*
X8277000Y9298000D01*
X8315000Y9316000D01*
X8353000Y9332000D01*
X8393000Y9346000D01*
X8433000Y9358000D01*
X8474000Y9368000D01*
X8515000Y9375000D01*
X8556000Y9381000D01*
X8598000Y9384000D01*
X8640000Y9385000D01*
X11040000Y9385000D01*
X11040000Y7785000D01*
G37*
X11040000Y12865000D02*
X8640000Y12865000D01*
X8598000Y12866000D01*
X8556000Y12869000D01*
X8515000Y12875000D01*
X8474000Y12882000D01*
X8433000Y12892000D01*
X8393000Y12904000D01*
X8353000Y12918000D01*
X8315000Y12934000D01*
X8277000Y12952000D01*
X8240000Y12972000D01*
X8204000Y12994000D01*
X8170000Y13018000D01*
X8137000Y13043000D01*
X8105000Y13070000D01*
X8074000Y13099000D01*
X8045000Y13130000D01*
X8018000Y13162000D01*
X7993000Y13195000D01*
X7969000Y13229000D01*
X7947000Y13265000D01*
X7927000Y13302000D01*
X7909000Y13340000D01*
X7893000Y13378000D01*
X7879000Y13418000D01*
X7867000Y13458000D01*
X7857000Y13499000D01*
X7850000Y13540000D01*
X7844000Y13581000D01*
X7841000Y13623000D01*
X7840000Y13665000D01*
X7841000Y13707000D01*
X7844000Y13749000D01*
X7850000Y13790000D01*
X7857000Y13831000D01*
X7867000Y13872000D01*
X7879000Y13912000D01*
X7893000Y13952000D01*
X7909000Y13990000D01*
X7927000Y14028000D01*
X7947000Y14065000D01*
X7969000Y14101000D01*
X7993000Y14135000D01*
X8018000Y14168000D01*
X8045000Y14200000D01*
X8074000Y14231000D01*
X8105000Y14260000D01*
X8137000Y14287000D01*
X8170000Y14312000D01*
X8204000Y14336000D01*
X8240000Y14358000D01*
X8277000Y14378000D01*
X8315000Y14396000D01*
X8353000Y14412000D01*
X8393000Y14426000D01*
X8433000Y14438000D01*
X8474000Y14448000D01*
X8515000Y14455000D01*
X8556000Y14461000D01*
X8598000Y14464000D01*
X8640000Y14465000D01*
X11040000Y14465000D01*
X11040000Y12865000D01*
G36*
X11040000Y12865000D02*
G01*
X8640000Y12865000D01*
X8598000Y12866000D01*
X8556000Y12869000D01*
X8515000Y12875000D01*
X8474000Y12882000D01*
X8433000Y12892000D01*
X8393000Y12904000D01*
X8353000Y12918000D01*
X8315000Y12934000D01*
X8277000Y12952000D01*
X8240000Y12972000D01*
X8204000Y12994000D01*
X8170000Y13018000D01*
X8137000Y13043000D01*
X8105000Y13070000D01*
X8074000Y13099000D01*
X8045000Y13130000D01*
X8018000Y13162000D01*
X7993000Y13195000D01*
X7969000Y13229000D01*
X7947000Y13265000D01*
X7927000Y13302000D01*
X7909000Y13340000D01*
X7893000Y13378000D01*
X7879000Y13418000D01*
X7867000Y13458000D01*
X7857000Y13499000D01*
X7850000Y13540000D01*
X7844000Y13581000D01*
X7841000Y13623000D01*
X7840000Y13665000D01*
X7841000Y13707000D01*
X7844000Y13749000D01*
X7850000Y13790000D01*
X7857000Y13831000D01*
X7867000Y13872000D01*
X7879000Y13912000D01*
X7893000Y13952000D01*
X7909000Y13990000D01*
X7927000Y14028000D01*
X7947000Y14065000D01*
X7969000Y14101000D01*
X7993000Y14135000D01*
X8018000Y14168000D01*
X8045000Y14200000D01*
X8074000Y14231000D01*
X8105000Y14260000D01*
X8137000Y14287000D01*
X8170000Y14312000D01*
X8204000Y14336000D01*
X8240000Y14358000D01*
X8277000Y14378000D01*
X8315000Y14396000D01*
X8353000Y14412000D01*
X8393000Y14426000D01*
X8433000Y14438000D01*
X8474000Y14448000D01*
X8515000Y14455000D01*
X8556000Y14461000D01*
X8598000Y14464000D01*
X8640000Y14465000D01*
X11040000Y14465000D01*
X11040000Y12865000D01*
G37*
X11040000Y15405000D02*
X8640000Y15405000D01*
X8598000Y15406000D01*
X8556000Y15409000D01*
X8515000Y15415000D01*
X8474000Y15422000D01*
X8433000Y15432000D01*
X8393000Y15444000D01*
X8353000Y15458000D01*
X8315000Y15474000D01*
X8277000Y15492000D01*
X8240000Y15512000D01*
X8204000Y15534000D01*
X8170000Y15558000D01*
X8137000Y15583000D01*
X8105000Y15610000D01*
X8074000Y15639000D01*
X8045000Y15670000D01*
X8018000Y15702000D01*
X7993000Y15735000D01*
X7969000Y15769000D01*
X7947000Y15805000D01*
X7927000Y15842000D01*
X7909000Y15880000D01*
X7893000Y15918000D01*
X7879000Y15958000D01*
X7867000Y15998000D01*
X7857000Y16039000D01*
X7850000Y16080000D01*
X7844000Y16121000D01*
X7841000Y16163000D01*
X7840000Y16205000D01*
X7841000Y16247000D01*
X7844000Y16289000D01*
X7850000Y16330000D01*
X7857000Y16371000D01*
X7867000Y16412000D01*
X7879000Y16452000D01*
X7893000Y16492000D01*
X7909000Y16530000D01*
X7927000Y16568000D01*
X7947000Y16605000D01*
X7969000Y16641000D01*
X7993000Y16675000D01*
X8018000Y16708000D01*
X8045000Y16740000D01*
X8074000Y16771000D01*
X8105000Y16800000D01*
X8137000Y16827000D01*
X8170000Y16852000D01*
X8204000Y16876000D01*
X8240000Y16898000D01*
X8277000Y16918000D01*
X8315000Y16936000D01*
X8353000Y16952000D01*
X8393000Y16966000D01*
X8433000Y16978000D01*
X8474000Y16988000D01*
X8515000Y16995000D01*
X8556000Y17001000D01*
X8598000Y17004000D01*
X8640000Y17005000D01*
X11040000Y17005000D01*
X11040000Y15405000D01*
G36*
X11040000Y15405000D02*
G01*
X8640000Y15405000D01*
X8598000Y15406000D01*
X8556000Y15409000D01*
X8515000Y15415000D01*
X8474000Y15422000D01*
X8433000Y15432000D01*
X8393000Y15444000D01*
X8353000Y15458000D01*
X8315000Y15474000D01*
X8277000Y15492000D01*
X8240000Y15512000D01*
X8204000Y15534000D01*
X8170000Y15558000D01*
X8137000Y15583000D01*
X8105000Y15610000D01*
X8074000Y15639000D01*
X8045000Y15670000D01*
X8018000Y15702000D01*
X7993000Y15735000D01*
X7969000Y15769000D01*
X7947000Y15805000D01*
X7927000Y15842000D01*
X7909000Y15880000D01*
X7893000Y15918000D01*
X7879000Y15958000D01*
X7867000Y15998000D01*
X7857000Y16039000D01*
X7850000Y16080000D01*
X7844000Y16121000D01*
X7841000Y16163000D01*
X7840000Y16205000D01*
X7841000Y16247000D01*
X7844000Y16289000D01*
X7850000Y16330000D01*
X7857000Y16371000D01*
X7867000Y16412000D01*
X7879000Y16452000D01*
X7893000Y16492000D01*
X7909000Y16530000D01*
X7927000Y16568000D01*
X7947000Y16605000D01*
X7969000Y16641000D01*
X7993000Y16675000D01*
X8018000Y16708000D01*
X8045000Y16740000D01*
X8074000Y16771000D01*
X8105000Y16800000D01*
X8137000Y16827000D01*
X8170000Y16852000D01*
X8204000Y16876000D01*
X8240000Y16898000D01*
X8277000Y16918000D01*
X8315000Y16936000D01*
X8353000Y16952000D01*
X8393000Y16966000D01*
X8433000Y16978000D01*
X8474000Y16988000D01*
X8515000Y16995000D01*
X8556000Y17001000D01*
X8598000Y17004000D01*
X8640000Y17005000D01*
X11040000Y17005000D01*
X11040000Y15405000D01*
G37*
X11040000Y17945000D02*
X8640000Y17945000D01*
X8598000Y17946000D01*
X8556000Y17949000D01*
X8515000Y17955000D01*
X8474000Y17962000D01*
X8433000Y17972000D01*
X8393000Y17984000D01*
X8353000Y17998000D01*
X8315000Y18014000D01*
X8277000Y18032000D01*
X8240000Y18052000D01*
X8204000Y18074000D01*
X8170000Y18098000D01*
X8137000Y18123000D01*
X8105000Y18150000D01*
X8074000Y18179000D01*
X8045000Y18210000D01*
X8018000Y18242000D01*
X7993000Y18275000D01*
X7969000Y18309000D01*
X7947000Y18345000D01*
X7927000Y18382000D01*
X7909000Y18420000D01*
X7893000Y18458000D01*
X7879000Y18498000D01*
X7867000Y18538000D01*
X7857000Y18579000D01*
X7850000Y18620000D01*
X7844000Y18661000D01*
X7841000Y18703000D01*
X7840000Y18745000D01*
X7841000Y18787000D01*
X7844000Y18829000D01*
X7850000Y18870000D01*
X7857000Y18911000D01*
X7867000Y18952000D01*
X7879000Y18992000D01*
X7893000Y19032000D01*
X7909000Y19070000D01*
X7927000Y19108000D01*
X7947000Y19145000D01*
X7969000Y19181000D01*
X7993000Y19215000D01*
X8018000Y19248000D01*
X8045000Y19280000D01*
X8074000Y19311000D01*
X8105000Y19340000D01*
X8137000Y19367000D01*
X8170000Y19392000D01*
X8204000Y19416000D01*
X8240000Y19438000D01*
X8277000Y19458000D01*
X8315000Y19476000D01*
X8353000Y19492000D01*
X8393000Y19506000D01*
X8433000Y19518000D01*
X8474000Y19528000D01*
X8515000Y19535000D01*
X8556000Y19541000D01*
X8598000Y19544000D01*
X8640000Y19545000D01*
X11040000Y19545000D01*
X11040000Y17945000D01*
G36*
X11040000Y17945000D02*
G01*
X8640000Y17945000D01*
X8598000Y17946000D01*
X8556000Y17949000D01*
X8515000Y17955000D01*
X8474000Y17962000D01*
X8433000Y17972000D01*
X8393000Y17984000D01*
X8353000Y17998000D01*
X8315000Y18014000D01*
X8277000Y18032000D01*
X8240000Y18052000D01*
X8204000Y18074000D01*
X8170000Y18098000D01*
X8137000Y18123000D01*
X8105000Y18150000D01*
X8074000Y18179000D01*
X8045000Y18210000D01*
X8018000Y18242000D01*
X7993000Y18275000D01*
X7969000Y18309000D01*
X7947000Y18345000D01*
X7927000Y18382000D01*
X7909000Y18420000D01*
X7893000Y18458000D01*
X7879000Y18498000D01*
X7867000Y18538000D01*
X7857000Y18579000D01*
X7850000Y18620000D01*
X7844000Y18661000D01*
X7841000Y18703000D01*
X7840000Y18745000D01*
X7841000Y18787000D01*
X7844000Y18829000D01*
X7850000Y18870000D01*
X7857000Y18911000D01*
X7867000Y18952000D01*
X7879000Y18992000D01*
X7893000Y19032000D01*
X7909000Y19070000D01*
X7927000Y19108000D01*
X7947000Y19145000D01*
X7969000Y19181000D01*
X7993000Y19215000D01*
X8018000Y19248000D01*
X8045000Y19280000D01*
X8074000Y19311000D01*
X8105000Y19340000D01*
X8137000Y19367000D01*
X8170000Y19392000D01*
X8204000Y19416000D01*
X8240000Y19438000D01*
X8277000Y19458000D01*
X8315000Y19476000D01*
X8353000Y19492000D01*
X8393000Y19506000D01*
X8433000Y19518000D01*
X8474000Y19528000D01*
X8515000Y19535000D01*
X8556000Y19541000D01*
X8598000Y19544000D01*
X8640000Y19545000D01*
X11040000Y19545000D01*
X11040000Y17945000D01*
G37*
X11040000Y20485000D02*
X8640000Y20485000D01*
X8598000Y20486000D01*
X8556000Y20489000D01*
X8515000Y20495000D01*
X8474000Y20502000D01*
X8433000Y20512000D01*
X8393000Y20524000D01*
X8353000Y20538000D01*
X8315000Y20554000D01*
X8277000Y20572000D01*
X8240000Y20592000D01*
X8204000Y20614000D01*
X8170000Y20638000D01*
X8137000Y20663000D01*
X8105000Y20690000D01*
X8074000Y20719000D01*
X8045000Y20750000D01*
X8018000Y20782000D01*
X7993000Y20815000D01*
X7969000Y20849000D01*
X7947000Y20885000D01*
X7927000Y20922000D01*
X7909000Y20960000D01*
X7893000Y20998000D01*
X7879000Y21038000D01*
X7867000Y21078000D01*
X7857000Y21119000D01*
X7850000Y21160000D01*
X7844000Y21201000D01*
X7841000Y21243000D01*
X7840000Y21285000D01*
X7841000Y21327000D01*
X7844000Y21369000D01*
X7850000Y21410000D01*
X7857000Y21451000D01*
X7867000Y21492000D01*
X7879000Y21532000D01*
X7893000Y21572000D01*
X7909000Y21610000D01*
X7927000Y21648000D01*
X7947000Y21685000D01*
X7969000Y21721000D01*
X7993000Y21755000D01*
X8018000Y21788000D01*
X8045000Y21820000D01*
X8074000Y21851000D01*
X8105000Y21880000D01*
X8137000Y21907000D01*
X8170000Y21932000D01*
X8204000Y21956000D01*
X8240000Y21978000D01*
X8277000Y21998000D01*
X8315000Y22016000D01*
X8353000Y22032000D01*
X8393000Y22046000D01*
X8433000Y22058000D01*
X8474000Y22068000D01*
X8515000Y22075000D01*
X8556000Y22081000D01*
X8598000Y22084000D01*
X8640000Y22085000D01*
X11040000Y22085000D01*
X11040000Y20485000D01*
G36*
X11040000Y20485000D02*
G01*
X8640000Y20485000D01*
X8598000Y20486000D01*
X8556000Y20489000D01*
X8515000Y20495000D01*
X8474000Y20502000D01*
X8433000Y20512000D01*
X8393000Y20524000D01*
X8353000Y20538000D01*
X8315000Y20554000D01*
X8277000Y20572000D01*
X8240000Y20592000D01*
X8204000Y20614000D01*
X8170000Y20638000D01*
X8137000Y20663000D01*
X8105000Y20690000D01*
X8074000Y20719000D01*
X8045000Y20750000D01*
X8018000Y20782000D01*
X7993000Y20815000D01*
X7969000Y20849000D01*
X7947000Y20885000D01*
X7927000Y20922000D01*
X7909000Y20960000D01*
X7893000Y20998000D01*
X7879000Y21038000D01*
X7867000Y21078000D01*
X7857000Y21119000D01*
X7850000Y21160000D01*
X7844000Y21201000D01*
X7841000Y21243000D01*
X7840000Y21285000D01*
X7841000Y21327000D01*
X7844000Y21369000D01*
X7850000Y21410000D01*
X7857000Y21451000D01*
X7867000Y21492000D01*
X7879000Y21532000D01*
X7893000Y21572000D01*
X7909000Y21610000D01*
X7927000Y21648000D01*
X7947000Y21685000D01*
X7969000Y21721000D01*
X7993000Y21755000D01*
X8018000Y21788000D01*
X8045000Y21820000D01*
X8074000Y21851000D01*
X8105000Y21880000D01*
X8137000Y21907000D01*
X8170000Y21932000D01*
X8204000Y21956000D01*
X8240000Y21978000D01*
X8277000Y21998000D01*
X8315000Y22016000D01*
X8353000Y22032000D01*
X8393000Y22046000D01*
X8433000Y22058000D01*
X8474000Y22068000D01*
X8515000Y22075000D01*
X8556000Y22081000D01*
X8598000Y22084000D01*
X8640000Y22085000D01*
X11040000Y22085000D01*
X11040000Y20485000D01*
G37*
X11040000Y25565000D02*
X8640000Y25565000D01*
X8598000Y25566000D01*
X8556000Y25569000D01*
X8515000Y25575000D01*
X8474000Y25582000D01*
X8433000Y25592000D01*
X8393000Y25604000D01*
X8353000Y25618000D01*
X8315000Y25634000D01*
X8277000Y25652000D01*
X8240000Y25672000D01*
X8204000Y25694000D01*
X8170000Y25718000D01*
X8137000Y25743000D01*
X8105000Y25770000D01*
X8074000Y25799000D01*
X8045000Y25830000D01*
X8018000Y25862000D01*
X7993000Y25895000D01*
X7969000Y25929000D01*
X7947000Y25965000D01*
X7927000Y26002000D01*
X7909000Y26040000D01*
X7893000Y26078000D01*
X7879000Y26118000D01*
X7867000Y26158000D01*
X7857000Y26199000D01*
X7850000Y26240000D01*
X7844000Y26281000D01*
X7841000Y26323000D01*
X7840000Y26365000D01*
X7841000Y26407000D01*
X7844000Y26449000D01*
X7850000Y26490000D01*
X7857000Y26531000D01*
X7867000Y26572000D01*
X7879000Y26612000D01*
X7893000Y26652000D01*
X7909000Y26690000D01*
X7927000Y26728000D01*
X7947000Y26765000D01*
X7969000Y26801000D01*
X7993000Y26835000D01*
X8018000Y26868000D01*
X8045000Y26900000D01*
X8074000Y26931000D01*
X8105000Y26960000D01*
X8137000Y26987000D01*
X8170000Y27012000D01*
X8204000Y27036000D01*
X8240000Y27058000D01*
X8277000Y27078000D01*
X8315000Y27096000D01*
X8353000Y27112000D01*
X8393000Y27126000D01*
X8433000Y27138000D01*
X8474000Y27148000D01*
X8515000Y27155000D01*
X8556000Y27161000D01*
X8598000Y27164000D01*
X8640000Y27165000D01*
X11040000Y27165000D01*
X11040000Y25565000D01*
G36*
X11040000Y25565000D02*
G01*
X8640000Y25565000D01*
X8598000Y25566000D01*
X8556000Y25569000D01*
X8515000Y25575000D01*
X8474000Y25582000D01*
X8433000Y25592000D01*
X8393000Y25604000D01*
X8353000Y25618000D01*
X8315000Y25634000D01*
X8277000Y25652000D01*
X8240000Y25672000D01*
X8204000Y25694000D01*
X8170000Y25718000D01*
X8137000Y25743000D01*
X8105000Y25770000D01*
X8074000Y25799000D01*
X8045000Y25830000D01*
X8018000Y25862000D01*
X7993000Y25895000D01*
X7969000Y25929000D01*
X7947000Y25965000D01*
X7927000Y26002000D01*
X7909000Y26040000D01*
X7893000Y26078000D01*
X7879000Y26118000D01*
X7867000Y26158000D01*
X7857000Y26199000D01*
X7850000Y26240000D01*
X7844000Y26281000D01*
X7841000Y26323000D01*
X7840000Y26365000D01*
X7841000Y26407000D01*
X7844000Y26449000D01*
X7850000Y26490000D01*
X7857000Y26531000D01*
X7867000Y26572000D01*
X7879000Y26612000D01*
X7893000Y26652000D01*
X7909000Y26690000D01*
X7927000Y26728000D01*
X7947000Y26765000D01*
X7969000Y26801000D01*
X7993000Y26835000D01*
X8018000Y26868000D01*
X8045000Y26900000D01*
X8074000Y26931000D01*
X8105000Y26960000D01*
X8137000Y26987000D01*
X8170000Y27012000D01*
X8204000Y27036000D01*
X8240000Y27058000D01*
X8277000Y27078000D01*
X8315000Y27096000D01*
X8353000Y27112000D01*
X8393000Y27126000D01*
X8433000Y27138000D01*
X8474000Y27148000D01*
X8515000Y27155000D01*
X8556000Y27161000D01*
X8598000Y27164000D01*
X8640000Y27165000D01*
X11040000Y27165000D01*
X11040000Y25565000D01*
G37*
X11040000Y28105000D02*
X8640000Y28105000D01*
X8598000Y28106000D01*
X8556000Y28109000D01*
X8515000Y28115000D01*
X8474000Y28122000D01*
X8433000Y28132000D01*
X8393000Y28144000D01*
X8353000Y28158000D01*
X8315000Y28174000D01*
X8277000Y28192000D01*
X8240000Y28212000D01*
X8204000Y28234000D01*
X8170000Y28258000D01*
X8137000Y28283000D01*
X8105000Y28310000D01*
X8074000Y28339000D01*
X8045000Y28370000D01*
X8018000Y28402000D01*
X7993000Y28435000D01*
X7969000Y28469000D01*
X7947000Y28505000D01*
X7927000Y28542000D01*
X7909000Y28580000D01*
X7893000Y28618000D01*
X7879000Y28658000D01*
X7867000Y28698000D01*
X7857000Y28739000D01*
X7850000Y28780000D01*
X7844000Y28821000D01*
X7841000Y28863000D01*
X7840000Y28905000D01*
X7841000Y28947000D01*
X7844000Y28989000D01*
X7850000Y29030000D01*
X7857000Y29071000D01*
X7867000Y29112000D01*
X7879000Y29152000D01*
X7893000Y29192000D01*
X7909000Y29230000D01*
X7927000Y29268000D01*
X7947000Y29305000D01*
X7969000Y29341000D01*
X7993000Y29375000D01*
X8018000Y29408000D01*
X8045000Y29440000D01*
X8074000Y29471000D01*
X8105000Y29500000D01*
X8137000Y29527000D01*
X8170000Y29552000D01*
X8204000Y29576000D01*
X8240000Y29598000D01*
X8277000Y29618000D01*
X8315000Y29636000D01*
X8353000Y29652000D01*
X8393000Y29666000D01*
X8433000Y29678000D01*
X8474000Y29688000D01*
X8515000Y29695000D01*
X8556000Y29701000D01*
X8598000Y29704000D01*
X8640000Y29705000D01*
X11040000Y29705000D01*
X11040000Y28105000D01*
G36*
X11040000Y28105000D02*
G01*
X8640000Y28105000D01*
X8598000Y28106000D01*
X8556000Y28109000D01*
X8515000Y28115000D01*
X8474000Y28122000D01*
X8433000Y28132000D01*
X8393000Y28144000D01*
X8353000Y28158000D01*
X8315000Y28174000D01*
X8277000Y28192000D01*
X8240000Y28212000D01*
X8204000Y28234000D01*
X8170000Y28258000D01*
X8137000Y28283000D01*
X8105000Y28310000D01*
X8074000Y28339000D01*
X8045000Y28370000D01*
X8018000Y28402000D01*
X7993000Y28435000D01*
X7969000Y28469000D01*
X7947000Y28505000D01*
X7927000Y28542000D01*
X7909000Y28580000D01*
X7893000Y28618000D01*
X7879000Y28658000D01*
X7867000Y28698000D01*
X7857000Y28739000D01*
X7850000Y28780000D01*
X7844000Y28821000D01*
X7841000Y28863000D01*
X7840000Y28905000D01*
X7841000Y28947000D01*
X7844000Y28989000D01*
X7850000Y29030000D01*
X7857000Y29071000D01*
X7867000Y29112000D01*
X7879000Y29152000D01*
X7893000Y29192000D01*
X7909000Y29230000D01*
X7927000Y29268000D01*
X7947000Y29305000D01*
X7969000Y29341000D01*
X7993000Y29375000D01*
X8018000Y29408000D01*
X8045000Y29440000D01*
X8074000Y29471000D01*
X8105000Y29500000D01*
X8137000Y29527000D01*
X8170000Y29552000D01*
X8204000Y29576000D01*
X8240000Y29598000D01*
X8277000Y29618000D01*
X8315000Y29636000D01*
X8353000Y29652000D01*
X8393000Y29666000D01*
X8433000Y29678000D01*
X8474000Y29688000D01*
X8515000Y29695000D01*
X8556000Y29701000D01*
X8598000Y29704000D01*
X8640000Y29705000D01*
X11040000Y29705000D01*
X11040000Y28105000D01*
G37*
X11040000Y30645000D02*
X8640000Y30645000D01*
X8598000Y30646000D01*
X8556000Y30649000D01*
X8515000Y30655000D01*
X8474000Y30662000D01*
X8433000Y30672000D01*
X8393000Y30684000D01*
X8353000Y30698000D01*
X8315000Y30714000D01*
X8277000Y30732000D01*
X8240000Y30752000D01*
X8204000Y30774000D01*
X8170000Y30798000D01*
X8137000Y30823000D01*
X8105000Y30850000D01*
X8074000Y30879000D01*
X8045000Y30910000D01*
X8018000Y30942000D01*
X7993000Y30975000D01*
X7969000Y31009000D01*
X7947000Y31045000D01*
X7927000Y31082000D01*
X7909000Y31120000D01*
X7893000Y31158000D01*
X7879000Y31198000D01*
X7867000Y31238000D01*
X7857000Y31279000D01*
X7850000Y31320000D01*
X7844000Y31361000D01*
X7841000Y31403000D01*
X7840000Y31445000D01*
X7841000Y31487000D01*
X7844000Y31529000D01*
X7850000Y31570000D01*
X7857000Y31611000D01*
X7867000Y31652000D01*
X7879000Y31692000D01*
X7893000Y31732000D01*
X7909000Y31770000D01*
X7927000Y31808000D01*
X7947000Y31845000D01*
X7969000Y31881000D01*
X7993000Y31915000D01*
X8018000Y31948000D01*
X8045000Y31980000D01*
X8074000Y32011000D01*
X8105000Y32040000D01*
X8137000Y32067000D01*
X8170000Y32092000D01*
X8204000Y32116000D01*
X8240000Y32138000D01*
X8277000Y32158000D01*
X8315000Y32176000D01*
X8353000Y32192000D01*
X8393000Y32206000D01*
X8433000Y32218000D01*
X8474000Y32228000D01*
X8515000Y32235000D01*
X8556000Y32241000D01*
X8598000Y32244000D01*
X8640000Y32245000D01*
X11040000Y32245000D01*
X11040000Y30645000D01*
G36*
X11040000Y30645000D02*
G01*
X8640000Y30645000D01*
X8598000Y30646000D01*
X8556000Y30649000D01*
X8515000Y30655000D01*
X8474000Y30662000D01*
X8433000Y30672000D01*
X8393000Y30684000D01*
X8353000Y30698000D01*
X8315000Y30714000D01*
X8277000Y30732000D01*
X8240000Y30752000D01*
X8204000Y30774000D01*
X8170000Y30798000D01*
X8137000Y30823000D01*
X8105000Y30850000D01*
X8074000Y30879000D01*
X8045000Y30910000D01*
X8018000Y30942000D01*
X7993000Y30975000D01*
X7969000Y31009000D01*
X7947000Y31045000D01*
X7927000Y31082000D01*
X7909000Y31120000D01*
X7893000Y31158000D01*
X7879000Y31198000D01*
X7867000Y31238000D01*
X7857000Y31279000D01*
X7850000Y31320000D01*
X7844000Y31361000D01*
X7841000Y31403000D01*
X7840000Y31445000D01*
X7841000Y31487000D01*
X7844000Y31529000D01*
X7850000Y31570000D01*
X7857000Y31611000D01*
X7867000Y31652000D01*
X7879000Y31692000D01*
X7893000Y31732000D01*
X7909000Y31770000D01*
X7927000Y31808000D01*
X7947000Y31845000D01*
X7969000Y31881000D01*
X7993000Y31915000D01*
X8018000Y31948000D01*
X8045000Y31980000D01*
X8074000Y32011000D01*
X8105000Y32040000D01*
X8137000Y32067000D01*
X8170000Y32092000D01*
X8204000Y32116000D01*
X8240000Y32138000D01*
X8277000Y32158000D01*
X8315000Y32176000D01*
X8353000Y32192000D01*
X8393000Y32206000D01*
X8433000Y32218000D01*
X8474000Y32228000D01*
X8515000Y32235000D01*
X8556000Y32241000D01*
X8598000Y32244000D01*
X8640000Y32245000D01*
X11040000Y32245000D01*
X11040000Y30645000D01*
G37*
X11040000Y33185000D02*
X8640000Y33185000D01*
X8598000Y33186000D01*
X8556000Y33189000D01*
X8515000Y33195000D01*
X8474000Y33202000D01*
X8433000Y33212000D01*
X8393000Y33224000D01*
X8353000Y33238000D01*
X8315000Y33254000D01*
X8277000Y33272000D01*
X8240000Y33292000D01*
X8204000Y33314000D01*
X8170000Y33338000D01*
X8137000Y33363000D01*
X8105000Y33390000D01*
X8074000Y33419000D01*
X8045000Y33450000D01*
X8018000Y33482000D01*
X7993000Y33515000D01*
X7969000Y33549000D01*
X7947000Y33585000D01*
X7927000Y33622000D01*
X7909000Y33660000D01*
X7893000Y33698000D01*
X7879000Y33738000D01*
X7867000Y33778000D01*
X7857000Y33819000D01*
X7850000Y33860000D01*
X7844000Y33901000D01*
X7841000Y33943000D01*
X7840000Y33985000D01*
X7841000Y34027000D01*
X7844000Y34069000D01*
X7850000Y34110000D01*
X7857000Y34151000D01*
X7867000Y34192000D01*
X7879000Y34232000D01*
X7893000Y34272000D01*
X7909000Y34310000D01*
X7927000Y34348000D01*
X7947000Y34385000D01*
X7969000Y34421000D01*
X7993000Y34455000D01*
X8018000Y34488000D01*
X8045000Y34520000D01*
X8074000Y34551000D01*
X8105000Y34580000D01*
X8137000Y34607000D01*
X8170000Y34632000D01*
X8204000Y34656000D01*
X8240000Y34678000D01*
X8277000Y34698000D01*
X8315000Y34716000D01*
X8353000Y34732000D01*
X8393000Y34746000D01*
X8433000Y34758000D01*
X8474000Y34768000D01*
X8515000Y34775000D01*
X8556000Y34781000D01*
X8598000Y34784000D01*
X8640000Y34785000D01*
X11040000Y34785000D01*
X11040000Y33185000D01*
G36*
X11040000Y33185000D02*
G01*
X8640000Y33185000D01*
X8598000Y33186000D01*
X8556000Y33189000D01*
X8515000Y33195000D01*
X8474000Y33202000D01*
X8433000Y33212000D01*
X8393000Y33224000D01*
X8353000Y33238000D01*
X8315000Y33254000D01*
X8277000Y33272000D01*
X8240000Y33292000D01*
X8204000Y33314000D01*
X8170000Y33338000D01*
X8137000Y33363000D01*
X8105000Y33390000D01*
X8074000Y33419000D01*
X8045000Y33450000D01*
X8018000Y33482000D01*
X7993000Y33515000D01*
X7969000Y33549000D01*
X7947000Y33585000D01*
X7927000Y33622000D01*
X7909000Y33660000D01*
X7893000Y33698000D01*
X7879000Y33738000D01*
X7867000Y33778000D01*
X7857000Y33819000D01*
X7850000Y33860000D01*
X7844000Y33901000D01*
X7841000Y33943000D01*
X7840000Y33985000D01*
X7841000Y34027000D01*
X7844000Y34069000D01*
X7850000Y34110000D01*
X7857000Y34151000D01*
X7867000Y34192000D01*
X7879000Y34232000D01*
X7893000Y34272000D01*
X7909000Y34310000D01*
X7927000Y34348000D01*
X7947000Y34385000D01*
X7969000Y34421000D01*
X7993000Y34455000D01*
X8018000Y34488000D01*
X8045000Y34520000D01*
X8074000Y34551000D01*
X8105000Y34580000D01*
X8137000Y34607000D01*
X8170000Y34632000D01*
X8204000Y34656000D01*
X8240000Y34678000D01*
X8277000Y34698000D01*
X8315000Y34716000D01*
X8353000Y34732000D01*
X8393000Y34746000D01*
X8433000Y34758000D01*
X8474000Y34768000D01*
X8515000Y34775000D01*
X8556000Y34781000D01*
X8598000Y34784000D01*
X8640000Y34785000D01*
X11040000Y34785000D01*
X11040000Y33185000D01*
G37*
X11040000Y38265000D02*
X8640000Y38265000D01*
X8598000Y38266000D01*
X8556000Y38269000D01*
X8515000Y38275000D01*
X8474000Y38282000D01*
X8433000Y38292000D01*
X8393000Y38304000D01*
X8353000Y38318000D01*
X8315000Y38334000D01*
X8277000Y38352000D01*
X8240000Y38372000D01*
X8204000Y38394000D01*
X8170000Y38418000D01*
X8137000Y38443000D01*
X8105000Y38470000D01*
X8074000Y38499000D01*
X8045000Y38530000D01*
X8018000Y38562000D01*
X7993000Y38595000D01*
X7969000Y38629000D01*
X7947000Y38665000D01*
X7927000Y38702000D01*
X7909000Y38740000D01*
X7893000Y38778000D01*
X7879000Y38818000D01*
X7867000Y38858000D01*
X7857000Y38899000D01*
X7850000Y38940000D01*
X7844000Y38981000D01*
X7841000Y39023000D01*
X7840000Y39065000D01*
X7841000Y39107000D01*
X7844000Y39149000D01*
X7850000Y39190000D01*
X7857000Y39231000D01*
X7867000Y39272000D01*
X7879000Y39312000D01*
X7893000Y39352000D01*
X7909000Y39390000D01*
X7927000Y39428000D01*
X7947000Y39465000D01*
X7969000Y39501000D01*
X7993000Y39535000D01*
X8018000Y39568000D01*
X8045000Y39600000D01*
X8074000Y39631000D01*
X8105000Y39660000D01*
X8137000Y39687000D01*
X8170000Y39712000D01*
X8204000Y39736000D01*
X8240000Y39758000D01*
X8277000Y39778000D01*
X8315000Y39796000D01*
X8353000Y39812000D01*
X8393000Y39826000D01*
X8433000Y39838000D01*
X8474000Y39848000D01*
X8515000Y39855000D01*
X8556000Y39861000D01*
X8598000Y39864000D01*
X8640000Y39865000D01*
X11040000Y39865000D01*
X11040000Y38265000D01*
G36*
X11040000Y38265000D02*
G01*
X8640000Y38265000D01*
X8598000Y38266000D01*
X8556000Y38269000D01*
X8515000Y38275000D01*
X8474000Y38282000D01*
X8433000Y38292000D01*
X8393000Y38304000D01*
X8353000Y38318000D01*
X8315000Y38334000D01*
X8277000Y38352000D01*
X8240000Y38372000D01*
X8204000Y38394000D01*
X8170000Y38418000D01*
X8137000Y38443000D01*
X8105000Y38470000D01*
X8074000Y38499000D01*
X8045000Y38530000D01*
X8018000Y38562000D01*
X7993000Y38595000D01*
X7969000Y38629000D01*
X7947000Y38665000D01*
X7927000Y38702000D01*
X7909000Y38740000D01*
X7893000Y38778000D01*
X7879000Y38818000D01*
X7867000Y38858000D01*
X7857000Y38899000D01*
X7850000Y38940000D01*
X7844000Y38981000D01*
X7841000Y39023000D01*
X7840000Y39065000D01*
X7841000Y39107000D01*
X7844000Y39149000D01*
X7850000Y39190000D01*
X7857000Y39231000D01*
X7867000Y39272000D01*
X7879000Y39312000D01*
X7893000Y39352000D01*
X7909000Y39390000D01*
X7927000Y39428000D01*
X7947000Y39465000D01*
X7969000Y39501000D01*
X7993000Y39535000D01*
X8018000Y39568000D01*
X8045000Y39600000D01*
X8074000Y39631000D01*
X8105000Y39660000D01*
X8137000Y39687000D01*
X8170000Y39712000D01*
X8204000Y39736000D01*
X8240000Y39758000D01*
X8277000Y39778000D01*
X8315000Y39796000D01*
X8353000Y39812000D01*
X8393000Y39826000D01*
X8433000Y39838000D01*
X8474000Y39848000D01*
X8515000Y39855000D01*
X8556000Y39861000D01*
X8598000Y39864000D01*
X8640000Y39865000D01*
X11040000Y39865000D01*
X11040000Y38265000D01*
G37*
X11040000Y40805000D02*
X8640000Y40805000D01*
X8598000Y40806000D01*
X8556000Y40809000D01*
X8515000Y40815000D01*
X8474000Y40822000D01*
X8433000Y40832000D01*
X8393000Y40844000D01*
X8353000Y40858000D01*
X8315000Y40874000D01*
X8277000Y40892000D01*
X8240000Y40912000D01*
X8204000Y40934000D01*
X8170000Y40958000D01*
X8137000Y40983000D01*
X8105000Y41010000D01*
X8074000Y41039000D01*
X8045000Y41070000D01*
X8018000Y41102000D01*
X7993000Y41135000D01*
X7969000Y41169000D01*
X7947000Y41205000D01*
X7927000Y41242000D01*
X7909000Y41280000D01*
X7893000Y41318000D01*
X7879000Y41358000D01*
X7867000Y41398000D01*
X7857000Y41439000D01*
X7850000Y41480000D01*
X7844000Y41521000D01*
X7841000Y41563000D01*
X7840000Y41605000D01*
X7841000Y41647000D01*
X7844000Y41689000D01*
X7850000Y41730000D01*
X7857000Y41771000D01*
X7867000Y41812000D01*
X7879000Y41852000D01*
X7893000Y41892000D01*
X7909000Y41930000D01*
X7927000Y41968000D01*
X7947000Y42005000D01*
X7969000Y42041000D01*
X7993000Y42075000D01*
X8018000Y42108000D01*
X8045000Y42140000D01*
X8074000Y42171000D01*
X8105000Y42200000D01*
X8137000Y42227000D01*
X8170000Y42252000D01*
X8204000Y42276000D01*
X8240000Y42298000D01*
X8277000Y42318000D01*
X8315000Y42336000D01*
X8353000Y42352000D01*
X8393000Y42366000D01*
X8433000Y42378000D01*
X8474000Y42388000D01*
X8515000Y42395000D01*
X8556000Y42401000D01*
X8598000Y42404000D01*
X8640000Y42405000D01*
X11040000Y42405000D01*
X11040000Y40805000D01*
G36*
X11040000Y40805000D02*
G01*
X8640000Y40805000D01*
X8598000Y40806000D01*
X8556000Y40809000D01*
X8515000Y40815000D01*
X8474000Y40822000D01*
X8433000Y40832000D01*
X8393000Y40844000D01*
X8353000Y40858000D01*
X8315000Y40874000D01*
X8277000Y40892000D01*
X8240000Y40912000D01*
X8204000Y40934000D01*
X8170000Y40958000D01*
X8137000Y40983000D01*
X8105000Y41010000D01*
X8074000Y41039000D01*
X8045000Y41070000D01*
X8018000Y41102000D01*
X7993000Y41135000D01*
X7969000Y41169000D01*
X7947000Y41205000D01*
X7927000Y41242000D01*
X7909000Y41280000D01*
X7893000Y41318000D01*
X7879000Y41358000D01*
X7867000Y41398000D01*
X7857000Y41439000D01*
X7850000Y41480000D01*
X7844000Y41521000D01*
X7841000Y41563000D01*
X7840000Y41605000D01*
X7841000Y41647000D01*
X7844000Y41689000D01*
X7850000Y41730000D01*
X7857000Y41771000D01*
X7867000Y41812000D01*
X7879000Y41852000D01*
X7893000Y41892000D01*
X7909000Y41930000D01*
X7927000Y41968000D01*
X7947000Y42005000D01*
X7969000Y42041000D01*
X7993000Y42075000D01*
X8018000Y42108000D01*
X8045000Y42140000D01*
X8074000Y42171000D01*
X8105000Y42200000D01*
X8137000Y42227000D01*
X8170000Y42252000D01*
X8204000Y42276000D01*
X8240000Y42298000D01*
X8277000Y42318000D01*
X8315000Y42336000D01*
X8353000Y42352000D01*
X8393000Y42366000D01*
X8433000Y42378000D01*
X8474000Y42388000D01*
X8515000Y42395000D01*
X8556000Y42401000D01*
X8598000Y42404000D01*
X8640000Y42405000D01*
X11040000Y42405000D01*
X11040000Y40805000D01*
G37*
X11040000Y43345000D02*
X8640000Y43345000D01*
X8598000Y43346000D01*
X8556000Y43349000D01*
X8515000Y43355000D01*
X8474000Y43362000D01*
X8433000Y43372000D01*
X8393000Y43384000D01*
X8353000Y43398000D01*
X8315000Y43414000D01*
X8277000Y43432000D01*
X8240000Y43452000D01*
X8204000Y43474000D01*
X8170000Y43498000D01*
X8137000Y43523000D01*
X8105000Y43550000D01*
X8074000Y43579000D01*
X8045000Y43610000D01*
X8018000Y43642000D01*
X7993000Y43675000D01*
X7969000Y43709000D01*
X7947000Y43745000D01*
X7927000Y43782000D01*
X7909000Y43820000D01*
X7893000Y43858000D01*
X7879000Y43898000D01*
X7867000Y43938000D01*
X7857000Y43979000D01*
X7850000Y44020000D01*
X7844000Y44061000D01*
X7841000Y44103000D01*
X7840000Y44145000D01*
X7841000Y44187000D01*
X7844000Y44229000D01*
X7850000Y44270000D01*
X7857000Y44311000D01*
X7867000Y44352000D01*
X7879000Y44392000D01*
X7893000Y44432000D01*
X7909000Y44470000D01*
X7927000Y44508000D01*
X7947000Y44545000D01*
X7969000Y44581000D01*
X7993000Y44615000D01*
X8018000Y44648000D01*
X8045000Y44680000D01*
X8074000Y44711000D01*
X8105000Y44740000D01*
X8137000Y44767000D01*
X8170000Y44792000D01*
X8204000Y44816000D01*
X8240000Y44838000D01*
X8277000Y44858000D01*
X8315000Y44876000D01*
X8353000Y44892000D01*
X8393000Y44906000D01*
X8433000Y44918000D01*
X8474000Y44928000D01*
X8515000Y44935000D01*
X8556000Y44941000D01*
X8598000Y44944000D01*
X8640000Y44945000D01*
X11040000Y44945000D01*
X11040000Y43345000D01*
G36*
X11040000Y43345000D02*
G01*
X8640000Y43345000D01*
X8598000Y43346000D01*
X8556000Y43349000D01*
X8515000Y43355000D01*
X8474000Y43362000D01*
X8433000Y43372000D01*
X8393000Y43384000D01*
X8353000Y43398000D01*
X8315000Y43414000D01*
X8277000Y43432000D01*
X8240000Y43452000D01*
X8204000Y43474000D01*
X8170000Y43498000D01*
X8137000Y43523000D01*
X8105000Y43550000D01*
X8074000Y43579000D01*
X8045000Y43610000D01*
X8018000Y43642000D01*
X7993000Y43675000D01*
X7969000Y43709000D01*
X7947000Y43745000D01*
X7927000Y43782000D01*
X7909000Y43820000D01*
X7893000Y43858000D01*
X7879000Y43898000D01*
X7867000Y43938000D01*
X7857000Y43979000D01*
X7850000Y44020000D01*
X7844000Y44061000D01*
X7841000Y44103000D01*
X7840000Y44145000D01*
X7841000Y44187000D01*
X7844000Y44229000D01*
X7850000Y44270000D01*
X7857000Y44311000D01*
X7867000Y44352000D01*
X7879000Y44392000D01*
X7893000Y44432000D01*
X7909000Y44470000D01*
X7927000Y44508000D01*
X7947000Y44545000D01*
X7969000Y44581000D01*
X7993000Y44615000D01*
X8018000Y44648000D01*
X8045000Y44680000D01*
X8074000Y44711000D01*
X8105000Y44740000D01*
X8137000Y44767000D01*
X8170000Y44792000D01*
X8204000Y44816000D01*
X8240000Y44838000D01*
X8277000Y44858000D01*
X8315000Y44876000D01*
X8353000Y44892000D01*
X8393000Y44906000D01*
X8433000Y44918000D01*
X8474000Y44928000D01*
X8515000Y44935000D01*
X8556000Y44941000D01*
X8598000Y44944000D01*
X8640000Y44945000D01*
X11040000Y44945000D01*
X11040000Y43345000D01*
G37*
X11040000Y45885000D02*
X8640000Y45885000D01*
X8598000Y45886000D01*
X8556000Y45889000D01*
X8515000Y45895000D01*
X8474000Y45902000D01*
X8433000Y45912000D01*
X8393000Y45924000D01*
X8353000Y45938000D01*
X8315000Y45954000D01*
X8277000Y45972000D01*
X8240000Y45992000D01*
X8204000Y46014000D01*
X8170000Y46038000D01*
X8137000Y46063000D01*
X8105000Y46090000D01*
X8074000Y46119000D01*
X8045000Y46150000D01*
X8018000Y46182000D01*
X7993000Y46215000D01*
X7969000Y46249000D01*
X7947000Y46285000D01*
X7927000Y46322000D01*
X7909000Y46360000D01*
X7893000Y46398000D01*
X7879000Y46438000D01*
X7867000Y46478000D01*
X7857000Y46519000D01*
X7850000Y46560000D01*
X7844000Y46601000D01*
X7841000Y46643000D01*
X7840000Y46685000D01*
X7841000Y46727000D01*
X7844000Y46769000D01*
X7850000Y46810000D01*
X7857000Y46851000D01*
X7867000Y46892000D01*
X7879000Y46932000D01*
X7893000Y46972000D01*
X7909000Y47010000D01*
X7927000Y47048000D01*
X7947000Y47085000D01*
X7969000Y47121000D01*
X7993000Y47155000D01*
X8018000Y47188000D01*
X8045000Y47220000D01*
X8074000Y47251000D01*
X8105000Y47280000D01*
X8137000Y47307000D01*
X8170000Y47332000D01*
X8204000Y47356000D01*
X8240000Y47378000D01*
X8277000Y47398000D01*
X8315000Y47416000D01*
X8353000Y47432000D01*
X8393000Y47446000D01*
X8433000Y47458000D01*
X8474000Y47468000D01*
X8515000Y47475000D01*
X8556000Y47481000D01*
X8598000Y47484000D01*
X8640000Y47485000D01*
X11040000Y47485000D01*
X11040000Y45885000D01*
G36*
X11040000Y45885000D02*
G01*
X8640000Y45885000D01*
X8598000Y45886000D01*
X8556000Y45889000D01*
X8515000Y45895000D01*
X8474000Y45902000D01*
X8433000Y45912000D01*
X8393000Y45924000D01*
X8353000Y45938000D01*
X8315000Y45954000D01*
X8277000Y45972000D01*
X8240000Y45992000D01*
X8204000Y46014000D01*
X8170000Y46038000D01*
X8137000Y46063000D01*
X8105000Y46090000D01*
X8074000Y46119000D01*
X8045000Y46150000D01*
X8018000Y46182000D01*
X7993000Y46215000D01*
X7969000Y46249000D01*
X7947000Y46285000D01*
X7927000Y46322000D01*
X7909000Y46360000D01*
X7893000Y46398000D01*
X7879000Y46438000D01*
X7867000Y46478000D01*
X7857000Y46519000D01*
X7850000Y46560000D01*
X7844000Y46601000D01*
X7841000Y46643000D01*
X7840000Y46685000D01*
X7841000Y46727000D01*
X7844000Y46769000D01*
X7850000Y46810000D01*
X7857000Y46851000D01*
X7867000Y46892000D01*
X7879000Y46932000D01*
X7893000Y46972000D01*
X7909000Y47010000D01*
X7927000Y47048000D01*
X7947000Y47085000D01*
X7969000Y47121000D01*
X7993000Y47155000D01*
X8018000Y47188000D01*
X8045000Y47220000D01*
X8074000Y47251000D01*
X8105000Y47280000D01*
X8137000Y47307000D01*
X8170000Y47332000D01*
X8204000Y47356000D01*
X8240000Y47378000D01*
X8277000Y47398000D01*
X8315000Y47416000D01*
X8353000Y47432000D01*
X8393000Y47446000D01*
X8433000Y47458000D01*
X8474000Y47468000D01*
X8515000Y47475000D01*
X8556000Y47481000D01*
X8598000Y47484000D01*
X8640000Y47485000D01*
X11040000Y47485000D01*
X11040000Y45885000D01*
G37*
X11040000Y50965000D02*
X8640000Y50965000D01*
X8598000Y50966000D01*
X8556000Y50969000D01*
X8515000Y50975000D01*
X8474000Y50982000D01*
X8433000Y50992000D01*
X8393000Y51004000D01*
X8353000Y51018000D01*
X8315000Y51034000D01*
X8277000Y51052000D01*
X8240000Y51072000D01*
X8204000Y51094000D01*
X8170000Y51118000D01*
X8137000Y51143000D01*
X8105000Y51170000D01*
X8074000Y51199000D01*
X8045000Y51230000D01*
X8018000Y51262000D01*
X7993000Y51295000D01*
X7969000Y51329000D01*
X7947000Y51365000D01*
X7927000Y51402000D01*
X7909000Y51440000D01*
X7893000Y51478000D01*
X7879000Y51518000D01*
X7867000Y51558000D01*
X7857000Y51599000D01*
X7850000Y51640000D01*
X7844000Y51681000D01*
X7841000Y51723000D01*
X7840000Y51765000D01*
X7841000Y51807000D01*
X7844000Y51849000D01*
X7850000Y51890000D01*
X7857000Y51931000D01*
X7867000Y51972000D01*
X7879000Y52012000D01*
X7893000Y52052000D01*
X7909000Y52090000D01*
X7927000Y52128000D01*
X7947000Y52165000D01*
X7969000Y52201000D01*
X7993000Y52235000D01*
X8018000Y52268000D01*
X8045000Y52300000D01*
X8074000Y52331000D01*
X8105000Y52360000D01*
X8137000Y52387000D01*
X8170000Y52412000D01*
X8204000Y52436000D01*
X8240000Y52458000D01*
X8277000Y52478000D01*
X8315000Y52496000D01*
X8353000Y52512000D01*
X8393000Y52526000D01*
X8433000Y52538000D01*
X8474000Y52548000D01*
X8515000Y52555000D01*
X8556000Y52561000D01*
X8598000Y52564000D01*
X8640000Y52565000D01*
X11040000Y52565000D01*
X11040000Y50965000D01*
G36*
X11040000Y50965000D02*
G01*
X8640000Y50965000D01*
X8598000Y50966000D01*
X8556000Y50969000D01*
X8515000Y50975000D01*
X8474000Y50982000D01*
X8433000Y50992000D01*
X8393000Y51004000D01*
X8353000Y51018000D01*
X8315000Y51034000D01*
X8277000Y51052000D01*
X8240000Y51072000D01*
X8204000Y51094000D01*
X8170000Y51118000D01*
X8137000Y51143000D01*
X8105000Y51170000D01*
X8074000Y51199000D01*
X8045000Y51230000D01*
X8018000Y51262000D01*
X7993000Y51295000D01*
X7969000Y51329000D01*
X7947000Y51365000D01*
X7927000Y51402000D01*
X7909000Y51440000D01*
X7893000Y51478000D01*
X7879000Y51518000D01*
X7867000Y51558000D01*
X7857000Y51599000D01*
X7850000Y51640000D01*
X7844000Y51681000D01*
X7841000Y51723000D01*
X7840000Y51765000D01*
X7841000Y51807000D01*
X7844000Y51849000D01*
X7850000Y51890000D01*
X7857000Y51931000D01*
X7867000Y51972000D01*
X7879000Y52012000D01*
X7893000Y52052000D01*
X7909000Y52090000D01*
X7927000Y52128000D01*
X7947000Y52165000D01*
X7969000Y52201000D01*
X7993000Y52235000D01*
X8018000Y52268000D01*
X8045000Y52300000D01*
X8074000Y52331000D01*
X8105000Y52360000D01*
X8137000Y52387000D01*
X8170000Y52412000D01*
X8204000Y52436000D01*
X8240000Y52458000D01*
X8277000Y52478000D01*
X8315000Y52496000D01*
X8353000Y52512000D01*
X8393000Y52526000D01*
X8433000Y52538000D01*
X8474000Y52548000D01*
X8515000Y52555000D01*
X8556000Y52561000D01*
X8598000Y52564000D01*
X8640000Y52565000D01*
X11040000Y52565000D01*
X11040000Y50965000D01*
G37*
X11040000Y53505000D02*
X8640000Y53505000D01*
X8598000Y53506000D01*
X8556000Y53509000D01*
X8515000Y53515000D01*
X8474000Y53522000D01*
X8433000Y53532000D01*
X8393000Y53544000D01*
X8353000Y53558000D01*
X8315000Y53574000D01*
X8277000Y53592000D01*
X8240000Y53612000D01*
X8204000Y53634000D01*
X8170000Y53658000D01*
X8137000Y53683000D01*
X8105000Y53710000D01*
X8074000Y53739000D01*
X8045000Y53770000D01*
X8018000Y53802000D01*
X7993000Y53835000D01*
X7969000Y53869000D01*
X7947000Y53905000D01*
X7927000Y53942000D01*
X7909000Y53980000D01*
X7893000Y54018000D01*
X7879000Y54058000D01*
X7867000Y54098000D01*
X7857000Y54139000D01*
X7850000Y54180000D01*
X7844000Y54221000D01*
X7841000Y54263000D01*
X7840000Y54305000D01*
X7841000Y54347000D01*
X7844000Y54389000D01*
X7850000Y54430000D01*
X7857000Y54471000D01*
X7867000Y54512000D01*
X7879000Y54552000D01*
X7893000Y54592000D01*
X7909000Y54630000D01*
X7927000Y54668000D01*
X7947000Y54705000D01*
X7969000Y54741000D01*
X7993000Y54775000D01*
X8018000Y54808000D01*
X8045000Y54840000D01*
X8074000Y54871000D01*
X8105000Y54900000D01*
X8137000Y54927000D01*
X8170000Y54952000D01*
X8204000Y54976000D01*
X8240000Y54998000D01*
X8277000Y55018000D01*
X8315000Y55036000D01*
X8353000Y55052000D01*
X8393000Y55066000D01*
X8433000Y55078000D01*
X8474000Y55088000D01*
X8515000Y55095000D01*
X8556000Y55101000D01*
X8598000Y55104000D01*
X8640000Y55105000D01*
X11040000Y55105000D01*
X11040000Y53505000D01*
G36*
X11040000Y53505000D02*
G01*
X8640000Y53505000D01*
X8598000Y53506000D01*
X8556000Y53509000D01*
X8515000Y53515000D01*
X8474000Y53522000D01*
X8433000Y53532000D01*
X8393000Y53544000D01*
X8353000Y53558000D01*
X8315000Y53574000D01*
X8277000Y53592000D01*
X8240000Y53612000D01*
X8204000Y53634000D01*
X8170000Y53658000D01*
X8137000Y53683000D01*
X8105000Y53710000D01*
X8074000Y53739000D01*
X8045000Y53770000D01*
X8018000Y53802000D01*
X7993000Y53835000D01*
X7969000Y53869000D01*
X7947000Y53905000D01*
X7927000Y53942000D01*
X7909000Y53980000D01*
X7893000Y54018000D01*
X7879000Y54058000D01*
X7867000Y54098000D01*
X7857000Y54139000D01*
X7850000Y54180000D01*
X7844000Y54221000D01*
X7841000Y54263000D01*
X7840000Y54305000D01*
X7841000Y54347000D01*
X7844000Y54389000D01*
X7850000Y54430000D01*
X7857000Y54471000D01*
X7867000Y54512000D01*
X7879000Y54552000D01*
X7893000Y54592000D01*
X7909000Y54630000D01*
X7927000Y54668000D01*
X7947000Y54705000D01*
X7969000Y54741000D01*
X7993000Y54775000D01*
X8018000Y54808000D01*
X8045000Y54840000D01*
X8074000Y54871000D01*
X8105000Y54900000D01*
X8137000Y54927000D01*
X8170000Y54952000D01*
X8204000Y54976000D01*
X8240000Y54998000D01*
X8277000Y55018000D01*
X8315000Y55036000D01*
X8353000Y55052000D01*
X8393000Y55066000D01*
X8433000Y55078000D01*
X8474000Y55088000D01*
X8515000Y55095000D01*
X8556000Y55101000D01*
X8598000Y55104000D01*
X8640000Y55105000D01*
X11040000Y55105000D01*
X11040000Y53505000D01*
G37*
X-9098000Y6844000D02*
X-9056000Y6841000D01*
X-9015000Y6835000D01*
X-8974000Y6828000D01*
X-8933000Y6818000D01*
X-8893000Y6806000D01*
X-8853000Y6792000D01*
X-8815000Y6776000D01*
X-8777000Y6758000D01*
X-8740000Y6738000D01*
X-8704000Y6716000D01*
X-8670000Y6692000D01*
X-8637000Y6667000D01*
X-8605000Y6640000D01*
X-8574000Y6611000D01*
X-8545000Y6580000D01*
X-8518000Y6548000D01*
X-8493000Y6515000D01*
X-8469000Y6481000D01*
X-8447000Y6445000D01*
X-8427000Y6408000D01*
X-8409000Y6370000D01*
X-8393000Y6332000D01*
X-8379000Y6292000D01*
X-8367000Y6252000D01*
X-8357000Y6211000D01*
X-8350000Y6170000D01*
X-8344000Y6129000D01*
X-8341000Y6087000D01*
X-8340000Y6045000D01*
X-8341000Y6003000D01*
X-8344000Y5961000D01*
X-8350000Y5920000D01*
X-8357000Y5879000D01*
X-8367000Y5838000D01*
X-8379000Y5798000D01*
X-8393000Y5758000D01*
X-8409000Y5720000D01*
X-8427000Y5682000D01*
X-8447000Y5645000D01*
X-8469000Y5609000D01*
X-8493000Y5575000D01*
X-8518000Y5542000D01*
X-8545000Y5510000D01*
X-8574000Y5479000D01*
X-8605000Y5450000D01*
X-8637000Y5423000D01*
X-8670000Y5398000D01*
X-8704000Y5374000D01*
X-8740000Y5352000D01*
X-8777000Y5332000D01*
X-8815000Y5314000D01*
X-8853000Y5298000D01*
X-8893000Y5284000D01*
X-8933000Y5272000D01*
X-8974000Y5262000D01*
X-9015000Y5255000D01*
X-9056000Y5249000D01*
X-9098000Y5246000D01*
X-9140000Y5245000D01*
X-11540000Y5245000D01*
X-11540000Y6845000D01*
X-9140000Y6845000D01*
X-9098000Y6844000D01*
G36*
X-9098000Y6844000D02*
G01*
X-9056000Y6841000D01*
X-9015000Y6835000D01*
X-8974000Y6828000D01*
X-8933000Y6818000D01*
X-8893000Y6806000D01*
X-8853000Y6792000D01*
X-8815000Y6776000D01*
X-8777000Y6758000D01*
X-8740000Y6738000D01*
X-8704000Y6716000D01*
X-8670000Y6692000D01*
X-8637000Y6667000D01*
X-8605000Y6640000D01*
X-8574000Y6611000D01*
X-8545000Y6580000D01*
X-8518000Y6548000D01*
X-8493000Y6515000D01*
X-8469000Y6481000D01*
X-8447000Y6445000D01*
X-8427000Y6408000D01*
X-8409000Y6370000D01*
X-8393000Y6332000D01*
X-8379000Y6292000D01*
X-8367000Y6252000D01*
X-8357000Y6211000D01*
X-8350000Y6170000D01*
X-8344000Y6129000D01*
X-8341000Y6087000D01*
X-8340000Y6045000D01*
X-8341000Y6003000D01*
X-8344000Y5961000D01*
X-8350000Y5920000D01*
X-8357000Y5879000D01*
X-8367000Y5838000D01*
X-8379000Y5798000D01*
X-8393000Y5758000D01*
X-8409000Y5720000D01*
X-8427000Y5682000D01*
X-8447000Y5645000D01*
X-8469000Y5609000D01*
X-8493000Y5575000D01*
X-8518000Y5542000D01*
X-8545000Y5510000D01*
X-8574000Y5479000D01*
X-8605000Y5450000D01*
X-8637000Y5423000D01*
X-8670000Y5398000D01*
X-8704000Y5374000D01*
X-8740000Y5352000D01*
X-8777000Y5332000D01*
X-8815000Y5314000D01*
X-8853000Y5298000D01*
X-8893000Y5284000D01*
X-8933000Y5272000D01*
X-8974000Y5262000D01*
X-9015000Y5255000D01*
X-9056000Y5249000D01*
X-9098000Y5246000D01*
X-9140000Y5245000D01*
X-11540000Y5245000D01*
X-11540000Y6845000D01*
X-9140000Y6845000D01*
X-9098000Y6844000D01*
G37*
X-9098000Y9384000D02*
X-9056000Y9381000D01*
X-9015000Y9375000D01*
X-8974000Y9368000D01*
X-8933000Y9358000D01*
X-8893000Y9346000D01*
X-8853000Y9332000D01*
X-8815000Y9316000D01*
X-8777000Y9298000D01*
X-8740000Y9278000D01*
X-8704000Y9256000D01*
X-8670000Y9232000D01*
X-8637000Y9207000D01*
X-8605000Y9180000D01*
X-8574000Y9151000D01*
X-8545000Y9120000D01*
X-8518000Y9088000D01*
X-8493000Y9055000D01*
X-8469000Y9021000D01*
X-8447000Y8985000D01*
X-8427000Y8948000D01*
X-8409000Y8910000D01*
X-8393000Y8872000D01*
X-8379000Y8832000D01*
X-8367000Y8792000D01*
X-8357000Y8751000D01*
X-8350000Y8710000D01*
X-8344000Y8669000D01*
X-8341000Y8627000D01*
X-8340000Y8585000D01*
X-8341000Y8543000D01*
X-8344000Y8501000D01*
X-8350000Y8460000D01*
X-8357000Y8419000D01*
X-8367000Y8378000D01*
X-8379000Y8338000D01*
X-8393000Y8298000D01*
X-8409000Y8260000D01*
X-8427000Y8222000D01*
X-8447000Y8185000D01*
X-8469000Y8149000D01*
X-8493000Y8115000D01*
X-8518000Y8082000D01*
X-8545000Y8050000D01*
X-8574000Y8019000D01*
X-8605000Y7990000D01*
X-8637000Y7963000D01*
X-8670000Y7938000D01*
X-8704000Y7914000D01*
X-8740000Y7892000D01*
X-8777000Y7872000D01*
X-8815000Y7854000D01*
X-8853000Y7838000D01*
X-8893000Y7824000D01*
X-8933000Y7812000D01*
X-8974000Y7802000D01*
X-9015000Y7795000D01*
X-9056000Y7789000D01*
X-9098000Y7786000D01*
X-9140000Y7785000D01*
X-11540000Y7785000D01*
X-11540000Y9385000D01*
X-9140000Y9385000D01*
X-9098000Y9384000D01*
G36*
X-9098000Y9384000D02*
G01*
X-9056000Y9381000D01*
X-9015000Y9375000D01*
X-8974000Y9368000D01*
X-8933000Y9358000D01*
X-8893000Y9346000D01*
X-8853000Y9332000D01*
X-8815000Y9316000D01*
X-8777000Y9298000D01*
X-8740000Y9278000D01*
X-8704000Y9256000D01*
X-8670000Y9232000D01*
X-8637000Y9207000D01*
X-8605000Y9180000D01*
X-8574000Y9151000D01*
X-8545000Y9120000D01*
X-8518000Y9088000D01*
X-8493000Y9055000D01*
X-8469000Y9021000D01*
X-8447000Y8985000D01*
X-8427000Y8948000D01*
X-8409000Y8910000D01*
X-8393000Y8872000D01*
X-8379000Y8832000D01*
X-8367000Y8792000D01*
X-8357000Y8751000D01*
X-8350000Y8710000D01*
X-8344000Y8669000D01*
X-8341000Y8627000D01*
X-8340000Y8585000D01*
X-8341000Y8543000D01*
X-8344000Y8501000D01*
X-8350000Y8460000D01*
X-8357000Y8419000D01*
X-8367000Y8378000D01*
X-8379000Y8338000D01*
X-8393000Y8298000D01*
X-8409000Y8260000D01*
X-8427000Y8222000D01*
X-8447000Y8185000D01*
X-8469000Y8149000D01*
X-8493000Y8115000D01*
X-8518000Y8082000D01*
X-8545000Y8050000D01*
X-8574000Y8019000D01*
X-8605000Y7990000D01*
X-8637000Y7963000D01*
X-8670000Y7938000D01*
X-8704000Y7914000D01*
X-8740000Y7892000D01*
X-8777000Y7872000D01*
X-8815000Y7854000D01*
X-8853000Y7838000D01*
X-8893000Y7824000D01*
X-8933000Y7812000D01*
X-8974000Y7802000D01*
X-9015000Y7795000D01*
X-9056000Y7789000D01*
X-9098000Y7786000D01*
X-9140000Y7785000D01*
X-11540000Y7785000D01*
X-11540000Y9385000D01*
X-9140000Y9385000D01*
X-9098000Y9384000D01*
G37*
X-9098000Y14464000D02*
X-9056000Y14461000D01*
X-9015000Y14455000D01*
X-8974000Y14448000D01*
X-8933000Y14438000D01*
X-8893000Y14426000D01*
X-8853000Y14412000D01*
X-8815000Y14396000D01*
X-8777000Y14378000D01*
X-8740000Y14358000D01*
X-8704000Y14336000D01*
X-8670000Y14312000D01*
X-8637000Y14287000D01*
X-8605000Y14260000D01*
X-8574000Y14231000D01*
X-8545000Y14200000D01*
X-8518000Y14168000D01*
X-8493000Y14135000D01*
X-8469000Y14101000D01*
X-8447000Y14065000D01*
X-8427000Y14028000D01*
X-8409000Y13990000D01*
X-8393000Y13952000D01*
X-8379000Y13912000D01*
X-8367000Y13872000D01*
X-8357000Y13831000D01*
X-8350000Y13790000D01*
X-8344000Y13749000D01*
X-8341000Y13707000D01*
X-8340000Y13665000D01*
X-8341000Y13623000D01*
X-8344000Y13581000D01*
X-8350000Y13540000D01*
X-8357000Y13499000D01*
X-8367000Y13458000D01*
X-8379000Y13418000D01*
X-8393000Y13378000D01*
X-8409000Y13340000D01*
X-8427000Y13302000D01*
X-8447000Y13265000D01*
X-8469000Y13229000D01*
X-8493000Y13195000D01*
X-8518000Y13162000D01*
X-8545000Y13130000D01*
X-8574000Y13099000D01*
X-8605000Y13070000D01*
X-8637000Y13043000D01*
X-8670000Y13018000D01*
X-8704000Y12994000D01*
X-8740000Y12972000D01*
X-8777000Y12952000D01*
X-8815000Y12934000D01*
X-8853000Y12918000D01*
X-8893000Y12904000D01*
X-8933000Y12892000D01*
X-8974000Y12882000D01*
X-9015000Y12875000D01*
X-9056000Y12869000D01*
X-9098000Y12866000D01*
X-9140000Y12865000D01*
X-11540000Y12865000D01*
X-11540000Y14465000D01*
X-9140000Y14465000D01*
X-9098000Y14464000D01*
G36*
X-9098000Y14464000D02*
G01*
X-9056000Y14461000D01*
X-9015000Y14455000D01*
X-8974000Y14448000D01*
X-8933000Y14438000D01*
X-8893000Y14426000D01*
X-8853000Y14412000D01*
X-8815000Y14396000D01*
X-8777000Y14378000D01*
X-8740000Y14358000D01*
X-8704000Y14336000D01*
X-8670000Y14312000D01*
X-8637000Y14287000D01*
X-8605000Y14260000D01*
X-8574000Y14231000D01*
X-8545000Y14200000D01*
X-8518000Y14168000D01*
X-8493000Y14135000D01*
X-8469000Y14101000D01*
X-8447000Y14065000D01*
X-8427000Y14028000D01*
X-8409000Y13990000D01*
X-8393000Y13952000D01*
X-8379000Y13912000D01*
X-8367000Y13872000D01*
X-8357000Y13831000D01*
X-8350000Y13790000D01*
X-8344000Y13749000D01*
X-8341000Y13707000D01*
X-8340000Y13665000D01*
X-8341000Y13623000D01*
X-8344000Y13581000D01*
X-8350000Y13540000D01*
X-8357000Y13499000D01*
X-8367000Y13458000D01*
X-8379000Y13418000D01*
X-8393000Y13378000D01*
X-8409000Y13340000D01*
X-8427000Y13302000D01*
X-8447000Y13265000D01*
X-8469000Y13229000D01*
X-8493000Y13195000D01*
X-8518000Y13162000D01*
X-8545000Y13130000D01*
X-8574000Y13099000D01*
X-8605000Y13070000D01*
X-8637000Y13043000D01*
X-8670000Y13018000D01*
X-8704000Y12994000D01*
X-8740000Y12972000D01*
X-8777000Y12952000D01*
X-8815000Y12934000D01*
X-8853000Y12918000D01*
X-8893000Y12904000D01*
X-8933000Y12892000D01*
X-8974000Y12882000D01*
X-9015000Y12875000D01*
X-9056000Y12869000D01*
X-9098000Y12866000D01*
X-9140000Y12865000D01*
X-11540000Y12865000D01*
X-11540000Y14465000D01*
X-9140000Y14465000D01*
X-9098000Y14464000D01*
G37*
X-9098000Y17004000D02*
X-9056000Y17001000D01*
X-9015000Y16995000D01*
X-8974000Y16988000D01*
X-8933000Y16978000D01*
X-8893000Y16966000D01*
X-8853000Y16952000D01*
X-8815000Y16936000D01*
X-8777000Y16918000D01*
X-8740000Y16898000D01*
X-8704000Y16876000D01*
X-8670000Y16852000D01*
X-8637000Y16827000D01*
X-8605000Y16800000D01*
X-8574000Y16771000D01*
X-8545000Y16740000D01*
X-8518000Y16708000D01*
X-8493000Y16675000D01*
X-8469000Y16641000D01*
X-8447000Y16605000D01*
X-8427000Y16568000D01*
X-8409000Y16530000D01*
X-8393000Y16492000D01*
X-8379000Y16452000D01*
X-8367000Y16412000D01*
X-8357000Y16371000D01*
X-8350000Y16330000D01*
X-8344000Y16289000D01*
X-8341000Y16247000D01*
X-8340000Y16205000D01*
X-8341000Y16163000D01*
X-8344000Y16121000D01*
X-8350000Y16080000D01*
X-8357000Y16039000D01*
X-8367000Y15998000D01*
X-8379000Y15958000D01*
X-8393000Y15918000D01*
X-8409000Y15880000D01*
X-8427000Y15842000D01*
X-8447000Y15805000D01*
X-8469000Y15769000D01*
X-8493000Y15735000D01*
X-8518000Y15702000D01*
X-8545000Y15670000D01*
X-8574000Y15639000D01*
X-8605000Y15610000D01*
X-8637000Y15583000D01*
X-8670000Y15558000D01*
X-8704000Y15534000D01*
X-8740000Y15512000D01*
X-8777000Y15492000D01*
X-8815000Y15474000D01*
X-8853000Y15458000D01*
X-8893000Y15444000D01*
X-8933000Y15432000D01*
X-8974000Y15422000D01*
X-9015000Y15415000D01*
X-9056000Y15409000D01*
X-9098000Y15406000D01*
X-9140000Y15405000D01*
X-11540000Y15405000D01*
X-11540000Y17005000D01*
X-9140000Y17005000D01*
X-9098000Y17004000D01*
G36*
X-9098000Y17004000D02*
G01*
X-9056000Y17001000D01*
X-9015000Y16995000D01*
X-8974000Y16988000D01*
X-8933000Y16978000D01*
X-8893000Y16966000D01*
X-8853000Y16952000D01*
X-8815000Y16936000D01*
X-8777000Y16918000D01*
X-8740000Y16898000D01*
X-8704000Y16876000D01*
X-8670000Y16852000D01*
X-8637000Y16827000D01*
X-8605000Y16800000D01*
X-8574000Y16771000D01*
X-8545000Y16740000D01*
X-8518000Y16708000D01*
X-8493000Y16675000D01*
X-8469000Y16641000D01*
X-8447000Y16605000D01*
X-8427000Y16568000D01*
X-8409000Y16530000D01*
X-8393000Y16492000D01*
X-8379000Y16452000D01*
X-8367000Y16412000D01*
X-8357000Y16371000D01*
X-8350000Y16330000D01*
X-8344000Y16289000D01*
X-8341000Y16247000D01*
X-8340000Y16205000D01*
X-8341000Y16163000D01*
X-8344000Y16121000D01*
X-8350000Y16080000D01*
X-8357000Y16039000D01*
X-8367000Y15998000D01*
X-8379000Y15958000D01*
X-8393000Y15918000D01*
X-8409000Y15880000D01*
X-8427000Y15842000D01*
X-8447000Y15805000D01*
X-8469000Y15769000D01*
X-8493000Y15735000D01*
X-8518000Y15702000D01*
X-8545000Y15670000D01*
X-8574000Y15639000D01*
X-8605000Y15610000D01*
X-8637000Y15583000D01*
X-8670000Y15558000D01*
X-8704000Y15534000D01*
X-8740000Y15512000D01*
X-8777000Y15492000D01*
X-8815000Y15474000D01*
X-8853000Y15458000D01*
X-8893000Y15444000D01*
X-8933000Y15432000D01*
X-8974000Y15422000D01*
X-9015000Y15415000D01*
X-9056000Y15409000D01*
X-9098000Y15406000D01*
X-9140000Y15405000D01*
X-11540000Y15405000D01*
X-11540000Y17005000D01*
X-9140000Y17005000D01*
X-9098000Y17004000D01*
G37*
X-9098000Y19544000D02*
X-9056000Y19541000D01*
X-9015000Y19535000D01*
X-8974000Y19528000D01*
X-8933000Y19518000D01*
X-8893000Y19506000D01*
X-8853000Y19492000D01*
X-8815000Y19476000D01*
X-8777000Y19458000D01*
X-8740000Y19438000D01*
X-8704000Y19416000D01*
X-8670000Y19392000D01*
X-8637000Y19367000D01*
X-8605000Y19340000D01*
X-8574000Y19311000D01*
X-8545000Y19280000D01*
X-8518000Y19248000D01*
X-8493000Y19215000D01*
X-8469000Y19181000D01*
X-8447000Y19145000D01*
X-8427000Y19108000D01*
X-8409000Y19070000D01*
X-8393000Y19032000D01*
X-8379000Y18992000D01*
X-8367000Y18952000D01*
X-8357000Y18911000D01*
X-8350000Y18870000D01*
X-8344000Y18829000D01*
X-8341000Y18787000D01*
X-8340000Y18745000D01*
X-8341000Y18703000D01*
X-8344000Y18661000D01*
X-8350000Y18620000D01*
X-8357000Y18579000D01*
X-8367000Y18538000D01*
X-8379000Y18498000D01*
X-8393000Y18458000D01*
X-8409000Y18420000D01*
X-8427000Y18382000D01*
X-8447000Y18345000D01*
X-8469000Y18309000D01*
X-8493000Y18275000D01*
X-8518000Y18242000D01*
X-8545000Y18210000D01*
X-8574000Y18179000D01*
X-8605000Y18150000D01*
X-8637000Y18123000D01*
X-8670000Y18098000D01*
X-8704000Y18074000D01*
X-8740000Y18052000D01*
X-8777000Y18032000D01*
X-8815000Y18014000D01*
X-8853000Y17998000D01*
X-8893000Y17984000D01*
X-8933000Y17972000D01*
X-8974000Y17962000D01*
X-9015000Y17955000D01*
X-9056000Y17949000D01*
X-9098000Y17946000D01*
X-9140000Y17945000D01*
X-11540000Y17945000D01*
X-11540000Y19545000D01*
X-9140000Y19545000D01*
X-9098000Y19544000D01*
G36*
X-9098000Y19544000D02*
G01*
X-9056000Y19541000D01*
X-9015000Y19535000D01*
X-8974000Y19528000D01*
X-8933000Y19518000D01*
X-8893000Y19506000D01*
X-8853000Y19492000D01*
X-8815000Y19476000D01*
X-8777000Y19458000D01*
X-8740000Y19438000D01*
X-8704000Y19416000D01*
X-8670000Y19392000D01*
X-8637000Y19367000D01*
X-8605000Y19340000D01*
X-8574000Y19311000D01*
X-8545000Y19280000D01*
X-8518000Y19248000D01*
X-8493000Y19215000D01*
X-8469000Y19181000D01*
X-8447000Y19145000D01*
X-8427000Y19108000D01*
X-8409000Y19070000D01*
X-8393000Y19032000D01*
X-8379000Y18992000D01*
X-8367000Y18952000D01*
X-8357000Y18911000D01*
X-8350000Y18870000D01*
X-8344000Y18829000D01*
X-8341000Y18787000D01*
X-8340000Y18745000D01*
X-8341000Y18703000D01*
X-8344000Y18661000D01*
X-8350000Y18620000D01*
X-8357000Y18579000D01*
X-8367000Y18538000D01*
X-8379000Y18498000D01*
X-8393000Y18458000D01*
X-8409000Y18420000D01*
X-8427000Y18382000D01*
X-8447000Y18345000D01*
X-8469000Y18309000D01*
X-8493000Y18275000D01*
X-8518000Y18242000D01*
X-8545000Y18210000D01*
X-8574000Y18179000D01*
X-8605000Y18150000D01*
X-8637000Y18123000D01*
X-8670000Y18098000D01*
X-8704000Y18074000D01*
X-8740000Y18052000D01*
X-8777000Y18032000D01*
X-8815000Y18014000D01*
X-8853000Y17998000D01*
X-8893000Y17984000D01*
X-8933000Y17972000D01*
X-8974000Y17962000D01*
X-9015000Y17955000D01*
X-9056000Y17949000D01*
X-9098000Y17946000D01*
X-9140000Y17945000D01*
X-11540000Y17945000D01*
X-11540000Y19545000D01*
X-9140000Y19545000D01*
X-9098000Y19544000D01*
G37*
X-9098000Y22084000D02*
X-9056000Y22081000D01*
X-9015000Y22075000D01*
X-8974000Y22068000D01*
X-8933000Y22058000D01*
X-8893000Y22046000D01*
X-8853000Y22032000D01*
X-8815000Y22016000D01*
X-8777000Y21998000D01*
X-8740000Y21978000D01*
X-8704000Y21956000D01*
X-8670000Y21932000D01*
X-8637000Y21907000D01*
X-8605000Y21880000D01*
X-8574000Y21851000D01*
X-8545000Y21820000D01*
X-8518000Y21788000D01*
X-8493000Y21755000D01*
X-8469000Y21721000D01*
X-8447000Y21685000D01*
X-8427000Y21648000D01*
X-8409000Y21610000D01*
X-8393000Y21572000D01*
X-8379000Y21532000D01*
X-8367000Y21492000D01*
X-8357000Y21451000D01*
X-8350000Y21410000D01*
X-8344000Y21369000D01*
X-8341000Y21327000D01*
X-8340000Y21285000D01*
X-8341000Y21243000D01*
X-8344000Y21201000D01*
X-8350000Y21160000D01*
X-8357000Y21119000D01*
X-8367000Y21078000D01*
X-8379000Y21038000D01*
X-8393000Y20998000D01*
X-8409000Y20960000D01*
X-8427000Y20922000D01*
X-8447000Y20885000D01*
X-8469000Y20849000D01*
X-8493000Y20815000D01*
X-8518000Y20782000D01*
X-8545000Y20750000D01*
X-8574000Y20719000D01*
X-8605000Y20690000D01*
X-8637000Y20663000D01*
X-8670000Y20638000D01*
X-8704000Y20614000D01*
X-8740000Y20592000D01*
X-8777000Y20572000D01*
X-8815000Y20554000D01*
X-8853000Y20538000D01*
X-8893000Y20524000D01*
X-8933000Y20512000D01*
X-8974000Y20502000D01*
X-9015000Y20495000D01*
X-9056000Y20489000D01*
X-9098000Y20486000D01*
X-9140000Y20485000D01*
X-11540000Y20485000D01*
X-11540000Y22085000D01*
X-9140000Y22085000D01*
X-9098000Y22084000D01*
G36*
X-9098000Y22084000D02*
G01*
X-9056000Y22081000D01*
X-9015000Y22075000D01*
X-8974000Y22068000D01*
X-8933000Y22058000D01*
X-8893000Y22046000D01*
X-8853000Y22032000D01*
X-8815000Y22016000D01*
X-8777000Y21998000D01*
X-8740000Y21978000D01*
X-8704000Y21956000D01*
X-8670000Y21932000D01*
X-8637000Y21907000D01*
X-8605000Y21880000D01*
X-8574000Y21851000D01*
X-8545000Y21820000D01*
X-8518000Y21788000D01*
X-8493000Y21755000D01*
X-8469000Y21721000D01*
X-8447000Y21685000D01*
X-8427000Y21648000D01*
X-8409000Y21610000D01*
X-8393000Y21572000D01*
X-8379000Y21532000D01*
X-8367000Y21492000D01*
X-8357000Y21451000D01*
X-8350000Y21410000D01*
X-8344000Y21369000D01*
X-8341000Y21327000D01*
X-8340000Y21285000D01*
X-8341000Y21243000D01*
X-8344000Y21201000D01*
X-8350000Y21160000D01*
X-8357000Y21119000D01*
X-8367000Y21078000D01*
X-8379000Y21038000D01*
X-8393000Y20998000D01*
X-8409000Y20960000D01*
X-8427000Y20922000D01*
X-8447000Y20885000D01*
X-8469000Y20849000D01*
X-8493000Y20815000D01*
X-8518000Y20782000D01*
X-8545000Y20750000D01*
X-8574000Y20719000D01*
X-8605000Y20690000D01*
X-8637000Y20663000D01*
X-8670000Y20638000D01*
X-8704000Y20614000D01*
X-8740000Y20592000D01*
X-8777000Y20572000D01*
X-8815000Y20554000D01*
X-8853000Y20538000D01*
X-8893000Y20524000D01*
X-8933000Y20512000D01*
X-8974000Y20502000D01*
X-9015000Y20495000D01*
X-9056000Y20489000D01*
X-9098000Y20486000D01*
X-9140000Y20485000D01*
X-11540000Y20485000D01*
X-11540000Y22085000D01*
X-9140000Y22085000D01*
X-9098000Y22084000D01*
G37*
X-9098000Y27164000D02*
X-9056000Y27161000D01*
X-9015000Y27155000D01*
X-8974000Y27148000D01*
X-8933000Y27138000D01*
X-8893000Y27126000D01*
X-8853000Y27112000D01*
X-8815000Y27096000D01*
X-8777000Y27078000D01*
X-8740000Y27058000D01*
X-8704000Y27036000D01*
X-8670000Y27012000D01*
X-8637000Y26987000D01*
X-8605000Y26960000D01*
X-8574000Y26931000D01*
X-8545000Y26900000D01*
X-8518000Y26868000D01*
X-8493000Y26835000D01*
X-8469000Y26801000D01*
X-8447000Y26765000D01*
X-8427000Y26728000D01*
X-8409000Y26690000D01*
X-8393000Y26652000D01*
X-8379000Y26612000D01*
X-8367000Y26572000D01*
X-8357000Y26531000D01*
X-8350000Y26490000D01*
X-8344000Y26449000D01*
X-8341000Y26407000D01*
X-8340000Y26365000D01*
X-8341000Y26323000D01*
X-8344000Y26281000D01*
X-8350000Y26240000D01*
X-8357000Y26199000D01*
X-8367000Y26158000D01*
X-8379000Y26118000D01*
X-8393000Y26078000D01*
X-8409000Y26040000D01*
X-8427000Y26002000D01*
X-8447000Y25965000D01*
X-8469000Y25929000D01*
X-8493000Y25895000D01*
X-8518000Y25862000D01*
X-8545000Y25830000D01*
X-8574000Y25799000D01*
X-8605000Y25770000D01*
X-8637000Y25743000D01*
X-8670000Y25718000D01*
X-8704000Y25694000D01*
X-8740000Y25672000D01*
X-8777000Y25652000D01*
X-8815000Y25634000D01*
X-8853000Y25618000D01*
X-8893000Y25604000D01*
X-8933000Y25592000D01*
X-8974000Y25582000D01*
X-9015000Y25575000D01*
X-9056000Y25569000D01*
X-9098000Y25566000D01*
X-9140000Y25565000D01*
X-11540000Y25565000D01*
X-11540000Y27165000D01*
X-9140000Y27165000D01*
X-9098000Y27164000D01*
G36*
X-9098000Y27164000D02*
G01*
X-9056000Y27161000D01*
X-9015000Y27155000D01*
X-8974000Y27148000D01*
X-8933000Y27138000D01*
X-8893000Y27126000D01*
X-8853000Y27112000D01*
X-8815000Y27096000D01*
X-8777000Y27078000D01*
X-8740000Y27058000D01*
X-8704000Y27036000D01*
X-8670000Y27012000D01*
X-8637000Y26987000D01*
X-8605000Y26960000D01*
X-8574000Y26931000D01*
X-8545000Y26900000D01*
X-8518000Y26868000D01*
X-8493000Y26835000D01*
X-8469000Y26801000D01*
X-8447000Y26765000D01*
X-8427000Y26728000D01*
X-8409000Y26690000D01*
X-8393000Y26652000D01*
X-8379000Y26612000D01*
X-8367000Y26572000D01*
X-8357000Y26531000D01*
X-8350000Y26490000D01*
X-8344000Y26449000D01*
X-8341000Y26407000D01*
X-8340000Y26365000D01*
X-8341000Y26323000D01*
X-8344000Y26281000D01*
X-8350000Y26240000D01*
X-8357000Y26199000D01*
X-8367000Y26158000D01*
X-8379000Y26118000D01*
X-8393000Y26078000D01*
X-8409000Y26040000D01*
X-8427000Y26002000D01*
X-8447000Y25965000D01*
X-8469000Y25929000D01*
X-8493000Y25895000D01*
X-8518000Y25862000D01*
X-8545000Y25830000D01*
X-8574000Y25799000D01*
X-8605000Y25770000D01*
X-8637000Y25743000D01*
X-8670000Y25718000D01*
X-8704000Y25694000D01*
X-8740000Y25672000D01*
X-8777000Y25652000D01*
X-8815000Y25634000D01*
X-8853000Y25618000D01*
X-8893000Y25604000D01*
X-8933000Y25592000D01*
X-8974000Y25582000D01*
X-9015000Y25575000D01*
X-9056000Y25569000D01*
X-9098000Y25566000D01*
X-9140000Y25565000D01*
X-11540000Y25565000D01*
X-11540000Y27165000D01*
X-9140000Y27165000D01*
X-9098000Y27164000D01*
G37*
X-9098000Y29704000D02*
X-9056000Y29701000D01*
X-9015000Y29695000D01*
X-8974000Y29688000D01*
X-8933000Y29678000D01*
X-8893000Y29666000D01*
X-8853000Y29652000D01*
X-8815000Y29636000D01*
X-8777000Y29618000D01*
X-8740000Y29598000D01*
X-8704000Y29576000D01*
X-8670000Y29552000D01*
X-8637000Y29527000D01*
X-8605000Y29500000D01*
X-8574000Y29471000D01*
X-8545000Y29440000D01*
X-8518000Y29408000D01*
X-8493000Y29375000D01*
X-8469000Y29341000D01*
X-8447000Y29305000D01*
X-8427000Y29268000D01*
X-8409000Y29230000D01*
X-8393000Y29192000D01*
X-8379000Y29152000D01*
X-8367000Y29112000D01*
X-8357000Y29071000D01*
X-8350000Y29030000D01*
X-8344000Y28989000D01*
X-8341000Y28947000D01*
X-8340000Y28905000D01*
X-8341000Y28863000D01*
X-8344000Y28821000D01*
X-8350000Y28780000D01*
X-8357000Y28739000D01*
X-8367000Y28698000D01*
X-8379000Y28658000D01*
X-8393000Y28618000D01*
X-8409000Y28580000D01*
X-8427000Y28542000D01*
X-8447000Y28505000D01*
X-8469000Y28469000D01*
X-8493000Y28435000D01*
X-8518000Y28402000D01*
X-8545000Y28370000D01*
X-8574000Y28339000D01*
X-8605000Y28310000D01*
X-8637000Y28283000D01*
X-8670000Y28258000D01*
X-8704000Y28234000D01*
X-8740000Y28212000D01*
X-8777000Y28192000D01*
X-8815000Y28174000D01*
X-8853000Y28158000D01*
X-8893000Y28144000D01*
X-8933000Y28132000D01*
X-8974000Y28122000D01*
X-9015000Y28115000D01*
X-9056000Y28109000D01*
X-9098000Y28106000D01*
X-9140000Y28105000D01*
X-11540000Y28105000D01*
X-11540000Y29705000D01*
X-9140000Y29705000D01*
X-9098000Y29704000D01*
G36*
X-9098000Y29704000D02*
G01*
X-9056000Y29701000D01*
X-9015000Y29695000D01*
X-8974000Y29688000D01*
X-8933000Y29678000D01*
X-8893000Y29666000D01*
X-8853000Y29652000D01*
X-8815000Y29636000D01*
X-8777000Y29618000D01*
X-8740000Y29598000D01*
X-8704000Y29576000D01*
X-8670000Y29552000D01*
X-8637000Y29527000D01*
X-8605000Y29500000D01*
X-8574000Y29471000D01*
X-8545000Y29440000D01*
X-8518000Y29408000D01*
X-8493000Y29375000D01*
X-8469000Y29341000D01*
X-8447000Y29305000D01*
X-8427000Y29268000D01*
X-8409000Y29230000D01*
X-8393000Y29192000D01*
X-8379000Y29152000D01*
X-8367000Y29112000D01*
X-8357000Y29071000D01*
X-8350000Y29030000D01*
X-8344000Y28989000D01*
X-8341000Y28947000D01*
X-8340000Y28905000D01*
X-8341000Y28863000D01*
X-8344000Y28821000D01*
X-8350000Y28780000D01*
X-8357000Y28739000D01*
X-8367000Y28698000D01*
X-8379000Y28658000D01*
X-8393000Y28618000D01*
X-8409000Y28580000D01*
X-8427000Y28542000D01*
X-8447000Y28505000D01*
X-8469000Y28469000D01*
X-8493000Y28435000D01*
X-8518000Y28402000D01*
X-8545000Y28370000D01*
X-8574000Y28339000D01*
X-8605000Y28310000D01*
X-8637000Y28283000D01*
X-8670000Y28258000D01*
X-8704000Y28234000D01*
X-8740000Y28212000D01*
X-8777000Y28192000D01*
X-8815000Y28174000D01*
X-8853000Y28158000D01*
X-8893000Y28144000D01*
X-8933000Y28132000D01*
X-8974000Y28122000D01*
X-9015000Y28115000D01*
X-9056000Y28109000D01*
X-9098000Y28106000D01*
X-9140000Y28105000D01*
X-11540000Y28105000D01*
X-11540000Y29705000D01*
X-9140000Y29705000D01*
X-9098000Y29704000D01*
G37*
X-9098000Y32244000D02*
X-9056000Y32241000D01*
X-9015000Y32235000D01*
X-8974000Y32228000D01*
X-8933000Y32218000D01*
X-8893000Y32206000D01*
X-8853000Y32192000D01*
X-8815000Y32176000D01*
X-8777000Y32158000D01*
X-8740000Y32138000D01*
X-8704000Y32116000D01*
X-8670000Y32092000D01*
X-8637000Y32067000D01*
X-8605000Y32040000D01*
X-8574000Y32011000D01*
X-8545000Y31980000D01*
X-8518000Y31948000D01*
X-8493000Y31915000D01*
X-8469000Y31881000D01*
X-8447000Y31845000D01*
X-8427000Y31808000D01*
X-8409000Y31770000D01*
X-8393000Y31732000D01*
X-8379000Y31692000D01*
X-8367000Y31652000D01*
X-8357000Y31611000D01*
X-8350000Y31570000D01*
X-8344000Y31529000D01*
X-8341000Y31487000D01*
X-8340000Y31445000D01*
X-8341000Y31403000D01*
X-8344000Y31361000D01*
X-8350000Y31320000D01*
X-8357000Y31279000D01*
X-8367000Y31238000D01*
X-8379000Y31198000D01*
X-8393000Y31158000D01*
X-8409000Y31120000D01*
X-8427000Y31082000D01*
X-8447000Y31045000D01*
X-8469000Y31009000D01*
X-8493000Y30975000D01*
X-8518000Y30942000D01*
X-8545000Y30910000D01*
X-8574000Y30879000D01*
X-8605000Y30850000D01*
X-8637000Y30823000D01*
X-8670000Y30798000D01*
X-8704000Y30774000D01*
X-8740000Y30752000D01*
X-8777000Y30732000D01*
X-8815000Y30714000D01*
X-8853000Y30698000D01*
X-8893000Y30684000D01*
X-8933000Y30672000D01*
X-8974000Y30662000D01*
X-9015000Y30655000D01*
X-9056000Y30649000D01*
X-9098000Y30646000D01*
X-9140000Y30645000D01*
X-11540000Y30645000D01*
X-11540000Y32245000D01*
X-9140000Y32245000D01*
X-9098000Y32244000D01*
G36*
X-9098000Y32244000D02*
G01*
X-9056000Y32241000D01*
X-9015000Y32235000D01*
X-8974000Y32228000D01*
X-8933000Y32218000D01*
X-8893000Y32206000D01*
X-8853000Y32192000D01*
X-8815000Y32176000D01*
X-8777000Y32158000D01*
X-8740000Y32138000D01*
X-8704000Y32116000D01*
X-8670000Y32092000D01*
X-8637000Y32067000D01*
X-8605000Y32040000D01*
X-8574000Y32011000D01*
X-8545000Y31980000D01*
X-8518000Y31948000D01*
X-8493000Y31915000D01*
X-8469000Y31881000D01*
X-8447000Y31845000D01*
X-8427000Y31808000D01*
X-8409000Y31770000D01*
X-8393000Y31732000D01*
X-8379000Y31692000D01*
X-8367000Y31652000D01*
X-8357000Y31611000D01*
X-8350000Y31570000D01*
X-8344000Y31529000D01*
X-8341000Y31487000D01*
X-8340000Y31445000D01*
X-8341000Y31403000D01*
X-8344000Y31361000D01*
X-8350000Y31320000D01*
X-8357000Y31279000D01*
X-8367000Y31238000D01*
X-8379000Y31198000D01*
X-8393000Y31158000D01*
X-8409000Y31120000D01*
X-8427000Y31082000D01*
X-8447000Y31045000D01*
X-8469000Y31009000D01*
X-8493000Y30975000D01*
X-8518000Y30942000D01*
X-8545000Y30910000D01*
X-8574000Y30879000D01*
X-8605000Y30850000D01*
X-8637000Y30823000D01*
X-8670000Y30798000D01*
X-8704000Y30774000D01*
X-8740000Y30752000D01*
X-8777000Y30732000D01*
X-8815000Y30714000D01*
X-8853000Y30698000D01*
X-8893000Y30684000D01*
X-8933000Y30672000D01*
X-8974000Y30662000D01*
X-9015000Y30655000D01*
X-9056000Y30649000D01*
X-9098000Y30646000D01*
X-9140000Y30645000D01*
X-11540000Y30645000D01*
X-11540000Y32245000D01*
X-9140000Y32245000D01*
X-9098000Y32244000D01*
G37*
X-9098000Y34784000D02*
X-9056000Y34781000D01*
X-9015000Y34775000D01*
X-8974000Y34768000D01*
X-8933000Y34758000D01*
X-8893000Y34746000D01*
X-8853000Y34732000D01*
X-8815000Y34716000D01*
X-8777000Y34698000D01*
X-8740000Y34678000D01*
X-8704000Y34656000D01*
X-8670000Y34632000D01*
X-8637000Y34607000D01*
X-8605000Y34580000D01*
X-8574000Y34551000D01*
X-8545000Y34520000D01*
X-8518000Y34488000D01*
X-8493000Y34455000D01*
X-8469000Y34421000D01*
X-8447000Y34385000D01*
X-8427000Y34348000D01*
X-8409000Y34310000D01*
X-8393000Y34272000D01*
X-8379000Y34232000D01*
X-8367000Y34192000D01*
X-8357000Y34151000D01*
X-8350000Y34110000D01*
X-8344000Y34069000D01*
X-8341000Y34027000D01*
X-8340000Y33985000D01*
X-8341000Y33943000D01*
X-8344000Y33901000D01*
X-8350000Y33860000D01*
X-8357000Y33819000D01*
X-8367000Y33778000D01*
X-8379000Y33738000D01*
X-8393000Y33698000D01*
X-8409000Y33660000D01*
X-8427000Y33622000D01*
X-8447000Y33585000D01*
X-8469000Y33549000D01*
X-8493000Y33515000D01*
X-8518000Y33482000D01*
X-8545000Y33450000D01*
X-8574000Y33419000D01*
X-8605000Y33390000D01*
X-8637000Y33363000D01*
X-8670000Y33338000D01*
X-8704000Y33314000D01*
X-8740000Y33292000D01*
X-8777000Y33272000D01*
X-8815000Y33254000D01*
X-8853000Y33238000D01*
X-8893000Y33224000D01*
X-8933000Y33212000D01*
X-8974000Y33202000D01*
X-9015000Y33195000D01*
X-9056000Y33189000D01*
X-9098000Y33186000D01*
X-9140000Y33185000D01*
X-11540000Y33185000D01*
X-11540000Y34785000D01*
X-9140000Y34785000D01*
X-9098000Y34784000D01*
G36*
X-9098000Y34784000D02*
G01*
X-9056000Y34781000D01*
X-9015000Y34775000D01*
X-8974000Y34768000D01*
X-8933000Y34758000D01*
X-8893000Y34746000D01*
X-8853000Y34732000D01*
X-8815000Y34716000D01*
X-8777000Y34698000D01*
X-8740000Y34678000D01*
X-8704000Y34656000D01*
X-8670000Y34632000D01*
X-8637000Y34607000D01*
X-8605000Y34580000D01*
X-8574000Y34551000D01*
X-8545000Y34520000D01*
X-8518000Y34488000D01*
X-8493000Y34455000D01*
X-8469000Y34421000D01*
X-8447000Y34385000D01*
X-8427000Y34348000D01*
X-8409000Y34310000D01*
X-8393000Y34272000D01*
X-8379000Y34232000D01*
X-8367000Y34192000D01*
X-8357000Y34151000D01*
X-8350000Y34110000D01*
X-8344000Y34069000D01*
X-8341000Y34027000D01*
X-8340000Y33985000D01*
X-8341000Y33943000D01*
X-8344000Y33901000D01*
X-8350000Y33860000D01*
X-8357000Y33819000D01*
X-8367000Y33778000D01*
X-8379000Y33738000D01*
X-8393000Y33698000D01*
X-8409000Y33660000D01*
X-8427000Y33622000D01*
X-8447000Y33585000D01*
X-8469000Y33549000D01*
X-8493000Y33515000D01*
X-8518000Y33482000D01*
X-8545000Y33450000D01*
X-8574000Y33419000D01*
X-8605000Y33390000D01*
X-8637000Y33363000D01*
X-8670000Y33338000D01*
X-8704000Y33314000D01*
X-8740000Y33292000D01*
X-8777000Y33272000D01*
X-8815000Y33254000D01*
X-8853000Y33238000D01*
X-8893000Y33224000D01*
X-8933000Y33212000D01*
X-8974000Y33202000D01*
X-9015000Y33195000D01*
X-9056000Y33189000D01*
X-9098000Y33186000D01*
X-9140000Y33185000D01*
X-11540000Y33185000D01*
X-11540000Y34785000D01*
X-9140000Y34785000D01*
X-9098000Y34784000D01*
G37*
X-9098000Y39864000D02*
X-9056000Y39861000D01*
X-9015000Y39855000D01*
X-8974000Y39848000D01*
X-8933000Y39838000D01*
X-8893000Y39826000D01*
X-8853000Y39812000D01*
X-8815000Y39796000D01*
X-8777000Y39778000D01*
X-8740000Y39758000D01*
X-8704000Y39736000D01*
X-8670000Y39712000D01*
X-8637000Y39687000D01*
X-8605000Y39660000D01*
X-8574000Y39631000D01*
X-8545000Y39600000D01*
X-8518000Y39568000D01*
X-8493000Y39535000D01*
X-8469000Y39501000D01*
X-8447000Y39465000D01*
X-8427000Y39428000D01*
X-8409000Y39390000D01*
X-8393000Y39352000D01*
X-8379000Y39312000D01*
X-8367000Y39272000D01*
X-8357000Y39231000D01*
X-8350000Y39190000D01*
X-8344000Y39149000D01*
X-8341000Y39107000D01*
X-8340000Y39065000D01*
X-8341000Y39023000D01*
X-8344000Y38981000D01*
X-8350000Y38940000D01*
X-8357000Y38899000D01*
X-8367000Y38858000D01*
X-8379000Y38818000D01*
X-8393000Y38778000D01*
X-8409000Y38740000D01*
X-8427000Y38702000D01*
X-8447000Y38665000D01*
X-8469000Y38629000D01*
X-8493000Y38595000D01*
X-8518000Y38562000D01*
X-8545000Y38530000D01*
X-8574000Y38499000D01*
X-8605000Y38470000D01*
X-8637000Y38443000D01*
X-8670000Y38418000D01*
X-8704000Y38394000D01*
X-8740000Y38372000D01*
X-8777000Y38352000D01*
X-8815000Y38334000D01*
X-8853000Y38318000D01*
X-8893000Y38304000D01*
X-8933000Y38292000D01*
X-8974000Y38282000D01*
X-9015000Y38275000D01*
X-9056000Y38269000D01*
X-9098000Y38266000D01*
X-9140000Y38265000D01*
X-11540000Y38265000D01*
X-11540000Y39865000D01*
X-9140000Y39865000D01*
X-9098000Y39864000D01*
G36*
X-9098000Y39864000D02*
G01*
X-9056000Y39861000D01*
X-9015000Y39855000D01*
X-8974000Y39848000D01*
X-8933000Y39838000D01*
X-8893000Y39826000D01*
X-8853000Y39812000D01*
X-8815000Y39796000D01*
X-8777000Y39778000D01*
X-8740000Y39758000D01*
X-8704000Y39736000D01*
X-8670000Y39712000D01*
X-8637000Y39687000D01*
X-8605000Y39660000D01*
X-8574000Y39631000D01*
X-8545000Y39600000D01*
X-8518000Y39568000D01*
X-8493000Y39535000D01*
X-8469000Y39501000D01*
X-8447000Y39465000D01*
X-8427000Y39428000D01*
X-8409000Y39390000D01*
X-8393000Y39352000D01*
X-8379000Y39312000D01*
X-8367000Y39272000D01*
X-8357000Y39231000D01*
X-8350000Y39190000D01*
X-8344000Y39149000D01*
X-8341000Y39107000D01*
X-8340000Y39065000D01*
X-8341000Y39023000D01*
X-8344000Y38981000D01*
X-8350000Y38940000D01*
X-8357000Y38899000D01*
X-8367000Y38858000D01*
X-8379000Y38818000D01*
X-8393000Y38778000D01*
X-8409000Y38740000D01*
X-8427000Y38702000D01*
X-8447000Y38665000D01*
X-8469000Y38629000D01*
X-8493000Y38595000D01*
X-8518000Y38562000D01*
X-8545000Y38530000D01*
X-8574000Y38499000D01*
X-8605000Y38470000D01*
X-8637000Y38443000D01*
X-8670000Y38418000D01*
X-8704000Y38394000D01*
X-8740000Y38372000D01*
X-8777000Y38352000D01*
X-8815000Y38334000D01*
X-8853000Y38318000D01*
X-8893000Y38304000D01*
X-8933000Y38292000D01*
X-8974000Y38282000D01*
X-9015000Y38275000D01*
X-9056000Y38269000D01*
X-9098000Y38266000D01*
X-9140000Y38265000D01*
X-11540000Y38265000D01*
X-11540000Y39865000D01*
X-9140000Y39865000D01*
X-9098000Y39864000D01*
G37*
X-9098000Y42404000D02*
X-9056000Y42401000D01*
X-9015000Y42395000D01*
X-8974000Y42388000D01*
X-8933000Y42378000D01*
X-8893000Y42366000D01*
X-8853000Y42352000D01*
X-8815000Y42336000D01*
X-8777000Y42318000D01*
X-8740000Y42298000D01*
X-8704000Y42276000D01*
X-8670000Y42252000D01*
X-8637000Y42227000D01*
X-8605000Y42200000D01*
X-8574000Y42171000D01*
X-8545000Y42140000D01*
X-8518000Y42108000D01*
X-8493000Y42075000D01*
X-8469000Y42041000D01*
X-8447000Y42005000D01*
X-8427000Y41968000D01*
X-8409000Y41930000D01*
X-8393000Y41892000D01*
X-8379000Y41852000D01*
X-8367000Y41812000D01*
X-8357000Y41771000D01*
X-8350000Y41730000D01*
X-8344000Y41689000D01*
X-8341000Y41647000D01*
X-8340000Y41605000D01*
X-8341000Y41563000D01*
X-8344000Y41521000D01*
X-8350000Y41480000D01*
X-8357000Y41439000D01*
X-8367000Y41398000D01*
X-8379000Y41358000D01*
X-8393000Y41318000D01*
X-8409000Y41280000D01*
X-8427000Y41242000D01*
X-8447000Y41205000D01*
X-8469000Y41169000D01*
X-8493000Y41135000D01*
X-8518000Y41102000D01*
X-8545000Y41070000D01*
X-8574000Y41039000D01*
X-8605000Y41010000D01*
X-8637000Y40983000D01*
X-8670000Y40958000D01*
X-8704000Y40934000D01*
X-8740000Y40912000D01*
X-8777000Y40892000D01*
X-8815000Y40874000D01*
X-8853000Y40858000D01*
X-8893000Y40844000D01*
X-8933000Y40832000D01*
X-8974000Y40822000D01*
X-9015000Y40815000D01*
X-9056000Y40809000D01*
X-9098000Y40806000D01*
X-9140000Y40805000D01*
X-11540000Y40805000D01*
X-11540000Y42405000D01*
X-9140000Y42405000D01*
X-9098000Y42404000D01*
G36*
X-9098000Y42404000D02*
G01*
X-9056000Y42401000D01*
X-9015000Y42395000D01*
X-8974000Y42388000D01*
X-8933000Y42378000D01*
X-8893000Y42366000D01*
X-8853000Y42352000D01*
X-8815000Y42336000D01*
X-8777000Y42318000D01*
X-8740000Y42298000D01*
X-8704000Y42276000D01*
X-8670000Y42252000D01*
X-8637000Y42227000D01*
X-8605000Y42200000D01*
X-8574000Y42171000D01*
X-8545000Y42140000D01*
X-8518000Y42108000D01*
X-8493000Y42075000D01*
X-8469000Y42041000D01*
X-8447000Y42005000D01*
X-8427000Y41968000D01*
X-8409000Y41930000D01*
X-8393000Y41892000D01*
X-8379000Y41852000D01*
X-8367000Y41812000D01*
X-8357000Y41771000D01*
X-8350000Y41730000D01*
X-8344000Y41689000D01*
X-8341000Y41647000D01*
X-8340000Y41605000D01*
X-8341000Y41563000D01*
X-8344000Y41521000D01*
X-8350000Y41480000D01*
X-8357000Y41439000D01*
X-8367000Y41398000D01*
X-8379000Y41358000D01*
X-8393000Y41318000D01*
X-8409000Y41280000D01*
X-8427000Y41242000D01*
X-8447000Y41205000D01*
X-8469000Y41169000D01*
X-8493000Y41135000D01*
X-8518000Y41102000D01*
X-8545000Y41070000D01*
X-8574000Y41039000D01*
X-8605000Y41010000D01*
X-8637000Y40983000D01*
X-8670000Y40958000D01*
X-8704000Y40934000D01*
X-8740000Y40912000D01*
X-8777000Y40892000D01*
X-8815000Y40874000D01*
X-8853000Y40858000D01*
X-8893000Y40844000D01*
X-8933000Y40832000D01*
X-8974000Y40822000D01*
X-9015000Y40815000D01*
X-9056000Y40809000D01*
X-9098000Y40806000D01*
X-9140000Y40805000D01*
X-11540000Y40805000D01*
X-11540000Y42405000D01*
X-9140000Y42405000D01*
X-9098000Y42404000D01*
G37*
X-9098000Y44944000D02*
X-9056000Y44941000D01*
X-9015000Y44935000D01*
X-8974000Y44928000D01*
X-8933000Y44918000D01*
X-8893000Y44906000D01*
X-8853000Y44892000D01*
X-8815000Y44876000D01*
X-8777000Y44858000D01*
X-8740000Y44838000D01*
X-8704000Y44816000D01*
X-8670000Y44792000D01*
X-8637000Y44767000D01*
X-8605000Y44740000D01*
X-8574000Y44711000D01*
X-8545000Y44680000D01*
X-8518000Y44648000D01*
X-8493000Y44615000D01*
X-8469000Y44581000D01*
X-8447000Y44545000D01*
X-8427000Y44508000D01*
X-8409000Y44470000D01*
X-8393000Y44432000D01*
X-8379000Y44392000D01*
X-8367000Y44352000D01*
X-8357000Y44311000D01*
X-8350000Y44270000D01*
X-8344000Y44229000D01*
X-8341000Y44187000D01*
X-8340000Y44145000D01*
X-8341000Y44103000D01*
X-8344000Y44061000D01*
X-8350000Y44020000D01*
X-8357000Y43979000D01*
X-8367000Y43938000D01*
X-8379000Y43898000D01*
X-8393000Y43858000D01*
X-8409000Y43820000D01*
X-8427000Y43782000D01*
X-8447000Y43745000D01*
X-8469000Y43709000D01*
X-8493000Y43675000D01*
X-8518000Y43642000D01*
X-8545000Y43610000D01*
X-8574000Y43579000D01*
X-8605000Y43550000D01*
X-8637000Y43523000D01*
X-8670000Y43498000D01*
X-8704000Y43474000D01*
X-8740000Y43452000D01*
X-8777000Y43432000D01*
X-8815000Y43414000D01*
X-8853000Y43398000D01*
X-8893000Y43384000D01*
X-8933000Y43372000D01*
X-8974000Y43362000D01*
X-9015000Y43355000D01*
X-9056000Y43349000D01*
X-9098000Y43346000D01*
X-9140000Y43345000D01*
X-11540000Y43345000D01*
X-11540000Y44945000D01*
X-9140000Y44945000D01*
X-9098000Y44944000D01*
G36*
X-9098000Y44944000D02*
G01*
X-9056000Y44941000D01*
X-9015000Y44935000D01*
X-8974000Y44928000D01*
X-8933000Y44918000D01*
X-8893000Y44906000D01*
X-8853000Y44892000D01*
X-8815000Y44876000D01*
X-8777000Y44858000D01*
X-8740000Y44838000D01*
X-8704000Y44816000D01*
X-8670000Y44792000D01*
X-8637000Y44767000D01*
X-8605000Y44740000D01*
X-8574000Y44711000D01*
X-8545000Y44680000D01*
X-8518000Y44648000D01*
X-8493000Y44615000D01*
X-8469000Y44581000D01*
X-8447000Y44545000D01*
X-8427000Y44508000D01*
X-8409000Y44470000D01*
X-8393000Y44432000D01*
X-8379000Y44392000D01*
X-8367000Y44352000D01*
X-8357000Y44311000D01*
X-8350000Y44270000D01*
X-8344000Y44229000D01*
X-8341000Y44187000D01*
X-8340000Y44145000D01*
X-8341000Y44103000D01*
X-8344000Y44061000D01*
X-8350000Y44020000D01*
X-8357000Y43979000D01*
X-8367000Y43938000D01*
X-8379000Y43898000D01*
X-8393000Y43858000D01*
X-8409000Y43820000D01*
X-8427000Y43782000D01*
X-8447000Y43745000D01*
X-8469000Y43709000D01*
X-8493000Y43675000D01*
X-8518000Y43642000D01*
X-8545000Y43610000D01*
X-8574000Y43579000D01*
X-8605000Y43550000D01*
X-8637000Y43523000D01*
X-8670000Y43498000D01*
X-8704000Y43474000D01*
X-8740000Y43452000D01*
X-8777000Y43432000D01*
X-8815000Y43414000D01*
X-8853000Y43398000D01*
X-8893000Y43384000D01*
X-8933000Y43372000D01*
X-8974000Y43362000D01*
X-9015000Y43355000D01*
X-9056000Y43349000D01*
X-9098000Y43346000D01*
X-9140000Y43345000D01*
X-11540000Y43345000D01*
X-11540000Y44945000D01*
X-9140000Y44945000D01*
X-9098000Y44944000D01*
G37*
X-9098000Y47484000D02*
X-9056000Y47481000D01*
X-9015000Y47475000D01*
X-8974000Y47468000D01*
X-8933000Y47458000D01*
X-8893000Y47446000D01*
X-8853000Y47432000D01*
X-8815000Y47416000D01*
X-8777000Y47398000D01*
X-8740000Y47378000D01*
X-8704000Y47356000D01*
X-8670000Y47332000D01*
X-8637000Y47307000D01*
X-8605000Y47280000D01*
X-8574000Y47251000D01*
X-8545000Y47220000D01*
X-8518000Y47188000D01*
X-8493000Y47155000D01*
X-8469000Y47121000D01*
X-8447000Y47085000D01*
X-8427000Y47048000D01*
X-8409000Y47010000D01*
X-8393000Y46972000D01*
X-8379000Y46932000D01*
X-8367000Y46892000D01*
X-8357000Y46851000D01*
X-8350000Y46810000D01*
X-8344000Y46769000D01*
X-8341000Y46727000D01*
X-8340000Y46685000D01*
X-8341000Y46643000D01*
X-8344000Y46601000D01*
X-8350000Y46560000D01*
X-8357000Y46519000D01*
X-8367000Y46478000D01*
X-8379000Y46438000D01*
X-8393000Y46398000D01*
X-8409000Y46360000D01*
X-8427000Y46322000D01*
X-8447000Y46285000D01*
X-8469000Y46249000D01*
X-8493000Y46215000D01*
X-8518000Y46182000D01*
X-8545000Y46150000D01*
X-8574000Y46119000D01*
X-8605000Y46090000D01*
X-8637000Y46063000D01*
X-8670000Y46038000D01*
X-8704000Y46014000D01*
X-8740000Y45992000D01*
X-8777000Y45972000D01*
X-8815000Y45954000D01*
X-8853000Y45938000D01*
X-8893000Y45924000D01*
X-8933000Y45912000D01*
X-8974000Y45902000D01*
X-9015000Y45895000D01*
X-9056000Y45889000D01*
X-9098000Y45886000D01*
X-9140000Y45885000D01*
X-11540000Y45885000D01*
X-11540000Y47485000D01*
X-9140000Y47485000D01*
X-9098000Y47484000D01*
G36*
X-9098000Y47484000D02*
G01*
X-9056000Y47481000D01*
X-9015000Y47475000D01*
X-8974000Y47468000D01*
X-8933000Y47458000D01*
X-8893000Y47446000D01*
X-8853000Y47432000D01*
X-8815000Y47416000D01*
X-8777000Y47398000D01*
X-8740000Y47378000D01*
X-8704000Y47356000D01*
X-8670000Y47332000D01*
X-8637000Y47307000D01*
X-8605000Y47280000D01*
X-8574000Y47251000D01*
X-8545000Y47220000D01*
X-8518000Y47188000D01*
X-8493000Y47155000D01*
X-8469000Y47121000D01*
X-8447000Y47085000D01*
X-8427000Y47048000D01*
X-8409000Y47010000D01*
X-8393000Y46972000D01*
X-8379000Y46932000D01*
X-8367000Y46892000D01*
X-8357000Y46851000D01*
X-8350000Y46810000D01*
X-8344000Y46769000D01*
X-8341000Y46727000D01*
X-8340000Y46685000D01*
X-8341000Y46643000D01*
X-8344000Y46601000D01*
X-8350000Y46560000D01*
X-8357000Y46519000D01*
X-8367000Y46478000D01*
X-8379000Y46438000D01*
X-8393000Y46398000D01*
X-8409000Y46360000D01*
X-8427000Y46322000D01*
X-8447000Y46285000D01*
X-8469000Y46249000D01*
X-8493000Y46215000D01*
X-8518000Y46182000D01*
X-8545000Y46150000D01*
X-8574000Y46119000D01*
X-8605000Y46090000D01*
X-8637000Y46063000D01*
X-8670000Y46038000D01*
X-8704000Y46014000D01*
X-8740000Y45992000D01*
X-8777000Y45972000D01*
X-8815000Y45954000D01*
X-8853000Y45938000D01*
X-8893000Y45924000D01*
X-8933000Y45912000D01*
X-8974000Y45902000D01*
X-9015000Y45895000D01*
X-9056000Y45889000D01*
X-9098000Y45886000D01*
X-9140000Y45885000D01*
X-11540000Y45885000D01*
X-11540000Y47485000D01*
X-9140000Y47485000D01*
X-9098000Y47484000D01*
G37*
X-9098000Y52564000D02*
X-9056000Y52561000D01*
X-9015000Y52555000D01*
X-8974000Y52548000D01*
X-8933000Y52538000D01*
X-8893000Y52526000D01*
X-8853000Y52512000D01*
X-8815000Y52496000D01*
X-8777000Y52478000D01*
X-8740000Y52458000D01*
X-8704000Y52436000D01*
X-8670000Y52412000D01*
X-8637000Y52387000D01*
X-8605000Y52360000D01*
X-8574000Y52331000D01*
X-8545000Y52300000D01*
X-8518000Y52268000D01*
X-8493000Y52235000D01*
X-8469000Y52201000D01*
X-8447000Y52165000D01*
X-8427000Y52128000D01*
X-8409000Y52090000D01*
X-8393000Y52052000D01*
X-8379000Y52012000D01*
X-8367000Y51972000D01*
X-8357000Y51931000D01*
X-8350000Y51890000D01*
X-8344000Y51849000D01*
X-8341000Y51807000D01*
X-8340000Y51765000D01*
X-8341000Y51723000D01*
X-8344000Y51681000D01*
X-8350000Y51640000D01*
X-8357000Y51599000D01*
X-8367000Y51558000D01*
X-8379000Y51518000D01*
X-8393000Y51478000D01*
X-8409000Y51440000D01*
X-8427000Y51402000D01*
X-8447000Y51365000D01*
X-8469000Y51329000D01*
X-8493000Y51295000D01*
X-8518000Y51262000D01*
X-8545000Y51230000D01*
X-8574000Y51199000D01*
X-8605000Y51170000D01*
X-8637000Y51143000D01*
X-8670000Y51118000D01*
X-8704000Y51094000D01*
X-8740000Y51072000D01*
X-8777000Y51052000D01*
X-8815000Y51034000D01*
X-8853000Y51018000D01*
X-8893000Y51004000D01*
X-8933000Y50992000D01*
X-8974000Y50982000D01*
X-9015000Y50975000D01*
X-9056000Y50969000D01*
X-9098000Y50966000D01*
X-9140000Y50965000D01*
X-11540000Y50965000D01*
X-11540000Y52565000D01*
X-9140000Y52565000D01*
X-9098000Y52564000D01*
G36*
X-9098000Y52564000D02*
G01*
X-9056000Y52561000D01*
X-9015000Y52555000D01*
X-8974000Y52548000D01*
X-8933000Y52538000D01*
X-8893000Y52526000D01*
X-8853000Y52512000D01*
X-8815000Y52496000D01*
X-8777000Y52478000D01*
X-8740000Y52458000D01*
X-8704000Y52436000D01*
X-8670000Y52412000D01*
X-8637000Y52387000D01*
X-8605000Y52360000D01*
X-8574000Y52331000D01*
X-8545000Y52300000D01*
X-8518000Y52268000D01*
X-8493000Y52235000D01*
X-8469000Y52201000D01*
X-8447000Y52165000D01*
X-8427000Y52128000D01*
X-8409000Y52090000D01*
X-8393000Y52052000D01*
X-8379000Y52012000D01*
X-8367000Y51972000D01*
X-8357000Y51931000D01*
X-8350000Y51890000D01*
X-8344000Y51849000D01*
X-8341000Y51807000D01*
X-8340000Y51765000D01*
X-8341000Y51723000D01*
X-8344000Y51681000D01*
X-8350000Y51640000D01*
X-8357000Y51599000D01*
X-8367000Y51558000D01*
X-8379000Y51518000D01*
X-8393000Y51478000D01*
X-8409000Y51440000D01*
X-8427000Y51402000D01*
X-8447000Y51365000D01*
X-8469000Y51329000D01*
X-8493000Y51295000D01*
X-8518000Y51262000D01*
X-8545000Y51230000D01*
X-8574000Y51199000D01*
X-8605000Y51170000D01*
X-8637000Y51143000D01*
X-8670000Y51118000D01*
X-8704000Y51094000D01*
X-8740000Y51072000D01*
X-8777000Y51052000D01*
X-8815000Y51034000D01*
X-8853000Y51018000D01*
X-8893000Y51004000D01*
X-8933000Y50992000D01*
X-8974000Y50982000D01*
X-9015000Y50975000D01*
X-9056000Y50969000D01*
X-9098000Y50966000D01*
X-9140000Y50965000D01*
X-11540000Y50965000D01*
X-11540000Y52565000D01*
X-9140000Y52565000D01*
X-9098000Y52564000D01*
G37*
X-9098000Y55104000D02*
X-9056000Y55101000D01*
X-9015000Y55095000D01*
X-8974000Y55088000D01*
X-8933000Y55078000D01*
X-8893000Y55066000D01*
X-8853000Y55052000D01*
X-8815000Y55036000D01*
X-8777000Y55018000D01*
X-8740000Y54998000D01*
X-8704000Y54976000D01*
X-8670000Y54952000D01*
X-8637000Y54927000D01*
X-8605000Y54900000D01*
X-8574000Y54871000D01*
X-8545000Y54840000D01*
X-8518000Y54808000D01*
X-8493000Y54775000D01*
X-8469000Y54741000D01*
X-8447000Y54705000D01*
X-8427000Y54668000D01*
X-8409000Y54630000D01*
X-8393000Y54592000D01*
X-8379000Y54552000D01*
X-8367000Y54512000D01*
X-8357000Y54471000D01*
X-8350000Y54430000D01*
X-8344000Y54389000D01*
X-8341000Y54347000D01*
X-8340000Y54305000D01*
X-8341000Y54263000D01*
X-8344000Y54221000D01*
X-8350000Y54180000D01*
X-8357000Y54139000D01*
X-8367000Y54098000D01*
X-8379000Y54058000D01*
X-8393000Y54018000D01*
X-8409000Y53980000D01*
X-8427000Y53942000D01*
X-8447000Y53905000D01*
X-8469000Y53869000D01*
X-8493000Y53835000D01*
X-8518000Y53802000D01*
X-8545000Y53770000D01*
X-8574000Y53739000D01*
X-8605000Y53710000D01*
X-8637000Y53683000D01*
X-8670000Y53658000D01*
X-8704000Y53634000D01*
X-8740000Y53612000D01*
X-8777000Y53592000D01*
X-8815000Y53574000D01*
X-8853000Y53558000D01*
X-8893000Y53544000D01*
X-8933000Y53532000D01*
X-8974000Y53522000D01*
X-9015000Y53515000D01*
X-9056000Y53509000D01*
X-9098000Y53506000D01*
X-9140000Y53505000D01*
X-11540000Y53505000D01*
X-11540000Y55105000D01*
X-9140000Y55105000D01*
X-9098000Y55104000D01*
G36*
X-9098000Y55104000D02*
G01*
X-9056000Y55101000D01*
X-9015000Y55095000D01*
X-8974000Y55088000D01*
X-8933000Y55078000D01*
X-8893000Y55066000D01*
X-8853000Y55052000D01*
X-8815000Y55036000D01*
X-8777000Y55018000D01*
X-8740000Y54998000D01*
X-8704000Y54976000D01*
X-8670000Y54952000D01*
X-8637000Y54927000D01*
X-8605000Y54900000D01*
X-8574000Y54871000D01*
X-8545000Y54840000D01*
X-8518000Y54808000D01*
X-8493000Y54775000D01*
X-8469000Y54741000D01*
X-8447000Y54705000D01*
X-8427000Y54668000D01*
X-8409000Y54630000D01*
X-8393000Y54592000D01*
X-8379000Y54552000D01*
X-8367000Y54512000D01*
X-8357000Y54471000D01*
X-8350000Y54430000D01*
X-8344000Y54389000D01*
X-8341000Y54347000D01*
X-8340000Y54305000D01*
X-8341000Y54263000D01*
X-8344000Y54221000D01*
X-8350000Y54180000D01*
X-8357000Y54139000D01*
X-8367000Y54098000D01*
X-8379000Y54058000D01*
X-8393000Y54018000D01*
X-8409000Y53980000D01*
X-8427000Y53942000D01*
X-8447000Y53905000D01*
X-8469000Y53869000D01*
X-8493000Y53835000D01*
X-8518000Y53802000D01*
X-8545000Y53770000D01*
X-8574000Y53739000D01*
X-8605000Y53710000D01*
X-8637000Y53683000D01*
X-8670000Y53658000D01*
X-8704000Y53634000D01*
X-8740000Y53612000D01*
X-8777000Y53592000D01*
X-8815000Y53574000D01*
X-8853000Y53558000D01*
X-8893000Y53544000D01*
X-8933000Y53532000D01*
X-8974000Y53522000D01*
X-9015000Y53515000D01*
X-9056000Y53509000D01*
X-9098000Y53506000D01*
X-9140000Y53505000D01*
X-11540000Y53505000D01*
X-11540000Y55105000D01*
X-9140000Y55105000D01*
X-9098000Y55104000D01*
G37*
%TD*%
D11*
%TO.C,C2*%
X-40600000Y43600000D03*
X-40600000Y41525000D03*
%TD*%
D12*
%TO.C,U29*%
X43515000Y-33225000D03*
X44785000Y-33225000D03*
X46055000Y-33225000D03*
X47325000Y-33225000D03*
X48595000Y-33225000D03*
X49865000Y-33225000D03*
X51135000Y-33225000D03*
X52405000Y-33225000D03*
X53675000Y-33225000D03*
X54945000Y-33225000D03*
X56215000Y-33225000D03*
X57485000Y-33225000D03*
X57485000Y-23925000D03*
X56215000Y-23925000D03*
X54945000Y-23925000D03*
X53675000Y-23925000D03*
X52405000Y-23925000D03*
X51135000Y-23925000D03*
X49865000Y-23925000D03*
X48595000Y-23925000D03*
X47325000Y-23925000D03*
X46055000Y-23925000D03*
X44785000Y-23925000D03*
X43515000Y-23925000D03*
%TD*%
%TO.C,U30*%
X43515000Y-52225000D03*
X44785000Y-52225000D03*
X46055000Y-52225000D03*
X47325000Y-52225000D03*
X48595000Y-52225000D03*
X49865000Y-52225000D03*
X51135000Y-52225000D03*
X52405000Y-52225000D03*
X53675000Y-52225000D03*
X54945000Y-52225000D03*
X56215000Y-52225000D03*
X57485000Y-52225000D03*
X57485000Y-42925000D03*
X56215000Y-42925000D03*
X54945000Y-42925000D03*
X53675000Y-42925000D03*
X52405000Y-42925000D03*
X51135000Y-42925000D03*
X49865000Y-42925000D03*
X48595000Y-42925000D03*
X47325000Y-42925000D03*
X46055000Y-42925000D03*
X44785000Y-42925000D03*
X43515000Y-42925000D03*
%TD*%
D13*
%TO.C,C16*%
X38000000Y-15225000D03*
X41000000Y-15225000D03*
%TD*%
D12*
%TO.C,U14*%
X-57060000Y-33225000D03*
X-55790000Y-33225000D03*
X-54520000Y-33225000D03*
X-53250000Y-33225000D03*
X-51980000Y-33225000D03*
X-50710000Y-33225000D03*
X-49440000Y-33225000D03*
X-48170000Y-33225000D03*
X-46900000Y-33225000D03*
X-45630000Y-33225000D03*
X-44360000Y-33225000D03*
X-43090000Y-33225000D03*
X-43090000Y-23925000D03*
X-44360000Y-23925000D03*
X-45630000Y-23925000D03*
X-46900000Y-23925000D03*
X-48170000Y-23925000D03*
X-49440000Y-23925000D03*
X-50710000Y-23925000D03*
X-51980000Y-23925000D03*
X-53250000Y-23925000D03*
X-54520000Y-23925000D03*
X-55790000Y-23925000D03*
X-57060000Y-23925000D03*
%TD*%
D14*
%TO.C,R4*%
X-38500000Y-13475000D03*
X-38500000Y-15475000D03*
%TD*%
D11*
%TO.C,C23*%
X60000000Y-32400000D03*
X60000000Y-34475000D03*
%TD*%
D12*
%TO.C,U5*%
X-57085000Y23775000D03*
X-55815000Y23775000D03*
X-54545000Y23775000D03*
X-53275000Y23775000D03*
X-52005000Y23775000D03*
X-50735000Y23775000D03*
X-49465000Y23775000D03*
X-48195000Y23775000D03*
X-46925000Y23775000D03*
X-45655000Y23775000D03*
X-44385000Y23775000D03*
X-43115000Y23775000D03*
X-43115000Y33075000D03*
X-44385000Y33075000D03*
X-45655000Y33075000D03*
X-46925000Y33075000D03*
X-48195000Y33075000D03*
X-49465000Y33075000D03*
X-50735000Y33075000D03*
X-52005000Y33075000D03*
X-53275000Y33075000D03*
X-54545000Y33075000D03*
X-55815000Y33075000D03*
X-57085000Y33075000D03*
%TD*%
D11*
%TO.C,C22*%
X60000000Y-13400000D03*
X60000000Y-15475000D03*
%TD*%
D14*
%TO.C,R3*%
X-38500000Y5525000D03*
X-38500000Y3525000D03*
%TD*%
D13*
%TO.C,C9*%
X-62600000Y-53225000D03*
X-59600000Y-53225000D03*
%TD*%
%TO.C,C18*%
X38000000Y-34225000D03*
X41000000Y-34225000D03*
%TD*%
D14*
%TO.C,R1*%
X-38450000Y43525000D03*
X-38450000Y41525000D03*
%TD*%
D12*
%TO.C,U15*%
X-57060000Y-52225000D03*
X-55790000Y-52225000D03*
X-54520000Y-52225000D03*
X-53250000Y-52225000D03*
X-51980000Y-52225000D03*
X-50710000Y-52225000D03*
X-49440000Y-52225000D03*
X-48170000Y-52225000D03*
X-46900000Y-52225000D03*
X-45630000Y-52225000D03*
X-44360000Y-52225000D03*
X-43090000Y-52225000D03*
X-43090000Y-42925000D03*
X-44360000Y-42925000D03*
X-45630000Y-42925000D03*
X-46900000Y-42925000D03*
X-48170000Y-42925000D03*
X-49440000Y-42925000D03*
X-50710000Y-42925000D03*
X-51980000Y-42925000D03*
X-53250000Y-42925000D03*
X-54520000Y-42925000D03*
X-55790000Y-42925000D03*
X-57060000Y-42925000D03*
%TD*%
D13*
%TO.C,C20*%
X38000000Y-53225000D03*
X41000000Y-53225000D03*
%TD*%
D14*
%TO.C,R7*%
X62100000Y43525000D03*
X62100000Y41525000D03*
%TD*%
D13*
%TO.C,C1*%
X-62600000Y41775000D03*
X-59600000Y41775000D03*
%TD*%
D15*
%TO.C,D1*%
X-14150000Y47375000D03*
X-14150000Y51775000D03*
%TD*%
D12*
%TO.C,U27*%
X43515000Y4775000D03*
X44785000Y4775000D03*
X46055000Y4775000D03*
X47325000Y4775000D03*
X48595000Y4775000D03*
X49865000Y4775000D03*
X51135000Y4775000D03*
X52405000Y4775000D03*
X53675000Y4775000D03*
X54945000Y4775000D03*
X56215000Y4775000D03*
X57485000Y4775000D03*
X57485000Y14075000D03*
X56215000Y14075000D03*
X54945000Y14075000D03*
X53675000Y14075000D03*
X52405000Y14075000D03*
X51135000Y14075000D03*
X49865000Y14075000D03*
X48595000Y14075000D03*
X47325000Y14075000D03*
X46055000Y14075000D03*
X44785000Y14075000D03*
X43515000Y14075000D03*
%TD*%
%TO.C,U1*%
X-57085000Y42775000D03*
X-55815000Y42775000D03*
X-54545000Y42775000D03*
X-53275000Y42775000D03*
X-52005000Y42775000D03*
X-50735000Y42775000D03*
X-49465000Y42775000D03*
X-48195000Y42775000D03*
X-46925000Y42775000D03*
X-45655000Y42775000D03*
X-44385000Y42775000D03*
X-43115000Y42775000D03*
X-43115000Y52075000D03*
X-44385000Y52075000D03*
X-45655000Y52075000D03*
X-46925000Y52075000D03*
X-48195000Y52075000D03*
X-49465000Y52075000D03*
X-50735000Y52075000D03*
X-52005000Y52075000D03*
X-53275000Y52075000D03*
X-54545000Y52075000D03*
X-55815000Y52075000D03*
X-57085000Y52075000D03*
%TD*%
%TO.C,U28*%
X43515000Y-14225000D03*
X44785000Y-14225000D03*
X46055000Y-14225000D03*
X47325000Y-14225000D03*
X48595000Y-14225000D03*
X49865000Y-14225000D03*
X51135000Y-14225000D03*
X52405000Y-14225000D03*
X53675000Y-14225000D03*
X54945000Y-14225000D03*
X56215000Y-14225000D03*
X57485000Y-14225000D03*
X57485000Y-4925000D03*
X56215000Y-4925000D03*
X54945000Y-4925000D03*
X53675000Y-4925000D03*
X52405000Y-4925000D03*
X51135000Y-4925000D03*
X49865000Y-4925000D03*
X48595000Y-4925000D03*
X47325000Y-4925000D03*
X46055000Y-4925000D03*
X44785000Y-4925000D03*
X43515000Y-4925000D03*
%TD*%
D11*
%TO.C,C24*%
X60000000Y-51400000D03*
X60000000Y-53475000D03*
%TD*%
D12*
%TO.C,U13*%
X-57060000Y-14225000D03*
X-55790000Y-14225000D03*
X-54520000Y-14225000D03*
X-53250000Y-14225000D03*
X-51980000Y-14225000D03*
X-50710000Y-14225000D03*
X-49440000Y-14225000D03*
X-48170000Y-14225000D03*
X-46900000Y-14225000D03*
X-45630000Y-14225000D03*
X-44360000Y-14225000D03*
X-43090000Y-14225000D03*
X-43090000Y-4925000D03*
X-44360000Y-4925000D03*
X-45630000Y-4925000D03*
X-46900000Y-4925000D03*
X-48170000Y-4925000D03*
X-49440000Y-4925000D03*
X-50710000Y-4925000D03*
X-51980000Y-4925000D03*
X-53250000Y-4925000D03*
X-54520000Y-4925000D03*
X-55790000Y-4925000D03*
X-57060000Y-4925000D03*
%TD*%
D14*
%TO.C,R11*%
X62150000Y-32475000D03*
X62150000Y-34475000D03*
%TD*%
D11*
%TO.C,C10*%
X-40600000Y-13400000D03*
X-40600000Y-15475000D03*
%TD*%
D13*
%TO.C,C5*%
X-62600000Y3775000D03*
X-59600000Y3775000D03*
%TD*%
D12*
%TO.C,U8*%
X-57060000Y4775000D03*
X-55790000Y4775000D03*
X-54520000Y4775000D03*
X-53250000Y4775000D03*
X-51980000Y4775000D03*
X-50710000Y4775000D03*
X-49440000Y4775000D03*
X-48170000Y4775000D03*
X-46900000Y4775000D03*
X-45630000Y4775000D03*
X-44360000Y4775000D03*
X-43090000Y4775000D03*
X-43090000Y14075000D03*
X-44360000Y14075000D03*
X-45630000Y14075000D03*
X-46900000Y14075000D03*
X-48170000Y14075000D03*
X-49440000Y14075000D03*
X-50710000Y14075000D03*
X-51980000Y14075000D03*
X-53250000Y14075000D03*
X-54520000Y14075000D03*
X-55790000Y14075000D03*
X-57060000Y14075000D03*
%TD*%
D13*
%TO.C,C8*%
X-62600000Y-34225000D03*
X-59600000Y-34225000D03*
%TD*%
%TO.C,C14*%
X38000000Y22775000D03*
X41000000Y22775000D03*
%TD*%
%TO.C,C7*%
X-62600000Y-15225000D03*
X-59600000Y-15225000D03*
%TD*%
D16*
%TO.C,Q1*%
X50000Y-32525000D03*
X1000000Y-30425000D03*
X-900000Y-30425000D03*
%TD*%
D14*
%TO.C,R6*%
X-38500000Y-51475000D03*
X-38500000Y-53475000D03*
%TD*%
D13*
%TO.C,C13*%
X38000000Y41775000D03*
X41000000Y41775000D03*
%TD*%
D11*
%TO.C,C4*%
X-40600000Y24600000D03*
X-40600000Y22525000D03*
%TD*%
D14*
%TO.C,R12*%
X62150000Y-51475000D03*
X62150000Y-53475000D03*
%TD*%
%TO.C,R2*%
X-38500000Y24525000D03*
X-38500000Y22525000D03*
%TD*%
D13*
%TO.C,C15*%
X38000000Y3775000D03*
X41000000Y3775000D03*
%TD*%
D11*
%TO.C,C21*%
X60000000Y5600000D03*
X60000000Y3525000D03*
%TD*%
%TO.C,C19*%
X60000000Y24600000D03*
X60000000Y22525000D03*
%TD*%
%TO.C,C11*%
X-40600000Y-32400000D03*
X-40600000Y-34475000D03*
%TD*%
%TO.C,C17*%
X60000000Y43600000D03*
X60000000Y41525000D03*
%TD*%
D14*
%TO.C,R9*%
X62150000Y5525000D03*
X62150000Y3525000D03*
%TD*%
D11*
%TO.C,C6*%
X-40600000Y5600000D03*
X-40600000Y3525000D03*
%TD*%
D12*
%TO.C,U25*%
X43515000Y42775000D03*
X44785000Y42775000D03*
X46055000Y42775000D03*
X47325000Y42775000D03*
X48595000Y42775000D03*
X49865000Y42775000D03*
X51135000Y42775000D03*
X52405000Y42775000D03*
X53675000Y42775000D03*
X54945000Y42775000D03*
X56215000Y42775000D03*
X57485000Y42775000D03*
X57485000Y52075000D03*
X56215000Y52075000D03*
X54945000Y52075000D03*
X53675000Y52075000D03*
X52405000Y52075000D03*
X51135000Y52075000D03*
X49865000Y52075000D03*
X48595000Y52075000D03*
X47325000Y52075000D03*
X46055000Y52075000D03*
X44785000Y52075000D03*
X43515000Y52075000D03*
%TD*%
%TO.C,U26*%
X43515000Y23775000D03*
X44785000Y23775000D03*
X46055000Y23775000D03*
X47325000Y23775000D03*
X48595000Y23775000D03*
X49865000Y23775000D03*
X51135000Y23775000D03*
X52405000Y23775000D03*
X53675000Y23775000D03*
X54945000Y23775000D03*
X56215000Y23775000D03*
X57485000Y23775000D03*
X57485000Y33075000D03*
X56215000Y33075000D03*
X54945000Y33075000D03*
X53675000Y33075000D03*
X52405000Y33075000D03*
X51135000Y33075000D03*
X49865000Y33075000D03*
X48595000Y33075000D03*
X47325000Y33075000D03*
X46055000Y33075000D03*
X44785000Y33075000D03*
X43515000Y33075000D03*
%TD*%
D14*
%TO.C,R8*%
X62100000Y24525000D03*
X62100000Y22525000D03*
%TD*%
D13*
%TO.C,C3*%
X-62600000Y22775000D03*
X-59600000Y22775000D03*
%TD*%
D14*
%TO.C,R10*%
X62150000Y-13475000D03*
X62150000Y-15475000D03*
%TD*%
%TO.C,R5*%
X-38500000Y-32475000D03*
X-38500000Y-34475000D03*
%TD*%
D11*
%TO.C,C12*%
X-40600000Y-51400000D03*
X-40600000Y-53475000D03*
%TD*%
M02*
